<svg width="675mm" height="114.86mm" version="1.1" viewBox="0 0 675 114.86" xmlns="http://www.w3.org/2000/svg"><g transform="translate(178.75 -38.869)"><g fill="none" stroke="#000" stroke-linejoin="bevel" stroke-width="2.73"><polyline class="StaffLines" transform="matrix(.26458 0 0 .26458 -235 -91.112)" points="212.6 634.25 2763.8 634.25"/><polyline class="StaffLines" transform="matrix(.26458 0 0 .26458 -235 -91.112)" points="212.6 659.06 2763.8 659.06"/><polyline class="StaffLines" transform="matrix(.26458 0 0 .26458 -235 -91.112)" points="212.6 683.86 2763.8 683.86"/><polyline class="StaffLines" transform="matrix(.26458 0 0 .26458 -235 -91.112)" points="212.6 708.66 2763.8 708.66"/><polyline class="StaffLines" transform="matrix(.26458 0 0 .26458 -235 -91.112)" points="212.6 733.46 2763.8 733.46"/></g><g fill="#7570b3" fill-rule="evenodd" stroke="#7570b3" stroke-linecap="round" stroke-linejoin="round" stroke-width=".46038"><path class="SlurSegment" d="m-53.216 85.56c1.9701-8.1981 11.309-12.3 18.679-8.2031-6.6305-2.4141-15.97 1.6875-18.679 8.2031"/><path class="SlurSegment" d="m-9.6249 77.357c8.776-5.6867 21.232-1.5851 24.912 8.2031-4.2548-8.0431-16.711-12.145-24.912-8.2031"/><path class="SlurSegment" d="m46.432 85.56c-0.039687-9.6496 9.3001-17.032 18.68-14.766-8.2391-0.82524-17.579 6.5577-18.68 14.766"/><path class="SlurSegment" d="m90.024 70.794c10.668-3.8021 23.125 3.5806 24.911 14.766-2.7226-9.6041-15.179-16.987-24.911-14.766"/><path class="SlurSegment" d="m139.85 77.357c4.1778-9.4192 16.634-12.701 24.913-6.5625-7.8105-4.3611-20.267-1.08-24.913 6.5625"/><path class="SlurSegment" d="m189.67 70.794c8.2788-6.1381 20.733-2.8567 24.913 6.5625-4.6487-7.6425-17.103-10.924-24.913-6.5625"/></g><g fill="#d95f02"><g fill-rule="evenodd" stroke="#d95f02" stroke-linecap="round" stroke-linejoin="round" stroke-width=".46038"><path class="SlurSegment" d="m258.07 78.341c4.4715-10.109 17.997-13.883 27.054-7.547-8.5646-4.5656-22.09-0.79216-27.054 7.547"/><path class="SlurSegment" d="m345.28 78.341c3.2861-4.9956 10.512-5.4877 14.446-0.98451-3.81-2.6699-11.033-2.1778-14.446 0.98451"/><path class="SlurSegment" d="m416.12 77.357c3.1221-8.4624 13.626-11.744 21.011-6.5625-6.8368-3.4271-17.341-0.14605-21.011 6.5625"/></g><g stroke="#000" stroke-linejoin="bevel"><g stroke-width="4.46"><polyline class="BarLine" transform="matrix(.26458 0 0 .26458 -235 -91.112)" points="604.23 632.89 604.23 734.83"/><polyline class="BarLine" transform="matrix(.26458 0 0 .26458 -235 -91.112)" points="1779.5 632.89 1779.5 734.83"/><polyline class="BarLine" transform="matrix(.26458 0 0 .26458 -235 -91.112)" points="2739.6 632.89 2739.6 734.83"/></g><polyline class="BarLine" transform="matrix(.26458 0 0 .26458 -235 -91.112)" points="2757 632.89 2757 734.83" stroke-width="13.64"/><g stroke-width="3.97"><polyline class="LedgerLine" transform="matrix(.26458 0 0 .26458 -235 -91.112)" points="431.74 758.27 481.34 758.27"/><polyline class="LedgerLine" transform="matrix(.26458 0 0 .26458 -235 -91.112)" points="638.7 758.27 688.3 758.27"/><polyline class="LedgerLine" transform="matrix(.26458 0 0 .26458 -235 -91.112)" points="921.17 758.27 970.77 758.27"/><polyline class="LedgerLine" transform="matrix(.26458 0 0 .26458 -235 -91.112)" points="1015.3 758.27 1064.9 758.27"/><polyline class="LedgerLine" transform="matrix(.26458 0 0 .26458 -235 -91.112)" points="1297.8 758.27 1347.4 758.27"/><polyline class="LedgerLine" transform="matrix(.26458 0 0 .26458 -235 -91.112)" points="1814 758.27 1863.6 758.27"/><polyline class="LedgerLine" transform="matrix(.26458 0 0 .26458 -235 -91.112)" points="2143.6 758.27 2193.2 758.27"/></g><polyline class="Stem" transform="matrix(.26458 0 0 .26458 -235 -91.112)" points="471.3 767.49 471.3 569.14" stroke-width="2.73"/></g><g stroke="#7570b3" stroke-linejoin="bevel" stroke-width="2.73"><polyline class="Stem" transform="matrix(.26458 0 0 .26458 -235 -91.112)" points="678.26 767.49 678.26 634.25"/><polyline class="Stem" transform="matrix(.26458 0 0 .26458 -235 -91.112)" points="742.9 662.39 742.9 742.77"/><polyline class="Stem" transform="matrix(.26458 0 0 .26458 -235 -91.112)" points="837.06 662.39 837.06 742.77"/><polyline class="Stem" transform="matrix(.26458 0 0 .26458 -235 -91.112)" points="960.72 767.49 960.72 634.25"/><polyline class="Stem" transform="matrix(.26458 0 0 .26458 -235 -91.112)" points="1054.9 767.49 1054.9 634.25"/><polyline class="Stem" transform="matrix(.26458 0 0 .26458 -235 -91.112)" points="1119.5 637.58 1119.5 742.77"/><polyline class="Stem" transform="matrix(.26458 0 0 .26458 -235 -91.112)" points="1213.7 637.58 1213.7 742.77"/><polyline class="Stem" transform="matrix(.26458 0 0 .26458 -235 -91.112)" points="1337.4 767.49 1337.4 634.25"/><polyline class="Stem" transform="matrix(.26458 0 0 .26458 -235 -91.112)" points="1402 662.39 1402 742.77"/><polyline class="Stem" transform="matrix(.26458 0 0 .26458 -235 -91.112)" points="1496.2 637.58 1496.2 742.77"/><polyline class="Stem" transform="matrix(.26458 0 0 .26458 -235 -91.112)" points="1590.3 637.58 1590.3 742.77"/><polyline class="Stem" transform="matrix(.26458 0 0 .26458 -235 -91.112)" points="1684.5 662.39 1684.5 742.77"/></g><g stroke="#d95f02" stroke-linejoin="bevel" stroke-width="2.73"><polyline class="Stem" transform="matrix(.26458 0 0 .26458 -235 -91.112)" points="1853.5 767.49 1853.5 634.25"/><polyline class="Stem" transform="matrix(.26458 0 0 .26458 -235 -91.112)" points="1951.1 637.58 1951.1 742.77"/><polyline class="Stem" transform="matrix(.26458 0 0 .26458 -235 -91.112)" points="2183.1 767.49 2183.1 634.25"/><polyline class="Stem" transform="matrix(.26458 0 0 .26458 -235 -91.112)" points="2233 662.39 2233 742.77"/><polyline class="Stem" transform="matrix(.26458 0 0 .26458 -235 -91.112)" points="2446.2 662.39 2446.2 745.87"/><polyline class="Stem" transform="matrix(.26458 0 0 .26458 -235 -91.112)" points="2525.6 637.58 2525.6 742.77"/></g></g><g stroke-width=".2625"><path class="Note" d="m-110.2 110.67c-0.47169-0.86954-1.4684-1.3412-2.6783-1.3412-0.89004 0-1.8621 0.2625-2.8096 0.76287-1.7309 0.91876-2.7809 2.465-2.7809 3.8063 0 0.36504 0.0779 0.73418 0.2625 1.0746 0.47168 0.86544 1.4684 1.3125 2.6783 1.3125 0.89006 0 1.8621-0.23379 2.8096-0.73419 1.7308-0.91875 2.7808-2.4691 2.7808-3.8062 0-0.36914-0.0779-0.73418-0.2625-1.0746"/><path class="Note" d="m-110.2 97.544c-0.47169-0.86954-1.4684-1.3412-2.6783-1.3412-0.89004 0-1.8621 0.2625-2.8096 0.76288-1.7309 0.91876-2.7809 2.465-2.7809 3.8063 0 0.36504 0.0779 0.73418 0.2625 1.0746 0.47168 0.86545 1.4684 1.3125 2.6783 1.3125 0.89006 0 1.8621-0.23378 2.8096-0.73419 1.7308-0.91875 2.7808-2.4691 2.7808-3.8062 0-0.36914-0.0779-0.73418-0.2625-1.0746"/><path class="Note" d="m-110.2 81.138c-0.47169-0.86954-1.4684-1.3412-2.6783-1.3412-0.89004 0-1.8621 0.2625-2.8096 0.76288-1.7309 0.91876-2.7809 2.465-2.7809 3.8063 0 0.36504 0.0779 0.73418 0.2625 1.0746 0.47168 0.86544 1.4684 1.3125 2.6783 1.3125 0.89006 0 1.8621-0.23378 2.8096-0.73419 1.7308-0.91875 2.7808-2.4691 2.7808-3.8062 0-0.36914-0.0779-0.73418-0.2625-1.0746"/><path class="Note" d="m-110.2 74.576c-0.47169-0.86954-1.4684-1.3412-2.6783-1.3412-0.89004 0-1.8621 0.2625-2.8096 0.76288-1.7309 0.91876-2.7809 2.465-2.7809 3.8063 0 0.36504 0.0779 0.73418 0.2625 1.0746 0.47168 0.86544 1.4684 1.3125 2.6783 1.3125 0.89006 0 1.8621-0.23378 2.8096-0.73419 1.7308-0.91875 2.7808-2.4691 2.7808-3.8062 0-0.36914-0.0779-0.73418-0.2625-1.0746"/></g><g fill="#7570b3" stroke-width=".2625"><path class="Note" d="m-55.445 110.67c-0.47169-0.86954-1.4683-1.3412-2.6783-1.3412-0.89003 0-1.8621 0.2625-2.8096 0.76287-1.7309 0.91876-2.7809 2.465-2.7809 3.8063 0 0.36504 0.07793 0.73418 0.2625 1.0746 0.47168 0.86544 1.4684 1.3125 2.6783 1.3125 0.89006 0 1.8621-0.23379 2.8096-0.73419 1.7308-0.91875 2.7808-2.4691 2.7808-3.8062 0-0.36914-0.07794-0.73418-0.2625-1.0746"/><path class="Note" d="m-55.445 97.544c-0.47169-0.86954-1.4683-1.3412-2.6783-1.3412-0.89003 0-1.8621 0.2625-2.8096 0.76288-1.7309 0.91876-2.7809 2.465-2.7809 3.8063 0 0.36504 0.07793 0.73418 0.2625 1.0746 0.47168 0.86545 1.4684 1.3125 2.6783 1.3125 0.89006 0 1.8621-0.23378 2.8096-0.73419 1.7308-0.91875 2.7808-2.4691 2.7808-3.8062 0-0.36914-0.07794-0.73418-0.2625-1.0746"/><path class="Note" d="m-30.533 81.138c-0.47169-0.86954-1.4683-1.3412-2.6783-1.3412-0.89003 0-1.8621 0.2625-2.8096 0.76288-1.7309 0.91876-2.7809 2.465-2.7809 3.8063 0 0.36504 0.07793 0.73418 0.2625 1.0746 0.47168 0.86544 1.4684 1.3125 2.6783 1.3125 0.89006 0 1.8621-0.23378 2.8096-0.73419 1.7308-0.91875 2.7808-2.4691 2.7808-3.8062 0-0.36914-0.07794-0.73418-0.2625-1.0746"/><path class="Note" d="m-5.6207 81.138c-0.47169-0.86954-1.4683-1.3412-2.6783-1.3412-0.89003 0-1.8621 0.2625-2.8096 0.76288-1.7309 0.91876-2.7809 2.465-2.7809 3.8063 0 0.36504 0.07793 0.73418 0.2625 1.0746 0.47168 0.86544 1.4684 1.3125 2.6783 1.3125 0.89006 0 1.8621-0.23378 2.8096-0.73419 1.7308-0.91875 2.7808-2.4691 2.7808-3.8062 0-0.36914-0.077936-0.73418-0.2625-1.0746"/><path class="Note" d="m19.291 110.67c-0.47169-0.86954-1.4683-1.3412-2.6783-1.3412-0.89003 0-1.8621 0.2625-2.8096 0.76287-1.7309 0.91876-2.7809 2.465-2.7809 3.8063 0 0.36504 0.07793 0.73418 0.2625 1.0746 0.47168 0.86544 1.4684 1.3125 2.6783 1.3125 0.89006 0 1.8621-0.23379 2.8096-0.73419 1.7308-0.91875 2.7808-2.4691 2.7808-3.8062 0-0.36914-0.07794-0.73418-0.2625-1.0746"/><path class="Note" d="m19.291 97.544c-0.47169-0.86954-1.4683-1.3412-2.6783-1.3412-0.89003 0-1.8621 0.2625-2.8096 0.76288-1.7309 0.91876-2.7809 2.465-2.7809 3.8063 0 0.36504 0.07793 0.73418 0.2625 1.0746 0.47168 0.86545 1.4684 1.3125 2.6783 1.3125 0.89006 0 1.8621-0.23378 2.8096-0.73419 1.7308-0.91875 2.7808-2.4691 2.7808-3.8062 0-0.36914-0.07794-0.73418-0.2625-1.0746"/><path class="Note" d="m44.204 110.67c-0.47169-0.86954-1.4683-1.3412-2.6783-1.3412-0.89003 0-1.8621 0.2625-2.8096 0.76287-1.7309 0.91876-2.7809 2.465-2.7809 3.8063 0 0.36504 0.07793 0.73418 0.2625 1.0746 0.47168 0.86544 1.4684 1.3125 2.6783 1.3125 0.89006 0 1.8621-0.23379 2.8096-0.73419 1.7308-0.91875 2.7808-2.4691 2.7808-3.8062 0-0.36914-0.07794-0.73418-0.2625-1.0746"/><path class="Note" d="m44.204 97.544c-0.47169-0.86954-1.4683-1.3412-2.6783-1.3412-0.89003 0-1.8621 0.2625-2.8096 0.76288-1.7309 0.91876-2.7809 2.465-2.7809 3.8063 0 0.36504 0.07793 0.73418 0.2625 1.0746 0.47168 0.86545 1.4684 1.3125 2.6783 1.3125 0.89006 0 1.8621-0.23378 2.8096-0.73419 1.7308-0.91875 2.7808-2.4691 2.7808-3.8062 0-0.36914-0.07794-0.73418-0.2625-1.0746"/><path class="Note" d="m69.115 81.138c-0.47169-0.86954-1.4683-1.3412-2.6783-1.3412-0.89003 0-1.8621 0.2625-2.8096 0.76288-1.7309 0.91876-2.7809 2.465-2.7809 3.8063 0 0.36504 0.07793 0.73418 0.2625 1.0746 0.47168 0.86544 1.4684 1.3125 2.6783 1.3125 0.89006 0 1.8621-0.23378 2.8096-0.73419 1.7308-0.91875 2.7808-2.4691 2.7808-3.8062 0-0.36914-0.07794-0.73418-0.2625-1.0746"/><path class="Note" d="m69.115 74.576c-0.47169-0.86954-1.4683-1.3412-2.6783-1.3412-0.89003 0-1.8621 0.2625-2.8096 0.76288-1.7309 0.91876-2.7809 2.465-2.7809 3.8063 0 0.36504 0.07793 0.73418 0.2625 1.0746 0.47168 0.86544 1.4684 1.3125 2.6783 1.3125 0.89006 0 1.8621-0.23378 2.8096-0.73419 1.7308-0.91875 2.7808-2.4691 2.7808-3.8062 0-0.36914-0.07794-0.73418-0.2625-1.0746"/><path class="Note" d="m94.028 81.138c-0.47169-0.86954-1.4683-1.3412-2.6783-1.3412-0.89003 0-1.8621 0.2625-2.8096 0.76288-1.7309 0.91876-2.7809 2.465-2.7809 3.8063 0 0.36504 0.07793 0.73418 0.2625 1.0746 0.47168 0.86544 1.4684 1.3125 2.6783 1.3125 0.89006 0 1.8621-0.23378 2.8096-0.73419 1.7308-0.91875 2.7808-2.4691 2.7808-3.8062 0-0.36914-0.07794-0.73418-0.2625-1.0746"/><path class="Note" d="m94.028 74.576c-0.47169-0.86954-1.4683-1.3412-2.6783-1.3412-0.89003 0-1.8621 0.2625-2.8096 0.76288-1.7309 0.91876-2.7809 2.465-2.7809 3.8063 0 0.36504 0.07793 0.73418 0.2625 1.0746 0.47168 0.86544 1.4684 1.3125 2.6783 1.3125 0.89006 0 1.8621-0.23378 2.8096-0.73419 1.7308-0.91875 2.7808-2.4691 2.7808-3.8062 0-0.36914-0.07794-0.73418-0.2625-1.0746"/><path class="Note" d="m118.94 110.67c-0.47169-0.86954-1.4684-1.3412-2.6783-1.3412-0.89004 0-1.8621 0.2625-2.8096 0.76287-1.7309 0.91876-2.7809 2.465-2.7809 3.8063 0 0.36504 0.0779 0.73418 0.2625 1.0746 0.47168 0.86544 1.4684 1.3125 2.6783 1.3125 0.89006 0 1.8621-0.23379 2.8096-0.73419 1.7308-0.91875 2.7808-2.4691 2.7808-3.8062 0-0.36914-0.0779-0.73418-0.2625-1.0746"/><path class="Note" d="m118.94 97.544c-0.47169-0.86954-1.4684-1.3412-2.6783-1.3412-0.89004 0-1.8621 0.2625-2.8096 0.76288-1.7309 0.91876-2.7809 2.465-2.7809 3.8063 0 0.36504 0.0779 0.73418 0.2625 1.0746 0.47168 0.86545 1.4684 1.3125 2.6783 1.3125 0.89006 0 1.8621-0.23378 2.8096-0.73419 1.7308-0.91875 2.7808-2.4691 2.7808-3.8062 0-0.36914-0.0779-0.73418-0.2625-1.0746"/><path class="Note" d="m143.85 81.138c-0.47169-0.86954-1.4684-1.3412-2.6783-1.3412-0.89004 0-1.8621 0.2625-2.8096 0.76288-1.7309 0.91876-2.7809 2.465-2.7809 3.8063 0 0.36504 0.0779 0.73418 0.2625 1.0746 0.47168 0.86544 1.4684 1.3125 2.6783 1.3125 0.89006 0 1.8621-0.23378 2.8096-0.73419 1.7308-0.91875 2.7808-2.4691 2.7808-3.8062 0-0.36914-0.0779-0.73418-0.2625-1.0746"/><path class="Note" d="m168.76 81.138c-0.47169-0.86954-1.4684-1.3412-2.6783-1.3412-0.89004 0-1.8621 0.2625-2.8096 0.76288-1.7309 0.91876-2.7809 2.465-2.7809 3.8063 0 0.36504 0.0779 0.73418 0.2625 1.0746 0.47168 0.86544 1.4684 1.3125 2.6783 1.3125 0.89006 0 1.8621-0.23378 2.8096-0.73419 1.7308-0.91875 2.7808-2.4691 2.7808-3.8062 0-0.36914-0.0779-0.73418-0.2625-1.0746"/><path class="Note" d="m168.76 74.576c-0.47169-0.86954-1.4684-1.3412-2.6783-1.3412-0.89004 0-1.8621 0.2625-2.8096 0.76288-1.7309 0.91876-2.7809 2.465-2.7809 3.8063 0 0.36504 0.0779 0.73418 0.2625 1.0746 0.47168 0.86544 1.4684 1.3125 2.6783 1.3125 0.89006 0 1.8621-0.23378 2.8096-0.73419 1.7308-0.91875 2.7808-2.4691 2.7808-3.8062 0-0.36914-0.0779-0.73418-0.2625-1.0746"/><path class="Note" d="m193.68 81.138c-0.47169-0.86954-1.4684-1.3412-2.6783-1.3412-0.89004 0-1.8621 0.2625-2.8096 0.76288-1.7309 0.91876-2.7809 2.465-2.7809 3.8063 0 0.36504 0.0779 0.73418 0.2625 1.0746 0.47168 0.86544 1.4684 1.3125 2.6783 1.3125 0.89006 0 1.8621-0.23378 2.8096-0.73419 1.7308-0.91875 2.7808-2.4691 2.7808-3.8062 0-0.36914-0.0779-0.73418-0.2625-1.0746"/><path class="Note" d="m193.68 74.576c-0.47169-0.86954-1.4684-1.3412-2.6783-1.3412-0.89004 0-1.8621 0.2625-2.8096 0.76288-1.7309 0.91876-2.7809 2.465-2.7809 3.8063 0 0.36504 0.0779 0.73418 0.2625 1.0746 0.47168 0.86544 1.4684 1.3125 2.6783 1.3125 0.89006 0 1.8621-0.23378 2.8096-0.73419 1.7308-0.91875 2.7808-2.4691 2.7808-3.8062 0-0.36914-0.0779-0.73418-0.2625-1.0746"/><path class="Note" d="m218.59 81.138c-0.47169-0.86954-1.4684-1.3412-2.6783-1.3412-0.89004 0-1.8621 0.2625-2.8096 0.76288-1.7309 0.91876-2.7809 2.465-2.7809 3.8063 0 0.36504 0.0779 0.73418 0.2625 1.0746 0.47168 0.86544 1.4684 1.3125 2.6783 1.3125 0.89006 0 1.8621-0.23378 2.8096-0.73419 1.7308-0.91875 2.7808-2.4691 2.7808-3.8062 0-0.36914-0.0779-0.73418-0.2625-1.0746"/></g><g fill="#d95f02" stroke-width=".2625"><path class="Note" d="m255.51 110.67c-0.47169-0.86954-1.4684-1.3412-2.6783-1.3412-0.89004 0-1.8621 0.2625-2.8096 0.76287-1.7309 0.91876-2.7809 2.465-2.7809 3.8063 0 0.36504 0.0779 0.73418 0.2625 1.0746 0.47168 0.86544 1.4684 1.3125 2.6783 1.3125 0.89006 0 1.8621-0.23379 2.8096-0.73419 1.7308-0.91875 2.7808-2.4691 2.7808-3.8062 0-0.36914-0.0779-0.73418-0.2625-1.0746"/><path class="Note" d="m255.51 97.544c-0.47169-0.86954-1.4684-1.3412-2.6783-1.3412-0.89004 0-1.8621 0.2625-2.8096 0.76288-1.7309 0.91876-2.7809 2.465-2.7809 3.8063 0 0.36504 0.0779 0.73418 0.2625 1.0746 0.47168 0.86545 1.4684 1.3125 2.6783 1.3125 0.89006 0 1.8621-0.23378 2.8096-0.73419 1.7308-0.91875 2.7808-2.4691 2.7808-3.8062 0-0.36914-0.0779-0.73418-0.2625-1.0746"/><path class="Note" d="m289.12 81.138c-0.47169-0.86954-1.4684-1.3412-2.6783-1.3412-0.89004 0-1.8621 0.2625-2.8096 0.76288-1.7309 0.91876-2.7809 2.465-2.7809 3.8063 0 0.36504 0.0779 0.73418 0.2625 1.0746 0.47168 0.86544 1.4684 1.3125 2.6783 1.3125 0.89006 0 1.8621-0.23378 2.8096-0.73419 1.7308-0.91875 2.7808-2.4691 2.7808-3.8062 0-0.36914-0.0779-0.73418-0.2625-1.0746"/><path class="Note" d="m289.12 74.576c-0.47169-0.86954-1.4684-1.3412-2.6783-1.3412-0.89004 0-1.8621 0.2625-2.8096 0.76288-1.7309 0.91876-2.7809 2.465-2.7809 3.8063 0 0.36504 0.0779 0.73418 0.2625 1.0746 0.47168 0.86544 1.4684 1.3125 2.6783 1.3125 0.89006 0 1.8621-0.23378 2.8096-0.73419 1.7308-0.91875 2.7808-2.4691 2.7808-3.8062 0-0.36914-0.0779-0.73418-0.2625-1.0746"/><path class="Note" d="m342.72 110.67c-0.47169-0.86954-1.4684-1.3412-2.6783-1.3412-0.89004 0-1.8621 0.2625-2.8096 0.76287-1.7309 0.91876-2.7809 2.465-2.7809 3.8063 0 0.36504 0.0779 0.73418 0.2625 1.0746 0.47168 0.86544 1.4684 1.3125 2.6783 1.3125 0.89006 0 1.8621-0.23379 2.8096-0.73419 1.7308-0.91875 2.7808-2.4691 2.7808-3.8062 0-0.36914-0.0779-0.73418-0.2625-1.0746"/><path class="Note" d="m342.72 97.544c-0.47169-0.86954-1.4684-1.3412-2.6783-1.3412-0.89004 0-1.8621 0.2625-2.8096 0.76288-1.7309 0.91876-2.7809 2.465-2.7809 3.8063 0 0.36504 0.0779 0.73418 0.2625 1.0746 0.47168 0.86545 1.4684 1.3125 2.6783 1.3125 0.89006 0 1.8621-0.23378 2.8096-0.73419 1.7308-0.91875 2.7808-2.4691 2.7808-3.8062 0-0.36914-0.0779-0.73418-0.2625-1.0746"/><path class="Note" d="m363.73 81.138c-0.47169-0.86954-1.4684-1.3412-2.6783-1.3412-0.89004 0-1.8621 0.2625-2.8096 0.76288-1.7309 0.91876-2.7809 2.465-2.7809 3.8063 0 0.36504 0.0779 0.73418 0.2625 1.0746 0.47168 0.86544 1.4684 1.3125 2.6783 1.3125 0.89006 0 1.8621-0.23378 2.8096-0.73419 1.7308-0.91875 2.7808-2.4691 2.7808-3.8062 0-0.36914-0.0779-0.73418-0.2625-1.0746"/><path class="Note" d="m420.12 81.138c-0.47169-0.86954-1.4684-1.3412-2.6783-1.3412-0.89004 0-1.8621 0.2625-2.8096 0.76288-1.7309 0.91876-2.7809 2.465-2.7809 3.8063 0 0.36504 0.0779 0.73418 0.2625 1.0746 0.47168 0.86544 1.4684 1.3125 2.6783 1.3125 0.89006 0 1.8621-0.23378 2.8096-0.73419 1.7308-0.91875 2.7808-2.4691 2.7808-3.8062 0-0.36914-0.0779-0.73418-0.2625-1.0746"/><path class="Note" d="m441.13 81.138c-0.47169-0.86954-1.4684-1.3412-2.6783-1.3412-0.89004 0-1.8621 0.2625-2.8096 0.76288-1.7309 0.91876-2.7809 2.465-2.7809 3.8063 0 0.36504 0.0779 0.73418 0.2625 1.0746 0.47168 0.86544 1.4684 1.3125 2.6783 1.3125 0.89006 0 1.8621-0.23378 2.8096-0.73419 1.7308-0.91875 2.7808-2.4691 2.7808-3.8062 0-0.36914-0.0779-0.73418-0.2625-1.0746"/><path class="Note" d="m441.13 74.576c-0.47169-0.86954-1.4684-1.3412-2.6783-1.3412-0.89004 0-1.8621 0.2625-2.8096 0.76288-1.7309 0.91876-2.7809 2.465-2.7809 3.8063 0 0.36504 0.0779 0.73418 0.2625 1.0746 0.47168 0.86544 1.4684 1.3125 2.6783 1.3125 0.89006 0 1.8621-0.23378 2.8096-0.73419 1.7308-0.91875 2.7808-2.4691 2.7808-3.8062 0-0.36914-0.0779-0.73418-0.2625-1.0746"/></g><g stroke-width=".2625"><path class="Clef" d="m-156.87 94.833c-0.32403-1.4233-1.0172-2.4281-1.2223-2.6988-0.83671-1.1238-1.8908-1.8703-3.1213-2.2272-0.81622-0.22969-1.6037-0.2625-2.2394-0.21328-0.27481-1.5791-0.53731-3.1213-0.77521-4.5527 1.4315-1.6201 2.383-3.1418 2.9818-4.2697 0.91056-1.7268 1.21-2.9285 1.2264-2.9818 0.45116-1.3699 0.5455-3.392 0.25429-5.5453-0.2625-1.981-0.8121-3.7446-1.4314-4.5977-0.2666-0.37327-0.5455-0.56621-0.81622-0.56621-0.31991 0-0.98025 0.32419-1.7391 1.0542-0.60291 0.57409-1.4602 1.5955-2.1328 3.1746-0.7875 1.8539-0.8449 4.3436-0.75056 6.1072 0.0984 1.9113 0.38963 3.4043 0.39375 3.4166 4e-3 0.0246 0.0738 0.41835 0.18866 1.091-0.0574 0.06153-0.12304 0.11896-0.18866 0.18459-0.27072 0.2625-0.58244 0.55781-0.94747 0.92284-0.22559 0.22559-0.47578 0.46347-0.73828 0.71778-2.2148 2.1369-5.574 5.373-5.574 10.402 0 1.2346 0.23789 2.3953 0.70547 3.4494 0.41426 0.94336 1.0172 1.8047 1.7883 2.5594 2.0303 1.9852 4.8111 2.826 6.6609 2.785 0.77519-0.0205 1.4684-0.082 2.0959-0.20097 0.47988 2.5224 0.77929 4.3682 0.7875 5.7709 0.0123 1.7104-0.42247 2.7562-1.4438 3.4822-0.63984 0.45525-1.3781 0.70547-2.1902 0.74237-0.68085 0.0328-1.2756-0.0902-1.6488-0.19687h-4e-3s-0.0738-0.0246-0.0779-0.0738c-4e-3 -0.0492 0.0902-0.0615 0.0902-0.0615h8e-3c0.5045-0.11484 1.4396-0.43887 2.059-1.3043 0.47168-0.66444 0.70137-1.8785 0.2174-2.9121-0.29122-0.62756-0.94747-1.4028-2.424-1.5217-0.65625-0.0533-1.251 0.082-1.776 0.39785-0.47578 0.283-0.86953 0.71368-1.1443 1.2387-0.64394 1.2346-0.525 2.7398 0.29531 3.7488 0.77928 0.95156 1.9892 1.5586 3.4166 1.7103 0.22559 0.0246 0.44706 0.0328 0.66856 0.0328 1.1648 0 2.3174-0.31581 3.2566-0.89412 0.95978-0.67675 1.5176-1.7227 1.694-3.1992 0.14766-1.2182 0.0451-2.7727-0.31994-4.8932-0.0943-0.54962-0.23787-1.3453-0.41015-2.3297 1.5094-0.5045 2.6004-1.4438 3.5889-2.9818 0.86544-1.5053 1.1115-3.109 0.73828-4.766m-8.9824 6.8824c-1.2182-0.31994-2.383-0.97619-3.3674-1.899-0.34453-0.31991-0.83672-0.89004-1.2222-1.7801-0.35684-0.83262-0.53322-1.735-0.51681-2.6742 0.0164-1.2346 0.36094-2.502 1.0172-3.757 0.767-1.4643 1.9646-2.9162 3.5561-4.3148 0.38144-0.33632 0.74237-0.67266 1.0787-1.009 0.20097 1.1197 0.41834 2.3502 0.64803 3.6299-1.009 0.33222-2.2558 1.1607-3.0721 2.6455-0.93107 1.7227-0.89416 3.1746-0.70138 4.0893 0.2461 1.1689 0.91056 2.1574 1.817 2.707 0.24609 0.14766 1.3289 0.70547 1.8129 0.55372 0.0984-0.02872 0.16818-0.09025 0.20509-0.17637 0.13534-0.30762-0.13535-0.47578-0.54141-0.72598-0.15996-0.09844-0.33634-0.20918-0.525-0.34863-0.87362-0.65215-1.2551-1.8211-0.97206-2.9736 0.15175-0.62754 0.48807-1.1977 0.97206-1.6447 0.43475-0.40605 0.97207-0.69318 1.5955-0.86133 0.53731 2.9531 1.0787 5.8817 1.5094 8.076 0.0328 0.18046 0.0697 0.35681 0.10253 0.53319-1.1484 0.24609-2.2887 0.22149-3.3961-0.0697m2.9736-8.7158c2.7152-0.12303 3.8349 1.8293 4.0688 3.0967 0.12303 0.66856 0.12303 1.8334-0.28303 2.9408-0.30759 0.8326-0.95156 1.9031-2.301 2.4445-0.0164-0.11074-0.0369-0.22559-0.0574-0.33634-0.40606-2.3051-0.91465-5.1926-1.4273-8.1457m-1.9236-18.625c0.46759-1.5053 1.1854-2.3584 1.7104-2.8137 0.45937-0.39787 0.89003-0.58653 1.132-0.58653 0.0369 0 0.0697 0.0082 0.0943 0.01641 0.12306 0.03691 0.2625 0.18456 0.38556 0.41425 0.60703 1.1238 0.41015 2.8875 0.0574 4.0523-0.42656 1.4192-1.1935 2.8916-3.5027 5.4141-0.0451-0.29122-0.0861-0.566-0.12715-0.82441-0.32813-2.1738-0.242-4.0852 0.25019-5.6725"/><path class="KeySig" d="m-137.46 83.763c0.15996-0.02869 0.29121-0.21328 0.29121-0.36913v-1.5504c0-0.20916-0.15996-0.36503-0.36915-0.36503h-0.0533l-0.86544 0.18456v-3.9129h-0.73419v4.0688l-2.3379 0.47169v-3.6996h-0.73418v3.8596l-1.0254 0.20919c-0.15586 0.02462-0.28711 0.20919-0.28711 0.36503v1.575-0.04922c0 0.20918 0.15586 0.36504 0.36914 0.36504h0.0779l0.86543-0.18457v4.3312l-1.0254 0.2133c-0.15586 0.0246-0.28711 0.20916-0.28711 0.36503v1.5217c0 0.21328 0.15586 0.36913 0.36914 0.36913h0.0779l0.86543-0.18456v3.9129h0.73418v-4.0688l2.3379-0.47166v3.6996h0.73419v-3.8596l0.99669-0.18456c0.15996-0.02462 0.29121-0.20919 0.29121-0.36506v-1.5504c0-0.20918-0.15996-0.36504-0.36915-0.36504h-0.0533l-0.86544 0.18047v-4.3312l0.99669-0.18048m-4.0688 5.168v-4.3559l2.3379-0.47168v4.3313l-2.3379 0.49629"/><path class="KeySig" d="m-144.03 73.919c0.15996-0.02869 0.29121-0.21328 0.29121-0.36913v-1.5504c0-0.20916-0.15996-0.36503-0.36915-0.36503h-0.0533l-0.86544 0.18456v-3.9129h-0.73419v4.0688l-2.3379 0.47169v-3.6996h-0.73418v3.8596l-1.0254 0.20919c-0.15586 0.02462-0.28711 0.20919-0.28711 0.36503v1.575-0.04922c0 0.20918 0.15586 0.36504 0.36914 0.36504h0.0779l0.86543-0.18457v4.3312l-1.0254 0.2133c-0.15586 0.0246-0.28711 0.20916-0.28711 0.36503v1.5217c0 0.21328 0.15586 0.36913 0.36914 0.36913h0.0779l0.86543-0.18456v3.9129h0.73418v-4.0688l2.3379-0.47166v3.6996h0.73419v-3.8596l0.99669-0.18456c0.15996-0.02462 0.29121-0.20919 0.29121-0.36506v-1.5504c0-0.20918-0.15996-0.36504-0.36915-0.36504h-0.0533l-0.86544 0.18047v-4.3312l0.99669-0.18048m-4.0688 5.168v-4.3559l2.3379-0.47168v4.3313l-2.3379 0.49629"/></g><g fill="#d95f02" stroke-width=".2625"><path class="Hook" d="m255.97 77.619c-0.0246-0.07793-0.2625-0.99668-0.2625-1.05-0.0246-0.10664-0.18457-0.18457-0.31582-0.18457-0.18457 0-0.34043 0.15996-0.34043 0.34043v5.935c0 0.13125 0.10664 0.23381 0.20918 0.28712 1.1033 0.34044 3.3879 1.7883 5.0941 4.7004 0.47169 0.81212 1.2346 1.9154 1.2346 4.1221 0 1.8908-0.29121 3.8842-0.7629 5.7217-0.0779 0.29122-0.15585 0.55372 0.13125 0.65625 0.28712 0.10665 0.39375-0.10253 0.5004-0.36503 0.94335-2.3133 1.1812-4.7291 1.1812-6.3533v-0.5004c-0.13125-3.3879-2.0754-5.8816-2.0754-5.8816 0.0779 0-2.4158-3.2279-3.1254-4.3312-0.96797-1.4971-1.4438-2.99-1.4684-3.0967"/><path class="Hook" d="m349.61 88.644c-0.0246-1.3658-0.34044-2.7808-1.2592-3.9621-1.2592-1.6283-2.9162-2.4445-3.9129-3.8883-0.99668-1.4437-1.415-4.2492-1.415-4.2492-0.0287-0.18457-0.082-0.31582-0.39375-0.31582-0.31582 0-0.36914 0.13125-0.36914 0.31582v10.053c0 0.05334 0.18457 0.20919 0.36914 0.2625 0.68086 0.2625 2.7563 1.5504 4.3313 3.8842 0.94335 1.4438 1.0992 2.4158 1.0992 3.3592v0.29122c-0.0246 0.65625-0.18047 1.9933-0.57422 3.0433-0.082 0.2379-0.21328 0.57831 0.0492 0.70956 0.2625 0.13125 0.42244-0.15585 0.55369-0.34041 0.47169-0.7629 1.1567-2.1533 1.1567-3.6504 0-0.73419-0.0533-1.3904-0.13125-1.94 0.2625-0.94747 0.49628-2.1287 0.49628-3.3633v-0.20919m-1.8621 0.36915c-0.70959-0.91875-1.4971-1.7596-2.785-3.0475-1.0213-1.0213-1.4971-1.9154-1.6776-2.5963-0.0287-0.05334-0.0287-0.15997-0.0533-0.2379l0.0246 0.10665c1.1812 0.10253 2.785 1.2838 3.7816 2.4938 1.1812 1.415 1.4151 2.5183 1.4151 3.5438 0 0.2625 0 0.49628-0.0246 0.75878-0.15585-0.28712-0.47169-0.75878-0.68085-1.0213"/><path class="Hook" d="m411.84 106.43c0 0.18047 0.082 0.32812 0.38554 0.32812 0.30352 0 0.36094-0.13535 0.38965-0.32812 0 0 0.41016-2.7891 1.4109-4.2451 1.0049-1.456 2.6332-2.2805 3.9006-3.9006 0.92287-1.1731 1.251-2.5799 1.2756-3.9498 0.0246-1.3043-0.22969-2.5676-0.51269-3.5725 0.0902-0.55372 0.13944-1.1936 0.13944-1.94 0-1.4889-0.67675-2.908-1.1607-3.6586-0.12306-0.19688-0.25841-0.47578-0.53322-0.33222-0.27481 0.14354-0.15175 0.46347-0.0656 0.70956 0.38556 1.0582 0.5619 2.3871 0.58243 3.0433 0.0369 1.0459-0.0451 2.0672-1.0951 3.6381-1.5709 2.3461-3.6504 3.6504-4.3313 3.9006-0.17637 0.06153-0.38554 0.18866-0.38554 0.25019v10.057m6.1687-13.511c0.0903 1.2633 0.10665 2.5266-1.374 4.3271-0.99669 1.2059-2.6004 2.3994-3.7776 2.4938l-0.0287 0.11075c0.0164-0.09022 0.0328-0.16816 0.0492-0.22969 0.17227-0.66856 0.65625-1.5832 1.6816-2.6168 1.292-1.2961 2.0713-2.1246 2.7809-3.0475 0.20916-0.27072 0.5086-0.73419 0.66854-1.0377"/></g><g stroke-width=".26458"><path class="StaffText" d="m-149.65 51.04c3.7579 0 5.7753-2.8609 5.7753-5.9079 0-3.3361-2.6416-5.5727-5.6224-5.5727-3.7579 0-5.7753 2.8649-5.7753 5.9118 0 3.3361 2.6419 5.5687 5.6224 5.5687m0.25638-0.67389c-2.8276 0-4.254-2.5921-4.254-5.7423 0-2.6419 1.3229-4.3535 3.8777-4.3535 2.8279 0 4.2706 2.559 4.2706 5.6928 0 2.6583-1.3065 4.4029-3.8944 4.4029m7.1107 0.48763c0.67813 0 0.77735-0.08255 1.3684-0.08255 0.59532 0 0.79799 0.08255 1.4758 0.08255 0.23574 0 0.33893-0.04948 0.33893-0.186 0-0.15293-0.15293-0.20241-0.39264-0.26855-0.55801-0.1696-0.8972-0.3392-0.8972-0.64505v-3.4189c0-1.1369 0.62838-1.4221 1.17-1.4221 0.16959 0 0.3556 0.08282 0.5416 0.15293 0.1696 0.08282 0.33893 0.14896 0.47545 0.14896 0.33894 0 0.65723-0.5416 0.65723-0.88053 0-0.30189-0.3347-0.5416-0.81016-0.5416-0.66145 0-1.4057 0.49186-1.9473 1.1533-0.0164 0-0.0331-0.0164-0.0331-0.03307 0.0331-0.5416 0.0497-1.1533 0.0497-1.2692 0-0.07012-0.0331-0.11986-0.0828-0.11986-0.0537 0-0.11986 0.03307-0.25612 0.11986-0.3556 0.21934-1.0832 0.64082-1.6743 0.82682-0.0704 0.01667-0.1532 0.10345-0.1532 0.20267 0 0.10345 0.0828 0.20664 0.1696 0.22331 0.55801 0.11562 0.69453 0.60775 0.69453 1.2155v3.642c0 0.32253-0.22331 0.5416-0.64479 0.64505-0.25241 0.06615-0.38867 0.09922-0.38867 0.26855 0 0.13652 0.0992 0.186 0.33893 0.186m6.9411-8.785c0.47969 0 0.84772-0.372 0.84772-0.84746 0-0.49186-0.37227-0.86386-0.86413-0.86386-0.47545 0-0.84746 0.372-0.84746 0.86386 0 0.47546 0.38021 0.84746 0.86387 0.84746m-1.3724 8.785c0.66145 0 0.78131-0.08255 1.3724-0.08255 0.59134 0 0.7276 0.08255 1.3727 0.08255 0.21907 0 0.33893-0.04948 0.33893-0.186 0-0.16933-0.20241-0.21908-0.38444-0.26855-0.45059-0.11986-0.7194-0.25638-0.7194-0.64505v-3.9275c0-0.76068 0.14472-2.0174 0.14472-2.286 0-0.04974-0.0331-0.08678-0.10318-0.08678-0.0661 0-0.1532 0.05371-0.23575 0.11986-0.28945 0.23548-0.88476 0.64479-1.7859 0.84746-0.0992 0.0164-0.15293 0.08255-0.15293 0.20267 0 0.13626 0.0537 0.20241 0.17356 0.21908 0.58711 0.08678 0.77735 0.62839 0.77735 1.2361v3.6751c0 0.40508-0.26062 0.5252-0.74004 0.64505-0.19024 0.04948-0.39688 0.09922-0.39688 0.26855 0 0.13652 0.13626 0.186 0.33894 0.186m10.649-6.6186c-0.16959 0-0.66145 0.04948-0.93027 0.04948-0.33893 0-0.59531-0.01641-1.1369-0.16933-0.47122-0.13652-0.9136-0.3556-1.5751-0.3556-1.5378 0-2.9435 1.0996-2.9435 2.6747 0 0.8972 0.57468 1.7283 1.352 2.187-0.13229 0.20267-0.28522 0.31829-0.94668 0.81015-0.27305 0.21934-0.38867 0.40931-0.38867 0.62838 0 0.64082 0.40508 1.0171 1.4883 1.2197-0.5416 0.43815-1.0996 0.86386-1.4221 1.1327-0.38867 0.30586-0.55827 0.67813-0.55827 1.2692 0 1.2525 1.1867 2.0339 3.1173 2.0339 1.8272 0 3.7743-1.8643 3.7743-3.6089 0-1.0295-1.0004-1.5917-3.0798-1.7074-1.4428-0.08678-2.2034-0.37227-2.2034-0.84746 0-0.20267 0.30585-0.50853 0.71093-0.7112 0.28946 0.11986 0.59531 0.1696 0.8972 0.1696 1.4552 0 2.6914-1.4719 2.6914-3.1999 0-0.30586 0.0537-0.62838 0.10318-0.78132 0.0331-0.08281 0.20267-0.13229 0.50853-0.13229h0.45482c0.037 0 0.0868-0.03731 0.13626-0.08678 0.10345-0.09922 0.1696-0.23574 0.1696-0.32253 0-0.15293-0.0992-0.25215-0.21908-0.25215m-3.7415 4.1836c-0.88053 0-1.6245-1.0004-1.6245-2.1868 0-1.0337 0.71093-1.9637 1.5047-1.9637 0.83106 0 1.6081 0.89694 1.6081 1.8809 0 1.2859-0.64082 2.2696-1.4883 2.2696m2.5384 4.2294c0 0.78131-0.33893 1.5089-0.8972 1.9307-0.40508 0.30586-0.93001 0.45879-1.6081 0.45879-1.17 0-2.0836-0.7112-2.0836-1.6081 0-0.86413 0.3392-1.4057 1.3229-2.0672 0.21907 0.03307 0.45482 0.04974 0.7276 0.07038 1.7944 0.11562 2.5384 0.47122 2.5384 1.2155m3.4354-10.579c0.47969 0 0.84773-0.372 0.84773-0.84746 0-0.49186-0.37227-0.86386-0.86413-0.86386-0.47546 0-0.84746 0.372-0.84746 0.86386 0 0.47546 0.38021 0.84746 0.86386 0.84746m-1.3724 8.785c0.66146 0 0.78131-0.08255 1.3724-0.08255 0.59135 0 0.72761 0.08255 1.3727 0.08255 0.21908 0 0.33893-0.04948 0.33893-0.186 0-0.16933-0.2024-0.21908-0.38444-0.26855-0.45058-0.11986-0.7194-0.25638-0.7194-0.64505v-3.9275c0-0.76068 0.14473-2.0174 0.14473-2.286 0-0.04974-0.0331-0.08678-0.10319-0.08678-0.0661 0-0.15319 0.05371-0.23574 0.11986-0.28946 0.23548-0.88477 0.64479-1.7859 0.84746-0.0992 0.0164-0.15293 0.08255-0.15293 0.20267 0 0.13626 0.0537 0.20241 0.17357 0.21908 0.58711 0.08678 0.77734 0.62839 0.77734 1.2361v3.6751c0 0.40508-0.26061 0.5252-0.74004 0.64505-0.19023 0.04948-0.39687 0.09922-0.39687 0.26855 0 0.13652 0.13626 0.186 0.33893 0.186m4.1466 0c0.67786 0 0.78131-0.08255 1.3724-0.08255 0.59135 0 0.69453 0.08255 1.3727 0.08255 0.21908 0 0.33893-0.04948 0.33893-0.186 0-0.13626-0.11985-0.20241-0.39264-0.26855-0.33496-0.08678-0.7276-0.186-0.7276-0.64505v-4.0804c0-0.13626 0.0537-0.30586 0.13626-0.38841 0.47545-0.38867 1.0668-0.67813 1.8812-0.67813 0.9136 0.01667 1.5214 0.60775 1.5214 1.5917v3.5552c0 0.45905-0.38867 0.5416-0.7276 0.64505-0.18601 0.06615-0.38868 0.13229-0.38868 0.30162 0 0.13652 0.21908 0.15293 0.33893 0.15293 0.67813 0 0.79375-0.08255 1.3891-0.08255 0.59134 0 0.67812 0.08255 1.352 0.08255 0.13626 0 0.33893-0.0164 0.33893-0.15293 0-0.16933-0.20267-0.23548-0.38867-0.30162-0.33894-0.10345-0.72761-0.186-0.72761-0.64505v-3.6049c0-1.3229-0.81439-2.3564-1.914-2.3564-1.0668 0-1.9307 0.372-2.7244 1.1369-0.0167-0.01667-0.0331-0.10345-0.0331-0.20267 0-0.32253 0.0825-0.93424 0.0825-1.0832 0-0.07012-0.0331-0.11986-0.0825-0.11986-0.0704 0-0.11986 0.03307-0.186 0.08282-0.47546 0.3556-0.91784 0.66146-1.6952 0.86386-0.10319 0.01667-0.15293 0.08705-0.15293 0.20267 0 0.13652 0.0661 0.186 0.1696 0.22331 0.57467 0.1487 0.62838 0.60775 0.62838 1.2155v3.642c0 0.45905-0.39264 0.55827-0.73183 0.64505-0.25215 0.06615-0.38841 0.09922-0.38841 0.26855 0 0.13652 0.13626 0.186 0.33893 0.186m10.174 0.18627c0.72761 0 1.3724-0.26882 2.1167-0.8808h0.0495c0.30612 0.59531 0.7112 0.8808 1.2361 0.8808 0.3556 0 0.81439-0.23574 1.17-0.59134 0.10345-0.10319 0.186-0.27278 0.186-0.372 0-0.10345-0.0825-0.186-0.186-0.186-0.0331 0-0.0662 0.0164-0.13626 0.08255-0.1532 0.13652-0.3392 0.186-0.62442 0.186-0.372 0-0.62839-0.31829-0.61172-0.79375l0.0868-4.0637c0.0164-0.86413-0.57468-1.5089-1.3891-1.5089-0.67812 0-1.7611 0.50853-2.5217 1.2031-0.42598 0.372-0.67813 0.81439-0.67813 1.17 0 0.08255 0.0662 0.15293 0.18601 0.15293 0.33893 0 1.1163-0.42598 1.1163-0.59531l-0.0167-0.30189c0-0.20664 0.0331-0.39264 0.1696-0.49186 0.21908-0.186 0.59108-0.30586 0.93028-0.30586 0.64479 0 1.0168 0.49186 1.0004 1.0829l-0.0331 1.0832c-0.0167 0.45879-0.0331 0.49186-0.47545 0.67813l-1.728 0.71094c-0.82682 0.33893-1.1988 0.69453-1.1988 1.4057 0 0.62838 0.744 1.4552 1.3518 1.4552m0.79799-0.81042c-0.40931 0-0.83106-0.30586-0.83106-0.8972 0-0.39264 0.38867-0.86386 1.5917-1.3062 0.18601-0.06614 0.28919-0.08281 0.33893-0.08281 0.13626 0 0.16934 0.09922 0.15293 0.3556l-0.0331 0.83106c-0.0206 0.42175-0.10345 0.57468-0.22331 0.6903-0.25215 0.25638-0.558 0.40931-0.99615 0.40931m4.6384 0.62415c0.65722 0 0.77708-0.08255 1.3684-0.08255 0.59531 0 0.71517 0.08255 1.3724 0.08255 0.11986 0 0.33894-0.0164 0.33894-0.15293 0-0.16933-0.20241-0.23548-0.38841-0.30162-0.3392-0.10345-0.72761-0.186-0.72761-0.64505v-8.4667c0-1.5214 0.11986-2.1 0.11986-2.3027 0-0.04948-0.0373-0.11562-0.0868-0.11562-0.0331 0-0.0662 0.0164-0.10346 0.03307-0.5416 0.20241-1.0459 0.45455-1.91 0.65722-0.0701 0.02064-0.11986 0.10345-0.11986 0.20664 0 0.09922 0.0497 0.20267 0.13653 0.21908 0.558 0.11986 0.77708 0.57468 0.77708 1.2361v8.5328c0 0.45905-0.38841 0.5416-0.72761 0.64505-0.186 0.06615-0.3884 0.13229-0.3884 0.30162 0 0.13652 0.21907 0.15293 0.33893 0.15293m13.68 0.20267c1.0996 0 2.3688-0.1487 3.1999-0.48789 0.35534-0.11986 0.372-0.13626 0.5416-0.45879 0.20241-0.49186 0.45879-1.3727 0.45879-1.6412 0-0.3556-0.42572-0.33893-0.57891-0.04974-0.74401 1.3354-1.7404 2.1127-3.3692 2.1127-2.807 0-4.6551-2.8443-4.6551-5.6018 0-2.4887 1.8976-4.8247 4.5395-4.8247 0.93001 0 1.7611 0.20267 2.3191 0.57468 0.59134 0.40534 0.83106 1.0171 1.0501 1.877 0.09922 0.39264 0.59108 0.23971 0.57468-0.0164-0.03307-0.8808-0.10345-1.4221-0.15293-1.9473-0.03307-0.30162-0.15293-0.48789-0.49212-0.57468-1.1491-0.28919-1.7074-0.43815-3.0136-0.43815-3.4687 0-6.536 2.4723-6.536 5.7547 0 3.4563 2.9475 5.7216 6.1143 5.7216m5.792-0.20267c0.67786 0 0.77708-0.08255 1.3682-0.08255 0.59531 0 0.61198 0.08255 1.2898 0.08255 0.25241 0 0.3392-0.04948 0.3392-0.186 0-0.13626-0.13652-0.20241-0.37227-0.26855-0.33893-0.10345-0.64479-0.23998-0.66146-0.69453v-3.4396c0-0.69453 0.09922-0.93028 0.45482-1.2197 0.32253-0.25215 0.98398-0.372 1.4057-0.372 0.7276 0 1.5751 0.67813 1.5751 1.5256v3.452c0 0.45879-0.32253 0.62838-0.65749 0.74824-0.25612 0.08255-0.39264 0.11562-0.39264 0.26855 0 0.13652 0.10345 0.186 0.33893 0.186 0.67813 0 0.7276-0.08255 1.3229-0.08255 0.59134 0 0.64082 0.08255 1.3189 0.08255 0.23971 0 0.33893-0.04948 0.33893-0.186 0-0.13626-0.15293-0.20241-0.38867-0.26855-0.33893-0.10345-0.69453-0.28945-0.69453-0.74824v-3.5555c0-1.3187-0.83079-2.3027-1.9307-2.3027-1.0665 0-2.0505 0.67786-2.5712 1.0665-0.08705-0.1487-0.12012-0.26855-0.12012-0.62415v-2.9477c0-1.8108 0.15319-2.1 0.15319-2.3027 0-0.06615-0.05397-0.11562-0.12012-0.11562-0.03307 0-0.06615 0.0164-0.10319 0.03307-0.55827 0.23548-1.4015 0.50826-1.877 0.65722-0.10345 0.03731-0.13652 0.10345-0.13652 0.20664 0 0.13229 0.04974 0.21908 0.15319 0.23574 0.57441 0.10319 0.74401 0.60775 0.74401 1.2195v8.4833c-0.0164 0.45455-0.38867 0.59108-0.7276 0.69453-0.28945 0.08255-0.38867 0.13229-0.38867 0.26855 0 0.13652 0.13652 0.186 0.3392 0.186m12.018 0.18627c2.5426 0 3.8283-1.8606 3.8283-3.8407 0-1.8314-1.5253-3.4065-3.4891-3.4065-2.0796 0-3.7084 1.9637-3.7084 3.8447 0 1.9804 1.4758 3.4025 3.3692 3.4025m0.3556-0.50853c-1.3518 0-2.3357-1.6081-2.3357-3.2827 0-0.81439 0.08678-1.6783 0.5416-2.2529 0.40931-0.5252 0.88053-0.67813 1.4925-0.67813 1.4385 0 2.3852 1.6785 2.3852 3.2867 0 0.66146-0.06615 1.4719-0.33893 1.9968-0.33893 0.66146-0.97975 0.93028-1.7447 0.93028m4.8948 0.32226c0.67813 0 0.77735-0.08255 1.3684-0.08255 0.59531 0 0.79798 0.08255 1.4758 0.08255 0.23574 0 0.33893-0.04948 0.33893-0.186 0-0.15293-0.15293-0.20241-0.39264-0.26855-0.55801-0.1696-0.8972-0.3392-0.8972-0.64505v-3.4189c0-1.1369 0.62839-1.4221 1.17-1.4221 0.1696 0 0.3556 0.08282 0.5416 0.15293 0.1696 0.08282 0.33893 0.14896 0.47546 0.14896 0.33893 0 0.65722-0.5416 0.65722-0.88053 0-0.30189-0.3347-0.5416-0.81015-0.5416-0.66146 0-1.4057 0.49186-1.9471 1.1533-0.01667 0-0.03307-0.0164-0.03307-0.03307 0.03307-0.5416 0.04948-1.1533 0.04948-1.2692 0-0.07012-0.03307-0.11986-0.08255-0.11986-0.05397 0-0.12012 0.03307-0.25638 0.11986-0.3556 0.21934-1.0832 0.64082-1.6743 0.82682-0.07038 0.01667-0.15293 0.10345-0.15293 0.20267 0 0.10345 0.08255 0.20664 0.16933 0.22331 0.55827 0.11562 0.69453 0.60775 0.69453 1.2155v3.642c0 0.32253-0.22331 0.5416-0.64479 0.64505-0.25215 0.06615-0.38867 0.09922-0.38867 0.26855 0 0.13652 0.09922 0.186 0.33893 0.186m10.869 0.27305c0.07038 0 0.08678 0 0.27305-0.10345 0.79375-0.33893 1.3518-0.49186 1.9801-0.57468 0.11986 0 0.23574-0.15293 0.23574-0.30586 0-0.13229-0.08281-0.1696-0.30189-0.15293-0.28945 0.03704-0.61198 0.05371-0.73184 0.05371-0.25215 0-0.35534-0.32253-0.35534-1.1038v-7.6523c0-1.5214 0.11986-2.1 0.11986-2.3027-0.01667-0.06615-0.04974-0.09922-0.11986-0.09922-0.04974 0-0.13229 0.01667-0.21934 0.04974-0.32226 0.13626-0.83079 0.372-1.8272 0.62415-0.10319 0.03731-0.13626 0.11986-0.13626 0.20664 0 0.09922 0.04948 0.20267 0.15293 0.21908 0.5416 0.09922 0.84746 0.32253 0.84746 1.2361v2.4019c0 0.30612-0.07038 0.40931-0.11986 0.40931-0.04974 0-0.11986-0.0164-0.21908-0.05371-0.25638-0.08255-0.76491-0.186-1.2197-0.186-2.373 0-3.8116 1.8314-3.8116 3.7952 0 1.7074 1.2031 3.452 3.1337 3.452 1.116 0 1.8809-0.67389 2.2199-1.1991v0.09922c0 0.28945-0.08678 0.79798-0.08678 1.0171 0 0.04974 0.13652 0.1696 0.186 0.1696m-1.7074-0.96758c-0.74824 0-2.5424-0.40508-2.5424-2.9599 0-2.2532 1.3062-2.8112 2.0836-2.8112 1.2525 0 2.0836 0.97975 2.0836 1.8934l-0.01667 3.0509c-0.42571 0.48789-1.0168 0.82682-1.6081 0.82682"/><path class="StaffText" d="m38.862 146.62c2.2146 0 3.6883-1.3065 3.6883-3.3197 0-1.6949-1.27-2.4887-2.4527-3.2163-1.2726-0.78158-2.3733-1.4594-2.3733-2.4723 0-1.4221 0.93133-1.9307 1.9473-1.9307 0.96838 0 1.5584 0.65722 2.0346 1.8439 0.05027 0.13626 0.26988 0.23548 0.47096 0.23548 0.13758 0 0.25664-0.0495 0.25664-0.186 0-0.54161-0.20373-1.1988-0.33867-1.6743-0.05027-0.16959-0.18521-0.3556-0.35719-0.42174-0.37042-0.15293-0.96573-0.37624-1.7754-0.37624-2.3918 0-3.5401 1.3727-3.5401 3.0842 0 1.6412 1.4711 2.4019 2.794 3.2327 1.1986 0.74427 1.9103 1.1866 1.9103 2.5757 0 1.2525-0.86254 2.063-2.0294 2.063-0.96838 0-1.9632-0.67389-2.4051-2.4186-0.0344-0.13653-0.15346-0.18601-0.26988-0.18601-0.18521 0-0.33867 0.0825-0.33867 0.23575 0.03175 0.47519 0.05027 1.3187 0.16933 1.7775 0.0344 0.13652 0.13758 0.25215 0.2196 0.33919 0.62706 0.52494 1.4393 0.81439 2.3892 0.81439m7.6147-0.0373c1.0345 0 1.9817-0.84323 1.9817-1.0295 0-0.11985-0.0344-0.23971-0.11642-0.23971-0.01587 0-0.05556 0.0167-0.07144 0.0331-0.28575 0.20664-0.59002 0.30586-1.2515 0.30586-0.7276 0-1.1165-0.54134-1.1165-1.4552v-3.3361c0-0.45879 0.0979-0.47546 0.67733-0.47546h1.6748c0.08731 0 0.16933-0.23547 0.16933-0.43815 0-0.20267-0.08202-0.372-0.16933-0.372h-1.9315c-0.28575 0-0.43656-0.0704-0.40481-0.32253l0.08202-0.76067c0.02117-0.15293-0.11377-0.18601-0.21696-0.18601-0.12171 0-0.18785 0.0825-0.28575 0.20241-0.30692 0.37227-0.84931 0.8972-1.5108 1.352-0.03175 0.0164-0.11906 0.13626-0.11906 0.186 0 0.1696 0.08731 0.33893 0.20373 0.33893h0.10319c0.44185 0 0.53975 0.0704 0.53975 0.25639v3.9275c0 1.3393 0.66146 2.0132 1.7621 2.0132m2.9475-0.18601c0.67733 0 0.77788-0.0828 1.3679-0.0828 0.59531 0 0.79904 0.0828 1.4764 0.0828 0.23548 0 0.33867-0.0497 0.33867-0.186 0-0.15293-0.15346-0.20267-0.39158-0.26882-0.55827-0.16933-0.89694-0.33893-0.89694-0.64479v-3.4189c0-1.1369 0.62706-1.4221 1.1695-1.4221 0.16933 0 0.35454 0.0826 0.5424 0.15293 0.16933 0.0825 0.33867 0.1487 0.4736 0.1487 0.33867 0 0.65881-0.54134 0.65881-0.88053 0-0.30163-0.33602-0.54161-0.80962-0.54161-0.66146 0-1.4076 0.49213-1.9473 1.1536-0.01852 0-0.0344-0.0167-0.0344-0.0331 0.0344-0.5416 0.05027-1.1536 0.05027-1.2692 0-0.0704-0.0344-0.11986-0.08202-0.11986-0.05556 0-0.12171 0.0331-0.25665 0.11986-0.35719 0.21907-1.0848 0.64082-1.6748 0.82682-0.07144 0.0164-0.15346 0.10345-0.15346 0.20267 0 0.10319 0.08202 0.20664 0.16933 0.22304 0.55827 0.11589 0.69585 0.60775 0.69585 1.2155v3.6422c0 0.32227-0.2249 0.54161-0.64558 0.64479-0.25135 0.0661-0.38894 0.0992-0.38894 0.26882 0 0.13626 0.10054 0.186 0.33867 0.186m6.9427-8.785c0.4789 0 0.84667-0.372 0.84667-0.84746 0-0.49212-0.37306-0.86413-0.86519-0.86413-0.4736 0-0.84667 0.37201-0.84667 0.86413 0 0.47546 0.381 0.84746 0.86519 0.84746m-1.3732 8.785c0.66146 0 0.78052-0.0828 1.3732-0.0828 0.59002 0 0.7276 0.0828 1.3705 0.0828 0.2196 0 0.33867-0.0497 0.33867-0.186 0-0.1696-0.20108-0.21907-0.38365-0.26882-0.44979-0.11985-0.71967-0.25638-0.71967-0.64479v-3.9275c0-0.76068 0.14552-2.0174 0.14552-2.2863 0-0.0495-0.0344-0.0868-0.10319-0.0868-0.06615 0-0.15346 0.0537-0.23548 0.11986-0.29104 0.23574-0.88635 0.64505-1.7859 0.84746-0.10054 0.0167-0.15346 0.0828-0.15346 0.20267 0 0.13652 0.05292 0.20267 0.17462 0.21907 0.58738 0.0868 0.77523 0.62839 0.77523 1.2361v3.6753c0 0.40508-0.25929 0.52494-0.73819 0.64479-0.1905 0.0498-0.39688 0.0992-0.39688 0.26882 0 0.13626 0.13494 0.186 0.33867 0.186m4.146 0c0.67733 0 0.78052-0.0828 1.3732-0.0828 0.59002 0 0.69321 0.0828 1.3732 0.0828 0.21696 0 0.33867-0.0497 0.33867-0.186 0-0.13652-0.12171-0.20267-0.39423-0.26882-0.33338-0.0868-0.7276-0.186-0.7276-0.64479v-4.0804c0-0.13652 0.05556-0.30586 0.13758-0.38867 0.4736-0.38868 1.0663-0.67786 1.8812-0.67786 0.91281 0.0164 1.5214 0.60748 1.5214 1.5915v3.5555c0 0.45879-0.38894 0.54161-0.7276 0.64479-0.18785 0.0661-0.38894 0.1323-0.38894 0.30189 0 0.13626 0.2196 0.15293 0.33867 0.15293 0.67733 0 0.79375-0.0828 1.3891-0.0828 0.59002 0 0.67733 0.0828 1.352 0.0828 0.13494 0 0.33867-0.0167 0.33867-0.15293 0-0.16959-0.20373-0.23574-0.38894-0.30189-0.33867-0.10318-0.7276-0.186-0.7276-0.64479v-3.6049c0-1.3229-0.81492-2.3566-1.9129-2.3566-1.0663 0-1.9315 0.37227-2.7252 1.1369-0.01588-0.0164-0.03175-0.10319-0.03175-0.20241 0-0.32253 0.08202-0.93451 0.08202-1.0832 0-0.0704-0.03439-0.11986-0.08202-0.11986-0.07144 0-0.12171 0.0331-0.18786 0.0826-0.4736 0.3556-0.9181 0.66146-1.6933 0.86413-0.10319 0.0164-0.15346 0.0868-0.15346 0.20267 0 0.13626 0.06615 0.186 0.16933 0.22304 0.57415 0.14897 0.62706 0.60775 0.62706 1.2155v3.6422c0 0.45879-0.39158 0.55801-0.73025 0.64479-0.254 0.0661-0.38894 0.0992-0.38894 0.26882 0 0.13626 0.13494 0.186 0.33867 0.186m15.441-6.6188c-0.16933 0-0.66146 0.0497-0.93133 0.0497-0.33867 0-0.59531-0.0167-1.1351-0.1696-0.47096-0.13626-0.91546-0.3556-1.5769-0.3556-1.5372 0-2.9422 1.0999-2.9422 2.6749 0 0.89694 0.57415 1.728 1.352 2.1868-0.13229 0.20267-0.28575 0.31856-0.94721 0.81042-0.27252 0.21907-0.38894 0.40931-0.38894 0.62838 0 0.64082 0.40481 1.0171 1.4896 1.2195-0.5424 0.43841-1.1007 0.86413-1.4235 1.1329-0.38894 0.30586-0.55827 0.67787-0.55827 1.2689 0 1.2528 1.188 2.0341 3.1168 2.0341 1.8283 0 3.7756-1.8645 3.7756-3.6092 0-1.0292-1.0001-1.5915-3.0798-1.7074-1.442-0.0868-2.204-0.372-2.204-0.84746 0-0.20267 0.30692-0.50853 0.71173-0.71093 0.2884 0.11985 0.59531 0.16933 0.89694 0.16933 1.4552 0 2.6908-1.4716 2.6908-3.1999 0-0.30586 0.05292-0.62838 0.10319-0.78131 0.0344-0.0825 0.20373-0.1323 0.508-0.1323h0.45508c0.03704 0 0.08731-0.037 0.13758-0.0868 0.10319-0.0992 0.16933-0.23548 0.16933-0.32253 0-0.15292-0.10054-0.25214-0.2196-0.25214m-3.7412 4.1838c-0.88106 0-1.6245-1.0004-1.6245-2.187 0-1.0335 0.71173-1.9637 1.5055-1.9637 0.83079 0 1.606 0.8972 1.606 1.8812 0 1.2856-0.64029 2.2696-1.487 2.2696m2.5374 4.2291c0 0.78132-0.33867 1.5089-0.89694 1.9307-0.40481 0.30586-0.92869 0.45878-1.6087 0.45878-1.1695 0-2.0823-0.71093-2.0823-1.6081 0-0.86387 0.33867-1.4055 1.3229-2.0669 0.2196 0.0331 0.45508 0.0495 0.7276 0.0701 1.7939 0.11588 2.5374 0.47148 2.5374 1.2155m11.597-1.5915c1.1007 0 2.368-0.14896 3.1988-0.48789 0.35719-0.11985 0.37306-0.13652 0.5424-0.45905 0.20373-0.49186 0.46038-1.3724 0.46038-1.6412 0-0.35534-0.42598-0.33893-0.57944-0.0495-0.74348 1.3354-1.741 2.1124-3.3708 2.1124-2.8072 0-4.654-2.8443-4.654-5.6018 0-2.4887 1.8971-4.8244 4.5402-4.8244 0.92869 0 1.7595 0.20267 2.3178 0.57467 0.59267 0.40508 0.83079 1.0171 1.0504 1.877 0.10054 0.39265 0.59267 0.23972 0.57415-0.0167-0.03175-0.88054-0.10319-1.4221-0.15346-1.9471-0.03175-0.30189-0.15081-0.48789-0.48948-0.57468-1.1509-0.28945-1.7092-0.43815-3.0162-0.43815-3.466 0-6.5352 2.472-6.5352 5.7547 0 3.456 2.9475 5.7216 6.1145 5.7216m5.9611-0.20267c0.67733 0 0.77788-0.0828 1.3679-0.0828 0.59531 0 0.79904 0.0828 1.4764 0.0828 0.23548 0 0.33867-0.0497 0.33867-0.186 0-0.15293-0.15081-0.20267-0.39158-0.26882-0.55827-0.16933-0.89694-0.33893-0.89694-0.64479v-3.4189c0-1.1369 0.62706-1.4221 1.1695-1.4221 0.16933 0 0.35454 0.0826 0.5424 0.15293 0.16933 0.0825 0.33867 0.1487 0.4736 0.1487 0.34131 0 0.65881-0.54134 0.65881-0.88053 0-0.30163-0.33602-0.54161-0.80962-0.54161-0.66146 0-1.4076 0.49213-1.9473 1.1536-0.01852 0-0.0344-0.0167-0.0344-0.0331 0.0344-0.5416 0.05027-1.1536 0.05027-1.2692 0-0.0704-0.0344-0.11986-0.08202-0.11986-0.05556 0-0.12171 0.0331-0.25665 0.11986-0.35719 0.21907-1.0848 0.64082-1.6748 0.82682-0.07144 0.0164-0.15346 0.10345-0.15346 0.20267 0 0.10319 0.08202 0.20664 0.16933 0.22304 0.55827 0.11589 0.69585 0.60775 0.69585 1.2155v3.6422c0 0.32227-0.2249 0.54161-0.64558 0.64479-0.25135 0.0661-0.38894 0.0992-0.38894 0.26882 0 0.13626 0.10054 0.186 0.33867 0.186m8.7868 0.18601c2.54 0 3.8259-1.8603 3.8259-3.8407 0-1.8312-1.524-3.4065-3.4872-3.4065-2.0796 0-3.7095 1.9637-3.7095 3.8449 0 1.9801 1.4764 3.4023 3.3708 3.4023m0.35455-0.50853c-1.352 0-2.3363-1.6081-2.3363-3.2824 0-0.81439 0.08731-1.6785 0.5424-2.2532 0.40746-0.52493 0.88106-0.67786 1.4922-0.67786 1.4393 0 2.3839 1.6785 2.3839 3.2867 0 0.66145-0.0662 1.4716-0.33867 1.9968-0.33867 0.66145-0.97896 0.93001-1.7436 0.93001m6.5034 0.50853c1.4711 0 2.4871-0.84323 2.4871-2.063 0-1.0501-0.64294-1.5751-1.9473-2.3191-0.91281-0.5252-1.1694-0.86413-1.1694-1.3891 0-0.64505 0.52652-1.0006 1.0848-1.0006 0.64294 0 1.0663 0.40534 1.3705 1.1536 0.0344 0.0825 0.18785 0.1487 0.32279 0.1487 0.082 0 0.16933-0.0331 0.16933-0.11562 0-0.47546-0.15345-1.0832-0.32279-1.3396-0.21696-0.15293-0.67733-0.32253-1.3547-0.32253-1.5214 0-2.286 0.86413-2.286 1.9473 0 0.84746 0.45773 1.3891 1.6113 2.1 1.0134 0.62839 1.3679 0.98399 1.3679 1.5917 0 0.66146-0.52387 1.1533-1.18 1.1533-0.66146 0-1.3891-0.42572-1.6801-1.542-0.0159-0.0825-0.11906-0.11985-0.20108-0.11985-0.12171 0-0.21961 0.0537-0.21961 0.15293 0.0159 0.38867 0.0661 1.1205 0.18521 1.356 0.42069 0.38867 1.0663 0.60775 1.7621 0.60775m5.4689 0c1.4711 0 2.4897-0.84323 2.4897-2.063 0-1.0501-0.64558-1.5751-1.9473-2.3191-0.91546-0.5252-1.1721-0.86413-1.1721-1.3891 0-0.64505 0.52652-1.0006 1.0848-1.0006 0.64558 0 1.0663 0.40534 1.3732 1.1536 0.0318 0.0825 0.18521 0.1487 0.32015 0.1487 0.0847 0 0.16933-0.0331 0.16933-0.11562 0-0.47546-0.15081-1.0832-0.32014-1.3396-0.21961-0.15293-0.67998-0.32253-1.3573-0.32253-1.5214 0-2.286 0.86413-2.286 1.9473 0 0.84746 0.45773 1.3891 1.6113 2.1 1.0134 0.62839 1.3705 0.98399 1.3705 1.5917 0 0.66146-0.52652 1.1533-1.1827 1.1533-0.66146 0-1.3891-0.42572-1.6801-1.542-0.0159-0.0825-0.11907-0.11985-0.20109-0.11985-0.12171 0-0.2196 0.0537-0.2196 0.15293 0.0159 0.38867 0.0661 1.1205 0.18521 1.356 0.42333 0.38867 1.0663 0.60775 1.7621 0.60775m5.1462-8.971c0.47889 0 0.84931-0.372 0.84931-0.84746 0-0.49212-0.37306-0.86413-0.86519-0.86413-0.47625 0-0.84666 0.37201-0.84666 0.86413 0 0.47546 0.37835 0.84746 0.86254 0.84746m-1.3732 8.785c0.66146 0 0.78317-0.0828 1.3732-0.0828 0.59266 0 0.7276 0.0828 1.3732 0.0828 0.2196 0 0.33866-0.0497 0.33866-0.186 0-0.1696-0.20108-0.21907-0.38364-0.26882-0.45244-0.11985-0.71967-0.25638-0.71967-0.64479v-3.9275c0-0.76068 0.14552-2.0174 0.14552-2.2863 0-0.0495-0.0344-0.0868-0.10319-0.0868-0.0661 0-0.15346 0.0537-0.23812 0.11986-0.2884 0.23574-0.88371 0.64505-1.7859 0.84746-0.0979 0.0167-0.15081 0.0828-0.15081 0.20267 0 0.13652 0.0529 0.20267 0.17198 0.21907 0.58737 0.0868 0.77787 0.62839 0.77787 1.2361v3.6753c0 0.40508-0.25929 0.52494-0.74083 0.64479-0.1905 0.0498-0.39688 0.0992-0.39688 0.26882 0 0.13626 0.13759 0.186 0.33867 0.186m4.1487 0c0.67733 0 0.78052-0.0828 1.3705-0.0828 0.59267 0 0.69585 0.0828 1.3732 0.0828 0.2196 0 0.33866-0.0497 0.33866-0.186 0-0.13652-0.11906-0.20267-0.39158-0.26882-0.33602-0.0868-0.7276-0.186-0.7276-0.64479v-4.0804c0-0.13652 0.0529-0.30586 0.13493-0.38867 0.47625-0.38868 1.0689-0.67786 1.8812-0.67786 0.91546 0.0164 1.5214 0.60748 1.5214 1.5915v3.5555c0 0.45879-0.38893 0.54161-0.7276 0.64479-0.18521 0.0661-0.38894 0.1323-0.38894 0.30189 0 0.13626 0.21961 0.15293 0.34132 0.15293 0.67733 0 0.79375-0.0828 1.3891-0.0828 0.59002 0 0.67733 0.0828 1.352 0.0828 0.13494 0 0.33867-0.0167 0.33867-0.15293 0-0.16959-0.20373-0.23574-0.38894-0.30189-0.33867-0.10318-0.72761-0.186-0.72761-0.64479v-3.6049c0-1.3229-0.81491-2.3566-1.9156-2.3566-1.0663 0-1.9288 0.37227-2.7226 1.1369-0.0185-0.0164-0.0344-0.10319-0.0344-0.20241 0-0.32253 0.082-0.93451 0.082-1.0832 0-0.0704-0.0317-0.11986-0.082-0.11986-0.0688 0-0.11906 0.0331-0.18521 0.0826-0.47625 0.3556-0.9181 0.66146-1.696 0.86413-0.10318 0.0164-0.15345 0.0868-0.15345 0.20267 0 0.13626 0.0661 0.186 0.16933 0.22304 0.57679 0.14897 0.62971 0.60775 0.62971 1.2155v3.6422c0 0.45879-0.39159 0.55801-0.7329 0.64479-0.25135 0.0661-0.38629 0.0992-0.38629 0.26882 0 0.13626 0.13494 0.186 0.33867 0.186m15.441-6.6188c-0.16933 0-0.66146 0.0497-0.93133 0.0497-0.33867 0-0.59532-0.0167-1.1377-0.1696-0.47096-0.13626-0.91281-0.3556-1.5743-0.3556-1.5372 0-2.9422 1.0999-2.9422 2.6749 0 0.89694 0.57415 1.728 1.3494 2.1868-0.1323 0.20267-0.28311 0.31856-0.94457 0.81042-0.27252 0.21907-0.38893 0.40931-0.38893 0.62838 0 0.64082 0.40481 1.0171 1.487 1.2195-0.53975 0.43841-1.098 0.86413-1.4208 1.1329-0.38894 0.30586-0.55827 0.67787-0.55827 1.2689 0 1.2528 1.1853 2.0341 3.1168 2.0341 1.8283 0 3.7756-1.8645 3.7756-3.6092 0-1.0292-1.0028-1.5915-3.0824-1.7074-1.442-0.0868-2.2013-0.372-2.2013-0.84746 0-0.20267 0.30427-0.50853 0.70908-0.71093 0.29104 0.11985 0.59531 0.16933 0.89694 0.16933 1.4552 0 2.6935-1.4716 2.6935-3.1999 0-0.30586 0.0529-0.62838 0.10318-0.78131 0.0318-0.0825 0.20109-0.1323 0.508-0.1323h0.45509c0.037 0 0.0873-0.037 0.13494-0.0868 0.10318-0.0992 0.16933-0.23548 0.16933-0.32253 0-0.15292-0.0979-0.25214-0.21696-0.25214m-3.7412 4.1838c-0.88106 0-1.6272-1.0004-1.6272-2.187 0-1.0335 0.71173-1.9637 1.5055-1.9637 0.8308 0 1.6087 0.8972 1.6087 1.8812 0 1.2856-0.64029 2.2696-1.487 2.2696m2.5374 4.2291c0 0.78132-0.33867 1.5089-0.89694 1.9307-0.40481 0.30586-0.93133 0.45878-1.6087 0.45878-1.1695 0-2.0823-0.71093-2.0823-1.6081 0-0.86387 0.33867-1.4055 1.3229-2.0669 0.21696 0.0331 0.45244 0.0495 0.7276 0.0701 1.7939 0.11588 2.5374 0.47148 2.5374 1.2155m3.7571-1.6081c1.4711 0 2.4897-0.84323 2.4897-2.063 0-1.0501-0.64558-1.5751-1.9473-2.3191-0.91282-0.5252-1.1695-0.86413-1.1695-1.3891 0-0.64505 0.52387-1.0006 1.0821-1.0006 0.64559 0 1.0663 0.40534 1.3732 1.1536 0.0317 0.0825 0.18521 0.1487 0.32279 0.1487 0.082 0 0.16934-0.0331 0.16934-0.11562 0-0.47546-0.15346-1.0832-0.3228-1.3396-0.2196-0.15293-0.67733-0.32253-1.3573-0.32253-1.5214 0-2.286 0.86413-2.286 1.9473 0 0.84746 0.46038 1.3891 1.614 2.1 1.0134 0.62839 1.3679 0.98399 1.3679 1.5917 0 0.66146-0.52653 1.1533-1.1827 1.1533-0.66146 0-1.3891-0.42572-1.6775-1.542-0.0185-0.0825-0.12171-0.11985-0.20373-0.11985-0.11906 0-0.2196 0.0537-0.2196 0.15293 0.0185 0.38867 0.0661 1.1205 0.18785 1.356 0.42069 0.38867 1.0663 0.60775 1.7595 0.60775" fill="#7570b3"/><path class="StaffText" d="m311.67 149.02c3.2332 0 5.8923-2.6583 5.8923-5.9118 0-2.9599-1.8309-5.366-6.4162-5.366-0.46037 0-2.1696 0.13652-2.8972 0.13652-0.81227 0-1.0186-0.0331-1.8785-0.0331-0.28839 0-0.49212 0.0662-0.49212 0.21908 0 0.186 0.16933 0.23548 0.55827 0.30162 0.84667 0.1532 1.1324 0.42598 1.1324 1.2361v7.611c0 0.81015-0.28575 1.1163-1.1324 1.2692-0.38894 0.0661-0.55827 0.0825-0.55827 0.26855 0 0.1778 0.20373 0.22754 0.49212 0.22754 0.89694 0 1.1007-0.0953 1.778-0.0953 1.3362 0 3.1829 0.13652 3.5216 0.13652m-0.20638-0.59531c-1.27 0-2.5374-0.20267-2.5374-1.5751v-7.5488c0-1.0171 0.83079-1.0337 2.3019-1.0337 2.3204 0 4.7255 1.8812 4.7255 5.1305 0 2.9477-1.8468 5.0271-4.49 5.0271m10.649 0.7112c2.5426 0 3.8285-1.8606 3.8285-3.8407 0-1.8314-1.5266-3.4065-3.4898-3.4065-2.0796 0-3.7068 1.9637-3.7068 3.8447 0 1.9804 1.4764 3.4025 3.3681 3.4025m0.35719-0.50853c-1.352 0-2.3363-1.6081-2.3363-3.2827 0-0.81439 0.0873-1.6782 0.53975-2.2529 0.4101-0.5252 0.88106-0.67813 1.4922-0.67813 1.4393 0 2.3865 1.6785 2.3865 3.2867 0 0.66146-0.0661 1.4719-0.33867 1.9968-0.33866 0.66146-0.97896 0.93027-1.7436 0.93027m7.2628 0.50853c1.0319 0 1.9791-0.84349 1.9791-1.0295 0-0.11986-0.0317-0.23971-0.11377-0.23971-0.0185 0-0.0556 0.0164-0.0714 0.0331-0.28575 0.20664-0.59002 0.30586-1.2515 0.30586-0.72761 0-1.1165-0.54161-1.1165-1.4552v-3.3361c0-0.45905 0.0979-0.47546 0.67733-0.47546h1.6748c0.0873 0 0.16933-0.23574 0.16933-0.43841 0-0.20241-0.082-0.37201-0.16933-0.37201h-1.9315c-0.28575 0-0.43921-0.0701-0.40481-0.32252l0.082-0.76068c0.0212-0.15293-0.11642-0.186-0.2196-0.186-0.11907 0-0.18521 0.0828-0.28311 0.20267-0.30691 0.372-0.84931 0.8972-1.5108 1.3518-0.0318 0.0167-0.11906 0.13653-0.11906 0.18601 0 0.16959 0.0873 0.33919 0.20108 0.33919h0.10584c0.44185 0 0.53975 0.0701 0.53975 0.25612v3.9275c0 1.3396 0.66145 2.0135 1.7621 2.0135m5.3155 0c1.0345 0 1.9817-0.84349 1.9817-1.0295 0-0.11986-0.0344-0.23971-0.11642-0.23971-0.0159 0-0.0529 0.0164-0.0714 0.0331-0.28311 0.20664-0.59003 0.30586-1.2515 0.30586-0.72761 0-1.1166-0.54161-1.1166-1.4552v-3.3361c0-0.45905 0.10055-0.47546 0.67734-0.47546h1.6748c0.0873 0 0.16933-0.23574 0.16933-0.43841 0-0.20241-0.082-0.37201-0.16933-0.37201h-1.9315c-0.2831 0-0.43656-0.0701-0.40481-0.32252l0.0847-0.76068c0.0185-0.15293-0.11642-0.186-0.21961-0.186-0.12171 0-0.18785 0.0828-0.28575 0.20267-0.30691 0.372-0.84666 0.8972-1.5081 1.3518-0.0344 0.0167-0.12171 0.13653-0.12171 0.18601 0 0.16959 0.0873 0.33919 0.20373 0.33919h0.10319c0.44185 0 0.54239 0.0701 0.54239 0.25612v3.9275c0 1.3396 0.66146 2.0135 1.7595 2.0135m5.7229 0.0164c0.89694 0 1.7595-0.38868 2.2701-1.0459 0.20109-0.25638 0.30427-0.49186 0.30427-0.71517 0-0.0992-0.0503-0.16537-0.13493-0.16537-0.0661 0-0.10055 0.0164-0.18786 0.1323-0.42069 0.49186-0.97896 0.76464-1.6563 0.76464-1.4393 0-2.6088-1.3229-2.6088-2.9475 0-0.49212 0.10319-0.62838 0.42069-0.62838h3.5772c0.35454 0 0.50271-0.1696 0.50271-0.5252 0-1.2525-0.96308-2.1331-2.3178-2.1331-1.778 0-3.2676 1.6288-3.2676 3.5761 0 2.2159 1.2382 3.6875 3.0983 3.6875m-1.5558-5.1305c-0.13494 0-0.20638-0.0495-0.20638-0.16933 0-0.6739 0.90223-1.4719 1.6775-1.4719 0.79375 0 1.4552 0.5416 1.4552 1.1867 0 0.23548-0.0317 0.35533-0.13494 0.372-0.37306 0.0661-0.71173 0.0825-1.2541 0.0825h-1.5372m10.597 5.2009c0.0688 0 0.0873 0 0.27252-0.10345 0.79375-0.33893 1.352-0.49186 1.9791-0.57467 0.12171 0 0.23813-0.15293 0.23813-0.30586 0-0.13229-0.0847-0.1696-0.30427-0.15293-0.2884 0.037-0.61119 0.0537-0.73025 0.0537-0.25136 0-0.35454-0.32253-0.35454-1.1038v-7.6523c0-1.5214 0.11906-2.1 0.11906-2.3027-0.0159-0.0661-0.0503-0.0992-0.11906-0.0992-0.0503 0-0.13229 0.0167-0.21961 0.0497-0.32279 0.13626-0.83079 0.37201-1.8283 0.62416-0.10319 0.0373-0.13494 0.11985-0.13494 0.20664 0 0.0992 0.0476 0.20267 0.15082 0.21907 0.54239 0.0992 0.84931 0.32253 0.84931 1.2361v2.4019c0 0.30612-0.0714 0.40931-0.12171 0.40931-0.0476 0-0.11906-0.0164-0.21696-0.0537-0.25664-0.0825-0.76729-0.186-1.2197-0.186-2.3733 0-3.8126 1.8314-3.8126 3.7952 0 1.7074 1.2038 3.452 3.1327 3.452 1.1166 0 1.8812-0.67389 2.2199-1.1991v0.0992c0 0.28945-0.0847 0.79798-0.0847 1.0171 0 0.0497 0.13494 0.16959 0.18521 0.16959m-1.7066-0.96758c-0.74877 0-2.5426-0.40507-2.5426-2.9599 0-2.2532 1.3044-2.8112 2.0823-2.8112 1.2541 0 2.0849 0.97975 2.0849 1.8934l-0.0185 3.0509c-0.42598 0.48789-1.016 0.82682-1.606 0.82682m18.399 1.0007c0.42334 0 1.3732-0.10345 1.3732-0.59135 0-0.13626-0.0873-0.186-0.25665-0.186-0.79375 0-1.352-0.037-1.9473-0.56224-1.5902-1.4385-2.3839-2.7077-3.4343-4.2995-0.0714-0.0992-0.0873-0.186 0-0.21907 0.92869-0.47546 1.995-1.3229 1.995-2.8443 0-1.8478-1.3335-2.7781-3.8074-2.7781-0.9816 0-1.3044 0.0868-1.9473 0.0868-0.69321 0-0.74612-0.0164-1.6616-0.0164-0.28311 0-0.49213 0.0495-0.49213 0.186 0 0.1487 0.16934 0.30163 0.56356 0.3347 0.96309 0.10345 1.0292 0.3392 1.0292 1.629v7.2099c0 0.83079-0.38893 1.1369-1.2356 1.2898-0.38894 0.0661-0.55827 0.15293-0.55827 0.30163 0 0.13652 0.20108 0.186 0.49212 0.186 0.91282 0 1.3388-0.11563 2.204-0.11563 0.64029 0 0.74348 0.11563 1.6563 0.11563 0.29105 0 0.49213-0.0495 0.49213-0.186 0-0.1487-0.16933-0.23548-0.55827-0.30163-0.84667-0.15293-1.1377-0.7276-1.1377-1.4594v-2.9766c0-0.20664 0.0661-0.3556 0.25665-0.33893 0.30162 0.0331 0.84402 0.11562 1.3361 0.3556 0.33867 0.16933 0.5424 0.35533 0.72761 0.65722 1.1694 1.8976 1.7436 2.5921 2.5744 3.6092 0.59267 0.72761 1.3732 0.91361 2.3363 0.91361m-6.3315-5.9243c-0.55827 0-0.89958-0.0373-0.89958-0.59531 0-1.3518 0.0185-2.3027 0.0344-2.8773 0.0529-1.17 0.1852-1.5751 0.91281-1.5751 2.1378 0 2.4924 1.17 2.4924 2.5384 0 1.3062-0.9816 2.5093-2.54 2.5093m8.2788 5.6182c0.67733 0 0.77787-0.0825 1.3679-0.0825 0.59531 0 0.61383 0.0825 1.2912 0.0825 0.25135 0 0.33866-0.0495 0.33866-0.186 0-0.13626-0.13758-0.2024-0.37306-0.26855-0.33866-0.10345-0.64294-0.23998-0.66146-0.69453v-3.4396c0-0.69453 0.10055-0.93028 0.45509-1.2197 0.32279-0.25215 0.98425-0.37201 1.4076-0.37201 0.7276 0 1.5743 0.67813 1.5743 1.5256v3.452c0 0.45879-0.32279 0.62838-0.65881 0.74824-0.254 0.0825-0.39158 0.11562-0.39158 0.26855 0 0.13653 0.10318 0.186 0.33866 0.186 0.67734 0 0.72761-0.0825 1.3229-0.0825 0.59267 0 0.64029 0.0825 1.3203 0.0825 0.23812 0 0.33867-0.0495 0.33867-0.186 0-0.13626-0.15346-0.2024-0.38894-0.26855-0.33867-0.10345-0.69586-0.28945-0.69586-0.74824v-3.5555c0-1.3187-0.83079-2.3027-1.9288-2.3027-1.0689 0-2.0505 0.67786-2.5718 1.0665-0.0873-0.1487-0.12171-0.26856-0.12171-0.62416v-2.9477c0-1.8108 0.15346-2.1 0.15346-2.3027 0-0.0661-0.0529-0.11562-0.11906-0.11562-0.0344 0-0.0661 0.0164-0.10319 0.0331-0.55827 0.23548-1.4023 0.50827-1.8785 0.65723-0.10319 0.0373-0.13494 0.10345-0.13494 0.20664 0 0.13229 0.0503 0.21907 0.15346 0.23574 0.57415 0.10319 0.74348 0.60775 0.74348 1.2195v8.4833c-0.0159 0.45455-0.38894 0.59108-0.7276 0.69453-0.2884 0.0825-0.38894 0.13229-0.38894 0.26855 0 0.13653 0.13758 0.186 0.33867 0.186m9.1414 4.7749c0.49212 0 0.89694-0.23548 1.1007-0.69453 0.6932-1.6245 1.5584-3.7579 1.6272-3.9108l2.3019-5.4859c0.2196-0.5416 0.65881-1.0337 0.99748-1.1329 0.18521-0.0701 0.38894-0.13626 0.38894-0.30586 0-0.13626-0.21961-0.15293-0.33867-0.15293-0.37306 0-0.37306 0.0868-0.99748 0.0868-0.62706 0-0.89694-0.0868-1.2012-0.0868-0.12171 0-0.34131 0.0537-0.34131 0.186 0 0.1696 0.30692 0.32253 0.49212 0.40931 0.20373 0.0828 0.33867 0.21908 0.33867 0.64082 0 0.1696-0.0688 0.47546-0.13494 0.62839l-1.1695 3.0964c-0.0185 0.0537-0.0503 0.10345-0.0847 0.10345-0.0476 0-0.0847-0.0497-0.10319-0.10345l-1.3679-3.3859c-0.0529-0.11985-0.13493-0.33893-0.13493-0.47545 0-0.3183 0.0979-0.47123 0.33866-0.5416 0.18521-0.0495 0.49213-0.20241 0.49213-0.37201 0-0.13229-0.20638-0.186-0.33867-0.186-0.67998 0-0.69585 0.0868-1.2912 0.0868-0.59003 0-0.55828-0.0868-1.2356-0.0868-0.11642 0-0.33867 0.0167-0.33867 0.15293 0 0.1696 0.20638 0.23574 0.39159 0.30586 0.33866 0.0992 0.59266 0.42174 0.762 0.83105l1.9632 4.9609c0.0503 0.13229 0.0661 0.30189 0.0661 0.48789 0 0.15293-0.0159 0.28946-0.0503 0.39264-0.49212 1.3023-1.0663 2.4186-1.4393 3.0139-0.082 0.13229-0.18521 0.186-0.32015 0.186-0.18785 0-0.42333-0.10345-0.67998-0.10345-0.35454 0-0.55827 0.3556-0.55827 0.76068 0 0.50853 0.42598 0.69453 0.86519 0.69453m9.5329-4.5887c1.0345 0 1.9791-0.84349 1.9791-1.0295 0-0.11986-0.0317-0.23971-0.11377-0.23971-0.0185 0-0.0556 0.0164-0.0714 0.0331-0.28575 0.20664-0.59002 0.30586-1.2515 0.30586-0.7276 0-1.1165-0.54161-1.1165-1.4552v-3.3361c0-0.45905 0.0979-0.47546 0.67733-0.47546h1.6748c0.0873 0 0.16933-0.23574 0.16933-0.43841 0-0.20241-0.082-0.37201-0.16933-0.37201h-1.9315c-0.28575 0-0.43656-0.0701-0.40481-0.32252l0.082-0.76068c0.0212-0.15293-0.11377-0.186-0.21696-0.186-0.12171 0-0.18786 0.0828-0.28575 0.20267-0.30692 0.372-0.84931 0.8972-1.5108 1.3518-0.0317 0.0167-0.11906 0.13653-0.11906 0.18601 0 0.16959 0.0873 0.33919 0.20372 0.33919h0.10319c0.44186 0 0.53975 0.0701 0.53975 0.25612v3.9275c0 1.3396 0.66146 2.0135 1.7621 2.0135m2.7781-0.18627c0.67734 0 0.77788-0.0825 1.3679-0.0825 0.59531 0 0.61119 0.0825 1.2912 0.0825 0.25136 0 0.33867-0.0495 0.33867-0.186 0-0.13626-0.13758-0.2024-0.37306-0.26855-0.33867-0.10345-0.64558-0.23998-0.66146-0.69453v-3.4396c0-0.69453 0.10054-0.93028 0.45508-1.2197 0.3228-0.25215 0.98425-0.37201 1.4049-0.37201 0.72761 0 1.5769 0.67813 1.5769 1.5256v3.452c0 0.45879-0.32279 0.62838-0.65881 0.74824-0.25665 0.0825-0.39159 0.11562-0.39159 0.26855 0 0.13653 0.10319 0.186 0.33867 0.186 0.67733 0 0.7276-0.0825 1.3229-0.0825 0.59002 0 0.64029 0.0825 1.3176 0.0825 0.24077 0 0.33867-0.0495 0.33867-0.186 0-0.13626-0.15082-0.2024-0.38629-0.26855-0.34132-0.10345-0.69586-0.28945-0.69586-0.74824v-3.5555c0-1.3187-0.83079-2.3027-1.9315-2.3027-1.0663 0-2.0505 0.67786-2.5691 1.0665-0.0873-0.1487-0.12171-0.26856-0.12171-0.62416v-2.9477c0-1.8108 0.15346-2.1 0.15346-2.3027 0-0.0661-0.0529-0.11562-0.11906-0.11562-0.0344 0-0.0661 0.0164-0.10319 0.0331-0.55827 0.23548-1.4023 0.50827-1.8785 0.65723-0.10319 0.0373-0.13494 0.10345-0.13494 0.20664 0 0.13229 0.0476 0.21907 0.15346 0.23574 0.57414 0.10319 0.74348 0.60775 0.74348 1.2195v8.4833c-0.0159 0.45455-0.38894 0.59108-0.72761 0.69453-0.29104 0.0825-0.38893 0.13229-0.38893 0.26855 0 0.13653 0.13493 0.186 0.33866 0.186m8.8027 0c0.67733 0 0.78052-0.0825 1.3705-0.0825 0.59267 0 0.69586 0.0825 1.3732 0.0825 0.20373 0 0.33867-0.0495 0.33867-0.186 0-0.16933-0.20638-0.2024-0.39159-0.26855-0.33602-0.10345-0.7276-0.186-0.7276-0.64505v-3.4891c0-0.57468 0.13494-0.97976 0.45773-1.2197 0.42333-0.3347 0.89693-0.45456 1.4711-0.45456 0.7276 0 1.3573 0.79375 1.3573 1.6081v3.5552c0 0.45905-0.40481 0.5416-0.74348 0.64505-0.18785 0.0661-0.39423 0.0992-0.39423 0.26855 0 0.13653 0.15346 0.186 0.33867 0.186 0.67998 0 0.81492-0.0825 1.4076-0.0825 0.59532 0 0.70909 0.0825 1.3891 0.0825 0.21696 0 0.33866-0.0495 0.33866-0.186 0-0.15293-0.16933-0.21907-0.38893-0.26855-0.33867-0.0868-0.762-0.186-0.762-0.64505v-3.4891c0-0.59135 0.16933-0.97976 0.4736-1.2197 0.42333-0.3347 0.89694-0.45456 1.4737-0.45456 0.7276 0 1.352 0.79375 1.352 1.6081v3.5552c0 0.45905-0.37042 0.55827-0.7276 0.64505-0.21961 0.0495-0.38894 0.0992-0.38894 0.26855 0 0.13653 0.13758 0.186 0.34131 0.186 0.67733 0 0.80963-0.0825 1.4049-0.0825 0.59002 0 0.66146 0.0825 1.3335 0.0825 0.25664 0 0.34131-0.0495 0.34131-0.186 0-0.15293-0.16933-0.2024-0.38894-0.26855-0.33866-0.10345-0.7276-0.186-0.7276-0.64505v-3.605c0-1.1864-0.59267-2.3564-1.696-2.3564-1.1007 0-2.0294 0.52493-2.757 1.17h-0.0529c-0.35719-0.86413-0.87842-1.17-1.6907-1.17-1.3044 0-2.1352 0.64479-2.6432 1.1369h-0.0317c-0.0185-0.0167-0.0344-0.10345-0.0344-0.20267 0-0.32252 0.082-0.93424 0.082-1.0832 0-0.0701-0.0476-0.11986-0.0979-0.11986-0.0714 0-0.11906 0.0497-0.15346 0.0662-0.61119 0.38867-0.81492 0.66146-1.7277 0.88053-0.0873 0.0167-0.13758 0.0704-0.13758 0.20267 0 0.13653 0.0503 0.20664 0.15346 0.22331 0.57414 0.0992 0.64558 0.60775 0.64558 1.2155v3.642c0 0.45905-0.4101 0.5416-0.7329 0.64505-0.21695 0.0661-0.38893 0.11562-0.38893 0.26855s0.15346 0.186 0.34131 0.186" fill="#d95f02"/></g><g fill="none" stroke-linecap="square" stroke-linejoin="bevel" stroke-width="2.73"><g stroke="#7570b3"><polyline class="PedalSegment" transform="matrix(.26458 0 0 .26458 -235 -91.112)" points="663.5 802.79 675.41 832.55"/><polyline class="PedalSegment" transform="matrix(.26458 0 0 .26458 -235 -91.112)" points="675.41 832.55 1687.3 832.55"/><polyline class="PedalSegment" transform="matrix(.26458 0 0 .26458 -235 -91.112)" points="1687.3 832.55 1699.2 802.79"/></g><g stroke="#d95f02"><polyline class="PedalSegment" transform="matrix(.26458 0 0 .26458 -235 -91.112)" points="1838.8 802.79 1850.7 832.55"/><polyline class="PedalSegment" transform="matrix(.26458 0 0 .26458 -235 -91.112)" points="1850.7 832.55 2528.4 832.55"/><polyline class="PedalSegment" transform="matrix(.26458 0 0 .26458 -235 -91.112)" points="2528.4 832.55 2540.3 802.79"/></g></g><g fill="#d95f02" stroke-width=".2625"><path class="NoteDot" d="m292.67 79.981c0 0.72598 0.58652 1.3125 1.3125 1.3125s1.3125-0.58652 1.3125-1.3125-0.58652-1.3125-1.3125-1.3125-1.3125 0.58652-1.3125 1.3125"/><path class="NoteDot" d="m292.67 73.419c0 0.72598 0.58652 1.3125 1.3125 1.3125s1.3125-0.58652 1.3125-1.3125-0.58652-1.3125-1.3125-1.3125-1.3125 0.58652-1.3125 1.3125"/><path class="NoteDot" d="m367.27 79.981c0 0.72598 0.58652 1.3125 1.3125 1.3125s1.3125-0.58652 1.3125-1.3125-0.58652-1.3125-1.3125-1.3125-1.3125 0.58652-1.3125 1.3125"/><path class="NoteDot" d="m371.53 79.981c0 0.72598 0.58652 1.3125 1.3125 1.3125s1.3125-0.58652 1.3125-1.3125-0.58652-1.3125-1.3125-1.3125-1.3125 0.58652-1.3125 1.3125"/><path class="NoteDot" d="m444.67 79.981c0 0.72598 0.58652 1.3125 1.3125 1.3125s1.3125-0.58652 1.3125-1.3125-0.58652-1.3125-1.3125-1.3125-1.3125 0.58652-1.3125 1.3125"/><path class="NoteDot" d="m448.94 79.981c0 0.72598 0.58652 1.3125 1.3125 1.3125s1.3125-0.58652 1.3125-1.3125-0.58652-1.3125-1.3125-1.3125-1.3125 0.58652-1.3125 1.3125"/><path class="NoteDot" d="m444.67 73.419c0 0.72598 0.58652 1.3125 1.3125 1.3125s1.3125-0.58652 1.3125-1.3125-0.58652-1.3125-1.3125-1.3125-1.3125 0.58652-1.3125 1.3125"/><path class="NoteDot" d="m448.94 73.419c0 0.72598 0.58652 1.3125 1.3125 1.3125s1.3125-0.58652 1.3125-1.3125-0.58652-1.3125-1.3125-1.3125-1.3125 0.58652-1.3125 1.3125"/></g></g></svg>
