<?xml version="1.0" encoding="UTF-8" standalone="no"?>
<!-- Created with Inkscape (http://www.inkscape.org/) -->

<svg
   width="712.4986mm"
   height="73.485786mm"
   viewBox="0 0 712.4986 73.485787"
   version="1.1"
   id="svg1382"
   inkscape:version="1.2 (dc2aedaf03, 2022-05-15)"
   sodipodi:docname="straightforward shfit.svg"
   inkscape:export-filename="straightforward shfit.webp"
   inkscape:export-xdpi="96"
   inkscape:export-ydpi="96"
   xmlns:inkscape="http://www.inkscape.org/namespaces/inkscape"
   xmlns:sodipodi="http://sodipodi.sourceforge.net/DTD/sodipodi-0.dtd"
   xmlns:xlink="http://www.w3.org/1999/xlink"
   xmlns="http://www.w3.org/2000/svg"
   xmlns:svg="http://www.w3.org/2000/svg">
  <sodipodi:namedview
     id="namedview1384"
     pagecolor="#ffffff"
     bordercolor="#666666"
     borderopacity="1.0"
     inkscape:showpageshadow="2"
     inkscape:pageopacity="0.0"
     inkscape:pagecheckerboard="0"
     inkscape:deskcolor="#d1d1d1"
     inkscape:document-units="mm"
     showgrid="false"
     inkscape:zoom="0.2973261"
     inkscape:cx="1648.0222"
     inkscape:cy="-336.33105"
     inkscape:window-width="1329"
     inkscape:window-height="451"
     inkscape:window-x="381"
     inkscape:window-y="351"
     inkscape:window-maximized="0"
     inkscape:current-layer="layer1" />
  <defs
     id="defs1379">
    <linearGradient
       inkscape:collect="always"
       id="linearGradient18058">
      <stop
         style="stop-color:#7950df;stop-opacity:1;"
         offset="0"
         id="stop18054" />
      <stop
         style="stop-color:#f36d05;stop-opacity:1;"
         offset="1"
         id="stop18056" />
    </linearGradient>
    <linearGradient
       inkscape:collect="always"
       xlink:href="#linearGradient18058"
       id="linearGradient18060"
       x1="236.32571"
       y1="18.328865"
       x2="262.3249"
       y2="18.328865"
       gradientUnits="userSpaceOnUse"
       gradientTransform="matrix(0.96419429,0,0,1.0010486,8.4636174,-0.01922766)" />
  </defs>
  <g
     inkscape:label="Layer 1"
     inkscape:groupmode="layer"
     id="layer1"
     transform="translate(139.79166,13.198506)">
    <polyline
       class="StaffLines"
       fill="none"
       stroke="#000000"
       stroke-width="2.73"
       stroke-linejoin="bevel"
       points="141.732,315.354 2834.64,315.354"
       id="polyline6"
       transform="matrix(0.26458333,0,0,0.26458333,-177.29158,-60.347345)" />
    <polyline
       class="StaffLines"
       fill="none"
       stroke="#000000"
       stroke-width="2.73"
       stroke-linejoin="bevel"
       points="141.732,340.158 2834.64,340.158"
       id="polyline8"
       transform="matrix(0.26458333,0,0,0.26458333,-177.29158,-60.347345)" />
    <polyline
       class="StaffLines"
       fill="none"
       stroke="#000000"
       stroke-width="2.73"
       stroke-linejoin="bevel"
       points="141.732,364.961 2834.64,364.961"
       id="polyline10"
       transform="matrix(0.26458333,0,0,0.26458333,-177.29158,-60.347345)" />
    <polyline
       class="StaffLines"
       fill="none"
       stroke="#000000"
       stroke-width="2.73"
       stroke-linejoin="bevel"
       points="141.732,389.764 2834.64,389.764"
       id="polyline12"
       transform="matrix(0.26458333,0,0,0.26458333,-177.29158,-60.347345)" />
    <polyline
       class="StaffLines"
       fill="none"
       stroke="#000000"
       stroke-width="2.73"
       stroke-linejoin="bevel"
       points="141.732,414.567 2834.64,414.567"
       id="polyline14"
       transform="matrix(0.26458333,0,0,0.26458333,-177.29158,-60.347345)" />
    <polyline
       class="BarLine"
       fill="none"
       stroke="#000000"
       stroke-width="4.46"
       stroke-linejoin="bevel"
       points="1627.31,313.99 1627.31,415.931"
       id="polyline26"
       transform="matrix(0.26458333,0,0,0.26458333,-177.29158,-60.347345)" />
    <polyline
       class="BarLine"
       fill="none"
       stroke="#000000"
       stroke-width="4.46"
       stroke-linejoin="bevel"
       points="2832.41,313.99 2832.41,415.931"
       id="polyline28"
       transform="matrix(0.26458333,0,0,0.26458333,-177.29158,-60.347345)" />
    <polyline
       class="LedgerLine"
       fill="none"
       stroke="#000000"
       stroke-width="3.97"
       stroke-linejoin="bevel"
       points="456.686,290.551 506.284,290.551"
       id="polyline36"
       transform="matrix(0.26458333,0,0,0.26458333,-177.29158,-60.347345)" />
    <polyline
       class="LedgerLine"
       fill="none"
       stroke="#000000"
       stroke-width="3.97"
       stroke-linejoin="bevel"
       points="649.971,290.551 699.57,290.551"
       id="polyline38"
       transform="matrix(0.26458333,0,0,0.26458333,-177.29158,-60.347345)" />
    <polyline
       class="LedgerLine"
       fill="none"
       stroke="#000000"
       stroke-width="3.97"
       stroke-linejoin="bevel"
       points="843.256,290.551 892.855,290.551"
       id="polyline40"
       transform="matrix(0.26458333,0,0,0.26458333,-177.29158,-60.347345)" />
    <polyline
       class="LedgerLine"
       fill="none"
       stroke="#000000"
       stroke-width="3.97"
       stroke-linejoin="bevel"
       points="1036.54,290.551 1086.14,290.551"
       id="polyline42"
       transform="matrix(0.26458333,0,0,0.26458333,-177.29158,-60.347345)" />
    <polyline
       class="LedgerLine"
       fill="none"
       stroke="#000000"
       stroke-width="3.97"
       stroke-linejoin="bevel"
       points="1229.83,290.551 1279.43,290.551"
       id="polyline44"
       transform="matrix(0.26458333,0,0,0.26458333,-177.29158,-60.347345)"
       style="fill:#7950df;fill-opacity:1;stroke:#7950df;stroke-opacity:1" />
    <polyline
       class="LedgerLine"
       fill="none"
       stroke="#000000"
       stroke-width="3.97"
       stroke-linejoin="bevel"
       points="1423.11,290.551 1472.71,290.551"
       id="polyline46"
       transform="matrix(0.26458333,0,0,0.26458333,-177.29158,-60.347345)"
       style="fill:#7950df;fill-opacity:1;stroke:#7950df;stroke-opacity:1" />
    <polyline
       class="LedgerLine"
       fill="none"
       stroke="#000000"
       stroke-width="3.97"
       stroke-linejoin="bevel"
       points="1661.79,290.551 1711.39,290.551"
       id="polyline48"
       transform="matrix(0.26458333,0,0,0.26458333,-177.29158,-60.347345)"
       style="fill:#f36d05;fill-opacity:1;stroke:#f36d05;stroke-opacity:1" />
    <polyline
       class="LedgerLine"
       fill="none"
       stroke="#000000"
       stroke-width="3.97"
       stroke-linejoin="bevel"
       points="1855.07,290.551 1904.67,290.551"
       id="polyline50"
       transform="matrix(0.26458333,0,0,0.26458333,-177.29158,-60.347345)"
       style="fill:#f36d05;fill-opacity:1;stroke:#f36d05;stroke-opacity:1" />
    <polyline
       class="LedgerLine"
       fill="none"
       stroke="#000000"
       stroke-width="3.97"
       stroke-linejoin="bevel"
       points="2048.36,290.551 2097.96,290.551"
       id="polyline52"
       transform="matrix(0.26458333,0,0,0.26458333,-177.29158,-60.347345)" />
    <polyline
       class="LedgerLine"
       fill="none"
       stroke="#000000"
       stroke-width="3.97"
       stroke-linejoin="bevel"
       points="2241.64,290.551 2291.24,290.551"
       id="polyline54"
       transform="matrix(0.26458333,0,0,0.26458333,-177.29158,-60.347345)" />
    <polyline
       class="LedgerLine"
       fill="none"
       stroke="#000000"
       stroke-width="3.97"
       stroke-linejoin="bevel"
       points="2434.93,290.551 2484.53,290.551"
       id="polyline56"
       transform="matrix(0.26458333,0,0,0.26458333,-177.29158,-60.347345)" />
    <polyline
       class="LedgerLine"
       fill="none"
       stroke="#000000"
       stroke-width="3.97"
       stroke-linejoin="bevel"
       points="2628.21,290.551 2677.81,290.551"
       id="polyline58"
       transform="matrix(0.26458333,0,0,0.26458333,-177.29158,-60.347345)" />
    <polyline
       class="Stem"
       fill="none"
       stroke="#000000"
       stroke-width="2.73"
       stroke-linejoin="bevel"
       points="466.731,293.885 466.731,408.366"
       id="polyline84"
       transform="matrix(0.26458333,0,0,0.26458333,-177.29158,-60.347345)" />
    <polyline
       class="Stem"
       fill="none"
       stroke="#000000"
       stroke-width="2.73"
       stroke-linejoin="bevel"
       points="563.374,331.09 563.374,418.701"
       id="polyline86"
       transform="matrix(0.26458333,0,0,0.26458333,-177.29158,-60.347345)" />
    <polyline
       class="Stem"
       fill="none"
       stroke="#000000"
       stroke-width="2.73"
       stroke-linejoin="bevel"
       points="660.016,293.885 660.016,429.036"
       id="polyline88"
       transform="matrix(0.26458333,0,0,0.26458333,-177.29158,-60.347345)" />
    <polyline
       class="Stem"
       fill="none"
       stroke="#000000"
       stroke-width="2.73"
       stroke-linejoin="bevel"
       points="756.659,355.893 756.659,439.37"
       id="polyline90"
       transform="matrix(0.26458333,0,0,0.26458333,-177.29158,-60.347345)" />
    <polyline
       class="Stem"
       fill="none"
       stroke="#000000"
       stroke-width="2.73"
       stroke-linejoin="bevel"
       points="853.302,293.885 853.302,408.366"
       id="polyline92"
       transform="matrix(0.26458333,0,0,0.26458333,-177.29158,-60.347345)" />
    <polyline
       class="Stem"
       fill="none"
       stroke="#000000"
       stroke-width="2.73"
       stroke-linejoin="bevel"
       points="949.944,331.09 949.944,418.701"
       id="polyline94"
       transform="matrix(0.26458333,0,0,0.26458333,-177.29158,-60.347345)" />
    <polyline
       class="Stem"
       fill="none"
       stroke="#000000"
       stroke-width="2.73"
       stroke-linejoin="bevel"
       points="1046.59,293.885 1046.59,429.036"
       id="polyline96"
       transform="matrix(0.26458333,0,0,0.26458333,-177.29158,-60.347345)" />
    <polyline
       class="Stem"
       fill="none"
       stroke="#000000"
       stroke-width="2.73"
       stroke-linejoin="bevel"
       points="1143.23,355.893 1143.23,439.37"
       id="polyline98"
       transform="matrix(0.26458333,0,0,0.26458333,-177.29158,-60.347345)" />
    <polyline
       class="Stem"
       fill="none"
       stroke="#000000"
       stroke-width="2.73"
       stroke-linejoin="bevel"
       points="1239.87,293.885 1239.87,408.366"
       id="polyline100"
       transform="matrix(0.26458333,0,0,0.26458333,-177.29158,-60.347345)"
       style="fill:#7950df;fill-opacity:1;stroke:#7950df;stroke-opacity:1" />
    <polyline
       class="Stem"
       fill="none"
       stroke="#000000"
       stroke-width="2.73"
       stroke-linejoin="bevel"
       points="1336.51,331.09 1336.51,418.701"
       id="polyline102"
       transform="matrix(0.26458333,0,0,0.26458333,-177.29158,-60.347345)"
       style="fill:#7950df;fill-opacity:1;stroke:#7950df;stroke-opacity:1" />
    <polyline
       class="Stem"
       fill="none"
       stroke="#000000"
       stroke-width="2.73"
       stroke-linejoin="bevel"
       points="1433.16,293.885 1433.16,429.036"
       id="polyline104"
       transform="matrix(0.26458333,0,0,0.26458333,-177.29158,-60.347345)"
       style="fill:#7950df;fill-opacity:1;stroke:#7950df;stroke-opacity:1" />
    <polyline
       class="Stem"
       fill="none"
       stroke="#000000"
       stroke-width="2.73"
       stroke-linejoin="bevel"
       points="1529.8,355.893 1529.8,439.37"
       id="polyline106"
       transform="matrix(0.26458333,0,0,0.26458333,-177.29158,-60.347345)"
       style="fill:#7950df;fill-opacity:1;stroke:#7950df;stroke-opacity:1" />
    <polyline
       class="Stem"
       fill="none"
       stroke="#000000"
       stroke-width="2.73"
       stroke-linejoin="bevel"
       points="1671.83,293.885 1671.83,408.366"
       id="polyline108"
       transform="matrix(0.26458333,0,0,0.26458333,-177.29158,-60.347345)"
       style="fill:#f36d05;fill-opacity:1;stroke:#f36d05;stroke-opacity:1" />
    <polyline
       class="Stem"
       fill="none"
       stroke="#000000"
       stroke-width="2.73"
       stroke-linejoin="bevel"
       points="1768.47,331.09 1768.47,418.701"
       id="polyline110"
       transform="matrix(0.26458333,0,0,0.26458333,-177.29158,-60.347345)"
       style="fill:#f36d05;fill-opacity:1;stroke:#f36d05;stroke-opacity:1" />
    <polyline
       class="Stem"
       fill="none"
       stroke="#000000"
       stroke-width="2.73"
       stroke-linejoin="bevel"
       points="1865.12,293.885 1865.12,429.036"
       id="polyline112"
       transform="matrix(0.26458333,0,0,0.26458333,-177.29158,-60.347345)"
       style="fill:#f36d05;fill-opacity:1;stroke:#f36d05;stroke-opacity:1" />
    <polyline
       class="Stem"
       fill="none"
       stroke="#000000"
       stroke-width="2.73"
       stroke-linejoin="bevel"
       points="1961.76,368.294 1961.76,439.37"
       id="polyline114"
       transform="matrix(0.26458333,0,0,0.26458333,-177.29158,-60.347345)"
       style="fill:#f36d05;fill-opacity:1;stroke:#f36d05;stroke-opacity:1" />
    <polyline
       class="Stem"
       fill="none"
       stroke="#000000"
       stroke-width="2.73"
       stroke-linejoin="bevel"
       points="2058.4,293.885 2058.4,408.366"
       id="polyline116"
       transform="matrix(0.26458333,0,0,0.26458333,-177.29158,-60.347345)" />
    <polyline
       class="Stem"
       fill="none"
       stroke="#000000"
       stroke-width="2.73"
       stroke-linejoin="bevel"
       points="2155.05,331.09 2155.05,418.701"
       id="polyline118"
       transform="matrix(0.26458333,0,0,0.26458333,-177.29158,-60.347345)" />
    <polyline
       class="Stem"
       fill="none"
       stroke="#000000"
       stroke-width="2.73"
       stroke-linejoin="bevel"
       points="2251.69,293.885 2251.69,429.036"
       id="polyline120"
       transform="matrix(0.26458333,0,0,0.26458333,-177.29158,-60.347345)" />
    <polyline
       class="Stem"
       fill="none"
       stroke="#000000"
       stroke-width="2.73"
       stroke-linejoin="bevel"
       points="2348.33,368.294 2348.33,439.37"
       id="polyline122"
       transform="matrix(0.26458333,0,0,0.26458333,-177.29158,-60.347345)" />
    <polyline
       class="Stem"
       fill="none"
       stroke="#000000"
       stroke-width="2.73"
       stroke-linejoin="bevel"
       points="2444.97,293.885 2444.97,408.366"
       id="polyline124"
       transform="matrix(0.26458333,0,0,0.26458333,-177.29158,-60.347345)" />
    <polyline
       class="Stem"
       fill="none"
       stroke="#000000"
       stroke-width="2.73"
       stroke-linejoin="bevel"
       points="2541.62,331.09 2541.62,418.701"
       id="polyline126"
       transform="matrix(0.26458333,0,0,0.26458333,-177.29158,-60.347345)" />
    <polyline
       class="Stem"
       fill="none"
       stroke="#000000"
       stroke-width="2.73"
       stroke-linejoin="bevel"
       points="2638.26,293.885 2638.26,429.036"
       id="polyline128"
       transform="matrix(0.26458333,0,0,0.26458333,-177.29158,-60.347345)" />
    <polyline
       class="Stem"
       fill="none"
       stroke="#000000"
       stroke-width="2.73"
       stroke-linejoin="bevel"
       points="2734.9,368.294 2734.9,439.37"
       id="polyline130"
       transform="matrix(0.26458333,0,0,0.26458333,-177.29158,-60.347345)" />
    <path
       class="Note"
       d="m -45.894479,14.402997 c -0.471686,-0.869545 -1.468346,-1.341205 -2.678314,-1.341205 -0.890032,0 -1.862122,0.2625 -2.809563,0.762878 -1.730873,0.918755 -2.780873,2.465045 -2.780873,3.806258 0,0.365037 0.07793,0.734178 0.2625,1.074609 0.471681,0.865441 1.468359,1.312505 2.678314,1.312505 0.890058,0 1.862122,-0.233782 2.80959,-0.734186 1.730846,-0.91875 2.780846,-2.469141 2.780846,-3.80625 0,-0.369141 -0.07794,-0.734181 -0.2625,-1.074609"
       id="path180"
       style="stroke-width:0.2625" />
    <path
       class="Note"
       d="m -20.324353,24.24682 c -0.471686,-0.869545 -1.468346,-1.341205 -2.678314,-1.341205 -0.890032,0 -1.862122,0.2625 -2.809563,0.762878 -1.730873,0.918755 -2.780873,2.465045 -2.780873,3.806258 0,0.365037 0.07793,0.734178 0.2625,1.074609 0.471681,0.865441 1.468359,1.312505 2.678314,1.312505 0.890059,0 1.862122,-0.233782 2.80959,-0.734186 1.730846,-0.91875 2.780846,-2.469141 2.780846,-3.80625 0,-0.369141 -0.07794,-0.734181 -0.2625,-1.074609"
       id="path182"
       style="stroke-width:0.2625" />
    <path
       class="Note"
       d="M 5.2455095,14.402997 C 4.7738233,13.533452 3.7771633,13.061792 2.5671958,13.061792 c -0.8900325,0 -1.86212255,0.2625 -2.8095638,0.762878 -1.7308725,0.918755 -2.7808725,2.465045 -2.7808725,3.806258 0,0.365037 0.07793,0.734178 0.2625,1.074609 0.471681,0.865441 1.4683594,1.312505 2.67831375,1.312505 0.89005875,0 1.86212255,-0.233782 2.80959005,-0.734186 1.7308462,-0.91875 2.7808462,-2.469141 2.7808462,-3.80625 0,-0.369141 -0.077936,-0.734181 -0.2625,-1.074609"
       id="path184"
       style="stroke-width:0.2625" />
    <path
       class="Note"
       d="m 30.815636,30.80928 c -0.471686,-0.869545 -1.468346,-1.341205 -2.678314,-1.341205 -0.890032,0 -1.862122,0.2625 -2.809563,0.762878 -1.730873,0.918755 -2.780873,2.465045 -2.780873,3.806258 0,0.365037 0.07793,0.734178 0.2625,1.074609 0.471681,0.865441 1.468359,1.312505 2.678314,1.312505 0.890058,0 1.862122,-0.233782 2.80959,-0.734186 1.730846,-0.91875 2.780846,-2.469141 2.780846,-3.80625 0,-0.369141 -0.07794,-0.734181 -0.2625,-1.074609"
       id="path186"
       style="stroke-width:0.2625" />
    <path
       class="Note"
       d="m 56.385498,14.402997 c -0.471686,-0.869545 -1.468346,-1.341205 -2.678314,-1.341205 -0.890032,0 -1.862122,0.2625 -2.809563,0.762878 -1.730873,0.918755 -2.780873,2.465045 -2.780873,3.806258 0,0.365037 0.07793,0.734178 0.2625,1.074609 0.471681,0.865441 1.468359,1.312505 2.678314,1.312505 0.890058,0 1.862122,-0.233782 2.80959,-0.734186 1.730846,-0.91875 2.780846,-2.469141 2.780846,-3.80625 0,-0.369141 -0.07794,-0.734181 -0.2625,-1.074609"
       id="path188"
       style="stroke-width:0.2625" />
    <path
       class="Note"
       d="m 81.955625,24.24682 c -0.471686,-0.869545 -1.468346,-1.341205 -2.678314,-1.341205 -0.890032,0 -1.862122,0.2625 -2.809563,0.762878 -1.730873,0.918755 -2.780873,2.465045 -2.780873,3.806258 0,0.365037 0.07793,0.734178 0.2625,1.074609 0.471681,0.865441 1.468359,1.312505 2.678314,1.312505 0.890058,0 1.862122,-0.233782 2.80959,-0.734186 1.730846,-0.91875 2.780846,-2.469141 2.780846,-3.80625 0,-0.369141 -0.07794,-0.734181 -0.2625,-1.074609"
       id="path190"
       style="stroke-width:0.2625" />
    <path
       class="Note"
       d="m 107.52496,14.402997 c -0.47169,-0.869545 -1.46835,-1.341205 -2.67832,-1.341205 -0.89003,0 -1.86212,0.2625 -2.80956,0.762878 -1.73087,0.918755 -2.780872,2.465045 -2.780872,3.806258 0,0.365037 0.07793,0.734178 0.2625,1.074609 0.471681,0.865441 1.468362,1.312505 2.678312,1.312505 0.89006,0 1.86212,-0.233782 2.80959,-0.734186 1.73085,-0.91875 2.78085,-2.469141 2.78085,-3.80625 0,-0.369141 -0.0779,-0.734181 -0.2625,-1.074609"
       id="path192"
       style="stroke-width:0.2625" />
    <path
       class="Note"
       d="m 133.09694,30.80928 c -0.47169,-0.869545 -1.46835,-1.341205 -2.67831,-1.341205 -0.89004,0 -1.86213,0.2625 -2.80957,0.762878 -1.73087,0.918755 -2.78087,2.465045 -2.78087,3.806258 0,0.365037 0.0779,0.734178 0.2625,1.074609 0.47168,0.865441 1.46836,1.312505 2.67831,1.312505 0.89006,0 1.86213,-0.233782 2.80959,-0.734186 1.73085,-0.91875 2.78085,-2.469141 2.78085,-3.80625 0,-0.369141 -0.0779,-0.734181 -0.2625,-1.074609"
       id="path194"
       style="stroke-width:0.2625" />
    <path
       class="Note"
       d="m 158.66627,14.402997 c -0.47169,-0.869545 -1.46835,-1.341205 -2.67831,-1.341205 -0.89004,0 -1.86213,0.2625 -2.80957,0.762878 -1.73087,0.918755 -2.78087,2.465045 -2.78087,3.806258 0,0.365037 0.0779,0.734178 0.2625,1.074609 0.47168,0.865441 1.46836,1.312505 2.67831,1.312505 0.89006,0 1.86213,-0.233782 2.80959,-0.734186 1.73085,-0.91875 2.78085,-2.469141 2.78085,-3.80625 0,-0.369141 -0.0779,-0.734181 -0.2625,-1.074609"
       id="path196"
       style="fill:#7950df;fill-opacity:1;stroke-width:0.2625" />
    <path
       class="Note"
       d="m 184.2356,24.24682 c -0.47169,-0.869545 -1.46835,-1.341205 -2.67831,-1.341205 -0.89004,0 -1.86213,0.2625 -2.80957,0.762878 -1.73087,0.918755 -2.78087,2.465045 -2.78087,3.806258 0,0.365037 0.0779,0.734178 0.2625,1.074609 0.47168,0.865441 1.46836,1.312505 2.67831,1.312505 0.89006,0 1.86213,-0.233782 2.80959,-0.734186 1.73085,-0.91875 2.78085,-2.469141 2.78085,-3.80625 0,-0.369141 -0.0779,-0.734181 -0.2625,-1.074609"
       id="path198"
       style="fill:#7950df;fill-opacity:1;stroke-width:0.2625" />
    <path
       class="Note"
       d="m 209.80494,14.402997 c -0.47169,-0.869545 -1.46835,-1.341205 -2.67831,-1.341205 -0.89004,0 -1.86213,0.2625 -2.80957,0.762878 -1.73087,0.918755 -2.78087,2.465045 -2.78087,3.806258 0,0.365037 0.0779,0.734178 0.2625,1.074609 0.47168,0.865441 1.46836,1.312505 2.67831,1.312505 0.89006,0 1.86213,-0.233782 2.80959,-0.734186 1.73085,-0.91875 2.78085,-2.469141 2.78085,-3.80625 0,-0.369141 -0.0779,-0.734181 -0.2625,-1.074609"
       id="path200"
       style="fill:#7950df;fill-opacity:1;stroke-width:0.2625" />
    <path
       class="Note"
       d="m 235.37691,30.80928 c -0.47169,-0.869545 -1.46835,-1.341205 -2.67831,-1.341205 -0.89004,0 -1.86213,0.2625 -2.80957,0.762878 -1.73087,0.918755 -2.78087,2.465045 -2.78087,3.806258 0,0.365037 0.0779,0.734178 0.2625,1.074609 0.47168,0.865441 1.46836,1.312505 2.67831,1.312505 0.89006,0 1.86213,-0.233782 2.80959,-0.734186 1.73085,-0.91875 2.78085,-2.469141 2.78085,-3.80625 0,-0.369141 -0.0779,-0.734181 -0.2625,-1.074609"
       id="path202"
       style="fill:#7950df;fill-opacity:1;stroke-width:0.2625" />
    <path
       class="Note"
       d="m 272.95569,14.402997 c -0.47169,-0.869545 -1.46835,-1.341205 -2.67831,-1.341205 -0.89004,0 -1.86213,0.2625 -2.80957,0.762878 -1.73087,0.918755 -2.78087,2.465045 -2.78087,3.806258 0,0.365037 0.0779,0.734178 0.2625,1.074609 0.47168,0.865441 1.46836,1.312505 2.67831,1.312505 0.89006,0 1.86213,-0.233782 2.80959,-0.734186 1.73085,-0.91875 2.78085,-2.469141 2.78085,-3.80625 0,-0.369141 -0.0779,-0.734181 -0.2625,-1.074609"
       id="path204"
       style="fill:#f36d05;fill-opacity:1;stroke-width:0.2625" />
    <path
       class="Note"
       d="m 298.52502,24.24682 c -0.47169,-0.869545 -1.46835,-1.341205 -2.67831,-1.341205 -0.89004,0 -1.86213,0.2625 -2.80957,0.762878 -1.73087,0.918755 -2.78087,2.465045 -2.78087,3.806258 0,0.365037 0.0779,0.734178 0.2625,1.074609 0.47168,0.865441 1.46836,1.312505 2.67831,1.312505 0.89006,0 1.86213,-0.233782 2.80959,-0.734186 1.73085,-0.91875 2.78085,-2.469141 2.78085,-3.80625 0,-0.369141 -0.0779,-0.734181 -0.2625,-1.074609"
       id="path206"
       style="fill:#f36d05;fill-opacity:1;stroke-width:0.2625" />
    <path
       class="Note"
       d="m 324.09435,14.402997 c -0.47169,-0.869545 -1.46835,-1.341205 -2.67831,-1.341205 -0.89004,0 -1.86213,0.2625 -2.80957,0.762878 -1.73087,0.918755 -2.78087,2.465045 -2.78087,3.806258 0,0.365037 0.0779,0.734178 0.2625,1.074609 0.47168,0.865441 1.46836,1.312505 2.67831,1.312505 0.89006,0 1.86213,-0.233782 2.80959,-0.734186 1.73085,-0.91875 2.78085,-2.469141 2.78085,-3.80625 0,-0.369141 -0.0779,-0.734181 -0.2625,-1.074609"
       id="path208"
       style="fill:#f36d05;fill-opacity:1;stroke-width:0.2625" />
    <path
       class="Note"
       d="m 349.66633,34.090643 c -0.47169,-0.869545 -1.46835,-1.341205 -2.67831,-1.341205 -0.89004,0 -1.86213,0.2625 -2.80957,0.762878 -1.73087,0.918755 -2.78087,2.465045 -2.78087,3.806258 0,0.365037 0.0779,0.734178 0.2625,1.074609 0.47168,0.865441 1.46836,1.312505 2.67831,1.312505 0.89006,0 1.86213,-0.233782 2.80959,-0.734186 1.73085,-0.91875 2.78085,-2.469141 2.78085,-3.80625 0,-0.369141 -0.0779,-0.734181 -0.2625,-1.074609"
       id="path210"
       style="fill:#f36d05;fill-opacity:1;stroke-width:0.2625" />
    <path
       class="Note"
       d="m 375.23566,14.402997 c -0.47169,-0.869545 -1.46835,-1.341205 -2.67831,-1.341205 -0.89004,0 -1.86213,0.2625 -2.80957,0.762878 -1.73087,0.918755 -2.78087,2.465045 -2.78087,3.806258 0,0.365037 0.0779,0.734178 0.2625,1.074609 0.47168,0.865441 1.46836,1.312505 2.67831,1.312505 0.89006,0 1.86213,-0.233782 2.80959,-0.734186 1.73085,-0.91875 2.78085,-2.469141 2.78085,-3.80625 0,-0.369141 -0.0779,-0.734181 -0.2625,-1.074609"
       id="path212"
       style="stroke-width:0.2625" />
    <path
       class="Note"
       d="m 400.805,24.24682 c -0.47169,-0.869545 -1.46835,-1.341205 -2.67831,-1.341205 -0.89004,0 -1.86213,0.2625 -2.80957,0.762878 -1.73087,0.918755 -2.78087,2.465045 -2.78087,3.806258 0,0.365037 0.0779,0.734178 0.2625,1.074609 0.47168,0.865441 1.46836,1.312505 2.67831,1.312505 0.89006,0 1.86213,-0.233782 2.80959,-0.734186 1.73085,-0.91875 2.78085,-2.469141 2.78085,-3.80625 0,-0.369141 -0.0779,-0.734181 -0.2625,-1.074609"
       id="path214"
       style="stroke-width:0.2625" />
    <path
       class="Note"
       d="m 426.37433,14.402997 c -0.47169,-0.869545 -1.46835,-1.341205 -2.67831,-1.341205 -0.89004,0 -1.86213,0.2625 -2.80957,0.762878 -1.73087,0.918755 -2.78087,2.465045 -2.78087,3.806258 0,0.365037 0.0779,0.734178 0.2625,1.074609 0.47168,0.865441 1.46836,1.312505 2.67831,1.312505 0.89006,0 1.86213,-0.233782 2.80959,-0.734186 1.73085,-0.91875 2.78085,-2.469141 2.78085,-3.80625 0,-0.369141 -0.0779,-0.734181 -0.2625,-1.074609"
       id="path216"
       style="stroke-width:0.2625" />
    <path
       class="Note"
       d="m 451.94631,34.090643 c -0.47169,-0.869545 -1.46835,-1.341205 -2.67831,-1.341205 -0.89004,0 -1.86213,0.2625 -2.80957,0.762878 -1.73087,0.918755 -2.78087,2.465045 -2.78087,3.806258 0,0.365037 0.0779,0.734178 0.2625,1.074609 0.47168,0.865441 1.46836,1.312505 2.67831,1.312505 0.89006,0 1.86213,-0.233782 2.80959,-0.734186 1.73085,-0.91875 2.78085,-2.469141 2.78085,-3.80625 0,-0.369141 -0.0779,-0.734181 -0.2625,-1.074609"
       id="path218"
       style="stroke-width:0.2625" />
    <path
       class="Note"
       d="m 477.51564,14.402997 c -0.47169,-0.869545 -1.46835,-1.341205 -2.67831,-1.341205 -0.89004,0 -1.86213,0.2625 -2.80957,0.762878 -1.73087,0.918755 -2.78087,2.465045 -2.78087,3.806258 0,0.365037 0.0779,0.734178 0.2625,1.074609 0.47168,0.865441 1.46836,1.312505 2.67831,1.312505 0.89006,0 1.86213,-0.233782 2.80959,-0.734186 1.73085,-0.91875 2.78085,-2.469141 2.78085,-3.80625 0,-0.369141 -0.0779,-0.734181 -0.2625,-1.074609"
       id="path220"
       style="stroke-width:0.2625" />
    <path
       class="Note"
       d="m 503.08497,24.24682 c -0.47169,-0.869545 -1.46835,-1.341205 -2.67831,-1.341205 -0.89004,0 -1.86213,0.2625 -2.80957,0.762878 -1.73087,0.918755 -2.78087,2.465045 -2.78087,3.806258 0,0.365037 0.0779,0.734178 0.2625,1.074609 0.47168,0.865441 1.46836,1.312505 2.67831,1.312505 0.89006,0 1.86213,-0.233782 2.80959,-0.734186 1.73085,-0.91875 2.78085,-2.469141 2.78085,-3.80625 0,-0.369141 -0.0779,-0.734181 -0.2625,-1.074609"
       id="path222"
       style="stroke-width:0.2625" />
    <path
       class="Note"
       d="m 528.65431,14.402997 c -0.47169,-0.869545 -1.46835,-1.341205 -2.67831,-1.341205 -0.89004,0 -1.86213,0.2625 -2.80957,0.762878 -1.73087,0.918755 -2.78087,2.465045 -2.78087,3.806258 0,0.365037 0.0779,0.734178 0.2625,1.074609 0.47168,0.865441 1.46836,1.312505 2.67831,1.312505 0.89006,0 1.86213,-0.233782 2.80959,-0.734186 1.73085,-0.91875 2.78085,-2.469141 2.78085,-3.80625 0,-0.369141 -0.0779,-0.734181 -0.2625,-1.074609"
       id="path224"
       style="stroke-width:0.2625" />
    <path
       class="Note"
       d="m 554.22629,34.090643 c -0.47169,-0.869545 -1.46835,-1.341205 -2.67831,-1.341205 -0.89004,0 -1.86213,0.2625 -2.80957,0.762878 -1.73087,0.918755 -2.78087,2.465045 -2.78087,3.806258 0,0.365037 0.0779,0.734178 0.2625,1.074609 0.47168,0.865441 1.46836,1.312505 2.67831,1.312505 0.89006,0 1.86213,-0.233782 2.80959,-0.734186 1.73085,-0.91875 2.78085,-2.469141 2.78085,-3.80625 0,-0.369141 -0.0779,-0.734181 -0.2625,-1.074609"
       id="path226"
       style="stroke-width:0.2625" />
    <path
       class="Clef"
       d="m -117.90969,41.223219 c -0.32403,-1.423254 -1.01718,-2.428131 -1.22228,-2.698821 -0.83671,-1.123841 -1.89081,-1.870312 -3.12128,-2.227155 -0.81622,-0.229687 -1.60372,-0.2625 -2.23944,-0.213281 -0.27481,-1.579095 -0.53731,-3.121283 -0.77521,-4.552748 1.43146,-1.620097 2.38302,-3.141783 2.98184,-4.26972 0.91056,-1.726751 1.20997,-2.928502 1.22637,-2.981842 0.45116,-1.369909 0.5455,-3.391973 0.25429,-5.545313 -0.2625,-1.981035 -0.8121,-3.744615 -1.43144,-4.59774 -0.2666,-0.373274 -0.5455,-0.566212 -0.81622,-0.566212 -0.31991,0 -0.98025,0.324187 -1.73906,1.0542 -0.60291,0.574087 -1.46016,1.595475 -2.13281,3.174596 -0.78751,1.853906 -0.84491,4.343562 -0.75057,6.107246 0.0984,1.911315 0.38963,3.404284 0.39375,3.416595 0.004,0.0246 0.0738,0.418347 0.18866,1.091003 -0.0574,0.06153 -0.12304,0.118965 -0.18866,0.18459 -0.27072,0.2625 -0.58244,0.557812 -0.94747,0.922845 -0.22559,0.225592 -0.47578,0.46347 -0.73828,0.71778 -2.21484,2.136907 -5.57403,5.373034 -5.57403,10.401555 0,1.234571 0.23789,2.395313 0.70547,3.449415 0.41426,0.943359 1.01719,1.804687 1.78828,2.559375 2.03028,1.985156 4.81113,2.82597 6.66094,2.784968 0.77519,-0.0205 1.46837,-0.08203 2.0959,-0.200971 0.47988,2.522442 0.77929,4.368158 0.7875,5.770879 0.0123,1.710372 -0.42247,2.75625 -1.44375,3.482247 -0.63984,0.455253 -1.37812,0.705468 -2.19024,0.742376 -0.68085,0.03281 -1.27557,-0.09025 -1.64882,-0.196875 h -0.004 c 0,0 -0.0738,-0.02462 -0.0779,-0.07384 -0.004,-0.04922 0.0902,-0.0615 0.0902,-0.0615 h 0.008 c 0.5045,-0.114844 1.43965,-0.438874 2.05897,-1.30431 0.47168,-0.66444 0.70137,-1.878503 0.2174,-2.912096 -0.29122,-0.627559 -0.94747,-1.402748 -2.42403,-1.521687 -0.65625,-0.05331 -1.25097,0.08203 -1.77597,0.397845 -0.47578,0.283001 -0.86953,0.713685 -1.14434,1.238685 -0.64394,1.234564 -0.525,2.739844 0.29531,3.748815 0.77928,0.951563 1.98925,1.558594 3.4166,1.710345 0.22559,0.02462 0.44706,0.03281 0.66856,0.03281 1.16484,0 2.31737,-0.315814 3.25662,-0.894128 0.95978,-0.676751 1.5176,-1.722656 1.69397,-3.199218 0.14766,-1.218158 0.0451,-2.772657 -0.31994,-4.893158 -0.0943,-0.549622 -0.23787,-1.345312 -0.41015,-2.329687 1.50937,-0.504499 2.6004,-1.44375 3.58887,-2.981843 0.86544,-1.50528 1.11153,-3.108991 0.73828,-4.766023 m -8.98243,6.882429 c -1.21816,-0.319935 -2.383,-0.976185 -3.36738,-1.89903 -0.34453,-0.319908 -0.83672,-0.890038 -1.22225,-1.780078 -0.35684,-0.832616 -0.53322,-1.734961 -0.51681,-2.674219 0.0164,-1.234571 0.36094,-2.501953 1.01719,-3.757044 0.767,-1.464251 1.96465,-2.916191 3.55606,-4.314844 0.38144,-0.336315 0.74237,-0.672656 1.07872,-1.008971 0.20097,1.11972 0.41834,2.350189 0.64803,3.629876 -1.00897,0.33222 -2.25585,1.160749 -3.07206,2.645502 -0.93107,1.722669 -0.89416,3.174622 -0.70138,4.08927 0.2461,1.168946 0.91056,2.157424 1.817,2.707038 0.24609,0.147657 1.32891,0.705469 1.81288,0.553718 0.0984,-0.02872 0.16818,-0.09025 0.20509,-0.176374 0.13534,-0.307624 -0.13535,-0.475781 -0.54141,-0.725983 -0.15996,-0.09844 -0.33634,-0.209179 -0.525,-0.348632 -0.87362,-0.652149 -1.25509,-1.821093 -0.97206,-2.973634 0.15175,-0.62754 0.48807,-1.197656 0.97206,-1.644728 0.43476,-0.406053 0.97207,-0.693175 1.5955,-0.861333 0.53732,2.953132 1.07872,5.881654 1.50938,8.075996 0.0328,0.180469 0.0697,0.356817 0.10253,0.53319 -1.14844,0.246094 -2.28866,0.221498 -3.39609,-0.06972 m 2.97365,-8.71584 c 2.71522,-0.123034 3.83494,1.82931 4.06875,3.096692 0.12303,0.668556 0.12303,1.833399 -0.28303,2.940834 -0.30759,0.832598 -0.95156,1.903126 -2.30097,2.444532 -0.0164,-0.110749 -0.0369,-0.225593 -0.0574,-0.336342 -0.40606,-2.305078 -0.91465,-5.192578 -1.42734,-8.145716 m -1.92365,-18.625189 c 0.46759,-1.50528 1.18537,-2.358405 1.71037,-2.813658 0.45937,-0.397872 0.89003,-0.58653 1.13203,-0.58653 0.0369,0 0.0697,0.0082 0.0943,0.01641 0.12306,0.03691 0.2625,0.184564 0.38556,0.414251 0.60703,1.123841 0.41015,2.8875 0.0574,4.052344 -0.42656,1.419154 -1.19353,2.891595 -3.50272,5.414063 -0.0451,-0.291218 -0.0861,-0.566003 -0.12715,-0.824408 -0.32813,-2.173841 -0.242,-4.085156 0.25019,-5.672467"
       id="path276"
       style="stroke-width:0.2625" />
    <path
       class="KeySig"
       d="m -85.380237,26.871918 c 0.159968,-0.02869 0.291218,-0.213281 0.291218,-0.369127 v -1.550404 c 0,-0.20916 -0.159968,-0.365032 -0.369154,-0.365032 h -0.05331 l -0.865436,0.184563 v -3.912877 h -0.734186 v 4.06875 l -2.337883,0.471686 v -3.699622 h -0.734181 v 3.859563 l -1.025391,0.209187 c -0.155859,0.02462 -0.287109,0.209186 -0.287109,0.365032 v 0.05334 1.521673 -0.04922 c 0,0.209178 0.155859,0.365037 0.369141,0.365037 h 0.07793 l 0.865428,-0.184569 v 4.33125 l -1.025391,0.213295 c -0.155859,0.0246 -0.287109,0.20916 -0.287109,0.365032 v 1.521686 c 0,0.213282 0.155859,0.369128 0.369141,0.369128 h 0.07793 l 0.865428,-0.184564 v 3.912878 h 0.734181 v -4.06875 l 2.337883,-0.47166 v 3.699596 h 0.734186 v -3.859564 l 0.996686,-0.184564 c 0.159968,-0.02462 0.291218,-0.209186 0.291218,-0.365058 V 31.56822 c 0,-0.209181 -0.159968,-0.36504 -0.369154,-0.36504 h -0.05331 l -0.865436,0.180468 V 27.0524 l 0.996686,-0.180482 m -4.068755,5.167982 v -4.355859 l 2.337883,-0.471681 v 4.331253 l -2.337883,0.496287"
       id="path280"
       style="stroke-width:0.2625" />
    <path
       class="KeySig"
       d="m -91.942697,17.028096 c 0.159968,-0.02869 0.291218,-0.213281 0.291218,-0.369127 v -1.550404 c 0,-0.20916 -0.159968,-0.365032 -0.369154,-0.365032 h -0.05331 l -0.865436,0.184564 v -3.912878 h -0.734186 v 4.06875 l -2.337883,0.471686 v -3.699622 h -0.734181 v 3.859564 l -1.025391,0.209186 c -0.155859,0.02462 -0.287109,0.209186 -0.287109,0.365032 v 0.05334 1.521673 -0.04922 c 0,0.209178 0.155859,0.365037 0.369141,0.365037 h 0.07793 l 0.865428,-0.184569 v 4.33125 l -1.025391,0.213295 c -0.155859,0.0246 -0.287109,0.20916 -0.287109,0.365032 v 1.521686 c 0,0.213282 0.155859,0.369128 0.369141,0.369128 h 0.07793 l 0.865428,-0.184564 v 3.912878 h 0.734181 v -4.06875 l 2.337883,-0.47166 v 3.699596 h 0.734186 v -3.859564 l 0.996686,-0.184563 c 0.159968,-0.02462 0.291218,-0.209187 0.291218,-0.365059 V 21.7244 c 0,-0.209181 -0.159968,-0.36504 -0.369154,-0.36504 h -0.05331 l -0.865436,0.180468 v -4.33125 l 0.996686,-0.180482 m -4.068755,5.167982 v -4.355859 l 2.337883,-0.471681 v 4.331253 l -2.337883,0.496287"
       id="path282"
       style="stroke-width:0.2625" />
    <path
       class="KeySig"
       d="m -98.505154,30.153016 c 0.159968,-0.02869 0.291218,-0.213281 0.291218,-0.369127 v -1.550404 c 0,-0.20916 -0.159968,-0.365032 -0.369154,-0.365032 h -0.05331 l -0.865436,0.184563 v -3.912877 h -0.734194 v 4.06875 l -2.33788,0.471686 v -3.699622 h -0.73418 v 3.859563 l -1.02539,0.209187 c -0.15586,0.02462 -0.28711,0.209186 -0.28711,0.365032 v 0.05334 1.521673 -0.04922 c 0,0.209178 0.15586,0.365037 0.36914,0.365037 h 0.0779 l 0.86543,-0.184569 v 4.33125 l -1.02539,0.213295 c -0.15586,0.0246 -0.28711,0.20916 -0.28711,0.365032 v 1.521686 c 0,0.213282 0.15586,0.369128 0.36914,0.369128 h 0.0779 l 0.86543,-0.184564 v 3.912878 h 0.73418 v -4.06875 l 2.33788,-0.47166 v 3.699596 h 0.734194 v -3.859564 l 0.996686,-0.184564 c 0.159968,-0.02462 0.291218,-0.209186 0.291218,-0.365058 V 34.84932 c 0,-0.209181 -0.159968,-0.36504 -0.369154,-0.36504 h -0.05331 l -0.865436,0.180468 v -4.33125 l 0.996686,-0.180482 m -4.068754,5.167982 v -4.355859 l 2.33788,-0.471681 v 4.331253 l -2.33788,0.496287"
       id="path284"
       style="stroke-width:0.2625" />
    <path
       class="KeySig"
       d="m -105.06761,20.309193 c 0.15996,-0.02869 0.29121,-0.213281 0.29121,-0.369127 v -1.550404 c 0,-0.20916 -0.15996,-0.365032 -0.36915,-0.365032 h -0.0533 l -0.86544,0.184563 v -3.912877 h -0.73419 v 4.06875 l -2.33788,0.471686 V 15.13713 h -0.73418 v 3.859563 l -1.02539,0.209187 c -0.15586,0.02462 -0.28711,0.209186 -0.28711,0.365032 v 0.05334 1.521673 -0.04922 c 0,0.209178 0.15586,0.365037 0.36914,0.365037 h 0.0779 l 0.86543,-0.184569 v 4.33125 l -1.02539,0.213295 c -0.15586,0.0246 -0.28711,0.20916 -0.28711,0.365032 v 1.521686 c 0,0.213282 0.15586,0.369128 0.36914,0.369128 h 0.0779 L -109.8706,27.893 v 3.912878 h 0.73418 v -4.06875 l 2.33788,-0.47166 v 3.699596 h 0.73419 V 27.1055 l 0.99669,-0.184563 c 0.15996,-0.02462 0.29121,-0.209187 0.29121,-0.365059 v -1.550383 c 0,-0.209181 -0.15996,-0.36504 -0.36915,-0.36504 h -0.0533 l -0.86544,0.180468 v -4.33125 l 0.99669,-0.180482 m -4.06876,5.167982 v -4.355859 l 2.33788,-0.471681 v 4.331253 l -2.33788,0.496287"
       id="path286"
       style="stroke-width:0.2625" />
    <path
       class="TimeSig"
       d="m -70.760309,29.365666 h 0.05334 c 2.1,-0.816213 2.23125,-2.182032 2.23125,-2.653705 v -0.13125 c 0,-0.233809 -0.07794,-3.20334 -4.59375,-3.20334 -4.515832,0 -4.384582,3.20334 -4.384582,3.20334 h 0.02871 l -0.02871,0.05331 c 0,0.943359 0.76289,1.681641 1.70625,1.681641 0.947459,0 1.681646,-0.738282 1.681646,-1.681641 0,-0.762904 -0.578314,-1.497064 -1.312506,-1.652936 l 0.07793,-0.07794 c 0.36914,-0.2625 0.865423,-0.39375 1.365827,-0.39375 1.103313,0 2.284563,0.65625 2.284563,2.071309 0,1.652923 -1.234563,1.890814 -1.550377,1.944133 -0.31584,0.05332 -1.784186,0.155859 -2.100013,0.155859 -0.315819,0 -0.340428,0.369141 -0.340428,0.369141 v 0.525001 c 0,0 0.05332,0.28711 0.340428,0.315821 0.447077,0.02461 1.050013,0.02461 1.890827,0.155859 1.152532,0.155859 1.759563,0.943359 1.759563,2.780873 0,1.759563 -1.18125,2.231249 -2.284563,2.231249 -0.734187,0 -1.419146,-0.209186 -1.706255,-0.418372 0.865441,-0.05331 1.575005,-0.812096 1.575005,-1.681628 0,-0.943372 -0.734187,-1.706263 -1.681646,-1.706263 -0.94336,0 -1.70625,0.762891 -1.70625,1.706263 0,0 -0.13125,1.181251 1.02539,2.259942 1.021288,0.943372 2.309192,0.97209 2.887506,0.97209 2.518346,0 5.25,-0.869531 5.25,-3.72834 0,-1.915423 -1.3125,-2.731634 -2.469154,-3.096673"
       id="path296"
       style="stroke-width:0.2625" />
    <path
       class="TimeSig"
       d="m -77.946241,46.056849 h 4.507611 v 1.956439 h -2.157409 c -0.205091,0 -0.373249,0.164063 -0.373249,0.369154 v 0.500377 c 0,0.205092 0.168158,0.369154 0.373249,0.369154 h 7.940625 c 0.205065,0 0.369128,-0.164062 0.369128,-0.369154 v -0.500377 c 0,-0.205091 -0.164063,-0.369154 -0.369128,-0.369154 h -2.346094 v -1.956439 h 2.346094 c 0.205065,0 0.369128,-0.164062 0.369128,-0.369127 v -0.500404 c 0,-0.205078 -0.164063,-0.36914 -0.369128,-0.36914 h -2.346094 v -4.191797 c 0,-0.139453 -0.08203,-0.266603 -0.205091,-0.328125 l -0.319909,-0.159962 c -0.139466,-0.06563 -0.303528,-0.04101 -0.418372,0.06152 l -2.374785,2.182032 c -0.07384,0.07383 -0.118965,0.168164 -0.118965,0.274804 v 2.161524 h -3.022845 c 0,0 2.920313,-3.158204 6.02931,-7.296674 0.225566,-0.303528 0.09432,-0.578339 0.0451,-0.627558 l -0.570098,-0.578314 c -0.06975,-0.06972 -0.164063,-0.110749 -0.2625,-0.110749 -0.155873,0 -3.716029,0.0082 -3.904687,0 -0.188686,-0.0041 -0.328125,0.159968 -0.348653,0.319935 0,0 -0.13944,1.931843 -0.824408,4.06875 -0.680859,2.128711 -1.451953,3.43711 -2.149218,4.388672 0,0 -0.143554,0.2584 -0.04922,0.455267 0.09023,0.196875 0.2584,0.479902 0.2584,0.479902 0,0 0.06562,0.13944 0.291209,0.13944"
       id="path298"
       style="stroke-width:0.2625" />
    <path
       class="Beam"
       fill-rule="evenodd"
       d="m -54.163229,46.049549 77.431899,8.2804 v 3.299884 l -77.431899,-8.2804 v -3.299884"
       id="path300"
       style="stroke-width:0.264583" />
    <path
       class="Beam"
       fill-rule="evenodd"
       d="m -54.163229,41.12777 77.431899,8.280136 v 3.300148 l -77.431899,-8.2804 V 41.12777"
       id="path302"
       style="stroke-width:0.264583" />
    <path
       class="Beam"
       fill-rule="evenodd"
       d="m 48.116748,46.049549 77.431102,8.2804 v 3.299884 l -77.431102,-8.2804 v -3.299884"
       id="path304"
       style="stroke-width:0.264583" />
    <path
       class="Beam"
       fill-rule="evenodd"
       d="m 48.116748,41.12777 77.431102,8.280136 v 3.300148 l -77.431102,-8.2804 V 41.12777"
       id="path306"
       style="stroke-width:0.264583" />
    <path
       class="Beam"
       fill-rule="evenodd"
       d="m 150.39752,46.049549 77.43031,8.2804 v 3.299884 l -77.43031,-8.2804 v -3.299884"
       id="path308"
       style="fill:#7950df;fill-opacity:1;stroke:#7950df;stroke-width:0.264583;stroke-opacity:1" />
    <path
       class="Beam"
       fill-rule="evenodd"
       d="m 150.39752,41.12777 77.43031,8.280136 v 3.300148 l -77.43031,-8.2804 V 41.12777"
       id="path310"
       style="fill:#7950df;fill-opacity:1;stroke:#7950df;stroke-width:0.264583;stroke-opacity:1" />
    <path
       class="Beam"
       fill-rule="evenodd"
       d="m 264.68694,46.049549 77.43031,8.2804 v 3.299884 l -77.43031,-8.2804 v -3.299884"
       id="path312"
       style="fill:#f36d05;fill-opacity:1;stroke:#f36d05;stroke-width:0.264583;stroke-opacity:1" />
    <path
       class="Beam"
       fill-rule="evenodd"
       d="m 264.68694,41.12777 77.43031,8.280136 v 3.300148 l -77.43031,-8.2804 V 41.12777"
       id="path314"
       style="fill:#f36d05;fill-opacity:1;stroke:#f36d05;stroke-width:0.264583;stroke-opacity:1" />
    <path
       class="Beam"
       fill-rule="evenodd"
       d="m 366.96691,46.049549 77.43031,8.2804 v 3.299884 l -77.43031,-8.2804 v -3.299884"
       id="path316"
       style="stroke-width:0.264583" />
    <path
       class="Beam"
       fill-rule="evenodd"
       d="m 366.96691,41.12777 77.43031,8.280136 v 3.300148 l -77.43031,-8.2804 V 41.12777"
       id="path318"
       style="stroke-width:0.264583" />
    <path
       class="Beam"
       fill-rule="evenodd"
       d="m 469.24689,46.049549 77.43296,8.2804 v 3.299884 l -77.43296,-8.2804 v -3.299884"
       id="path320"
       style="stroke-width:0.264583" />
    <path
       class="Beam"
       fill-rule="evenodd"
       d="m 469.24689,41.12777 77.43296,8.280136 v 3.300148 l -77.43296,-8.2804 V 41.12777"
       id="path322"
       style="stroke-width:0.264583" />
    <path
       class="Fingering"
       d="m -48.112738,9.602402 c -0.04683,0 -0.123296,-0.00344 -0.229394,-0.010319 -0.106098,-0.00688 -0.226748,-0.014552 -0.361685,-0.022754 -0.135202,-0.0082 -0.274373,-0.015875 -0.417513,-0.022754 -0.143404,-0.00688 -0.282575,-0.010319 -0.417512,-0.010319 -0.135202,0 -0.325967,0.00344 -0.572823,0.010319 -0.246592,0.00688 -0.505619,0.012435 -0.777081,0.016669 -0.271463,0.00397 -0.509323,0.00953 -0.713052,0.016404 -0.203994,0.00688 -0.334963,0.010319 -0.392906,0.010319 -0.02752,0 -0.06959,-0.022754 -0.125942,-0.068263 -0.05662,-0.045508 -0.08493,-0.082021 -0.08493,-0.1095375 0,-0.035719 0.0069,-0.06059 0.0209,-0.074348 0.01376,-0.013758 0.0344,-0.035719 0.06191,-0.066146 l 1.810808,-1.8727208 c 0.35269,-0.3664479 0.645584,-0.7773459 0.878417,-1.2319 0.232833,-0.4548188 0.34925,-0.9151938 0.34925,-1.3808604 0,-0.3749146 -0.112977,-0.6696604 -0.338931,-0.8847667 -0.225954,-0.2148416 -0.490538,-0.3225271 -0.79375,-0.3225271 -0.289454,0 -0.557477,0.079375 -0.804069,0.2378605 -0.246592,0.1584854 -0.4445,0.3659187 -0.593196,0.6220354 -0.01931,0.041539 -0.04498,0.075935 -0.07646,0.103452 -0.03175,0.027517 -0.06562,0.041275 -0.101336,0.041275 -0.03043,0 -0.06482,-0.029633 -0.103452,-0.0889 -0.03863,-0.059267 -0.05768,-0.1341437 -0.05768,-0.2251604 0,-0.08546 0.05159,-0.2026708 0.154781,-0.3513666 0.103452,-0.1489604 0.246857,-0.3005667 0.429948,-0.4548188 0.183356,-0.1542521 0.401902,-0.2865437 0.655373,-0.396875 0.253471,-0.1103312 0.527844,-0.1653645 0.82259,-0.1653645 0.352954,0 0.656696,0.074348 0.911754,0.2233083 0.254794,0.1486958 0.449262,0.3534833 0.582877,0.6138333 0.133615,0.26035 0.200554,0.5643563 0.200554,0.9114896 0,0.1902354 -0.03387,0.3947583 -0.101335,0.6140979 -0.06747,0.219075 -0.159279,0.4339167 -0.274902,0.6447896 -0.115888,0.2108729 -0.24818,0.4085166 -0.396875,0.5931958 -0.09102,0.1129771 -0.226748,0.2624667 -0.407194,0.4487333 -0.180711,0.1860021 -0.374915,0.3849688 -0.582877,0.5971646 -0.208227,0.2124604 -0.405342,0.4122208 -0.591344,0.5995458 -0.186002,0.187325 -0.338931,0.3423708 -0.458787,0.4651375 -0.119857,0.1225021 -0.179917,0.1907646 -0.179917,0.2045229 0,0.035983 0.04815,0.06059 0.144727,0.074612 0.121179,0.0082 0.257704,0.01561 0.40931,0.02249 0.151607,0.00714 0.326496,0.010583 0.524934,0.010583 0.203993,0 0.407987,-0.00344 0.611981,-0.010583 0.203994,-0.00688 0.400844,-0.014288 0.591079,-0.02249 0.20664,-0.014023 0.366713,-0.031221 0.47969,-0.051858 0.112977,-0.020637 0.207962,-0.064823 0.285221,-0.1322917 0.07699,-0.067469 0.158485,-0.17145 0.243945,-0.3119437 0.02752,-0.04154 0.06403,-0.09234 0.109538,-0.1531938 0.04551,-0.060589 0.0971,-0.090752 0.155046,-0.090752 0.03307,0 0.05371,0.013758 0.06191,0.041275 0.0082,0.027517 0.01244,0.056356 0.01244,0.086783 0,0.035719 -0.02011,0.104775 -0.06006,0.2066396 -0.03995,0.1021291 -0.08387,0.2267479 -0.132291,0.3741208 -0.04816,0.1476375 -0.09022,0.3095625 -0.125942,0.485775 -0.02222,0.1129771 -0.05794,0.18415 -0.107421,0.2129896 -0.04974,0.02884 -0.09234,0.043392 -0.128323,0.043392"
       id="path348"
       style="stroke-width:0.264583" />
    <path
       class="Fingering"
       d="m -24.382259,19.561848 c -0.35851,0 -0.669925,-0.09922 -0.934508,-0.297657 -0.264584,-0.198437 -0.484982,-0.461697 -0.661459,-0.789516 -0.176212,-0.328083 -0.307181,-0.688975 -0.392641,-1.083204 -0.08546,-0.393965 -0.128059,-0.785548 -0.128059,-1.173957 0,-0.402431 0.0426,-0.808302 0.128059,-1.217612 0.08546,-0.40931 0.217752,-0.783431 0.396875,-1.122363 0.179123,-0.338931 0.409839,-0.61251 0.692414,-0.820737 0.282575,-0.207963 0.618067,-0.311944 1.00674,-0.311944 0.358246,0 0.66966,0.09922 0.934244,0.297656 0.264583,0.198438 0.484981,0.461434 0.661458,0.789517 0.176477,0.328083 0.307446,0.687652 0.392642,1.078971 0.08546,0.391319 0.128322,0.777346 0.128322,1.157552 0,0.396875 -0.04286,0.799306 -0.128322,1.207294 -0.0852,0.407723 -0.217488,0.784754 -0.396875,1.130564 -0.179123,0.345811 -0.408517,0.624946 -0.688182,0.837142 -0.279664,0.212196 -0.616743,0.318294 -1.010708,0.318294 m 0.181769,-0.277019 c 0.281252,0 0.507735,-0.14261 0.679979,-0.427831 0.172244,-0.285221 0.297656,-0.657225 0.376237,-1.116277 0.07858,-0.458788 0.118005,-0.952765 0.118005,-1.481932 0,-0.394229 -0.03043,-0.782108 -0.09102,-1.163902 -0.06059,-0.381529 -0.1524,-0.727604 -0.274902,-1.037431 -0.122767,-0.310092 -0.274373,-0.556948 -0.454819,-0.740039 -0.180446,-0.183357 -0.39079,-0.274903 -0.630502,-0.274903 -0.280988,0 -0.50509,0.137584 -0.671777,0.41328 -0.166688,0.275695 -0.286544,0.64082 -0.359569,1.095639 -0.07303,0.454819 -0.109537,0.946679 -0.109537,1.475846 0,0.393965 0.02963,0.785548 0.0889,1.173956 0.05927,0.388673 0.147373,0.74004 0.264583,1.054365 0.116946,0.31406 0.26379,0.564356 0.440267,0.750358 0.176212,0.186002 0.384439,0.278871 0.624152,0.278871"
       id="path350"
       style="stroke-width:0.264583" />
    <path
       class="Fingering"
       d="m 3.0272511,9.602402 c -0.046831,0 -0.1232959,-0.00344 -0.2293938,-0.010319 C 2.6917594,9.5852041 2.5711094,9.5775312 2.4361719,9.5693291 2.3012344,9.561127 2.1620636,9.5534541 2.0186594,9.546575 1.8752552,9.5396958 1.7360844,9.5362562 1.6011469,9.5362562 c -0.1352021,0 -0.3259666,0.00344 -0.5725583,0.010319 -0.24685626,0.00688 -0.50588334,0.012435 -0.77734584,0.016669 -0.27146249,0.00397 -0.50905832,0.00953 -0.71305207,0.016404 -0.20399375,0.00688 -0.3349625,0.010319 -0.39290625,0.010319 -0.0275167,0 -0.0695854,-0.022754 -0.12594166,-0.068263 -0.0566209,-0.045508 -0.0846667,-0.082021 -0.0846667,-0.1095375 0,-0.035719 0.00688,-0.06059 0.020638,-0.074348 0.013758,-0.013758 0.034396,-0.035719 0.0619125,-0.066146 L 0.82803442,7.3989521 C 1.180724,7.0325042 1.4736177,6.6216062 1.7064511,6.1670521 1.9392844,5.7122333 2.0557011,5.2518583 2.0557011,4.7861917 2.0557011,4.4112771 1.942724,4.1165313 1.7167698,3.901425 1.4908157,3.6865834 1.2262323,3.5788979 0.92301984,3.5788979 c -0.28945416,0 -0.55747708,0.079375 -0.80406874,0.2378605 -0.24659167,0.1584854 -0.4445,0.3659187 -0.59319583,0.6220354 -0.0193146,0.041539 -0.0447146,0.075935 -0.0764646,0.103452 -0.03175,0.027517 -0.0653521,0.041275 -0.10133542,0.041275 -0.0301625,0 -0.0648229,-0.029633 -0.10345208,-0.0889 -0.0383646,-0.059267 -0.0576792,-0.1341437 -0.0576792,-0.2251604 0,-0.08546 0.0515938,-0.2026708 0.15504583,-0.3513666 C -0.55494264,3.7691334 -0.41153848,3.6175271 -0.22818223,3.463275 -0.04509057,3.3090229 0.17345526,3.1767313 0.42692609,3.0664 0.68066151,2.9560688 0.95476984,2.9010355 1.2497803,2.9010355 c 0.3526895,0 0.6564312,0.074348 0.9114895,0.2233083 0.2547938,0.1486958 0.4492625,0.3534833 0.5828771,0.6138333 0.1336146,0.26035 0.2005542,0.5643563 0.2005542,0.9114896 0,0.1902354 -0.033867,0.3947583 -0.1013355,0.6140979 C 2.7758969,5.4828396 2.6840865,5.6976813 2.5684636,5.9085542 2.4525761,6.1194271 2.3202844,6.3170708 2.1715886,6.50175 2.0805719,6.6147271 1.9448407,6.7642167 1.7643948,6.9504833 1.583949,7.1364854 1.3894802,7.3354521 1.1815178,7.5476479 0.97329067,7.7601083 0.77644067,7.9598687 0.59017401,8.1471937 0.40417193,8.3345187 0.25124276,8.4895645 0.13138651,8.6123312 0.01153027,8.7348333 -0.04853015,8.8030958 -0.04853015,8.8168541 c 0,0.035983 0.0484187497,0.06059 0.14472708,0.074612 0.12144375,0.0082 0.25770417,0.01561 0.40931041,0.02249 0.15160625,0.00714 0.32649583,0.010583 0.52493336,0.010583 0.2039937,0 0.4079875,-0.00344 0.6119812,-0.010583 0.2039938,-0.00688 0.4011083,-0.014288 0.5910792,-0.02249 0.2069041,-0.014023 0.3667125,-0.031221 0.4796895,-0.051858 0.1129771,-0.020637 0.2079625,-0.064823 0.2852209,-0.1322917 0.077258,-0.067469 0.1584854,-0.17145 0.2439458,-0.3119437 0.027517,-0.04154 0.064029,-0.09234 0.1095375,-0.1531938 0.045508,-0.060589 0.097102,-0.090752 0.1550458,-0.090752 0.033073,0 0.05371,0.013758 0.061913,0.041275 0.0082,0.027517 0.012436,0.056356 0.012436,0.086783 0,0.035719 -0.019844,0.104775 -0.059796,0.2066396 -0.040217,0.1021291 -0.084138,0.2267479 -0.1322916,0.3741208 -0.048419,0.1476375 -0.090488,0.3095625 -0.1262063,0.485775 -0.02196,0.1129771 -0.057944,0.18415 -0.1074208,0.2129896 -0.049742,0.02884 -0.09234,0.043392 -0.1283229,0.043392"
       id="path352"
       style="stroke-width:0.264583" />
    <path
       class="Fingering"
       d="m 25.298288,19.577458 c -0.04948,0 -0.0889,-0.01455 -0.117739,-0.04339 -0.02884,-0.0291 -0.04339,-0.05715 -0.04339,-0.08493 0,-0.06323 0.05371,-0.108744 0.161131,-0.13626 0.267494,-0.0717 0.487892,-0.137054 0.661459,-0.196321 0.173566,-0.05927 0.300566,-0.144198 0.38047,-0.254265 0.07991,-0.110331 0.119857,-0.267493 0.119857,-0.471487 v -4.043098 c 0,-0.132292 -0.04207,-0.234156 -0.126207,-0.305858 -0.08387,-0.0717 -0.192881,-0.121179 -0.326495,-0.148961 -0.133615,-0.02752 -0.279136,-0.04524 -0.436298,-0.05371 -0.06879,-0.0056 -0.131498,-0.02275 -0.187854,-0.05159 -0.05662,-0.02884 -0.08493,-0.07091 -0.08493,-0.126206 0,-0.04948 0.02619,-0.09234 0.07858,-0.128058 0.05239,-0.03572 0.1143,-0.05636 0.186002,-0.06191 0.31697,-0.04974 0.600868,-0.111654 0.851693,-0.186002 0.250825,-0.07461 0.496094,-0.23151 0.735807,-0.471488 0.0056,-0.0056 0.01376,-0.0082 0.02487,-0.0082 0.01111,0 0.02064,0 0.02884,0 0.03307,0 0.06429,0.0082 0.09313,0.02487 0.02884,0.0164 0.03916,0.03995 0.03096,0.07011 -0.01376,0.104775 -0.02408,0.219339 -0.03096,0.343164 -0.0069,0.12409 -0.01032,0.259027 -0.01032,0.405342 v 4.869921 c 0,0.176212 0.0336,0.310092 0.101335,0.400844 0.06747,0.09102 0.181769,0.163512 0.343165,0.217222 0.161131,0.05371 0.386291,0.115094 0.675745,0.183886 0.04419,0.0082 0.08546,0.02487 0.12409,0.04974 0.03863,0.02461 0.05794,0.05503 0.05794,0.09075 0,0.07726 -0.04974,0.115887 -0.148961,0.115887 -0.198437,0 -0.380206,-0.0056 -0.545571,-0.01667 -0.165364,-0.01085 -0.327289,-0.01984 -0.485774,-0.02672 -0.158486,-0.0069 -0.332846,-0.01032 -0.523082,-0.01032 -0.190235,0 -0.369887,0.0034 -0.539485,0.01032 -0.169333,0.0069 -0.338931,0.01588 -0.508529,0.02672 -0.169334,0.01111 -0.34925,0.01667 -0.539486,0.01667"
       id="path354"
       style="stroke-width:0.264583" />
    <path
       class="Fingering"
       d="m 207.58721,9.602402 c -0.0476,0 -0.12171,-0.00344 -0.23019,-0.010319 -0.10583,-0.00688 -0.2249,-0.014552 -0.35983,-0.022754 -0.13494,-0.0082 -0.27517,-0.015875 -0.41805,-0.022754 -0.14287,-0.00688 -0.2831,-0.010319 -0.41804,-0.010319 -0.13493,0 -0.32543,0.00344 -0.5715,0.010319 -0.24871,0.00688 -0.50535,0.012435 -0.77787,0.016669 -0.27252,0.00397 -0.51065,0.00953 -0.71438,0.016404 -0.20373,0.00688 -0.33337,0.010319 -0.39158,0.010319 -0.0265,0 -0.0688,-0.022754 -0.127,-0.068263 -0.0556,-0.045508 -0.0847,-0.082021 -0.0847,-0.1095375 0,-0.035719 0.008,-0.06059 0.0212,-0.074348 0.0132,-0.013758 0.0344,-0.035719 0.0609,-0.066146 l 1.8124,-1.8727208 c 0.3519,-0.3664479 0.64558,-0.7773459 0.87842,-1.2319 0.23283,-0.4548188 0.34925,-0.9151938 0.34925,-1.3808604 0,-0.3749146 -0.11377,-0.6696604 -0.33867,-0.8847667 -0.22754,-0.2148416 -0.49213,-0.3225271 -0.79375,-0.3225271 -0.29104,0 -0.55827,0.079375 -0.80433,0.2378605 -0.24607,0.1584854 -0.4445,0.3659187 -0.59267,0.6220354 -0.0212,0.041539 -0.045,0.075935 -0.0767,0.103452 -0.0318,0.027517 -0.0661,0.041275 -0.10319,0.041275 -0.0291,0 -0.0635,-0.029633 -0.10318,-0.0889 -0.0371,-0.059267 -0.0556,-0.1341437 -0.0556,-0.2251604 0,-0.08546 0.0503,-0.2026708 0.15346,-0.3513666 0.10319,-0.1489604 0.24606,-0.3005667 0.43127,-0.4548188 0.18256,-0.1542521 0.39952,-0.2865437 0.65352,-0.396875 0.254,-0.1103312 0.52917,-0.1653645 0.82286,-0.1653645 0.35454,0 0.65616,0.074348 0.91281,0.2233083 0.254,0.1486958 0.44979,0.3534833 0.58208,0.6138333 0.13494,0.26035 0.20109,0.5643563 0.20109,0.9114896 0,0.1902354 -0.0344,0.3947583 -0.10055,0.6140979 -0.0688,0.219075 -0.16139,0.4339167 -0.27516,0.6447896 -0.11642,0.2108729 -0.24871,0.4085166 -0.39688,0.5931958 -0.0926,0.1129771 -0.22754,0.2624667 -0.40746,0.4487333 -0.17991,0.1860021 -0.3757,0.3849688 -0.58472,0.5971646 -0.20638,0.2124604 -0.40482,0.4122208 -0.59003,0.5995458 -0.1852,0.187325 -0.33866,0.3423708 -0.45772,0.4651375 -0.12171,0.1225021 -0.17992,0.1907646 -0.17992,0.2045229 0,0.035983 0.0476,0.06059 0.14287,0.074612 0.12171,0.0082 0.2593,0.01561 0.41011,0.02249 0.15081,0.00714 0.32544,0.010583 0.52387,0.010583 0.20638,0 0.41011,-0.00344 0.61384,-0.010583 0.20373,-0.00688 0.39952,-0.014288 0.59002,-0.02249 0.20637,-0.014023 0.36777,-0.031221 0.47889,-0.051858 0.11377,-0.020637 0.20902,-0.064823 0.28575,-0.1322917 0.0767,-0.067469 0.15875,-0.17145 0.24342,-0.3119437 0.0291,-0.04154 0.0661,-0.09234 0.11112,-0.1531938 0.045,-0.060589 0.0952,-0.090752 0.15346,-0.090752 0.0344,0 0.0556,0.013758 0.0635,0.041275 0.008,0.027517 0.0106,0.056356 0.0106,0.086783 0,0.035719 -0.0185,0.104775 -0.0582,0.2066396 -0.0397,0.1021291 -0.0847,0.2267479 -0.13229,0.3741208 -0.0476,0.1476375 -0.09,0.3095625 -0.127,0.485775 -0.0212,0.1129771 -0.0582,0.18415 -0.10584,0.2129896 -0.0503,0.02884 -0.0926,0.043392 -0.12964,0.043392"
       id="path356"
       style="stroke-width:0.264583" />
    <path
       class="Fingering"
       d="m 229.85983,19.577458 c -0.0503,0 -0.09,-0.01455 -0.11906,-0.04339 -0.0291,-0.0291 -0.0423,-0.05715 -0.0423,-0.08493 0,-0.06323 0.0529,-0.108744 0.16139,-0.13626 0.26723,-0.0717 0.48683,-0.137054 0.66146,-0.196321 0.17198,-0.05927 0.29898,-0.144198 0.37835,-0.254265 0.0794,-0.110331 0.12171,-0.267493 0.12171,-0.471487 v -4.043098 c 0,-0.132292 -0.0423,-0.234156 -0.127,-0.305858 -0.0847,-0.0717 -0.19314,-0.121179 -0.32808,-0.148961 -0.13229,-0.02752 -0.27781,-0.04524 -0.43392,-0.05371 -0.0688,-0.0056 -0.13229,-0.02275 -0.18785,-0.05159 -0.0582,-0.02884 -0.0847,-0.07091 -0.0847,-0.126206 0,-0.04948 0.0238,-0.09234 0.0767,-0.128058 0.0529,-0.03572 0.11377,-0.05636 0.18785,-0.06191 0.31486,-0.04974 0.60061,-0.111654 0.84932,-0.186002 0.25135,-0.07461 0.49741,-0.23151 0.73818,-0.471488 0.005,-0.0056 0.0132,-0.0082 0.0238,-0.0082 0.0106,0 0.0212,0 0.0291,0 0.0318,0 0.0635,0.0082 0.0926,0.02487 0.0291,0.0164 0.0397,0.03995 0.0318,0.07011 -0.0159,0.104775 -0.0238,0.219339 -0.0318,0.343164 -0.008,0.12409 -0.0106,0.259027 -0.0106,0.405342 v 4.869921 c 0,0.176212 0.0344,0.310092 0.10054,0.400844 0.0688,0.09102 0.18257,0.163512 0.34396,0.217222 0.1614,0.05371 0.38629,0.115094 0.67734,0.183886 0.0423,0.0082 0.0847,0.02487 0.1217,0.04974 0.0397,0.02461 0.0582,0.05503 0.0582,0.09075 0,0.07726 -0.0476,0.115887 -0.14816,0.115887 -0.19844,0 -0.381,-0.0056 -0.54505,-0.01667 -0.16668,-0.01085 -0.32808,-0.01984 -0.48683,-0.02672 -0.15875,-0.0069 -0.33337,-0.01032 -0.52123,-0.01032 -0.1905,0 -0.37042,0.0034 -0.53975,0.01032 -0.16933,0.0069 -0.34131,0.01588 -0.51064,0.02672 -0.16934,0.01111 -0.34925,0.01667 -0.53711,0.01667"
       id="path358"
       style="stroke-width:0.264583" />
    <path
       class="Fingering"
       d="m 268.13975,9.7058541 c -0.1614,0 -0.33338,-0.026194 -0.51859,-0.078581 -0.18256,-0.052388 -0.33866,-0.1137709 -0.46566,-0.18415 -0.12436,-0.070115 -0.18786,-0.1341438 -0.18786,-0.1920875 0,-0.049742 0.0265,-0.1129771 0.0847,-0.1902354 0.0556,-0.076994 0.12171,-0.14605 0.19579,-0.2066396 0.0741,-0.06059 0.13494,-0.091017 0.18521,-0.091017 0.0767,0 0.14817,0.021431 0.21167,0.064029 0.0635,0.042863 0.12964,0.093133 0.19843,0.1510771 0.0926,0.076994 0.20109,0.1508125 0.32015,0.2211916 0.11906,0.070115 0.27781,0.1053042 0.4736,0.1053042 0.26194,0 0.508,-0.06694 0.74084,-0.2005542 0.23283,-0.1336146 0.42598,-0.3188229 0.57679,-0.5558896 0.15346,-0.2370666 0.22754,-0.500327 0.22754,-0.7897812 0,-0.2754312 -0.045,-0.5400146 -0.13494,-0.79375 -0.0926,-0.2534708 -0.22754,-0.4630208 -0.40745,-0.6283854 -0.17992,-0.1653646 -0.41011,-0.2479146 -0.68528,-0.2479146 -0.0767,0 -0.17991,0.009 -0.3122,0.026723 -0.12965,0.017992 -0.254,0.061383 -0.37307,0.1304396 -0.037,0.02196 -0.0767,0.020638 -0.1217,-0.00423 -0.045,-0.024871 -0.0661,-0.055033 -0.0609,-0.091017 0.0317,-0.091017 0.0741,-0.1666875 0.127,-0.2272771 0.0556,-0.06059 0.11906,-0.104775 0.1905,-0.1322916 0.0635,-0.027517 0.16669,-0.082021 0.30692,-0.1632479 0.14023,-0.081492 0.29104,-0.1833563 0.44979,-0.3061229 0.1614,-0.1225021 0.29633,-0.2637896 0.4101,-0.423598 0.11377,-0.1598083 0.16934,-0.3349625 0.16934,-0.5251979 0,-0.2891895 -0.0926,-0.544777 -0.28046,-0.7667625 C 269.27216,3.3839 269.03404,3.2730396 268.743,3.2730396 c -0.27517,0 -0.49477,0.047625 -0.66146,0.1426104 -0.16404,0.09525 -0.29633,0.2047875 -0.39688,0.3286125 -0.0979,0.1240896 -0.17197,0.2336271 -0.22225,0.3288771 -0.0503,0.094985 -0.0952,0.1426104 -0.13493,0.1426104 -0.0291,0 -0.0635,-0.021431 -0.10584,-0.064294 -0.0423,-0.042598 -0.0661,-0.088635 -0.0661,-0.1383771 0,-0.091017 0.0397,-0.2121958 0.11641,-0.3638021 0.0767,-0.1516062 0.20109,-0.3053292 0.36778,-0.4609042 0.16668,-0.1558395 0.37835,-0.2865437 0.635,-0.3929062 0.25929,-0.1060979 0.5662,-0.1590146 0.92339,-0.1590146 0.23548,0 0.45773,0.051594 0.66411,0.1550459 0.20902,0.1031875 0.37835,0.244475 0.51329,0.4235979 0.13229,0.1793875 0.20108,0.3886729 0.20108,0.6283854 0,0.1709208 -0.037,0.3481916 -0.10583,0.5312833 -0.0714,0.1833562 -0.18786,0.3645958 -0.34925,0.5437187 -0.16404,0.179123 -0.381,0.3500438 -0.65882,0.512498 -0.0212,0.00847 -0.0318,0.021431 -0.0318,0.039423 0,0.017992 0.0159,0.026723 0.045,0.026723 0.30427,0 0.57415,0.075935 0.81492,0.2275417 0.23813,0.1516062 0.43127,0.3521604 0.57679,0.6013979 0.14552,0.249502 0.21696,0.525727 0.21696,0.8289395 0,0.396875 -0.0847,0.752475 -0.254,1.0665354 -0.16933,0.314325 -0.39687,0.5823479 -0.67733,0.8040688 -0.28311,0.2219854 -0.60061,0.3907896 -0.94721,0.5064125 -0.34925,0.1158875 -0.70379,0.1738312 -1.06627,0.1738312"
       id="path360"
       style="stroke-width:0.264583" />
    <path
       class="Fingering"
       d="m 294.46843,19.561848 c -0.35983,0 -0.67204,-0.09922 -0.93662,-0.297657 -0.26458,-0.198437 -0.48419,-0.461697 -0.66146,-0.789516 -0.17462,-0.328083 -0.30692,-0.688975 -0.39158,-1.083204 -0.0847,-0.393965 -0.127,-0.785548 -0.127,-1.173957 0,-0.402431 0.0423,-0.808302 0.127,-1.217612 0.0847,-0.40931 0.21696,-0.783431 0.39687,-1.122363 0.17992,-0.338931 0.41011,-0.61251 0.69321,-0.820737 0.28046,-0.207963 0.61648,-0.311944 1.00542,-0.311944 0.35983,0 0.66939,0.09922 0.93398,0.297656 0.26458,0.198438 0.48683,0.461434 0.66146,0.789517 0.17727,0.328083 0.30691,0.687652 0.39422,1.078971 0.0847,0.391319 0.127,0.777346 0.127,1.157552 0,0.396875 -0.0423,0.799306 -0.127,1.207294 -0.0873,0.407723 -0.2196,0.784754 -0.39687,1.130564 -0.17992,0.345811 -0.4101,0.624946 -0.68792,0.837142 -0.28046,0.212196 -0.61648,0.318294 -1.01071,0.318294 m 0.17992,-0.277019 c 0.28311,0 0.508,-0.14261 0.67998,-0.427831 0.17198,-0.285221 0.29898,-0.657225 0.37835,-1.116277 0.0767,-0.458788 0.11642,-0.952765 0.11642,-1.481932 0,-0.394229 -0.0291,-0.782108 -0.09,-1.163902 -0.0609,-0.381529 -0.15346,-0.727604 -0.27516,-1.037431 -0.12436,-0.310092 -0.27517,-0.556948 -0.45509,-0.740039 -0.17991,-0.183357 -0.39158,-0.274903 -0.62971,-0.274903 -0.2831,0 -0.50535,0.137584 -0.67204,0.41328 -0.16668,0.275695 -0.28839,0.64082 -0.35983,1.095639 -0.0741,0.454819 -0.11113,0.946679 -0.11113,1.475846 0,0.393965 0.0317,0.785548 0.09,1.173956 0.0582,0.388673 0.14817,0.74004 0.26459,1.054365 0.11641,0.31406 0.26458,0.564356 0.4392,0.750358 0.17728,0.186002 0.3863,0.278871 0.62442,0.278871"
       id="path362"
       style="stroke-width:0.264583" />
    <path
       class="Fingering"
       d="m 319.28106,9.7058541 c -0.16404,0 -0.33602,-0.026194 -0.51858,-0.078581 -0.18257,-0.052388 -0.33867,-0.1137709 -0.46567,-0.18415 -0.127,-0.070115 -0.1905,-0.1341438 -0.1905,-0.1920875 0,-0.049742 0.0291,-0.1129771 0.0847,-0.1902354 0.0582,-0.076994 0.1217,-0.14605 0.19579,-0.2066396 0.0767,-0.06059 0.13758,-0.091017 0.18785,-0.091017 0.0767,0 0.14552,0.021431 0.20902,0.064029 0.0635,0.042863 0.12965,0.093133 0.19844,0.1510771 0.0953,0.076994 0.20108,0.1508125 0.32015,0.2211916 0.1217,0.070115 0.27781,0.1053042 0.4736,0.1053042 0.26194,0 0.51065,-0.06694 0.74348,-0.2005542 0.23283,-0.1336146 0.42598,-0.3188229 0.57679,-0.5558896 0.15081,-0.2370666 0.22754,-0.500327 0.22754,-0.7897812 0,-0.2754312 -0.045,-0.5400146 -0.13758,-0.79375 -0.09,-0.2534708 -0.2249,-0.4630208 -0.40746,-0.6283854 -0.17992,-0.1653646 -0.40746,-0.2479146 -0.68262,-0.2479146 -0.0767,0 -0.18257,0.009 -0.31221,0.026723 -0.13229,0.017992 -0.25665,0.061383 -0.37571,0.1304396 -0.0344,0.02196 -0.0767,0.020638 -0.12171,-0.00423 -0.045,-0.024871 -0.0661,-0.055033 -0.0582,-0.091017 0.0291,-0.091017 0.0714,-0.1666875 0.127,-0.2272771 0.0556,-0.06059 0.11907,-0.104775 0.1905,-0.1322916 0.0635,-0.027517 0.16404,-0.082021 0.30692,-0.1632479 0.14023,-0.081492 0.2884,-0.1833563 0.44979,-0.3061229 0.15875,-0.1225021 0.29633,-0.2637896 0.41011,-0.423598 0.11112,-0.1598083 0.16933,-0.3349625 0.16933,-0.5251979 0,-0.2891895 -0.0953,-0.544777 -0.28311,-0.7667625 -0.18785,-0.2219854 -0.42597,-0.3328458 -0.71437,-0.3328458 -0.27517,0 -0.49477,0.047625 -0.66146,0.1426104 -0.16404,0.09525 -0.29633,0.2047875 -0.39687,0.3286125 -0.0979,0.1240896 -0.17463,0.2336271 -0.22225,0.3288771 -0.0503,0.094985 -0.0952,0.1426104 -0.13759,0.1426104 -0.0265,0 -0.0635,-0.021431 -0.10583,-0.064294 -0.0423,-0.042598 -0.0635,-0.088635 -0.0635,-0.1383771 0,-0.091017 0.0397,-0.2121958 0.11642,-0.3638021 0.0767,-0.1516062 0.19843,-0.3053292 0.36512,-0.4609042 0.16669,-0.1558395 0.37836,-0.2865437 0.63765,-0.3929062 0.25664,-0.1060979 0.56356,-0.1590146 0.92339,-0.1590146 0.23284,0 0.45509,0.051594 0.66411,0.1550459 0.20637,0.1031875 0.37835,0.244475 0.51064,0.4235979 0.13494,0.1793875 0.20109,0.3886729 0.20109,0.6283854 0,0.1709208 -0.0344,0.3481916 -0.10584,0.5312833 -0.0688,0.1833562 -0.18521,0.3645958 -0.34925,0.5437187 -0.16139,0.179123 -0.381,0.3500438 -0.65616,0.512498 -0.0212,0.00847 -0.0344,0.021431 -0.0344,0.039423 0,0.017992 0.0159,0.026723 0.0476,0.026723 0.30162,0 0.57414,0.075935 0.81227,0.2275417 0.24077,0.1516062 0.43391,0.3521604 0.57679,0.6013979 0.14552,0.249502 0.21696,0.525727 0.21696,0.8289395 0,0.396875 -0.0847,0.752475 -0.254,1.0665354 -0.16934,0.314325 -0.39423,0.5823479 -0.67734,0.8040688 -0.2831,0.2219854 -0.59796,0.3907896 -0.94721,0.5064125 -0.34925,0.1158875 -0.70379,0.1738312 -1.06362,0.1738312"
       id="path364"
       style="stroke-width:0.264583" />
    <path
       class="Fingering"
       d="m 344.14925,19.577458 c -0.0503,0 -0.09,-0.01455 -0.11907,-0.04339 -0.0291,-0.0291 -0.0423,-0.05715 -0.0423,-0.08493 0,-0.06323 0.0529,-0.108744 0.1614,-0.13626 0.26723,-0.0717 0.48683,-0.137054 0.66146,-0.196321 0.17197,-0.05927 0.29897,-0.144198 0.37835,-0.254265 0.0794,-0.110331 0.12171,-0.267493 0.12171,-0.471487 v -4.043098 c 0,-0.132292 -0.0423,-0.234156 -0.127,-0.305858 -0.0847,-0.0717 -0.19315,-0.121179 -0.32544,-0.148961 -0.13494,-0.02752 -0.28046,-0.04524 -0.43656,-0.05371 -0.0688,-0.0056 -0.13229,-0.02275 -0.18786,-0.05159 -0.0582,-0.02884 -0.0847,-0.07091 -0.0847,-0.126206 0,-0.04948 0.0238,-0.09234 0.0767,-0.128058 0.0529,-0.03572 0.11377,-0.05636 0.18785,-0.06191 0.31485,-0.04974 0.6006,-0.111654 0.84931,-0.186002 0.25136,-0.07461 0.49742,-0.23151 0.73819,-0.471488 0.005,-0.0056 0.0132,-0.0082 0.0238,-0.0082 0.0106,0 0.0212,0 0.0291,0 0.0317,0 0.0635,0.0082 0.0926,0.02487 0.0291,0.0164 0.0397,0.03995 0.0318,0.07011 -0.0132,0.104775 -0.0238,0.219339 -0.0318,0.343164 -0.008,0.12409 -0.0106,0.259027 -0.0106,0.405342 v 4.869921 c 0,0.176212 0.0344,0.310092 0.10054,0.400844 0.0688,0.09102 0.18256,0.163512 0.34396,0.217222 0.16139,0.05371 0.38629,0.115094 0.67733,0.183886 0.0423,0.0082 0.0847,0.02487 0.12171,0.04974 0.0397,0.02461 0.0582,0.05503 0.0582,0.09075 0,0.07726 -0.0476,0.115887 -0.14817,0.115887 -0.19844,0 -0.381,-0.0056 -0.54504,-0.01667 -0.16669,-0.01085 -0.32808,-0.01984 -0.48683,-0.02672 -0.15875,-0.0069 -0.33338,-0.01032 -0.52123,-0.01032 -0.1905,0 -0.37042,0.0034 -0.53975,0.01032 -0.16934,0.0069 -0.33867,0.01588 -0.51065,0.02672 -0.16933,0.01111 -0.34925,0.01667 -0.5371,0.01667"
       id="path366"
       style="stroke-width:0.264583" />
    <path
       class="Fingering"
       d="m 265.6693,58.332156 c -0.0503,0 -0.09,-0.01455 -0.11907,-0.04339 -0.0291,-0.0291 -0.0423,-0.05715 -0.0423,-0.08493 0,-0.06323 0.0529,-0.108744 0.1614,-0.13626 0.26723,-0.0717 0.48683,-0.137054 0.66146,-0.196321 0.17197,-0.05927 0.29897,-0.144198 0.37835,-0.254265 0.0794,-0.110331 0.12171,-0.267493 0.12171,-0.471487 v -4.043098 c 0,-0.132292 -0.0423,-0.234156 -0.127,-0.305858 -0.0847,-0.0717 -0.19315,-0.121179 -0.32544,-0.148961 -0.13494,-0.02752 -0.28046,-0.04524 -0.43656,-0.05371 -0.0688,-0.0056 -0.13229,-0.02275 -0.18786,-0.05159 -0.0582,-0.02884 -0.0847,-0.07091 -0.0847,-0.126206 0,-0.04948 0.0238,-0.09234 0.0767,-0.128058 0.0529,-0.03572 0.11377,-0.05636 0.18785,-0.06191 0.31485,-0.04974 0.6006,-0.111654 0.84931,-0.186002 0.25136,-0.07461 0.49742,-0.23151 0.73819,-0.471488 0.005,-0.0056 0.0132,-0.0082 0.0238,-0.0082 0.0106,0 0.0212,0 0.0291,0 0.0317,0 0.0635,0.0082 0.0926,0.02487 0.0291,0.0164 0.0397,0.03995 0.0318,0.07011 -0.0132,0.104775 -0.0238,0.219339 -0.0318,0.343164 -0.008,0.12409 -0.0106,0.259027 -0.0106,0.405342 v 4.869921 c 0,0.176212 0.0344,0.310092 0.10054,0.400844 0.0688,0.09102 0.18256,0.163512 0.34396,0.217222 0.16139,0.05371 0.38629,0.115094 0.67733,0.183886 0.0423,0.0082 0.0847,0.02487 0.12171,0.04974 0.0397,0.02461 0.0582,0.05503 0.0582,0.09075 0,0.07726 -0.0476,0.115887 -0.14817,0.115887 -0.19844,0 -0.381,-0.0056 -0.54504,-0.01667 -0.16669,-0.01085 -0.32808,-0.01984 -0.48683,-0.02672 -0.15875,-0.0069 -0.33338,-0.01032 -0.52123,-0.01032 -0.1905,0 -0.37042,0.0034 -0.53975,0.01032 -0.16934,0.0069 -0.33867,0.01588 -0.51065,0.02672 -0.16933,0.01111 -0.34925,0.01667 -0.5371,0.01667"
       id="path366-1"
       style="stroke-width:0.264583" />
    <text
       xml:space="preserve"
       style="font-size:10.5833px;line-height:1.25;font-family:'Droid Serif';-inkscape-font-specification:'Droid Serif';word-spacing:0px;stroke-width:0.264583"
       x="227.33217"
       y="0.29873228"
       id="text17388"><tspan
         sodipodi:role="line"
         id="tspan17386"
         style="stroke-width:0.264583"
         x="227.33217"
         y="0.29873228">Shift down</tspan></text>
    <path
       style="fill:url(#linearGradient18060);fill-opacity:1;stroke:#ffffff;stroke-width:0.779819;stroke-linecap:butt;stroke-linejoin:miter;stroke-dasharray:none;stroke-opacity:1"
       d="m 236.44893,28.638715 c 0,0 2.4915,-8.03154 5.82067,-11.348675 4.61124,-4.594584 10.25263,-3.821676 10.25263,-3.821676 l -1.72593,-4.5897762 6.19084,4.4694582 4.17712,3.015654 -10.29259,7.041043 1.92987,-4.634623 c 0,0 -3.47654,-1.409439 -7.91843,1.371914 -4.7799,2.993015 -8.43418,8.496681 -8.43418,8.496681 z"
       id="path17570"
       sodipodi:nodetypes="csccccccsc" />
    <path
       class="Note"
       d="m 273.49649,33.693726 c -0.47169,-0.869545 -1.46835,-1.341205 -2.67832,-1.341205 -0.89003,0 -1.86212,0.2625 -2.80956,0.762878 -1.73087,0.918755 -2.78087,2.465045 -2.78087,3.806256 0,0.36504 0.0779,0.73418 0.2625,1.07461 0.47168,0.86544 1.46835,1.31251 2.67831,1.31251 0.89006,0 1.86212,-0.23379 2.80959,-0.73419 1.73085,-0.91875 2.78085,-2.469141 2.78085,-3.80625 0,-0.369141 -0.0779,-0.734181 -0.2625,-1.074609"
       id="path250-3-2"
       style="fill:none;fill-opacity:1;stroke:#f36d05;stroke-width:0.79375;stroke-dasharray:1.5875, 0.79375;stroke-dashoffset:0;stroke-opacity:1" />
    <path
       class="Note"
       d="m 298.91858,33.693726 c -0.47169,-0.869545 -1.46835,-1.341205 -2.67832,-1.341205 -0.89003,0 -1.86212,0.2625 -2.80956,0.762878 -1.73087,0.918755 -2.78087,2.465045 -2.78087,3.806256 0,0.36504 0.0779,0.73418 0.2625,1.07461 0.47168,0.86544 1.46835,1.31251 2.67831,1.31251 0.89006,0 1.86212,-0.23379 2.80959,-0.73419 1.73085,-0.91875 2.78085,-2.469141 2.78085,-3.80625 0,-0.369141 -0.0779,-0.734181 -0.2625,-1.074609"
       id="path250-3-2-7"
       style="fill:none;fill-opacity:1;stroke:#f36d05;stroke-width:0.79375;stroke-dasharray:1.5875, 0.79375;stroke-dashoffset:0;stroke-opacity:1" />
    <path
       class="Note"
       d="m 324.49268,33.693726 c -0.47169,-0.869545 -1.46835,-1.341205 -2.67832,-1.341205 -0.89003,0 -1.86212,0.2625 -2.80956,0.762878 -1.73087,0.918755 -2.78087,2.465045 -2.78087,3.806256 0,0.36504 0.0779,0.73418 0.2625,1.07461 0.47168,0.86544 1.46835,1.31251 2.67831,1.31251 0.89006,0 1.86212,-0.23379 2.80959,-0.73419 1.73085,-0.91875 2.78085,-2.469141 2.78085,-3.80625 0,-0.369141 -0.0779,-0.734181 -0.2625,-1.074609"
       id="path250-3-2-5"
       style="fill:none;fill-opacity:1;stroke:#f36d05;stroke-width:0.79375;stroke-dasharray:1.5875, 0.79375;stroke-dashoffset:0;stroke-opacity:1" />
    <path
       class="Note"
       d="m 159.20551,30.837935 c -0.47169,-0.86954 -1.46835,-1.3412 -2.67832,-1.3412 -0.89003,0 -1.86212,0.2625 -2.80956,0.76288 -1.73087,0.91875 -2.78087,2.46504 -2.78087,3.80625 0,0.36504 0.0779,0.73418 0.2625,1.07461 0.47168,0.86544 1.46835,1.31251 2.67831,1.31251 0.89006,0 1.86212,-0.23379 2.80959,-0.73419 1.73085,-0.91875 2.78085,-2.46914 2.78085,-3.80625 0,-0.36914 -0.0779,-0.73418 -0.2625,-1.07461"
       id="path250-3-2-91"
       style="fill:none;fill-opacity:1;stroke:#7950df;stroke-width:0.79375;stroke-dasharray:1.5875, 0.79375;stroke-dashoffset:0;stroke-opacity:1" />
    <path
       class="Note"
       d="m 184.63129,30.837936 c -0.47169,-0.869545 -1.46835,-1.341205 -2.67832,-1.341205 -0.89003,0 -1.86212,0.2625 -2.80956,0.762878 -1.73087,0.918755 -2.78087,2.465045 -2.78087,3.806256 0,0.36504 0.0779,0.73418 0.2625,1.07461 0.47168,0.86544 1.46835,1.31251 2.67831,1.31251 0.89006,0 1.86212,-0.23379 2.80959,-0.73419 1.73085,-0.91875 2.78085,-2.469141 2.78085,-3.80625 0,-0.369141 -0.0779,-0.734181 -0.2625,-1.074609"
       id="path250-3-2-4"
       style="fill:none;fill-opacity:1;stroke:#7950df;stroke-width:0.79375;stroke-dasharray:1.5875, 0.79375;stroke-dashoffset:0;stroke-opacity:1" />
    <path
       class="Note"
       d="m 210.20325,30.837931 c -0.47168,-0.869545 -1.46835,-1.341205 -2.67832,-1.341205 -0.89002,0 -1.86211,0.2625 -2.80956,0.762878 -1.73087,0.918755 -2.78086,2.465045 -2.78086,3.806261 0,0.36503 0.0779,0.73418 0.2625,1.07461 0.47168,0.86544 1.46835,1.31251 2.67831,1.31251 0.89006,0 1.86212,-0.23379 2.80959,-0.73419 1.73085,-0.91875 2.78085,-2.46915 2.78085,-3.806255 0,-0.369141 -0.0779,-0.734181 -0.26251,-1.074609"
       id="path250-3-2-910"
       style="fill:none;fill-opacity:1;stroke:#7950df;stroke-width:0.79375;stroke-dasharray:1.5875, 0.79375;stroke-dashoffset:0;stroke-opacity:1" />
  </g>
</svg>
