<?xml version="1.0" encoding="UTF-8" standalone="no"?>
<!-- Created with Inkscape (http://www.inkscape.org/) -->

<svg
   width="712.4986mm"
   height="71.95948mm"
   viewBox="0 0 712.4986 71.959481"
   version="1.1"
   id="svg24330"
   inkscape:version="1.2 (dc2aedaf03, 2022-05-15)"
   sodipodi:docname="sneaky-shift.svg"
   inkscape:export-filename="sneaky-shift.webp"
   inkscape:export-xdpi="96"
   inkscape:export-ydpi="96"
   xmlns:inkscape="http://www.inkscape.org/namespaces/inkscape"
   xmlns:sodipodi="http://sodipodi.sourceforge.net/DTD/sodipodi-0.dtd"
   xmlns:xlink="http://www.w3.org/1999/xlink"
   xmlns="http://www.w3.org/2000/svg"
   xmlns:svg="http://www.w3.org/2000/svg">
  <sodipodi:namedview
     id="namedview24332"
     pagecolor="#ffffff"
     bordercolor="#666666"
     borderopacity="1.0"
     inkscape:showpageshadow="2"
     inkscape:pageopacity="0.0"
     inkscape:pagecheckerboard="0"
     inkscape:deskcolor="#d1d1d1"
     inkscape:document-units="mm"
     showgrid="false"
     inkscape:zoom="0.4204826"
     inkscape:cx="590.98759"
     inkscape:cy="-286.57547"
     inkscape:window-width="1920"
     inkscape:window-height="1080"
     inkscape:window-x="0"
     inkscape:window-y="0"
     inkscape:window-maximized="1"
     inkscape:current-layer="layer1" />
  <defs
     id="defs24327">
    <linearGradient
       inkscape:collect="always"
       id="linearGradient47361">
      <stop
         style="stop-color:#7950df;stop-opacity:1;"
         offset="0"
         id="stop47357" />
      <stop
         style="stop-color:#f36d05;stop-opacity:1;"
         offset="1"
         id="stop47359" />
    </linearGradient>
    <linearGradient
       inkscape:collect="always"
       id="linearGradient36275">
      <stop
         style="stop-color:#7950df;stop-opacity:1;"
         offset="0"
         id="stop36271" />
      <stop
         style="stop-color:#f36d05;stop-opacity:1;"
         offset="1"
         id="stop36273" />
    </linearGradient>
    <linearGradient
       inkscape:collect="always"
       xlink:href="#linearGradient36275"
       id="linearGradient36277"
       x1="85.184468"
       y1="79.239011"
       x2="93.715718"
       y2="79.239011"
       gradientUnits="userSpaceOnUse" />
    <linearGradient
       inkscape:collect="always"
       xlink:href="#linearGradient47361"
       id="linearGradient47363"
       x1="85.393453"
       y1="89.029399"
       x2="94.451345"
       y2="89.029399"
       gradientUnits="userSpaceOnUse"
       gradientTransform="translate(0,0.51960439)" />
  </defs>
  <g
     inkscape:label="Layer 1"
     inkscape:groupmode="layer"
     id="layer1"
     transform="translate(336.11369,-41.183618)">
    <polyline
       class="StaffLines"
       fill="none"
       stroke="#000000"
       stroke-width="2.73"
       stroke-linejoin="bevel"
       points="141.732,997.441 2834.64,997.441"
       id="polyline16"
       transform="matrix(0.26458333,0,0,0.26458333,-373.61361,-187.96013)" />
    <polyline
       class="StaffLines"
       fill="none"
       stroke="#000000"
       stroke-width="2.73"
       stroke-linejoin="bevel"
       points="141.732,1022.24 2834.64,1022.24"
       id="polyline18"
       transform="matrix(0.26458333,0,0,0.26458333,-373.61361,-187.96013)" />
    <polyline
       class="StaffLines"
       fill="none"
       stroke="#000000"
       stroke-width="2.73"
       stroke-linejoin="bevel"
       points="141.732,1047.05 2834.64,1047.05"
       id="polyline20"
       transform="matrix(0.26458333,0,0,0.26458333,-373.61361,-187.96013)" />
    <polyline
       class="StaffLines"
       fill="none"
       stroke="#000000"
       stroke-width="2.73"
       stroke-linejoin="bevel"
       points="141.732,1071.85 2834.64,1071.85"
       id="polyline22"
       transform="matrix(0.26458333,0,0,0.26458333,-373.61361,-187.96013)" />
    <polyline
       class="StaffLines"
       fill="none"
       stroke="#000000"
       stroke-width="2.73"
       stroke-linejoin="bevel"
       points="141.732,1096.65 2834.64,1096.65"
       id="polyline24"
       transform="matrix(0.26458333,0,0,0.26458333,-373.61361,-187.96013)" />
    <polyline
       class="BarLine"
       fill="none"
       stroke="#000000"
       stroke-width="4.46"
       stroke-linejoin="bevel"
       points="1593.23,996.077 1593.23,1098.02"
       id="polyline30"
       transform="matrix(0.26458333,0,0,0.26458333,-373.61361,-187.96013)" />
    <polyline
       class="BarLine"
       fill="none"
       stroke="#000000"
       stroke-width="4.46"
       stroke-linejoin="bevel"
       points="2810.46,996.077 2810.46,1098.02"
       id="polyline32"
       transform="matrix(0.26458333,0,0,0.26458333,-373.61361,-187.96013)" />
    <polyline
       class="BarLine"
       fill="none"
       stroke="#000000"
       stroke-width="13.64"
       stroke-linejoin="bevel"
       points="2827.82,996.077 2827.82,1098.02"
       id="polyline34"
       transform="matrix(0.26458333,0,0,0.26458333,-373.61361,-187.96013)" />
    <polyline
       class="LedgerLine"
       fill="none"
       stroke="#000000"
       stroke-width="3.97"
       stroke-linejoin="bevel"
       points="410.482,972.638 460.081,972.638"
       id="polyline60"
       transform="matrix(0.26458333,0,0,0.26458333,-373.61361,-187.96013)" />
    <polyline
       class="LedgerLine"
       fill="none"
       stroke="#000000"
       stroke-width="3.97"
       stroke-linejoin="bevel"
       points="605.789,972.638 655.387,972.638"
       id="polyline62"
       transform="matrix(0.26458333,0,0,0.26458333,-373.61361,-187.96013)" />
    <polyline
       class="LedgerLine"
       fill="none"
       stroke="#000000"
       stroke-width="3.97"
       stroke-linejoin="bevel"
       points="801.095,972.638 850.693,972.638"
       id="polyline64"
       transform="matrix(0.26458333,0,0,0.26458333,-373.61361,-187.96013)" />
    <polyline
       class="LedgerLine"
       fill="none"
       stroke="#000000"
       stroke-width="3.97"
       stroke-linejoin="bevel"
       points="996.401,972.638 1046,972.638"
       id="polyline66"
       transform="matrix(0.26458333,0,0,0.26458333,-373.61361,-187.96013)" />
    <polyline
       class="LedgerLine"
       fill="none"
       stroke="#000000"
       stroke-width="3.97"
       stroke-linejoin="bevel"
       points="1191.71,972.638 1241.31,972.638"
       id="polyline68"
       transform="matrix(0.26458333,0,0,0.26458333,-373.61361,-187.96013)"
       style="fill:#7950df;fill-opacity:1;stroke:#7950df;stroke-opacity:1" />
    <polyline
       class="LedgerLine"
       fill="none"
       stroke="#000000"
       stroke-width="3.97"
       stroke-linejoin="bevel"
       points="1387.01,972.638 1436.61,972.638"
       id="polyline70"
       transform="matrix(0.26458333,0,0,0.26458333,-373.61361,-187.96013)"
       style="fill:#7950df;fill-opacity:1;stroke:#7950df;stroke-opacity:1" />
    <polyline
       class="LedgerLine"
       fill="none"
       stroke="#000000"
       stroke-width="3.97"
       stroke-linejoin="bevel"
       points="1627.71,972.638 1677.31,972.638"
       id="polyline72"
       transform="matrix(0.26458333,0,0,0.26458333,-373.61361,-187.96013)"
       style="fill:#f36d05;fill-opacity:1;stroke:#7950df;stroke-opacity:1" />
    <polyline
       class="LedgerLine"
       fill="none"
       stroke="#000000"
       stroke-width="3.97"
       stroke-linejoin="bevel"
       points="1823.02,972.638 1872.61,972.638"
       id="polyline74"
       transform="matrix(0.26458333,0,0,0.26458333,-373.61361,-187.96013)"
       style="fill:#f36d05;fill-opacity:1;stroke:#f36d05;stroke-opacity:1" />
    <polyline
       class="LedgerLine"
       fill="none"
       stroke="#000000"
       stroke-width="3.97"
       stroke-linejoin="bevel"
       points="2018.32,972.638 2067.92,972.638"
       id="polyline76"
       transform="matrix(0.26458333,0,0,0.26458333,-373.61361,-187.96013)" />
    <polyline
       class="LedgerLine"
       fill="none"
       stroke="#000000"
       stroke-width="3.97"
       stroke-linejoin="bevel"
       points="2213.63,972.638 2263.23,972.638"
       id="polyline78"
       transform="matrix(0.26458333,0,0,0.26458333,-373.61361,-187.96013)" />
    <polyline
       class="LedgerLine"
       fill="none"
       stroke="#000000"
       stroke-width="3.97"
       stroke-linejoin="bevel"
       points="2408.93,972.638 2458.53,972.638"
       id="polyline80"
       transform="matrix(0.26458333,0,0,0.26458333,-373.61361,-187.96013)" />
    <polyline
       class="LedgerLine"
       fill="none"
       stroke="#000000"
       stroke-width="3.97"
       stroke-linejoin="bevel"
       points="2604.24,972.638 2653.84,972.638"
       id="polyline82"
       transform="matrix(0.26458333,0,0,0.26458333,-373.61361,-187.96013)" />
    <polyline
       class="Stem"
       fill="none"
       stroke="#000000"
       stroke-width="2.73"
       stroke-linejoin="bevel"
       points="420.528,975.971 420.528,1090.45"
       id="polyline132"
       transform="matrix(0.26458333,0,0,0.26458333,-373.61361,-187.96013)" />
    <polyline
       class="Stem"
       fill="none"
       stroke="#000000"
       stroke-width="2.73"
       stroke-linejoin="bevel"
       points="518.181,1013.18 518.181,1100.79"
       id="polyline134"
       transform="matrix(0.26458333,0,0,0.26458333,-373.61361,-187.96013)" />
    <polyline
       class="Stem"
       fill="none"
       stroke="#000000"
       stroke-width="2.73"
       stroke-linejoin="bevel"
       points="615.834,975.971 615.834,1111.12"
       id="polyline136"
       transform="matrix(0.26458333,0,0,0.26458333,-373.61361,-187.96013)" />
    <polyline
       class="Stem"
       fill="none"
       stroke="#000000"
       stroke-width="2.73"
       stroke-linejoin="bevel"
       points="713.487,1037.98 713.487,1121.46"
       id="polyline138"
       transform="matrix(0.26458333,0,0,0.26458333,-373.61361,-187.96013)" />
    <polyline
       class="Stem"
       fill="none"
       stroke="#000000"
       stroke-width="2.73"
       stroke-linejoin="bevel"
       points="811.14,975.971 811.14,1090.45"
       id="polyline140"
       transform="matrix(0.26458333,0,0,0.26458333,-373.61361,-187.96013)" />
    <polyline
       class="Stem"
       fill="none"
       stroke="#000000"
       stroke-width="2.73"
       stroke-linejoin="bevel"
       points="908.793,1013.18 908.793,1100.79"
       id="polyline142"
       transform="matrix(0.26458333,0,0,0.26458333,-373.61361,-187.96013)" />
    <polyline
       class="Stem"
       fill="none"
       stroke="#000000"
       stroke-width="2.73"
       stroke-linejoin="bevel"
       points="1006.45,975.971 1006.45,1111.12"
       id="polyline144"
       transform="matrix(0.26458333,0,0,0.26458333,-373.61361,-187.96013)" />
    <polyline
       class="Stem"
       fill="none"
       stroke="#000000"
       stroke-width="2.73"
       stroke-linejoin="bevel"
       points="1104.1,1037.98 1104.1,1121.46"
       id="polyline146"
       transform="matrix(0.26458333,0,0,0.26458333,-373.61361,-187.96013)" />
    <polyline
       class="Stem"
       fill="none"
       stroke="#000000"
       stroke-width="2.73"
       stroke-linejoin="bevel"
       points="1201.75,975.971 1201.75,1090.45"
       id="polyline148"
       transform="matrix(0.26458333,0,0,0.26458333,-373.61361,-187.96013)"
       style="fill:#7950df;fill-opacity:1;stroke:#7950df;stroke-opacity:1" />
    <polyline
       class="Stem"
       fill="none"
       stroke="#000000"
       stroke-width="2.73"
       stroke-linejoin="bevel"
       points="1299.41,1013.18 1299.41,1100.79"
       id="polyline150"
       transform="matrix(0.26458333,0,0,0.26458333,-373.61361,-187.96013)"
       style="fill:#7950df;fill-opacity:1;stroke:#7950df;stroke-opacity:1" />
    <polyline
       class="Stem"
       fill="none"
       stroke="#000000"
       stroke-width="2.73"
       stroke-linejoin="bevel"
       points="1397.06,975.971 1397.06,1111.12"
       id="polyline152"
       transform="matrix(0.26458333,0,0,0.26458333,-373.61361,-187.96013)"
       style="fill:#7950df;fill-opacity:1;stroke:#7950df;stroke-opacity:1" />
    <polyline
       class="Stem"
       fill="none"
       stroke="#000000"
       stroke-width="2.73"
       stroke-linejoin="bevel"
       points="1494.71,1037.98 1494.71,1121.46"
       id="polyline154"
       transform="matrix(0.26458333,0,0,0.26458333,-373.61361,-187.96013)"
       style="fill:#7950df;fill-opacity:1;stroke:#7950df;stroke-opacity:1" />
    <polyline
       class="Stem"
       fill="none"
       stroke="#000000"
       stroke-width="2.73"
       stroke-linejoin="bevel"
       points="1637.76,975.971 1637.76,1090.45"
       id="polyline156"
       transform="matrix(0.26458333,0,0,0.26458333,-373.61361,-187.96013)"
       style="fill:#f36d05;fill-opacity:1;stroke:#7950df;stroke-opacity:1" />
    <polyline
       class="Stem"
       fill="none"
       stroke="#000000"
       stroke-width="2.73"
       stroke-linejoin="bevel"
       points="1735.41,1013.18 1735.41,1100.79"
       id="polyline158"
       transform="matrix(0.26458333,0,0,0.26458333,-373.61361,-187.96013)"
       style="fill:#7950df;fill-opacity:1;stroke:#7950df;stroke-opacity:1" />
    <polyline
       class="Stem"
       fill="none"
       stroke="#000000"
       stroke-width="2.73"
       stroke-linejoin="bevel"
       points="1833.06,975.971 1833.06,1111.12"
       id="polyline160"
       transform="matrix(0.26458333,0,0,0.26458333,-373.61361,-187.96013)"
       style="fill:#f36d05;fill-opacity:1;stroke:#f36d05;stroke-opacity:1" />
    <polyline
       class="Stem"
       fill="none"
       stroke="#000000"
       stroke-width="2.73"
       stroke-linejoin="bevel"
       points="1930.71,1050.38 1930.71,1121.46"
       id="polyline162"
       transform="matrix(0.26458333,0,0,0.26458333,-373.61361,-187.96013)"
       style="fill:#f36d05;fill-opacity:1;stroke:#f36d05;stroke-opacity:1" />
    <polyline
       class="Stem"
       fill="none"
       stroke="#000000"
       stroke-width="2.73"
       stroke-linejoin="bevel"
       points="2028.37,975.971 2028.37,1090.45"
       id="polyline164"
       transform="matrix(0.26458333,0,0,0.26458333,-373.61361,-187.96013)" />
    <polyline
       class="Stem"
       fill="none"
       stroke="#000000"
       stroke-width="2.73"
       stroke-linejoin="bevel"
       points="2126.02,1013.18 2126.02,1100.79"
       id="polyline166"
       transform="matrix(0.26458333,0,0,0.26458333,-373.61361,-187.96013)" />
    <polyline
       class="Stem"
       fill="none"
       stroke="#000000"
       stroke-width="2.73"
       stroke-linejoin="bevel"
       points="2223.67,975.971 2223.67,1111.12"
       id="polyline168"
       transform="matrix(0.26458333,0,0,0.26458333,-373.61361,-187.96013)" />
    <polyline
       class="Stem"
       fill="none"
       stroke="#000000"
       stroke-width="2.73"
       stroke-linejoin="bevel"
       points="2321.33,1050.38 2321.33,1121.46"
       id="polyline170"
       transform="matrix(0.26458333,0,0,0.26458333,-373.61361,-187.96013)" />
    <polyline
       class="Stem"
       fill="none"
       stroke="#000000"
       stroke-width="2.73"
       stroke-linejoin="bevel"
       points="2418.98,975.971 2418.98,1090.45"
       id="polyline172"
       transform="matrix(0.26458333,0,0,0.26458333,-373.61361,-187.96013)" />
    <polyline
       class="Stem"
       fill="none"
       stroke="#000000"
       stroke-width="2.73"
       stroke-linejoin="bevel"
       points="2516.63,1013.18 2516.63,1100.79"
       id="polyline174"
       transform="matrix(0.26458333,0,0,0.26458333,-373.61361,-187.96013)" />
    <polyline
       class="Stem"
       fill="none"
       stroke="#000000"
       stroke-width="2.73"
       stroke-linejoin="bevel"
       points="2614.29,975.971 2614.29,1111.12"
       id="polyline176"
       transform="matrix(0.26458333,0,0,0.26458333,-373.61361,-187.96013)" />
    <polyline
       class="Stem"
       fill="none"
       stroke="#000000"
       stroke-width="2.73"
       stroke-linejoin="bevel"
       points="2711.94,1050.38 2711.94,1121.46"
       id="polyline178"
       transform="matrix(0.26458333,0,0,0.26458333,-373.61361,-187.96013)" />
    <path
       class="Note"
       d="m -254.44132,67.259062 c -0.47169,-0.869545 -1.46835,-1.341205 -2.67831,-1.341205 -0.89004,0 -1.86213,0.2625 -2.80957,0.762878 -1.73087,0.918755 -2.78087,2.465045 -2.78087,3.806258 0,0.365037 0.0779,0.734178 0.2625,1.074609 0.47168,0.865442 1.46836,1.312505 2.67831,1.312505 0.89006,0 1.86213,-0.233782 2.80959,-0.734186 1.73085,-0.91875 2.78085,-2.469141 2.78085,-3.80625 0,-0.369141 -0.0779,-0.734181 -0.2625,-1.074609"
       id="path228"
       style="stroke-width:0.2625" />
    <path
       class="Note"
       d="m -228.60396,77.102091 c -0.47169,-0.869545 -1.46835,-1.341205 -2.67831,-1.341205 -0.89004,0 -1.86213,0.2625 -2.80957,0.762878 -1.73087,0.918755 -2.78087,2.465045 -2.78087,3.806258 0,0.365037 0.0779,0.734178 0.2625,1.074609 0.47168,0.865441 1.46836,1.312505 2.67831,1.312505 0.89006,0 1.86213,-0.233782 2.80959,-0.734186 1.73085,-0.91875 2.78085,-2.469141 2.78085,-3.80625 0,-0.369141 -0.0779,-0.734181 -0.2625,-1.074609"
       id="path230"
       style="stroke-width:0.2625" />
    <path
       class="Note"
       d="m -202.76634,67.259062 c -0.47169,-0.869545 -1.46835,-1.341205 -2.67831,-1.341205 -0.89004,0 -1.86213,0.2625 -2.80957,0.762878 -1.73087,0.918755 -2.78087,2.465045 -2.78087,3.806258 0,0.365037 0.0779,0.734178 0.2625,1.074609 0.47168,0.865442 1.46836,1.312505 2.67831,1.312505 0.89006,0 1.86213,-0.233782 2.80959,-0.734186 1.73085,-0.91875 2.78085,-2.469141 2.78085,-3.80625 0,-0.369141 -0.0779,-0.734181 -0.2625,-1.074609"
       id="path232"
       style="stroke-width:0.2625" />
    <path
       class="Note"
       d="m -176.92899,83.666403 c -0.47169,-0.869545 -1.46835,-1.341205 -2.67831,-1.341205 -0.89004,0 -1.86213,0.2625 -2.80957,0.762878 -1.73087,0.918755 -2.78087,2.465045 -2.78087,3.806258 0,0.365037 0.0779,0.734178 0.2625,1.074609 0.47168,0.865441 1.46836,1.312505 2.67831,1.312505 0.89006,0 1.86213,-0.233782 2.80959,-0.734186 1.73085,-0.91875 2.78085,-2.469141 2.78085,-3.80625 0,-0.369141 -0.0779,-0.734181 -0.2625,-1.074609"
       id="path234"
       style="stroke-width:0.2625" />
    <path
       class="Note"
       d="m -151.09163,67.259062 c -0.47169,-0.869545 -1.46835,-1.341205 -2.67831,-1.341205 -0.89004,0 -1.86213,0.2625 -2.80957,0.762878 -1.73087,0.918755 -2.78087,2.465045 -2.78087,3.806258 0,0.365037 0.0779,0.734178 0.2625,1.074609 0.47168,0.865442 1.46836,1.312505 2.67831,1.312505 0.89006,0 1.86213,-0.233782 2.80959,-0.734186 1.73085,-0.91875 2.78085,-2.469141 2.78085,-3.80625 0,-0.369141 -0.0779,-0.734181 -0.2625,-1.074609"
       id="path236"
       style="stroke-width:0.2625" />
    <path
       class="Note"
       d="m -125.25427,77.102091 c -0.47169,-0.869545 -1.46835,-1.341205 -2.67831,-1.341205 -0.89004,0 -1.86213,0.2625 -2.80957,0.762878 -1.73087,0.918755 -2.78087,2.465045 -2.78087,3.806258 0,0.365037 0.0779,0.734178 0.2625,1.074609 0.47168,0.865441 1.46836,1.312505 2.67831,1.312505 0.89006,0 1.86213,-0.233782 2.80959,-0.734186 1.73085,-0.91875 2.78085,-2.469141 2.78085,-3.80625 0,-0.369141 -0.0779,-0.734181 -0.2625,-1.074609"
       id="path238"
       style="stroke-width:0.2625" />
    <path
       class="Note"
       d="m -99.41745,67.259062 c -0.471686,-0.869545 -1.46835,-1.341205 -2.67831,-1.341205 -0.89004,0 -1.86213,0.2625 -2.80957,0.762878 -1.73087,0.918755 -2.78087,2.465045 -2.78087,3.806258 0,0.365037 0.0779,0.734178 0.2625,1.074609 0.47168,0.865442 1.46836,1.312505 2.67831,1.312505 0.89006,0 1.86213,-0.233782 2.80959,-0.734186 1.73085,-0.91875 2.78085,-2.469141 2.78085,-3.80625 0,-0.369141 -0.07794,-0.734181 -0.2625,-1.074609"
       id="path240"
       style="stroke-width:0.2625" />
    <path
       class="Note"
       d="m -73.578239,83.666403 c -0.471686,-0.869545 -1.468346,-1.341205 -2.678314,-1.341205 -0.890032,0 -1.862122,0.2625 -2.809563,0.762878 -1.730873,0.918755 -2.780873,2.465045 -2.780873,3.806258 0,0.365037 0.07793,0.734178 0.2625,1.074609 0.471681,0.865441 1.468359,1.312505 2.678314,1.312505 0.890059,0 1.862122,-0.233782 2.80959,-0.734186 1.730846,-0.91875 2.780846,-2.469141 2.780846,-3.80625 0,-0.369141 -0.07794,-0.734181 -0.2625,-1.074609"
       id="path242"
       style="stroke-width:0.2625" />
    <path
       class="Note"
       d="m -47.741677,67.259062 c -0.471686,-0.869545 -1.468346,-1.341205 -2.678314,-1.341205 -0.890032,0 -1.862122,0.2625 -2.809563,0.762878 -1.730873,0.918755 -2.780873,2.465045 -2.780873,3.806258 0,0.365037 0.07793,0.734178 0.2625,1.074609 0.471681,0.865442 1.468359,1.312505 2.678314,1.312505 0.890058,0 1.862122,-0.233782 2.80959,-0.734186 1.730846,-0.91875 2.780846,-2.469141 2.780846,-3.80625 0,-0.369141 -0.07794,-0.734181 -0.2625,-1.074609"
       id="path244"
       style="fill:#7950df;fill-opacity:1;stroke-width:0.2625" />
    <path
       class="Note"
       d="m -21.905114,77.102091 c -0.471686,-0.869545 -1.468346,-1.341205 -2.678314,-1.341205 -0.890032,0 -1.862122,0.2625 -2.809563,0.762878 -1.730873,0.918755 -2.780873,2.465045 -2.780873,3.806258 0,0.365037 0.07793,0.734178 0.2625,1.074609 0.471681,0.865441 1.468359,1.312505 2.678314,1.312505 0.890059,0 1.862122,-0.233782 2.80959,-0.734186 1.730846,-0.91875 2.780846,-2.469141 2.780846,-3.80625 0,-0.369141 -0.07794,-0.734181 -0.2625,-1.074609"
       id="path246"
       style="fill:#7950df;fill-opacity:1;stroke-width:0.2625" />
    <path
       class="Note"
       d="M 3.9314478,67.259062 C 3.4597616,66.389517 2.4631016,65.917857 1.2531341,65.917857 c -0.89003255,0 -1.86212255,0.2625 -2.8095638,0.762878 -1.7308725,0.918755 -2.7808725,2.465045 -2.7808725,3.806258 0,0.365037 0.07793,0.734178 0.2625,1.074609 0.471681,0.865442 1.4683594,1.312505 2.6783137,1.312505 0.8900588,0 1.86212255,-0.233782 2.8095901,-0.734186 1.7308462,-0.91875 2.7808462,-2.469141 2.7808462,-3.80625 0,-0.369141 -0.077936,-0.734181 -0.2625,-1.074609"
       id="path248"
       style="fill:#7950df;fill-opacity:1;stroke-width:0.2625" />
    <path
       class="Note"
       d="m 29.770656,83.666403 c -0.471686,-0.869545 -1.468346,-1.341205 -2.678314,-1.341205 -0.890032,0 -1.862122,0.2625 -2.809563,0.762878 -1.730873,0.918755 -2.780873,2.465045 -2.780873,3.806258 0,0.365037 0.07793,0.734178 0.2625,1.074609 0.471681,0.865441 1.468359,1.312505 2.678314,1.312505 0.890058,0 1.862122,-0.233782 2.80959,-0.734186 1.730846,-0.91875 2.780846,-2.469141 2.780846,-3.80625 0,-0.369141 -0.07794,-0.734181 -0.2625,-1.074609"
       id="path250"
       style="fill:#7950df;fill-opacity:1;stroke-width:0.2625" />
    <path
       class="Note"
       d="m 67.616655,67.259062 c -0.471686,-0.869545 -1.468346,-1.341205 -2.678314,-1.341205 -0.890032,0 -1.862122,0.2625 -2.809564,0.762878 -1.730872,0.918755 -2.780872,2.465045 -2.780872,3.806258 0,0.365037 0.07793,0.734178 0.2625,1.074609 0.471681,0.865442 1.468359,1.312505 2.678314,1.312505 0.890058,0 1.862122,-0.233782 2.80959,-0.734186 1.730846,-0.91875 2.780846,-2.469141 2.780846,-3.80625 0,-0.369141 -0.07794,-0.734181 -0.2625,-1.074609"
       id="path252"
       style="fill:#7950df;fill-opacity:1;stroke-width:0.2625" />
    <path
       class="Note"
       d="m 93.453218,77.102091 c -0.471686,-0.869545 -1.468346,-1.341205 -2.678314,-1.341205 -0.890032,0 -1.862122,0.2625 -2.809564,0.762878 -1.730872,0.918755 -2.780872,2.465045 -2.780872,3.806258 0,0.365037 0.07793,0.734178 0.2625,1.074609 0.471681,0.865441 1.468359,1.312505 2.678314,1.312505 0.890058,0 1.862122,-0.233782 2.80959,-0.734186 1.730846,-0.91875 2.780846,-2.469141 2.780846,-3.80625 0,-0.369141 -0.07794,-0.734181 -0.2625,-1.074609"
       id="path254"
       style="fill:url(#linearGradient36277);fill-opacity:1;stroke-width:0.2625" />
    <path
       class="Note"
       d="m 119.29243,67.259062 c -0.47169,-0.869545 -1.46835,-1.341205 -2.67831,-1.341205 -0.89004,0 -1.86213,0.2625 -2.80957,0.762878 -1.73087,0.918755 -2.78087,2.465045 -2.78087,3.806258 0,0.365037 0.0779,0.734178 0.2625,1.074609 0.47168,0.865442 1.46836,1.312505 2.67831,1.312505 0.89006,0 1.86213,-0.233782 2.80959,-0.734186 1.73085,-0.91875 2.78085,-2.469141 2.78085,-3.80625 0,-0.369141 -0.0779,-0.734181 -0.2625,-1.074609"
       id="path256"
       style="fill:#f36d05;fill-opacity:1;stroke-width:0.2625" />
    <path
       class="Note"
       d="m 145.12899,86.947237 c -0.47169,-0.869545 -1.46835,-1.341205 -2.67831,-1.341205 -0.89004,0 -1.86213,0.2625 -2.80957,0.762878 -1.73087,0.918755 -2.78087,2.465045 -2.78087,3.806258 0,0.365037 0.0779,0.734178 0.2625,1.074609 0.47168,0.865441 1.46836,1.312505 2.67831,1.312505 0.89006,0 1.86213,-0.233782 2.80959,-0.734186 1.73085,-0.91875 2.78085,-2.469141 2.78085,-3.80625 0,-0.369141 -0.0779,-0.734181 -0.2625,-1.074609"
       id="path258"
       style="fill:#f36d05;fill-opacity:1;stroke-width:0.2625" />
    <path
       class="Note"
       d="m 170.96555,67.259062 c -0.47169,-0.869545 -1.46835,-1.341205 -2.67831,-1.341205 -0.89004,0 -1.86213,0.2625 -2.80957,0.762878 -1.73087,0.918755 -2.78087,2.465045 -2.78087,3.806258 0,0.365037 0.0779,0.734178 0.2625,1.074609 0.47168,0.865442 1.46836,1.312505 2.67831,1.312505 0.89006,0 1.86213,-0.233782 2.80959,-0.734186 1.73085,-0.91875 2.78085,-2.469141 2.78085,-3.80625 0,-0.369141 -0.0779,-0.734181 -0.2625,-1.074609"
       id="path260"
       style="stroke-width:0.2625" />
    <path
       class="Note"
       d="m 196.80476,77.102091 c -0.47169,-0.869545 -1.46835,-1.341205 -2.67831,-1.341205 -0.89004,0 -1.86213,0.2625 -2.80957,0.762878 -1.73087,0.918755 -2.78087,2.465045 -2.78087,3.806258 0,0.365037 0.0779,0.734178 0.2625,1.074609 0.47168,0.865441 1.46836,1.312505 2.67831,1.312505 0.89006,0 1.86213,-0.233782 2.80959,-0.734186 1.73085,-0.91875 2.78085,-2.469141 2.78085,-3.80625 0,-0.369141 -0.0779,-0.734181 -0.2625,-1.074609"
       id="path262"
       style="stroke-width:0.2625" />
    <path
       class="Note"
       d="m 222.64132,67.259062 c -0.47169,-0.869545 -1.46835,-1.341205 -2.67831,-1.341205 -0.89004,0 -1.86213,0.2625 -2.80957,0.762878 -1.73087,0.918755 -2.78087,2.465045 -2.78087,3.806258 0,0.365037 0.0779,0.734178 0.2625,1.074609 0.47168,0.865442 1.46836,1.312505 2.67831,1.312505 0.89006,0 1.86213,-0.233782 2.80959,-0.734186 1.73085,-0.91875 2.78085,-2.469141 2.78085,-3.80625 0,-0.369141 -0.0779,-0.734181 -0.2625,-1.074609"
       id="path264"
       style="stroke-width:0.2625" />
    <path
       class="Note"
       d="m 248.47788,86.947237 c -0.47169,-0.869545 -1.46835,-1.341205 -2.67831,-1.341205 -0.89004,0 -1.86213,0.2625 -2.80957,0.762878 -1.73087,0.918755 -2.78087,2.465045 -2.78087,3.806258 0,0.365037 0.0779,0.734178 0.2625,1.074609 0.47168,0.865441 1.46836,1.312505 2.67831,1.312505 0.89006,0 1.86213,-0.233782 2.80959,-0.734186 1.73085,-0.91875 2.78085,-2.469141 2.78085,-3.80625 0,-0.369141 -0.0779,-0.734181 -0.2625,-1.074609"
       id="path266"
       style="stroke-width:0.2625" />
    <path
       class="Note"
       d="m 274.31709,67.259062 c -0.47169,-0.869545 -1.46835,-1.341205 -2.67831,-1.341205 -0.89004,0 -1.86213,0.2625 -2.80957,0.762878 -1.73087,0.918755 -2.78087,2.465045 -2.78087,3.806258 0,0.365037 0.0779,0.734178 0.2625,1.074609 0.47168,0.865442 1.46836,1.312505 2.67831,1.312505 0.89006,0 1.86213,-0.233782 2.80959,-0.734186 1.73085,-0.91875 2.78085,-2.469141 2.78085,-3.80625 0,-0.369141 -0.0779,-0.734181 -0.2625,-1.074609"
       id="path268"
       style="stroke-width:0.2625" />
    <path
       class="Note"
       d="m 300.15365,77.102091 c -0.47169,-0.869545 -1.46835,-1.341205 -2.67831,-1.341205 -0.89004,0 -1.86213,0.2625 -2.80957,0.762878 -1.73087,0.918755 -2.78087,2.465045 -2.78087,3.806258 0,0.365037 0.0779,0.734178 0.2625,1.074609 0.47168,0.865441 1.46836,1.312505 2.67831,1.312505 0.89006,0 1.86213,-0.233782 2.80959,-0.734186 1.73085,-0.91875 2.78085,-2.469141 2.78085,-3.80625 0,-0.369141 -0.0779,-0.734181 -0.2625,-1.074609"
       id="path270"
       style="stroke-width:0.2625" />
    <path
       class="Note"
       d="m 325.99021,67.259062 c -0.47169,-0.869545 -1.46835,-1.341205 -2.67831,-1.341205 -0.89004,0 -1.86213,0.2625 -2.80957,0.762878 -1.73087,0.918755 -2.78087,2.465045 -2.78087,3.806258 0,0.365037 0.0779,0.734178 0.2625,1.074609 0.47168,0.865442 1.46836,1.312505 2.67831,1.312505 0.89006,0 1.86213,-0.233782 2.80959,-0.734186 1.73085,-0.91875 2.78085,-2.469141 2.78085,-3.80625 0,-0.369141 -0.0779,-0.734181 -0.2625,-1.074609"
       id="path272"
       style="stroke-width:0.2625" />
    <path
       class="Note"
       d="m 351.82942,86.947237 c -0.47169,-0.869545 -1.46835,-1.341205 -2.67831,-1.341205 -0.89004,0 -1.86213,0.2625 -2.80957,0.762878 -1.73087,0.918755 -2.78087,2.465045 -2.78087,3.806258 0,0.365037 0.0779,0.734178 0.2625,1.074609 0.47168,0.865441 1.46836,1.312505 2.67831,1.312505 0.89006,0 1.86213,-0.233782 2.80959,-0.734186 1.73085,-0.91875 2.78085,-2.469141 2.78085,-3.80625 0,-0.369141 -0.0779,-0.734181 -0.2625,-1.074609"
       id="path274"
       style="stroke-width:0.2625" />
    <path
       class="Clef"
       d="m -314.23172,94.079018 c -0.32403,-1.423254 -1.01718,-2.42813 -1.22228,-2.69882 -0.83671,-1.123841 -1.89081,-1.870312 -3.12128,-2.227155 -0.81622,-0.229687 -1.60372,-0.2625 -2.23944,-0.213281 -0.27481,-1.579095 -0.53731,-3.121283 -0.77521,-4.552748 1.43146,-1.620097 2.38302,-3.141783 2.98184,-4.26972 0.91056,-1.726751 1.20997,-2.928502 1.22637,-2.981842 0.45116,-1.369909 0.5455,-3.391973 0.25429,-5.545313 -0.2625,-1.981035 -0.8121,-3.744615 -1.43144,-4.59774 -0.2666,-0.373275 -0.5455,-0.566212 -0.81622,-0.566212 -0.31991,0 -0.98025,0.324187 -1.73906,1.0542 -0.60291,0.574087 -1.46016,1.595475 -2.13281,3.174596 -0.7875,1.853906 -0.84491,4.343561 -0.75057,6.107246 0.0984,1.911315 0.38963,3.404284 0.39375,3.416595 0.004,0.0246 0.0738,0.418347 0.18866,1.091003 -0.0574,0.06153 -0.12304,0.118965 -0.18866,0.18459 -0.27072,0.2625 -0.58244,0.557812 -0.94747,0.922845 -0.22559,0.225592 -0.47578,0.46347 -0.73828,0.71778 -2.21484,2.136907 -5.57403,5.373034 -5.57403,10.401555 0,1.234571 0.23789,2.395313 0.70547,3.449415 0.41426,0.943359 1.01719,1.804687 1.78828,2.559375 2.03028,1.985153 4.81113,2.825973 6.66094,2.784963 0.77519,-0.0205 1.46837,-0.082 2.0959,-0.20097 0.47988,2.52245 0.77929,4.36816 0.7875,5.77088 0.0123,1.71037 -0.42246,2.75625 -1.44375,3.48225 -0.63984,0.45525 -1.37812,0.70547 -2.19025,0.74238 -0.68084,0.0328 -1.27556,-0.0902 -1.64881,-0.19688 h -0.004 c 0,0 -0.0738,-0.0246 -0.0779,-0.0738 -0.004,-0.0492 0.0902,-0.0615 0.0902,-0.0615 h 0.008 c 0.5045,-0.11485 1.43965,-0.43888 2.05897,-1.30431 0.47168,-0.66444 0.70137,-1.87851 0.2174,-2.9121 -0.29122,-0.62756 -0.94747,-1.40275 -2.42403,-1.52169 -0.65625,-0.0533 -1.25097,0.082 -1.77597,0.39785 -0.47578,0.283 -0.86953,0.71368 -1.14434,1.23868 -0.64394,1.23457 -0.525,2.73985 0.29531,3.74882 0.77928,0.95156 1.98925,1.55859 3.41659,1.71034 0.2256,0.0246 0.44707,0.0328 0.66857,0.0328 1.16484,0 2.31737,-0.31582 3.25662,-0.89413 0.95978,-0.67675 1.5176,-1.72266 1.69397,-3.19922 0.14766,-1.21816 0.0451,-2.77266 -0.31994,-4.89316 -0.0943,-0.54962 -0.23787,-1.34531 -0.41015,-2.32969 1.50937,-0.50449 2.6004,-1.44375 3.58887,-2.981838 0.86544,-1.50528 1.11153,-3.108991 0.73828,-4.766024 m -8.98243,6.882432 c -1.21816,-0.31994 -2.383,-0.976187 -3.36738,-1.899032 -0.34453,-0.319909 -0.83672,-0.890037 -1.22225,-1.780078 -0.35684,-0.832616 -0.53322,-1.734961 -0.51681,-2.674219 0.0164,-1.234571 0.36094,-2.501953 1.01719,-3.757044 0.767,-1.464251 1.96465,-2.916191 3.55606,-4.314844 0.38144,-0.336315 0.74237,-0.672656 1.07871,-1.008971 0.20098,1.11972 0.41835,2.350189 0.64804,3.629876 -1.00897,0.33222 -2.25585,1.160749 -3.07206,2.645501 -0.93107,1.72267 -0.89416,3.174623 -0.70138,4.089271 0.2461,1.168946 0.91056,2.157424 1.817,2.707038 0.24609,0.147656 1.32891,0.705469 1.81288,0.553718 0.0984,-0.02872 0.16818,-0.09025 0.20509,-0.176374 0.13534,-0.307624 -0.13535,-0.475781 -0.54141,-0.725983 -0.15996,-0.09844 -0.33634,-0.209179 -0.525,-0.348632 -0.87362,-0.652149 -1.25509,-1.821093 -0.97206,-2.973634 0.15175,-0.62754 0.48807,-1.197656 0.97206,-1.644728 0.43476,-0.406053 0.97207,-0.693176 1.5955,-0.861333 0.53732,2.953132 1.07872,5.881654 1.50938,8.075998 0.0328,0.18047 0.0697,0.35681 0.10253,0.53319 -1.14844,0.24609 -2.28866,0.2215 -3.39609,-0.0697 m 2.97365,-8.715842 c 2.71522,-0.123034 3.83494,1.82931 4.06875,3.096692 0.12303,0.668556 0.12303,1.833399 -0.28303,2.940834 -0.3076,0.832598 -0.95156,1.903126 -2.30097,2.444536 -0.0164,-0.11075 -0.0369,-0.2256 -0.0574,-0.33635 -0.40606,-2.305074 -0.91465,-5.192574 -1.42734,-8.145712 m -1.92365,-18.625189 c 0.46759,-1.50528 1.18537,-2.358405 1.71037,-2.813658 0.45937,-0.397872 0.89003,-0.58653 1.13203,-0.58653 0.0369,0 0.0697,0.0082 0.0943,0.01641 0.12306,0.03691 0.2625,0.184564 0.38556,0.414251 0.60703,1.123841 0.41015,2.8875 0.0574,4.052344 -0.42657,1.419154 -1.19354,2.891595 -3.50273,5.414062 -0.0451,-0.291217 -0.0861,-0.566002 -0.12715,-0.824407 -0.32813,-2.173841 -0.242,-4.085156 0.25019,-5.672468"
       id="path278"
       style="stroke-width:0.2625" />
    <path
       class="KeySig"
       d="m -281.70226,79.72666 c 0.15996,-0.02869 0.29121,-0.213281 0.29121,-0.369127 v -1.550404 c 0,-0.20916 -0.15996,-0.365032 -0.36915,-0.365032 h -0.0533 l -0.86544,0.184563 v -3.912877 h -0.73419 v 4.06875 l -2.33788,0.471686 v -3.699622 h -0.73418 v 3.859563 l -1.02539,0.209187 c -0.15586,0.02462 -0.28711,0.209186 -0.28711,0.365032 v 0.05334 1.521673 -0.04922 c 0,0.209178 0.15586,0.365037 0.36914,0.365037 h 0.0779 l 0.86543,-0.184569 v 4.33125 l -1.02539,0.213295 c -0.15586,0.0246 -0.28711,0.20916 -0.28711,0.365032 v 1.521687 c 0,0.213281 0.15586,0.369127 0.36914,0.369127 h 0.0779 l 0.86543,-0.184564 v 3.912878 h 0.73418 v -4.06875 l 2.33788,-0.47166 v 3.699596 h 0.73419 v -3.859564 l 0.99669,-0.184564 c 0.15996,-0.02462 0.29121,-0.209186 0.29121,-0.365058 v -1.550383 c 0,-0.209181 -0.15996,-0.36504 -0.36915,-0.36504 h -0.0533 l -0.86544,0.180468 v -4.33125 l 0.99669,-0.180482 m -4.06876,5.167982 v -4.355859 l 2.33788,-0.471681 v 4.331253 l -2.33788,0.496287"
       id="path288"
       style="stroke-width:0.2625" />
    <path
       class="KeySig"
       d="m -288.26472,69.883897 c 0.15996,-0.02869 0.29121,-0.213282 0.29121,-0.369128 v -1.550404 c 0,-0.20916 -0.15996,-0.365032 -0.36915,-0.365032 h -0.0533 l -0.86544,0.184564 v -3.912878 h -0.73419 v 4.06875 l -2.33788,0.471686 v -3.699622 h -0.73418 v 3.859564 l -1.02539,0.209186 c -0.15586,0.02462 -0.28711,0.209186 -0.28711,0.365032 v 0.05334 1.521673 -0.04922 c 0,0.209178 0.15586,0.365037 0.36914,0.365037 h 0.0779 l 0.86543,-0.184569 v 4.33125 l -1.02539,0.213295 c -0.15586,0.0246 -0.28711,0.20916 -0.28711,0.365032 v 1.521687 c 0,0.213281 0.15586,0.369127 0.36914,0.369127 h 0.0779 l 0.86543,-0.184564 v 3.912878 h 0.73418 v -4.06875 l 2.33788,-0.47166 v 3.699596 h 0.73419 v -3.859564 l 0.99669,-0.184563 c 0.15996,-0.02462 0.29121,-0.209187 0.29121,-0.365059 V 74.5802 c 0,-0.209181 -0.15996,-0.36504 -0.36915,-0.36504 h -0.0533 l -0.86544,0.180468 v -4.33125 l 0.99669,-0.180481 m -4.06876,5.167981 v -4.355859 l 2.33788,-0.471681 v 4.331253 l -2.33788,0.496287"
       id="path290"
       style="stroke-width:0.2625" />
    <path
       class="KeySig"
       d="m -294.82718,83.010139 c 0.15996,-0.02869 0.29121,-0.213281 0.29121,-0.369127 v -1.550404 c 0,-0.20916 -0.15996,-0.365032 -0.36915,-0.365032 h -0.0533 l -0.86544,0.184563 v -3.912877 h -0.73419 v 4.06875 l -2.33788,0.471686 v -3.699622 h -0.73418 v 3.859563 l -1.02539,0.209187 c -0.15586,0.02462 -0.28711,0.209186 -0.28711,0.365032 v 0.05334 1.521673 -0.04922 c 0,0.209178 0.15586,0.365037 0.36914,0.365037 h 0.0779 l 0.86543,-0.184569 v 4.33125 l -1.02539,0.213295 c -0.15586,0.0246 -0.28711,0.20916 -0.28711,0.365032 v 1.521687 c 0,0.213281 0.15586,0.369127 0.36914,0.369127 h 0.0779 l 0.86543,-0.184564 v 3.912878 h 0.73418 v -4.06875 l 2.33788,-0.47166 v 3.699596 h 0.73419 v -3.859564 l 0.99669,-0.184564 c 0.15996,-0.02462 0.29121,-0.209186 0.29121,-0.365058 v -1.550383 c 0,-0.209181 -0.15996,-0.36504 -0.36915,-0.36504 h -0.0533 l -0.86544,0.180468 v -4.33125 l 0.99669,-0.180482 m -4.06876,5.167982 V 83.82226 l 2.33788,-0.471681 v 4.331253 l -2.33788,0.496287"
       id="path292"
       style="stroke-width:0.2625" />
    <path
       class="KeySig"
       d="m -301.38964,73.165258 c 0.15996,-0.02869 0.29121,-0.213281 0.29121,-0.369127 v -1.550404 c 0,-0.20916 -0.15996,-0.365032 -0.36915,-0.365032 h -0.0533 l -0.86544,0.184563 v -3.912877 h -0.73419 v 4.06875 l -2.33788,0.471686 v -3.699622 h -0.73418 v 3.859563 l -1.02539,0.209187 c -0.15586,0.02462 -0.28711,0.209186 -0.28711,0.365032 v 0.05334 1.521673 -0.04922 c 0,0.209178 0.15586,0.365037 0.36914,0.365037 h 0.0779 l 0.86543,-0.184569 v 4.33125 l -1.02539,0.213295 c -0.15586,0.0246 -0.28711,0.20916 -0.28711,0.365032 v 1.521686 c 0,0.213282 0.15586,0.369128 0.36914,0.369128 h 0.0779 l 0.86543,-0.184564 v 3.912878 h 0.73418 v -4.06875 l 2.33788,-0.47166 v 3.699596 h 0.73419 v -3.859564 l 0.99669,-0.184564 c 0.15996,-0.02462 0.29121,-0.209186 0.29121,-0.365058 V 77.86156 c 0,-0.209181 -0.15996,-0.36504 -0.36915,-0.36504 h -0.0533 l -0.86544,0.180468 v -4.33125 l 0.99669,-0.180482 m -4.06876,5.167982 v -4.355859 l 2.33788,-0.471681 v 4.331253 l -2.33788,0.496287"
       id="path294"
       style="stroke-width:0.2625" />
    <path
       class="Beam"
       fill-rule="evenodd"
       d="m -262.71007,98.906408 78.23412,8.278812 v 3.29935 l -78.23412,-8.27881 v -3.299352"
       id="path324"
       style="stroke-width:0.264583" />
    <path
       class="Beam"
       fill-rule="evenodd"
       d="m -262.71007,93.985158 78.23412,8.278812 v 3.29935 l -78.23412,-8.278808 v -3.299354"
       id="path326"
       style="stroke-width:0.264583" />
    <path
       class="Beam"
       fill-rule="evenodd"
       d="m -159.36038,98.906408 78.233058,8.278812 v 3.29935 l -78.233058,-8.27881 v -3.299352"
       id="path328"
       style="stroke-width:0.264583" />
    <path
       class="Beam"
       fill-rule="evenodd"
       d="m -159.36038,93.985158 78.233058,8.278812 v 3.29935 l -78.233058,-8.278808 v -3.299354"
       id="path330"
       style="stroke-width:0.264583" />
    <path
       class="Beam"
       fill-rule="evenodd"
       d="m -56.010427,98.906408 78.234645,8.278812 v 3.29935 l -78.234645,-8.27881 v -3.299352"
       id="path332"
       style="fill:#000000;fill-opacity:1;stroke-width:0.264583" />
    <path
       class="Beam"
       fill-rule="evenodd"
       d="m -56.010427,93.985158 78.234645,8.278812 v 3.29935 l -78.234645,-8.278808 v -3.299354"
       id="path334"
       style="fill:#000000;fill-opacity:1;stroke-width:0.264583" />
    <path
       class="Beam"
       fill-rule="evenodd"
       d="m 59.347905,98.906408 78.234645,8.278812 v 3.29935 l -78.234645,-8.27881 v -3.299352"
       id="path336"
       style="fill:#000000;fill-opacity:1;stroke-width:0.264583" />
    <path
       class="Beam"
       fill-rule="evenodd"
       d="m 59.347905,93.985158 78.234645,8.278812 v 3.29935 L 59.347905,97.284512 v -3.299354"
       id="path338"
       style="fill:#000000;fill-opacity:1;stroke-width:0.264583" />
    <path
       class="Beam"
       fill-rule="evenodd"
       d="m 162.6968,98.906408 78.23464,8.278812 v 3.29935 l -78.23464,-8.27881 v -3.299352"
       id="path340"
       style="stroke-width:0.264583" />
    <path
       class="Beam"
       fill-rule="evenodd"
       d="m 162.6968,93.985158 78.23464,8.278812 v 3.29935 L 162.6968,97.284512 v -3.299354"
       id="path342"
       style="stroke-width:0.264583" />
    <path
       class="Beam"
       fill-rule="evenodd"
       d="m 266.04834,98.906408 78.232,8.278812 v 3.29935 l -78.232,-8.27881 v -3.299352"
       id="path344"
       style="stroke-width:0.264583" />
    <path
       class="Beam"
       fill-rule="evenodd"
       d="m 266.04834,93.985158 78.232,8.278812 v 3.29935 l -78.232,-8.278808 v -3.299354"
       id="path346"
       style="stroke-width:0.264583" />
    <path
       class="Fingering"
       d="m -256.65931,62.458467 c -0.0471,0 -0.12356,-0.0034 -0.22966,-0.01032 -0.1061,-0.0069 -0.22648,-0.01455 -0.36169,-0.02275 -0.13493,-0.0085 -0.2741,-0.01587 -0.41751,-0.02275 -0.1434,-0.0069 -0.28257,-0.01032 -0.41751,-0.01032 -0.1352,0 -0.32597,0.0034 -0.57256,0.01032 -0.24659,0.0069 -0.50588,0.01244 -0.77734,0.0164 -0.27147,0.0042 -0.50906,0.0098 -0.71306,0.01667 -0.20399,0.0069 -0.33496,0.01032 -0.39264,0.01032 -0.0278,0 -0.0696,-0.02275 -0.1262,-0.06826 -0.0564,-0.04551 -0.0847,-0.08202 -0.0847,-0.109538 0,-0.03598 0.007,-0.06059 0.0206,-0.07435 0.0138,-0.01376 0.0344,-0.03598 0.0619,-0.06615 l 1.81081,-1.872721 c 0.35269,-0.366713 0.64558,-0.777346 0.87841,-1.232165 0.2331,-0.454554 0.34952,-0.914929 0.34952,-1.380596 0,-0.374914 -0.11298,-0.669925 -0.3392,-0.884766 -0.22595,-0.215106 -0.49053,-0.322527 -0.79375,-0.322527 -0.28919,0 -0.55721,0.07937 -0.80407,0.237596 -0.24659,0.158485 -0.44423,0.365918 -0.59319,0.6223 -0.0193,0.04127 -0.0447,0.07567 -0.0765,0.103452 -0.0317,0.02752 -0.0653,0.04127 -0.10133,0.04127 -0.0302,0 -0.0648,-0.02963 -0.10319,-0.0889 -0.0386,-0.05927 -0.0579,-0.134409 -0.0579,-0.225425 0,-0.08546 0.0516,-0.202407 0.15504,-0.351367 0.10319,-0.148696 0.24659,-0.300302 0.42995,-0.454554 0.18336,-0.154517 0.40164,-0.286808 0.65511,-0.396875 0.25373,-0.110331 0.52784,-0.165365 0.82285,-0.165365 0.35269,0 0.6567,0.07435 0.91149,0.223044 0.25506,0.14896 0.44927,0.353483 0.58288,0.614098 0.13361,0.26035 0.20055,0.564092 0.20055,0.911489 0,0.190236 -0.0339,0.394759 -0.10133,0.613834 -0.0675,0.219075 -0.15902,0.434181 -0.2749,0.645054 -0.11563,0.210873 -0.24792,0.408517 -0.39688,0.593196 -0.091,0.112977 -0.22675,0.262466 -0.40719,0.448469 -0.18045,0.186002 -0.37492,0.385233 -0.58288,0.597429 -0.20823,0.212196 -0.40508,0.411956 -0.59108,0.599546 -0.18627,0.187325 -0.33919,0.34237 -0.45905,0.464872 -0.11986,0.122767 -0.17965,0.19103 -0.17965,0.204788 0,0.03572 0.0482,0.06059 0.14446,0.07435 0.12144,0.0082 0.2577,0.01588 0.40931,0.02275 0.15161,0.0069 0.32676,0.01032 0.5252,0.01032 0.20373,0 0.40772,-0.0034 0.61171,-0.01032 0.204,-0.0069 0.40111,-0.01455 0.59135,-0.02275 0.20664,-0.01376 0.36645,-0.03096 0.47942,-0.05159 0.11298,-0.02064 0.20797,-0.06482 0.28522,-0.132292 0.0773,-0.06747 0.15849,-0.171714 0.24395,-0.312208 0.0275,-0.04127 0.064,-0.09234 0.10954,-0.152929 0.0455,-0.06059 0.0971,-0.09102 0.15504,-0.09102 0.0331,0 0.0537,0.01376 0.0619,0.04154 0.008,0.02752 0.0124,0.05636 0.0124,0.08678 0,0.03572 -0.0198,0.104511 -0.0598,0.20664 -0.04,0.101864 -0.0841,0.226748 -0.1323,0.374121 -0.0484,0.147373 -0.0902,0.309298 -0.1262,0.485775 -0.022,0.112977 -0.058,0.183885 -0.10742,0.212989 -0.0497,0.02884 -0.0923,0.04339 -0.12806,0.04339"
       id="path368"
       style="stroke-width:0.264583" />
    <path
       class="Fingering"
       d="m -232.6616,72.417913 c -0.35851,0 -0.66993,-0.09922 -0.93451,-0.297657 -0.26459,-0.198437 -0.48498,-0.461698 -0.66146,-0.789516 -0.17621,-0.328084 -0.30718,-0.68924 -0.39264,-1.083205 -0.0855,-0.394229 -0.12806,-0.785547 -0.12806,-1.17422 0,-0.402432 0.0426,-0.808038 0.12806,-1.217348 0.0855,-0.409311 0.21775,-0.783431 0.39687,-1.122363 0.17913,-0.339196 0.40984,-0.612775 0.69242,-0.820737 0.28257,-0.208227 0.61806,-0.312209 1.00674,-0.312209 0.35824,0 0.66966,0.09922 0.93424,0.297657 0.26458,0.198437 0.48498,0.461698 0.66146,0.789781 0.17648,0.327819 0.30718,0.687652 0.39264,1.078971 0.0855,0.391319 0.12832,0.777081 0.12832,1.157552 0,0.396875 -0.0429,0.799306 -0.12832,1.207029 -0.0855,0.407987 -0.21775,0.784754 -0.39687,1.130829 -0.17913,0.345811 -0.40852,0.624946 -0.68819,0.837142 -0.27966,0.212196 -0.61674,0.318294 -1.0107,0.318294 m 0.18177,-0.277019 c 0.28125,0 0.50773,-0.142611 0.67997,-0.427831 0.17225,-0.285221 0.29766,-0.65749 0.37624,-1.116278 0.0786,-0.458787 0.11801,-0.952764 0.11801,-1.481931 0,-0.394229 -0.0304,-0.782108 -0.091,-1.163902 -0.0606,-0.381794 -0.1524,-0.727604 -0.2749,-1.037696 -0.12277,-0.310091 -0.27438,-0.556683 -0.45482,-0.740039 -0.18045,-0.183092 -0.39079,-0.274902 -0.6305,-0.274902 -0.28099,0 -0.50509,0.137848 -0.67178,0.413543 -0.16669,0.275432 -0.28654,0.640821 -0.35957,1.095375 -0.073,0.454819 -0.10954,0.946944 -0.10954,1.476111 0,0.393964 0.0296,0.785283 0.0889,1.173956 0.0593,0.388673 0.14738,0.74004 0.26459,1.0541 0.11694,0.314325 0.26379,0.564356 0.44026,0.750358 0.17622,0.186002 0.38444,0.279136 0.62416,0.279136"
       id="path370"
       style="stroke-width:0.264583" />
    <path
       class="Fingering"
       d="m -204.9846,62.458467 c -0.0468,0 -0.1233,-0.0034 -0.22939,-0.01032 -0.1061,-0.0069 -0.22675,-0.01455 -0.36195,-0.02275 -0.13494,-0.0085 -0.27411,-0.01587 -0.41752,-0.02275 -0.14314,-0.0069 -0.28231,-0.01032 -0.41751,-0.01032 -0.13494,0 -0.32597,0.0034 -0.57256,0.01032 -0.24659,0.0069 -0.50562,0.01244 -0.77708,0.0164 -0.27146,0.0042 -0.50932,0.0098 -0.71331,0.01667 -0.204,0.0069 -0.3347,0.01032 -0.39265,0.01032 -0.0275,0 -0.0696,-0.02275 -0.1262,-0.06826 -0.0564,-0.04551 -0.0847,-0.08202 -0.0847,-0.109538 0,-0.03598 0.007,-0.06059 0.0206,-0.07435 0.0138,-0.01376 0.0344,-0.03598 0.0622,-0.06615 l 1.81054,-1.872721 c 0.35295,-0.366713 0.64558,-0.777346 0.87868,-1.232165 0.23283,-0.454554 0.34925,-0.914929 0.34925,-1.380596 0,-0.374914 -0.11298,-0.669925 -0.33893,-0.884766 -0.22596,-0.215106 -0.49054,-0.322527 -0.79375,-0.322527 -0.28946,0 -0.55748,0.07937 -0.80407,0.237596 -0.24686,0.158485 -0.4445,0.365918 -0.59346,0.6223 -0.0191,0.04127 -0.0447,0.07567 -0.0765,0.103452 -0.0315,0.02752 -0.0654,0.04127 -0.10108,0.04127 -0.0304,0 -0.0648,-0.02963 -0.10345,-0.0889 -0.0386,-0.05927 -0.0579,-0.134409 -0.0579,-0.225425 0,-0.08546 0.0516,-0.202407 0.15504,-0.351367 0.10346,-0.148696 0.2466,-0.300302 0.42995,-0.454554 0.18336,-0.154517 0.40164,-0.286808 0.65538,-0.396875 0.25347,-0.110331 0.52757,-0.165365 0.82258,-0.165365 0.35269,0 0.6567,0.07435 0.91149,0.223044 0.25506,0.14896 0.44927,0.353483 0.58288,0.614098 0.13388,0.26035 0.20056,0.564092 0.20056,0.911489 0,0.190236 -0.0336,0.394759 -0.10134,0.613834 -0.0675,0.219075 -0.15901,0.434181 -0.2749,0.645054 -0.11562,0.210873 -0.24792,0.408517 -0.39688,0.593196 -0.0907,0.112977 -0.22648,0.262466 -0.40719,0.448469 -0.18045,0.186002 -0.37465,0.385233 -0.58288,0.597429 -0.20796,0.212196 -0.40507,0.411956 -0.59108,0.599546 -0.186,0.187325 -0.33893,0.34237 -0.45905,0.464872 -0.11986,0.122767 -0.17965,0.19103 -0.17965,0.204788 0,0.03572 0.0482,0.06059 0.14473,0.07435 0.12118,0.0082 0.2577,0.01588 0.40931,0.02275 0.15134,0.0069 0.32649,0.01032 0.52493,0.01032 0.20399,0 0.40799,-0.0034 0.61172,-0.01032 0.20399,-0.0069 0.4011,-0.01455 0.59134,-0.02275 0.20664,-0.01376 0.36645,-0.03096 0.47943,-0.05159 0.11297,-0.02064 0.20822,-0.06482 0.28522,-0.132292 0.0772,-0.06747 0.15848,-0.171714 0.24394,-0.312208 0.0275,-0.04127 0.064,-0.09234 0.10954,-0.152929 0.0455,-0.06059 0.0974,-0.09102 0.15505,-0.09102 0.0331,0 0.0537,0.01376 0.0622,0.04154 0.008,0.02752 0.0124,0.05636 0.0124,0.08678 0,0.03572 -0.0201,0.104511 -0.0601,0.20664 -0.04,0.101864 -0.0841,0.226748 -0.13229,0.374121 -0.0482,0.147373 -0.0902,0.309298 -0.12621,0.485775 -0.022,0.112977 -0.0577,0.183885 -0.10742,0.212989 -0.0495,0.02884 -0.0923,0.04339 -0.12806,0.04339"
       id="path372"
       style="stroke-width:0.264583" />
    <path
       class="Fingering"
       d="m -182.44633,72.433258 c -0.0495,0 -0.0889,-0.01429 -0.11774,-0.04339 -0.0288,-0.02884 -0.0434,-0.05715 -0.0434,-0.08467 0,-0.0635 0.0537,-0.108744 0.16113,-0.136525 0.26749,-0.07144 0.48789,-0.137054 0.66146,-0.196321 0.17356,-0.05927 0.30056,-0.143933 0.38047,-0.254264 0.0799,-0.110067 0.11985,-0.26723 0.11985,-0.471223 v -4.043098 c 0,-0.132292 -0.0421,-0.234421 -0.1262,-0.305858 -0.0839,-0.0717 -0.19289,-0.121444 -0.3265,-0.148961 -0.13361,-0.02752 -0.27914,-0.04551 -0.4363,-0.05371 -0.0688,-0.0056 -0.1315,-0.02275 -0.18785,-0.05159 -0.0566,-0.0291 -0.0849,-0.07117 -0.0849,-0.126206 0,-0.04948 0.0262,-0.09234 0.0786,-0.128059 0.0524,-0.03598 0.1143,-0.05662 0.186,-0.06218 0.31697,-0.04948 0.60087,-0.111654 0.85169,-0.186002 0.25083,-0.07435 0.4961,-0.23151 0.73581,-0.471223 0.006,-0.0056 0.0138,-0.0082 0.0249,-0.0082 0.0111,0 0.0206,0 0.0288,0 0.0331,0 0.0643,0.0082 0.0931,0.02461 0.0288,0.01667 0.0392,0.03995 0.031,0.07038 -0.0138,0.104775 -0.0241,0.219075 -0.031,0.343164 -0.007,0.12409 -0.0103,0.259027 -0.0103,0.405077 v 4.869921 c 0,0.176477 0.0336,0.310092 0.10133,0.401108 0.0675,0.09102 0.18177,0.163248 0.34317,0.216959 0.16113,0.05397 0.38629,0.115093 0.67574,0.18415 0.0442,0.0082 0.0855,0.02461 0.12409,0.04948 0.0386,0.02487 0.0579,0.0553 0.0579,0.09102 0,0.07726 -0.0497,0.115623 -0.14896,0.115623 -0.19843,0 -0.3802,-0.0053 -0.54557,-0.0164 -0.16536,-0.01111 -0.32729,-0.02011 -0.48577,-0.02699 -0.15849,-0.0069 -0.33285,-0.01032 -0.52308,-0.01032 -0.19024,0 -0.36989,0.0034 -0.53949,0.01032 -0.16933,0.0069 -0.33893,0.01588 -0.50853,0.02699 -0.16933,0.01111 -0.34925,0.0164 -0.53948,0.0164"
       id="path374"
       style="stroke-width:0.264583" />
    <path
       class="Fingering"
       d="m 1.7137186,62.458467 c -0.044979,0 -0.1217083,-0.0034 -0.2275417,-0.01032 -0.1084791,-0.0069 -0.2275416,-0.01455 -0.3624791,-0.02275 -0.13493752,-0.0085 -0.27516668,-0.01587 -0.41804168,-0.02275 -0.142875,-0.0069 -0.28310417,-0.01032 -0.41804166,-0.01032 -0.1349375,0 -0.3254375,0.0034 -0.5715,0.01032 -0.24606249,0.0069 -0.50535416,0.01244 -0.77787496,0.0164 -0.2725209,0.0042 -0.508,0.0098 -0.7117292,0.01667 -0.206375,0.0069 -0.3360208,0.01032 -0.3942291,0.01032 -0.026458,0 -0.068792,-0.02275 -0.127,-0.06826 -0.055562,-0.04551 -0.084667,-0.08202 -0.084667,-0.109538 0,-0.03598 0.00794,-0.06059 0.021167,-0.07435 0.013229,-0.01376 0.034396,-0.03598 0.0635,-0.06615 l 1.80974993,-1.872721 c 0.35189583,-0.366713 0.64558333,-0.777346 0.87841666,-1.232165 0.23283333,-0.454554 0.34924999,-0.914929 0.34924999,-1.380596 0,-0.374914 -0.11377083,-0.669925 -0.33866666,-0.884766 -0.22489583,-0.215106 -0.48947916,-0.322527 -0.79374999,-0.322527 -0.28839583,0 -0.55827082,0.07937 -0.80433333,0.237596 -0.2460625,0.158485 -0.4445,0.365918 -0.5926667,0.6223 -0.018521,0.04127 -0.044979,0.07567 -0.076729,0.103452 -0.03175,0.02752 -0.066146,0.04127 -0.1005417,0.04127 -0.03175,0 -0.066146,-0.02963 -0.1031875,-0.0889 -0.039687,-0.05927 -0.058208,-0.134409 -0.058208,-0.225425 0,-0.08546 0.050271,-0.202407 0.1534583,-0.351367 0.1031875,-0.148696 0.2487083,-0.300302 0.4312708,-0.454554 0.1825625,-0.154517 0.4021667,-0.286808 0.65352087,-0.396875 0.254,-0.110331 0.52916666,-0.165365 0.82285416,-0.165365 0.35454166,0 0.65881249,0.07435 0.91281249,0.223044 0.25399998,0.14896 0.44979168,0.353483 0.58208328,0.614098 0.1349375,0.26035 0.2010834,0.564092 0.2010834,0.911489 0,0.190236 -0.034396,0.394759 -0.1005417,0.613834 -0.068792,0.219075 -0.15875,0.434181 -0.2751667,0.645054 -0.1164166,0.210873 -0.2487083,0.408517 -0.39687495,0.593196 -0.0926042,0.112977 -0.22754166,0.262466 -0.40745833,0.448469 -0.17991666,0.186002 -0.37570833,0.385233 -0.58208333,0.597429 -0.20902083,0.212196 -0.40481249,0.411956 -0.59266665,0.599546 -0.18520834,0.187325 -0.33866664,0.34237 -0.45772914,0.464872 -0.1217084,0.122767 -0.1799167,0.19103 -0.1799167,0.204788 0,0.03572 0.047625,0.06059 0.142875,0.07435 0.1217083,0.0082 0.25929167,0.01588 0.41010417,0.02275 0.1508125,0.0069 0.32808333,0.01032 0.52652083,0.01032 0.20372916,0 0.40745832,-0.0034 0.61118749,-0.01032 0.20372916,-0.0069 0.39952083,-0.01455 0.59002082,-0.02275 0.20637499,-0.01376 0.36777079,-0.03096 0.48154169,-0.05159 0.111125,-0.02064 0.206375,-0.06482 0.2831041,-0.132292 0.079375,-0.06747 0.15875,-0.171714 0.2460625,-0.312208 0.026458,-0.04127 0.0635,-0.09234 0.1084792,-0.152929 0.044979,-0.06059 0.097896,-0.09102 0.1561042,-0.09102 0.03175,0 0.052917,0.01376 0.060854,0.04154 0.00794,0.02752 0.013229,0.05636 0.013229,0.08678 0,0.03572 -0.021167,0.104511 -0.060854,0.20664 -0.039687,0.101864 -0.084667,0.226748 -0.1322916,0.374121 -0.047625,0.147373 -0.089958,0.309298 -0.127,0.485775 -0.021167,0.112977 -0.058208,0.183885 -0.1058334,0.212989 -0.050271,0.02884 -0.092604,0.04339 -0.1296458,0.04339"
       id="path376"
       style="stroke-width:0.264583" />
    <path
       class="Fingering"
       d="m 24.253572,72.433258 c -0.05027,0 -0.08996,-0.01429 -0.119062,-0.04339 -0.0291,-0.02884 -0.04233,-0.05715 -0.04233,-0.08467 0,-0.0635 0.05292,-0.108744 0.161395,-0.136525 0.26723,-0.07144 0.486834,-0.137054 0.661459,-0.196321 0.171979,-0.05927 0.298979,-0.143933 0.378354,-0.254264 0.08202,-0.110067 0.121708,-0.26723 0.121708,-0.471223 v -4.043098 c 0,-0.132292 -0.04233,-0.234421 -0.127,-0.305858 -0.08467,-0.0717 -0.193146,-0.121444 -0.325437,-0.148961 -0.134938,-0.02752 -0.280459,-0.04551 -0.436563,-0.05371 -0.06879,-0.0056 -0.132291,-0.02275 -0.187854,-0.05159 -0.05821,-0.0291 -0.08467,-0.07117 -0.08467,-0.126206 0,-0.04948 0.02646,-0.09234 0.07673,-0.128059 0.05292,-0.03598 0.116416,-0.05662 0.187854,-0.06218 0.3175,-0.04948 0.600604,-0.111654 0.851958,-0.186002 0.248708,-0.07435 0.494771,-0.23151 0.735542,-0.471223 0.0053,-0.0056 0.01323,-0.0082 0.02381,-0.0082 0.01058,0 0.02117,0 0.0291,0 0.0344,0 0.0635,0.0082 0.0926,0.02461 0.0291,0.01667 0.03969,0.03995 0.03175,0.07038 -0.01323,0.104775 -0.02381,0.219075 -0.03175,0.343164 -0.0053,0.12409 -0.01058,0.259027 -0.01058,0.405077 v 4.869921 c 0,0.176477 0.0344,0.310092 0.103188,0.401108 0.06615,0.09102 0.179916,0.163248 0.341312,0.216959 0.161396,0.05397 0.386292,0.115093 0.677334,0.18415 0.04233,0.0082 0.08467,0.02461 0.124354,0.04948 0.03704,0.02487 0.05556,0.0553 0.05556,0.09102 0,0.07726 -0.04763,0.115623 -0.148166,0.115623 -0.198438,0 -0.381,-0.0053 -0.545042,-0.0164 -0.166688,-0.01111 -0.328083,-0.02011 -0.486833,-0.02699 -0.15875,-0.0069 -0.33073,-0.01032 -0.52123,-0.01032 -0.1905,0 -0.370416,0.0034 -0.53975,0.01032 -0.169333,0.0069 -0.338666,0.01588 -0.508,0.02699 -0.169333,0.01111 -0.34925,0.0164 -0.53975,0.0164"
       id="path378"
       style="stroke-width:0.264583" />
    <path
       class="Fingering"
       d="m 65.398926,62.458467 c -0.04762,0 -0.124354,-0.0034 -0.230187,-0.01032 -0.105834,-0.0069 -0.224896,-0.01455 -0.36248,-0.02275 -0.134937,-0.0085 -0.27252,-0.01587 -0.415395,-0.02275 -0.145521,-0.0069 -0.283105,-0.01032 -0.418042,-0.01032 -0.134938,0 -0.325438,0.0034 -0.574146,0.01032 -0.246062,0.0069 -0.505354,0.01244 -0.775229,0.0164 -0.272521,0.0042 -0.510646,0.0098 -0.714375,0.01667 -0.203729,0.0069 -0.333375,0.01032 -0.391583,0.01032 -0.0291,0 -0.07144,-0.02275 -0.127,-0.06826 -0.05556,-0.04551 -0.08467,-0.08202 -0.08467,-0.109538 0,-0.03598 0.0079,-0.06059 0.02117,-0.07435 0.01323,-0.01376 0.0344,-0.03598 0.06085,-0.06615 l 1.812396,-1.872721 c 0.351895,-0.366713 0.645583,-0.777346 0.878416,-1.232165 0.232834,-0.454554 0.34925,-0.914929 0.34925,-1.380596 0,-0.374914 -0.113771,-0.669925 -0.338666,-0.884766 -0.227542,-0.215106 -0.492125,-0.322527 -0.79375,-0.322527 -0.291042,0 -0.558271,0.07937 -0.804334,0.237596 -0.248708,0.158485 -0.4445,0.365918 -0.595312,0.6223 -0.01852,0.04127 -0.04233,0.07567 -0.07408,0.103452 -0.03175,0.02752 -0.06615,0.04127 -0.103188,0.04127 -0.0291,0 -0.0635,-0.02963 -0.103187,-0.0889 -0.03704,-0.05927 -0.05821,-0.134409 -0.05821,-0.225425 0,-0.08546 0.05292,-0.202407 0.156104,-0.351367 0.103188,-0.148696 0.246063,-0.300302 0.428625,-0.454554 0.185209,-0.154517 0.402167,-0.286808 0.656167,-0.396875 0.254,-0.110331 0.529167,-0.165365 0.822854,-0.165365 0.351896,0 0.656167,0.07435 0.912813,0.223044 0.254,0.14896 0.447145,0.353483 0.582083,0.614098 0.132292,0.26035 0.201083,0.564092 0.201083,0.911489 0,0.190236 -0.0344,0.394759 -0.103187,0.613834 -0.06615,0.219075 -0.15875,0.434181 -0.275167,0.645054 -0.113771,0.210873 -0.246062,0.408517 -0.396875,0.593196 -0.08996,0.112977 -0.224896,0.262466 -0.404812,0.448469 -0.182563,0.186002 -0.375709,0.385233 -0.58473,0.597429 -0.206375,0.212196 -0.404812,0.411956 -0.59002,0.599546 -0.187854,0.187325 -0.338667,0.34237 -0.460375,0.464872 -0.119063,0.122767 -0.179917,0.19103 -0.179917,0.204788 0,0.03572 0.05027,0.06059 0.145521,0.07435 0.121708,0.0082 0.256646,0.01588 0.410104,0.02275 0.150812,0.0069 0.325437,0.01032 0.523875,0.01032 0.203729,0 0.407458,-0.0034 0.611187,-0.01032 0.206375,-0.0069 0.402167,-0.01455 0.592667,-0.02275 0.206375,-0.01376 0.365125,-0.03096 0.478896,-0.05159 0.113771,-0.02064 0.209021,-0.06482 0.28575,-0.132292 0.07673,-0.06747 0.15875,-0.171714 0.243417,-0.312208 0.0291,-0.04127 0.0635,-0.09234 0.111125,-0.152929 0.04498,-0.06059 0.09525,-0.09102 0.153458,-0.09102 0.0344,0 0.05292,0.01376 0.0635,0.04154 0.0079,0.02752 0.01058,0.05636 0.01058,0.08678 0,0.03572 -0.01852,0.104511 -0.05821,0.20664 -0.03969,0.101864 -0.08467,0.226748 -0.132292,0.374121 -0.05027,0.147373 -0.08996,0.309298 -0.127,0.485775 -0.02117,0.112977 -0.05821,0.183885 -0.108479,0.212989 -0.04762,0.02884 -0.0926,0.04339 -0.127,0.04339"
       id="path380"
       style="stroke-width:0.264583" />
    <path
       class="Fingering"
       d="m 89.396634,72.417913 c -0.359833,0 -0.669396,-0.09922 -0.933979,-0.297657 -0.264583,-0.198437 -0.486833,-0.461698 -0.661458,-0.789516 -0.177271,-0.328084 -0.306917,-0.68924 -0.394229,-1.083205 -0.08467,-0.394229 -0.127,-0.785547 -0.127,-1.17422 0,-0.402432 0.04233,-0.808038 0.127,-1.217348 0.08731,-0.409311 0.219604,-0.783431 0.396875,-1.122363 0.179916,-0.339196 0.410104,-0.612775 0.693208,-0.820737 0.283104,-0.208227 0.619125,-0.312209 1.008062,-0.312209 0.357188,0 0.669396,0.09922 0.933979,0.297657 0.264584,0.198437 0.484188,0.461698 0.661459,0.789781 0.174625,0.327819 0.306916,0.687652 0.391583,1.078971 0.08467,0.391319 0.129646,0.777081 0.129646,1.157552 0,0.396875 -0.04498,0.799306 -0.129646,1.207029 -0.08467,0.407987 -0.216958,0.784754 -0.396875,1.130829 -0.179917,0.345811 -0.407458,0.624946 -0.687917,0.837142 -0.280458,0.212196 -0.616479,0.318294 -1.010708,0.318294 m 0.182563,-0.277019 c 0.280458,0 0.508,-0.142611 0.679979,-0.427831 0.171979,-0.285221 0.296333,-0.65749 0.375708,-1.116278 0.07937,-0.458787 0.116417,-0.952764 0.116417,-1.481931 0,-0.394229 -0.0291,-0.782108 -0.08996,-1.163902 -0.06085,-0.381794 -0.153458,-0.727604 -0.275166,-1.037696 -0.121709,-0.310091 -0.275167,-0.556683 -0.455084,-0.740039 -0.179916,-0.183092 -0.388937,-0.274902 -0.629708,-0.274902 -0.280458,0 -0.505354,0.137848 -0.672041,0.413543 -0.166688,0.275432 -0.28575,0.640821 -0.359834,1.095375 -0.07144,0.454819 -0.108479,0.946944 -0.108479,1.476111 0,0.393964 0.0291,0.785283 0.08731,1.173956 0.06085,0.388673 0.148166,0.74004 0.264583,1.0541 0.119062,0.314325 0.264583,0.564356 0.441854,0.750358 0.174625,0.186002 0.383646,0.279136 0.624417,0.279136"
       id="path382"
       style="stroke-width:0.264583" />
    <path
       class="Fingering"
       d="m 114.47649,62.561654 c -0.1614,0 -0.33602,-0.02619 -0.51859,-0.07858 -0.18256,-0.05239 -0.33866,-0.113506 -0.46566,-0.183885 -0.127,-0.07038 -0.18786,-0.134409 -0.18786,-0.192088 0,-0.04974 0.0265,-0.113241 0.0847,-0.190235 0.0556,-0.07726 0.12171,-0.14605 0.19579,-0.20664 0.0741,-0.06085 0.13494,-0.09102 0.18521,-0.09102 0.0767,0 0.14817,0.02143 0.21167,0.06403 0.0635,0.0426 0.12964,0.09313 0.19843,0.150812 0.0926,0.07726 0.20109,0.151077 0.32015,0.221192 0.11906,0.07038 0.27781,0.105569 0.4736,0.105569 0.26194,0 0.508,-0.06694 0.74084,-0.200555 0.23283,-0.133614 0.42598,-0.319087 0.57679,-0.556154 0.15346,-0.237066 0.22754,-0.500062 0.22754,-0.789516 0,-0.275696 -0.045,-0.54028 -0.13494,-0.79375 -0.0926,-0.253471 -0.22754,-0.463021 -0.40745,-0.628386 -0.18257,-0.165364 -0.41011,-0.248179 -0.68528,-0.248179 -0.0767,0 -0.17991,0.009 -0.3122,0.02699 -0.12965,0.01799 -0.254,0.06138 -0.37307,0.130175 -0.037,0.02196 -0.0767,0.02064 -0.1217,-0.004 -0.0476,-0.02487 -0.0662,-0.0553 -0.0609,-0.09102 0.0291,-0.09102 0.0741,-0.166687 0.127,-0.227542 0.0556,-0.06059 0.11906,-0.10451 0.1905,-0.132291 0.0635,-0.02752 0.16669,-0.08176 0.30692,-0.163248 0.14023,-0.08123 0.29104,-0.183092 0.44979,-0.305858 0.1614,-0.122767 0.29633,-0.26379 0.4101,-0.423863 0.11377,-0.159808 0.16934,-0.334698 0.16934,-0.524933 0,-0.289454 -0.0926,-0.545042 -0.28046,-0.766763 -0.18786,-0.221985 -0.42598,-0.332846 -0.71702,-0.332846 -0.27517,0 -0.49477,0.04736 -0.66146,0.142611 -0.16404,0.09499 -0.29633,0.204523 -0.39688,0.328612 -0.0979,0.12409 -0.17197,0.233627 -0.22225,0.328613 -0.0503,0.09525 -0.0952,0.14261 -0.13758,0.14261 -0.0265,0 -0.0609,-0.02117 -0.10319,-0.06403 -0.045,-0.0426 -0.0661,-0.0889 -0.0661,-0.138377 0,-0.09102 0.0397,-0.212196 0.11641,-0.363802 0.0767,-0.151606 0.19844,-0.305329 0.36513,-0.461169 0.16669,-0.155575 0.381,-0.286544 0.63765,-0.392641 0.25664,-0.106098 0.5662,-0.159015 0.92339,-0.159015 0.23548,0 0.45508,0.05159 0.66411,0.154781 0.20902,0.103452 0.37835,0.24474 0.51329,0.423863 0.13229,0.179123 0.20108,0.388673 0.20108,0.628385 0,0.170921 -0.037,0.347927 -0.10583,0.531283 -0.0714,0.183357 -0.18786,0.364332 -0.34925,0.543719 -0.16404,0.179123 -0.38365,0.349779 -0.65882,0.512498 -0.0212,0.0082 -0.0318,0.02143 -0.0318,0.03916 0,0.01799 0.0159,0.02699 0.045,0.02699 0.30427,0 0.57415,0.07567 0.81492,0.227277 0.23813,0.151606 0.43127,0.35216 0.57679,0.601662 0.14288,0.249503 0.21696,0.525728 0.21696,0.82894 0,0.396875 -0.0847,0.75221 -0.254,1.066535 -0.16933,0.314061 -0.39687,0.582084 -0.67998,0.804069 -0.28046,0.221986 -0.59796,0.39079 -0.94456,0.506413 -0.34925,0.115887 -0.70379,0.173566 -1.06627,0.173566"
       id="path384"
       style="stroke-width:0.264583" />
    <path
       class="Fingering"
       d="m 139.6119,72.433258 c -0.0503,0 -0.0899,-0.01429 -0.11906,-0.04339 -0.0265,-0.02884 -0.0423,-0.05715 -0.0423,-0.08467 0,-0.0635 0.0529,-0.108744 0.16139,-0.136525 0.26723,-0.07144 0.48684,-0.137054 0.66146,-0.196321 0.17463,-0.05927 0.30163,-0.143933 0.381,-0.254264 0.0794,-0.110067 0.11907,-0.26723 0.11907,-0.471223 v -4.043098 c 0,-0.132292 -0.0423,-0.234421 -0.127,-0.305858 -0.082,-0.0717 -0.19315,-0.121444 -0.32544,-0.148961 -0.13494,-0.02752 -0.28046,-0.04551 -0.43656,-0.05371 -0.0688,-0.0056 -0.1323,-0.02275 -0.18786,-0.05159 -0.0556,-0.0291 -0.0847,-0.07117 -0.0847,-0.126206 0,-0.04948 0.0265,-0.09234 0.0794,-0.128059 0.0503,-0.03598 0.11377,-0.05662 0.18521,-0.06218 0.3175,-0.04948 0.6006,-0.111654 0.85196,-0.186002 0.25135,-0.07435 0.49477,-0.23151 0.73554,-0.471223 0.005,-0.0056 0.0132,-0.0082 0.0238,-0.0082 0.0132,0 0.0212,0 0.0291,0 0.0344,0 0.0661,0.0082 0.0926,0.02461 0.0291,0.01667 0.0397,0.03995 0.0317,0.07038 -0.0132,0.104775 -0.0238,0.219075 -0.0317,0.343164 -0.005,0.12409 -0.008,0.259027 -0.008,0.405077 v 4.869921 c 0,0.176477 0.0317,0.310092 0.10054,0.401108 0.0661,0.09102 0.18257,0.163248 0.34396,0.216959 0.15875,0.05397 0.38629,0.115093 0.67469,0.18415 0.045,0.0082 0.0847,0.02461 0.12435,0.04948 0.037,0.02487 0.0582,0.0553 0.0582,0.09102 0,0.07726 -0.0503,0.115623 -0.15081,0.115623 -0.19844,0 -0.37836,-0.0053 -0.54504,-0.0164 -0.16404,-0.01111 -0.32544,-0.02011 -0.48419,-0.02699 -0.15875,-0.0069 -0.33338,-0.01032 -0.52388,-0.01032 -0.1905,0 -0.37041,0.0034 -0.53975,0.01032 -0.16933,0.0069 -0.33866,0.01588 -0.508,0.02699 -0.16933,0.01111 -0.34925,0.0164 -0.53975,0.0164"
       id="path386"
       style="stroke-width:0.264583" />
    <path
       class="Fingering"
       d="m 61.130871,112.02742 c -0.0503,0 -0.0899,-0.0143 -0.11906,-0.0434 -0.0265,-0.0288 -0.0423,-0.0571 -0.0423,-0.0847 0,-0.0635 0.0529,-0.10875 0.16139,-0.13653 0.26723,-0.0714 0.48684,-0.13705 0.66146,-0.19632 0.17463,-0.0593 0.30163,-0.14393 0.381,-0.25426 0.0794,-0.11007 0.11907,-0.26723 0.11907,-0.47122 v -4.0431 c 0,-0.13229 -0.0423,-0.23442 -0.127,-0.30586 -0.082,-0.0717 -0.19315,-0.12144 -0.32544,-0.14896 -0.13494,-0.0275 -0.28046,-0.0455 -0.43656,-0.0537 -0.0688,-0.006 -0.1323,-0.0227 -0.18786,-0.0516 -0.0556,-0.0291 -0.0847,-0.0712 -0.0847,-0.12621 0,-0.0495 0.0265,-0.0923 0.0794,-0.12806 0.0503,-0.036 0.11377,-0.0566 0.18521,-0.0622 0.3175,-0.0495 0.6006,-0.11165 0.85196,-0.186 0.25135,-0.0743 0.49477,-0.23151 0.73554,-0.47122 0.005,-0.006 0.0132,-0.008 0.0238,-0.008 0.0132,0 0.0212,0 0.0291,0 0.0344,0 0.0661,0.008 0.0926,0.0246 0.0291,0.0167 0.0397,0.04 0.0317,0.0704 -0.0132,0.10477 -0.0238,0.21907 -0.0317,0.34316 -0.005,0.12409 -0.008,0.25903 -0.008,0.40508 v 4.86992 c 0,0.17648 0.0317,0.31009 0.10054,0.40111 0.0661,0.091 0.18257,0.16325 0.34396,0.21696 0.15875,0.054 0.38629,0.11509 0.67469,0.18415 0.045,0.008 0.0847,0.0246 0.12435,0.0495 0.037,0.0249 0.0582,0.0553 0.0582,0.091 0,0.0773 -0.0503,0.11562 -0.15081,0.11562 -0.19844,0 -0.37836,-0.005 -0.54504,-0.0164 -0.16404,-0.0111 -0.32544,-0.0201 -0.48419,-0.027 -0.15875,-0.007 -0.33338,-0.0103 -0.52388,-0.0103 -0.1905,0 -0.37041,0.003 -0.53975,0.0103 -0.16933,0.007 -0.33866,0.0159 -0.508,0.027 -0.16933,0.0111 -0.34925,0.0164 -0.53975,0.0164"
       id="path386-5"
       style="stroke-width:0.264583" />
    <text
       xml:space="preserve"
       style="font-size:10.5833px;line-height:1.25;font-family:'Droid Serif';-inkscape-font-specification:'Droid Serif';word-spacing:0px;stroke-width:0.264583"
       x="69.064041"
       y="50.119511"
       id="text17388"><tspan
         sodipodi:role="line"
         style="stroke-width:0.264583"
         x="69.064041"
         y="50.119511"
         id="tspan36642">Shift down</tspan></text>
    <path
       style="fill:#f36d05;fill-opacity:1;stroke:none;stroke-width:0.264583px;stroke-linecap:butt;stroke-linejoin:miter;stroke-opacity:1"
       d="m 95.041991,53.49047 c 0,0 2.309491,3.375164 2.338138,9.77096 0.0163,3.639039 -1.783706,5.14754 -1.783706,5.14754 l -3.122225,-3.932458 1.900991,10.910492 11.611601,-3.196087 -5.72866,-1.097038 c 0,0 1.63113,-1.544632 1.15221,-8.113137 -0.45532,-6.244746 -6.368349,-9.490272 -6.368349,-9.490272 z"
       id="path37372"
       sodipodi:nodetypes="cscccccsc" />
    <path
       class="Note"
       d="m 93.924175,87.411792 c -0.47169,-0.869545 -1.46835,-1.341205 -2.67832,-1.341205 -0.89003,0 -1.86212,0.2625 -2.80956,0.762878 -1.73087,0.918755 -2.78087,2.465045 -2.78087,3.806258 0,0.365037 0.0779,0.734178 0.2625,1.074609 0.47168,0.865441 1.46835,1.312505 2.67831,1.312505 0.89006,0 1.86212,-0.233782 2.80959,-0.734186 1.73085,-0.91875 2.78085,-2.469141 2.78085,-3.80625 0,-0.369141 -0.0779,-0.734181 -0.2625,-1.074609"
       id="path250-3"
       style="fill:none;fill-opacity:1;stroke:url(#linearGradient47363);stroke-width:0.79375;stroke-dasharray:1.5875, 0.79375;stroke-dashoffset:0;stroke-opacity:1" />
    <path
       class="Note"
       d="m 68.026531,83.269486 c -0.471689,-0.869545 -1.46835,-1.341205 -2.67832,-1.341205 -0.890029,0 -1.86212,0.2625 -2.80956,0.762878 -1.73087,0.918755 -2.780869,2.465045 -2.780869,3.806256 0,0.36504 0.0779,0.73418 0.2625,1.07461 0.47168,0.86544 1.46835,1.31251 2.67831,1.31251 0.89006,0 1.86212,-0.23379 2.80959,-0.73419 1.73085,-0.91875 2.78085,-2.469141 2.78085,-3.80625 0,-0.369141 -0.0779,-0.734181 -0.262501,-1.074609"
       id="path250-3-2"
       style="fill:none;fill-opacity:1;stroke:#7950df;stroke-width:0.79375;stroke-dasharray:1.5875, 0.79375;stroke-dashoffset:0;stroke-opacity:1" />
    <path
       class="Note"
       d="m -47.330701,83.269485 c -0.471689,-0.86954 -1.46835,-1.3412 -2.67832,-1.3412 -0.890029,0 -1.86212,0.2625 -2.80956,0.76288 -1.73087,0.91875 -2.780869,2.46504 -2.780869,3.80625 0,0.36504 0.0779,0.73418 0.2625,1.07461 0.47168,0.86544 1.46835,1.31251 2.67831,1.31251 0.89006,0 1.86212,-0.23379 2.80959,-0.73419 1.73085,-0.91875 2.78085,-2.46914 2.78085,-3.80625 0,-0.36914 -0.0779,-0.73418 -0.262501,-1.07461"
       id="path250-3-2-91"
       style="fill:none;fill-opacity:1;stroke:#7950df;stroke-width:0.79375;stroke-dasharray:1.5875, 0.79375;stroke-dashoffset:0;stroke-opacity:1" />
    <path
       class="Note"
       d="m -21.506787,83.269486 c -0.471689,-0.869545 -1.46835,-1.341205 -2.67832,-1.341205 -0.890029,0 -1.86212,0.2625 -2.80956,0.762878 -1.73087,0.918755 -2.780869,2.465045 -2.780869,3.806256 0,0.36504 0.0779,0.73418 0.2625,1.07461 0.47168,0.86544 1.46835,1.31251 2.67831,1.31251 0.89006,0 1.86212,-0.23379 2.80959,-0.73419 1.73085,-0.91875 2.78085,-2.469141 2.78085,-3.80625 0,-0.369141 -0.0779,-0.734181 -0.262501,-1.074609"
       id="path250-3-2-4"
       style="fill:none;fill-opacity:1;stroke:#7950df;stroke-width:0.79375;stroke-dasharray:1.5875, 0.79375;stroke-dashoffset:0;stroke-opacity:1" />
    <path
       class="Note"
       d="m 4.329775,83.269481 c -0.471689,-0.869545 -1.46835,-1.341205 -2.67832,-1.341205 -0.89002896,0 -1.86211996,0.2625 -2.80956,0.762878 -1.73087,0.918755 -2.780869,2.465045 -2.780869,3.806261 0,0.36503 0.0779,0.73418 0.2625,1.07461 0.47168,0.86544 1.46835,1.31251 2.67831004,1.31251 0.89006,0 1.86212,-0.23379 2.80958996,-0.73419 1.73085,-0.91875 2.78085,-2.46915 2.78085,-3.806255 0,-0.369141 -0.0779,-0.734181 -0.262501,-1.074609"
       id="path250-3-2-910"
       style="fill:none;fill-opacity:1;stroke:#7950df;stroke-width:0.79375;stroke-dasharray:1.5875, 0.79375;stroke-dashoffset:0;stroke-opacity:1" />
    <path
       class="Note"
       d="m 119.91231,87.343747 c -0.47169,-0.86955 -1.46835,-1.34121 -2.67832,-1.34121 -0.89003,0 -1.86212,0.2625 -2.80956,0.76288 -1.73087,0.91875 -2.78087,2.46504 -2.78087,3.80626 0,0.36504 0.0779,0.73417 0.2625,1.07461 0.47168,0.86544 1.46835,1.31251 2.67831,1.31251 0.89006,0 1.86212,-0.23379 2.80959,-0.73419 1.73085,-0.91875 2.78085,-2.46915 2.78085,-3.80625 0,-0.36915 -0.0779,-0.73419 -0.2625,-1.07461"
       id="path250-3-2-9"
       style="fill:none;fill-opacity:1;stroke:#f36d05;stroke-width:0.79375;stroke-dasharray:1.5875, 0.79375;stroke-dashoffset:0;stroke-opacity:1" />
  </g>
</svg>
