<?xml version="1.0" encoding="UTF-8" standalone="no"?>
<!-- Created with Inkscape (http://www.inkscape.org/) -->

<svg
   width="158.75mm"
   height="10.987117mm"
   viewBox="0 0 158.75 10.987117"
   version="1.1"
   id="svg5"
   inkscape:version="1.1.1 (3bf5ae0d25, 2021-09-20)"
   sodipodi:docname="404.svg"
   xmlns:inkscape="http://www.inkscape.org/namespaces/inkscape"
   xmlns:sodipodi="http://sodipodi.sourceforge.net/DTD/sodipodi-0.dtd"
   xmlns="http://www.w3.org/2000/svg"
   xmlns:svg="http://www.w3.org/2000/svg">
  <sodipodi:namedview
     id="namedview7"
     pagecolor="#ffffff"
     bordercolor="#666666"
     borderopacity="1.0"
     inkscape:pageshadow="2"
     inkscape:pageopacity="0.0"
     inkscape:pagecheckerboard="0"
     inkscape:document-units="mm"
     showgrid="false"
     inkscape:zoom="0.5550014"
     inkscape:cx="587.3859"
     inkscape:cy="-385.58461"
     inkscape:window-width="1920"
     inkscape:window-height="1039"
     inkscape:window-x="0"
     inkscape:window-y="0"
     inkscape:window-maximized="1"
     inkscape:current-layer="layer1" />
  <defs
     id="defs2" />
  <g
     inkscape:label="Layer 1"
     inkscape:groupmode="layer"
     id="layer1"
     transform="translate(50.294738,-250.50804)">
    <g
       id="g875"
       transform="matrix(0.06222606,0,0,0.06222606,-63.523874,213.27999)">
      <polyline
         class="StaffLines"
         fill="none"
         stroke="#000000"
         stroke-width="2.73"
         stroke-linejoin="bevel"
         points="212.598,634.252 2763.78,634.252"
         id="polyline6" />
      <polyline
         class="StaffLines"
         fill="none"
         stroke="#000000"
         stroke-width="2.73"
         stroke-linejoin="bevel"
         points="212.598,659.055 2763.78,659.055"
         id="polyline8" />
      <polyline
         class="StaffLines"
         fill="none"
         stroke="#000000"
         stroke-width="2.73"
         stroke-linejoin="bevel"
         points="212.598,683.858 2763.78,683.858"
         id="polyline10" />
      <polyline
         class="StaffLines"
         fill="none"
         stroke="#000000"
         stroke-width="2.73"
         stroke-linejoin="bevel"
         points="212.598,708.661 2763.78,708.661"
         id="polyline12" />
      <polyline
         class="StaffLines"
         fill="none"
         stroke="#000000"
         stroke-width="2.73"
         stroke-linejoin="bevel"
         points="212.598,733.465 2763.78,733.465"
         id="polyline14" />
      <polyline
         class="BarLine"
         fill="none"
         stroke="#000000"
         stroke-width="4.46"
         stroke-linejoin="bevel"
         points="959.719,632.888 959.719,734.829"
         id="polyline18" />
      <polyline
         class="BarLine"
         fill="none"
         stroke="#000000"
         stroke-width="4.46"
         stroke-linejoin="bevel"
         points="1558.97,632.888 1558.97,734.829"
         id="polyline20" />
      <polyline
         class="BarLine"
         fill="none"
         stroke="#000000"
         stroke-width="4.46"
         stroke-linejoin="bevel"
         points="2158.21,632.888 2158.21,734.829"
         id="polyline22" />
      <polyline
         class="BarLine"
         fill="none"
         stroke="#000000"
         stroke-width="4.46"
         stroke-linejoin="bevel"
         points="2739.59,632.888 2739.59,734.829"
         id="polyline24" />
      <polyline
         class="BarLine"
         fill="none"
         stroke="#000000"
         stroke-width="13.64"
         stroke-linejoin="bevel"
         points="2756.96,632.888 2756.96,734.829"
         id="polyline26" />
      <path
         class="Clef"
         transform="matrix(0.992126,0,0,0.992126,232.441,708.661)"
         d="m 63.3594,-5.92188 c -1.2344,-5.42192 -3.875,-9.25002 -4.6563,-10.28122 -3.1875,-4.2813 -7.2031,-7.125 -11.8906,-8.4844 -3.1094,-0.875 -6.1094,-1 -8.5312,-0.8125 -1.0469,-6.0156 -2.0469,-11.8906 -2.9532,-17.3438 5.4532,-6.1718 9.0782,-11.9687 11.3594,-16.2656 3.4688,-6.5781 4.6094,-11.1562 4.6719,-11.3594 1.7187,-5.2187 2.0781,-12.9218 0.9687,-21.125 -1,-7.5468 -3.0937,-14.2652 -5.4531,-17.5152 -1.0156,-1.422 -2.0781,-2.157 -3.1094,-2.157 -1.2187,0 -3.7343,1.235 -6.625,4.016 -2.2968,2.187 -5.5625,6.078 -8.125,12.0937 -3,7.0625 -3.2187,16.5469 -2.8593,23.2657 0.375,7.2812 1.4843,12.9687 1.5,13.0156 0.0156,0.0937 0.2812,1.5937 0.7187,4.1562 -0.2187,0.2344 -0.4687,0.4532 -0.7187,0.7032 -1.0313,1 -2.2188,2.125 -3.6094,3.5156 -0.8594,0.8594 -1.8125,1.7656 -2.8125,2.7344 C 12.7969,-39.625 0,-27.2969 0,-8.14063 0,-3.4375 0.90625,0.984375 2.6875,5 c 1.57813,3.59375 3.875,6.875 6.8125,9.75 7.7344,7.5625 18.3281,10.7656 25.375,10.6094 2.9531,-0.0781 5.5938,-0.3125 7.9844,-0.7656 1.8281,9.6093 2.9687,16.6406 3,21.9843 0.0469,6.5157 -1.6094,10.5 -5.5,13.2657 -2.4375,1.7343 -5.25,2.6875 -8.3438,2.8281 -2.5937,0.125 -4.8593,-0.3438 -6.2812,-0.75 h -0.0156 c 0,0 -0.2813,-0.0938 -0.2969,-0.2813 -0.0156,-0.1875 0.3437,-0.2343 0.3437,-0.2343 h 0.0313 c 1.9219,-0.4375 5.4844,-1.6719 7.8437,-4.9688 1.7969,-2.5312 2.6719,-7.1562 0.8282,-11.0937 C 33.3594,42.9531 30.8594,40 25.2344,39.5469 c -2.5,-0.2031 -4.7656,0.3125 -6.7656,1.5156 -1.8125,1.0781 -3.3125,2.7188 -4.3594,4.7188 -2.4531,4.7031 -2,10.4375 1.125,14.2812 2.9687,3.625 7.5781,5.9375 13.0156,6.5156 0.8594,0.0938 1.7031,0.125 2.5469,0.125 4.4375,0 8.8281,-1.2031 12.4062,-3.4062 3.6563,-2.5781 5.7813,-6.5625 6.4532,-12.1875 0.5625,-4.6406 0.1718,-10.5625 -1.2188,-18.6406 -0.3594,-2.0938 -0.9062,-5.125 -1.5625,-8.875 5.75,-1.9219 9.9063,-5.5 13.6719,-11.3594 C 63.8438,6.5 64.7813,0.390625 63.3594,-5.92188 M 29.1406,20.2969 C 24.5,19.0781 20.0625,16.5781 16.3125,13.0625 15,11.8438 13.125,9.67188 11.6563,6.28125 10.2969,3.10938 9.625,-0.328125 9.6875,-3.90625 c 0.0625,-4.70313 1.375,-9.53125 3.875,-14.31255 2.9219,-5.5781 7.4844,-11.1093 13.5469,-16.4375 1.4531,-1.2812 2.8281,-2.5625 4.1094,-3.8437 0.7656,4.2656 1.5937,8.9531 2.4687,13.8281 -3.8437,1.2656 -8.5937,4.4219 -11.7031,10.0781 C 18.4375,-8.03125 18.5781,-2.5 19.3125,0.984375 20.25,5.4375 22.7813,9.20313 26.2344,11.2969 c 0.9375,0.5625 5.0625,2.6875 6.9062,2.1094 0.375,-0.1094 0.6407,-0.3438 0.7813,-0.6719 0.5156,-1.1719 -0.5156,-1.8125 -2.0625,-2.76565 -0.6094,-0.375 -1.2813,-0.79687 -2,-1.32812 -3.3281,-2.48438 -4.7813,-6.9375 -3.7031,-11.32813 0.5781,-2.39063 1.8593,-4.5625 3.7031,-6.26563 1.6562,-1.54687 3.7031,-2.64067 6.0781,-3.28127 2.0469,11.250025 4.1094,22.4063 5.75,30.7657 0.125,0.6875 0.2656,1.3593 0.3906,2.0312 -4.375,0.9375 -8.7187,0.8438 -12.9375,-0.2656 m 11.3282,-33.2032 c 10.3437,-0.4687 14.6093,6.9688 15.5,11.79692 0.4687,2.54688 0.4687,6.98438 -1.0782,11.20318 -1.1718,3.1718 -3.625,7.25 -8.7656,9.3125 C 46.0625,18.9844 45.9844,18.5469 45.9063,18.125 44.3594,9.34375 42.4219,-1.65625 40.4688,-12.9063 m -7.3282,-70.9531 c 1.7813,-5.7344 4.5157,-8.9844 6.5157,-10.7187 1.75,-1.5157 3.3906,-2.2344 4.3125,-2.2344 0.1406,0 0.2656,0.0312 0.3593,0.0625 0.4688,0.1406 1,0.7031 1.4688,1.5781 2.3125,4.2813 1.5625,11 0.2187,15.4375 -1.625,5.4063 -4.5468,11.0156 -13.3437,20.625 -0.1719,-1.1094 -0.3281,-2.1562 -0.4844,-3.1406 -1.25,-8.2813 -0.9219,-15.5625 0.9531,-21.6094"
         id="path28" />
      <path
         class="TimeSig"
         transform="matrix(0.992126,0,0,0.992126,319.36,659.187)"
         d="M 3.59375,12.625 H 20.7656 v 7.4531 h -8.2187 c -0.7813,0 -1.4219,0.625 -1.4219,1.4063 v 1.9062 c 0,0.7813 0.6406,1.4063 1.4219,1.4063 h 30.25 c 0.7812,0 1.4062,-0.625 1.4062,-1.4063 v -1.9062 c 0,-0.7813 -0.625,-1.4063 -1.4062,-1.4063 H 33.8594 V 12.625 h 8.9375 c 0.7812,0 1.4062,-0.625 1.4062,-1.4062 V 9.3125 c 0,-0.78125 -0.625,-1.40625 -1.4062,-1.40625 H 33.8594 V -8.0625 c 0,-0.53125 -0.3125,-1.01563 -0.7813,-1.25 l -1.2187,-0.60938 c -0.5313,-0.25002 -1.1563,-0.15622 -1.5938,0.23438 l -9.0468,8.3125 c -0.2813,0.28125 -0.4532,0.640625 -0.4532,1.046875 V 7.90625 H 9.25 c 0,0 11.125,-12.03125 22.9688,-27.79685 0.8593,-1.1563 0.3593,-2.2032 0.1718,-2.3907 l -2.1718,-2.2031 c -0.2657,-0.2656 -0.625,-0.4219 -1,-0.4219 -0.5938,0 -14.1563,0.0313 -14.875,0 -0.7188,-0.0156 -1.25,0.6094 -1.3282,1.2188 0,0 -0.5312,7.3594 -3.1406,15.5 -2.59375,8.109375 -5.53125,13.09375 -8.1875,16.71875 0,0 -0.54687,0.98438 -0.1875,1.73435 0.34375,0.75 0.98438,1.8282 0.98438,1.8282 0,0 0.25,0.5312 1.10937,0.5312"
         id="path30" />
      <path
         class="TimeSig"
         transform="matrix(0.992126,0,0,0.992126,319.36,708.53)"
         d="M 3.59375,12.625 H 20.7656 v 7.4531 h -8.2187 c -0.7813,0 -1.4219,0.625 -1.4219,1.4063 v 1.9062 c 0,0.7813 0.6406,1.4063 1.4219,1.4063 h 30.25 c 0.7812,0 1.4062,-0.625 1.4062,-1.4063 v -1.9062 c 0,-0.7813 -0.625,-1.4063 -1.4062,-1.4063 H 33.8594 V 12.625 h 8.9375 c 0.7812,0 1.4062,-0.625 1.4062,-1.4062 V 9.3125 c 0,-0.78125 -0.625,-1.40625 -1.4062,-1.40625 H 33.8594 V -8.0625 c 0,-0.53125 -0.3125,-1.01563 -0.7813,-1.25 l -1.2187,-0.60938 c -0.5313,-0.25002 -1.1563,-0.15622 -1.5938,0.23438 l -9.0468,8.3125 c -0.2813,0.28125 -0.4532,0.640625 -0.4532,1.046875 V 7.90625 H 9.25 c 0,0 11.125,-12.03125 22.9688,-27.79685 0.8593,-1.1563 0.3593,-2.2032 0.1718,-2.3907 l -2.1718,-2.2031 c -0.2657,-0.2656 -0.625,-0.4219 -1,-0.4219 -0.5938,0 -14.1563,0.0313 -14.875,0 -0.7188,-0.0156 -1.25,0.6094 -1.3282,1.2188 0,0 -0.5312,7.3594 -3.1406,15.5 -2.59375,8.109375 -5.53125,13.09375 -8.1875,16.71875 0,0 -0.54687,0.98438 -0.1875,1.73435 0.34375,0.75 0.98438,1.8282 0.98438,1.8282 0,0 0.25,0.5312 1.10937,0.5312"
         id="path32" />
      <path
         class="Rest"
         transform="matrix(0.992126,0,0,0.992126,644.229,659.055)"
         d="M 31.1094,-0.5 H 1.40625 C 0.59375,-0.5 0,0.09375 0,0.90625 V 11.7031 C 0,12.5 0.59375,13.0938 1.40625,13.0938 H 31.1094 C 31.9063,13.0938 32.5,12.5 32.5,11.7031 V 0.90625 C 32.5,0.09375 31.9063,-0.5 31.1094,-0.5"
         id="path34" />
      <path
         class="Rest"
         transform="matrix(0.992126,0,0,0.992126,1243.22,659.055)"
         d="M 31.1094,-0.5 H 1.40625 C 0.59375,-0.5 0,0.09375 0,0.90625 V 11.7031 C 0,12.5 0.59375,13.0938 1.40625,13.0938 H 31.1094 C 31.9063,13.0938 32.5,12.5 32.5,11.7031 V 0.90625 C 32.5,0.09375 31.9063,-0.5 31.1094,-0.5"
         id="path36" />
      <path
         class="Rest"
         transform="matrix(0.992126,0,0,0.992126,1842.47,659.055)"
         d="M 31.1094,-0.5 H 1.40625 C 0.59375,-0.5 0,0.09375 0,0.90625 V 11.7031 C 0,12.5 0.59375,13.0938 1.40625,13.0938 H 31.1094 C 31.9063,13.0938 32.5,12.5 32.5,11.7031 V 0.90625 C 32.5,0.09375 31.9063,-0.5 31.1094,-0.5"
         id="path38" />
      <path
         class="Rest"
         transform="matrix(0.992126,0,0,0.992126,2432.79,659.055)"
         d="M 31.1094,-0.5 H 1.40625 C 0.59375,-0.5 0,0.09375 0,0.90625 V 11.7031 C 0,12.5 0.59375,13.0938 1.40625,13.0938 H 31.1094 C 31.9063,13.0938 32.5,12.5 32.5,11.7031 V 0.90625 C 32.5,0.09375 31.9063,-0.5 31.1094,-0.5"
         id="path40" />
    </g>
  </g>
</svg>
