<svg width="675mm" height="201.57mm" version="1.1" viewBox="0 0 675 201.57" xmlns="http://www.w3.org/2000/svg"><g transform="translate(102 -16.967)"><g fill="none" stroke="#000" stroke-linejoin="bevel" stroke-width="2.73"><polyline class="StaffLines" transform="matrix(.26458 0 0 .26458 -158.25 -239.16)" points="212.6 1080.7 2763.8 1080.7"/><polyline class="StaffLines" transform="matrix(.26458 0 0 .26458 -158.25 -239.16)" points="212.6 1105.5 2763.8 1105.5"/><polyline class="StaffLines" transform="matrix(.26458 0 0 .26458 -158.25 -239.16)" points="212.6 1130.3 2763.8 1130.3"/><polyline class="StaffLines" transform="matrix(.26458 0 0 .26458 -158.25 -239.16)" points="212.6 1155.1 2763.8 1155.1"/><polyline class="StaffLines" transform="matrix(.26458 0 0 .26458 -158.25 -239.16)" points="212.6 1179.9 2763.8 1179.9"/><polyline class="StaffLines" transform="matrix(.26458 0 0 .26458 -158.25 -239.16)" points="212.6 1527.2 2763.8 1527.2"/><polyline class="StaffLines" transform="matrix(.26458 0 0 .26458 -158.25 -239.16)" points="212.6 1552 2763.8 1552"/><polyline class="StaffLines" transform="matrix(.26458 0 0 .26458 -158.25 -239.16)" points="212.6 1576.8 2763.8 1576.8"/><polyline class="StaffLines" transform="matrix(.26458 0 0 .26458 -158.25 -239.16)" points="212.6 1601.6 2763.8 1601.6"/><polyline class="StaffLines" transform="matrix(.26458 0 0 .26458 -158.25 -239.16)" points="212.6 1626.4 2763.8 1626.4"/></g><g fill-rule="evenodd" stroke="#000" stroke-linecap="round" stroke-linejoin="round" stroke-width=".46038"><path class="SlurSegment" d="m-56.984 95.341c9.5123 8.4296 28.537 8.4296 38.049 0-9.5123 10.268-28.537 10.268-38.049 0"/><path class="SlurSegment" d="m0.56776 95.341c12.366 4.99 31.39-1.5716 38.049-13.123-6.0598 13.29-25.084 19.852-38.049 13.123"/><path class="SlurSegment" d="m58.12 82.218c9.5123 8.4296 28.537 8.4296 38.049 0-9.5123 10.266-28.537 10.266-38.049 0"/><path class="SlurSegment" d="m115.67 82.218c12.367 4.99 31.39-1.5743 38.05-13.126-6.059 13.29-25.082 19.852-38.05 13.126"/><path class="SlurSegment" d="m179.46 57.278c4.2571-12.242 20.164-18.804 31.816-13.123-10.951-3.982-26.858 2.5797-31.816 13.123"/><path class="SlurSegment" d="m230.77 44.155c9.5118-10.268 28.538-10.268 38.05 0-9.5118-8.4296-28.538-8.4296-38.05 0"/><path class="SlurSegment" d="m288.33 44.155c9.5118-10.268 28.538-10.268 38.05 0-9.5118-8.4296-28.538-8.4296-38.05 0"/><path class="SlurSegment" d="m345.88 44.155c12.965-6.7284 31.988-0.16669 38.05 13.123-6.6596-11.552-25.686-18.113-38.05-13.123"/><path class="SlurSegment" d="m403.43 69.092c6.6596 11.552 25.683 18.116 38.05 13.126-12.967 6.7257-31.991 0.16404-38.05-13.126"/><path class="SlurSegment" d="m460.98 82.218c9.5118 8.4296 28.535 8.4296 38.047 0-9.5118 10.266-28.535 10.266-38.047 0"/><path class="SlurSegment" d="m518.53 82.218c6.6596 11.552 25.686 18.113 38.05 13.123-12.965 6.7284-31.988 0.16669-38.05-13.123"/><path class="SlurSegment" d="m-56.984 213.47c4.8755 4.6196 14.627 4.6196 19.502 0-4.8755 6.4558-14.627 6.4558-19.502 0"/><path class="SlurSegment" d="m0.56776 213.47c8.0497 1.434 17.801-5.1276 19.503-13.126-0.67601 9.5224-10.427 16.084-19.503 13.126"/><path class="SlurSegment" d="m58.12 200.34c4.8757 4.6196 14.627 4.6196 19.503 0-4.8757 6.4585-14.627 6.4585-19.503 0"/><path class="SlurSegment" d="m115.67 200.34c8.0513 1.4367 17.801-5.1276 19.505-13.123-0.67733 9.5197-10.427 16.084-19.505 13.123"/><path class="SlurSegment" d="m179.46 175.4c-1.0478-7.6941 5.588-14.256 13.269-13.126-6.3897 0.17463-13.023 6.7389-13.269 13.126"/><path class="SlurSegment" d="m230.77 162.28c4.8763-6.4558 14.626-6.4558 19.502 0-4.8763-4.6196-14.626-4.6196-19.502 0"/><path class="SlurSegment" d="m288.33 162.28c4.8763-6.4558 14.626-6.4558 19.502 0-4.8763-4.6196-14.626-4.6196-19.502 0"/><path class="SlurSegment" d="m345.88 162.28c9.0752-2.958 18.825 3.6036 19.502 13.126-1.7013-7.9984-11.454-14.56-19.502-13.126"/><path class="SlurSegment" d="m403.43 187.22c1.7013 7.9957 11.451 14.56 19.502 13.123-9.0752 2.9607-18.828-3.6036-19.502-13.123"/><path class="SlurSegment" d="m460.98 200.34c4.8736 4.6196 14.626 4.6196 19.502 0-4.8763 6.4585-14.629 6.4585-19.502 0"/><path class="SlurSegment" d="m518.53 200.34c1.7039 7.9984 11.454 14.56 19.505 13.126-9.0779 2.958-18.828-3.6036-19.505-13.126"/></g><g stroke="#000" stroke-linejoin="bevel"><polyline class="BarLine" transform="matrix(.26458 0 0 .26458 -158.25 -239.16)" points="2761.6 1079.3 2761.6 1181.3" stroke-width="4.46"/><polyline class="BarLine" transform="matrix(.26458 0 0 .26458 -158.25 -239.16)" points="2761.6 1525.8 2761.6 1627.7" stroke-width="4.46"/><g stroke-width="3.97"><polyline class="LedgerLine" transform="matrix(.26458 0 0 .26458 -158.25 -239.16)" points="357.93 1229.5 407.53 1229.5"/><polyline class="LedgerLine" transform="matrix(.26458 0 0 .26458 -158.25 -239.16)" points="357.93 1204.7 407.53 1204.7"/><polyline class="LedgerLine" transform="matrix(.26458 0 0 .26458 -158.25 -239.16)" points="501.74 1229.5 551.34 1229.5"/><polyline class="LedgerLine" transform="matrix(.26458 0 0 .26458 -158.25 -239.16)" points="501.74 1204.7 551.34 1204.7"/><polyline class="LedgerLine" transform="matrix(.26458 0 0 .26458 -158.25 -239.16)" points="575.45 1229.5 625.05 1229.5"/><polyline class="LedgerLine" transform="matrix(.26458 0 0 .26458 -158.25 -239.16)" points="575.45 1204.7 625.05 1204.7"/><polyline class="LedgerLine" transform="matrix(.26458 0 0 .26458 -158.25 -239.16)" points="2676.9 1229.5 2726.5 1229.5"/><polyline class="LedgerLine" transform="matrix(.26458 0 0 .26458 -158.25 -239.16)" points="2676.9 1204.7 2726.5 1204.7"/><polyline class="LedgerLine" transform="matrix(.26458 0 0 .26458 -158.25 -239.16)" points="357.93 1676 407.53 1676"/><polyline class="LedgerLine" transform="matrix(.26458 0 0 .26458 -158.25 -239.16)" points="357.93 1651.2 407.53 1651.2"/><polyline class="LedgerLine" transform="matrix(.26458 0 0 .26458 -158.25 -239.16)" points="431.64 1676 481.24 1676"/><polyline class="LedgerLine" transform="matrix(.26458 0 0 .26458 -158.25 -239.16)" points="431.64 1651.2 481.24 1651.2"/><polyline class="LedgerLine" transform="matrix(.26458 0 0 .26458 -158.25 -239.16)" points="575.45 1676 625.05 1676"/><polyline class="LedgerLine" transform="matrix(.26458 0 0 .26458 -158.25 -239.16)" points="575.45 1651.2 625.05 1651.2"/><polyline class="LedgerLine" transform="matrix(.26458 0 0 .26458 -158.25 -239.16)" points="2606.8 1676 2656.4 1676"/><polyline class="LedgerLine" transform="matrix(.26458 0 0 .26458 -158.25 -239.16)" points="2606.8 1651.2 2656.4 1651.2"/></g><g stroke-width="2.73"><polyline class="Stem" transform="matrix(.26458 0 0 .26458 -158.25 -239.16)" points="397.48 1238.8 397.48 1130.3"/><polyline class="Stem" transform="matrix(.26458 0 0 .26458 -158.25 -239.16)" points="541.29 1238.8 541.29 1105.5"/><polyline class="Stem" transform="matrix(.26458 0 0 .26458 -158.25 -239.16)" points="615 1238.8 615 1105.5"/><polyline class="Stem" transform="matrix(.26458 0 0 .26458 -158.25 -239.16)" points="758.81 1189.2 758.81 1105.5"/><polyline class="Stem" transform="matrix(.26458 0 0 .26458 -158.25 -239.16)" points="832.52 1189.2 832.52 1105.5"/><polyline class="Stem" transform="matrix(.26458 0 0 .26458 -158.25 -239.16)" points="976.33 1189.2 976.33 1062.1"/><polyline class="Stem" transform="matrix(.26458 0 0 .26458 -158.25 -239.16)" points="1050 1189.2 1050 1062.1"/><polyline class="Stem" transform="matrix(.26458 0 0 .26458 -158.25 -239.16)" points="1193.8 1139.5 1193.8 1062.1"/><polyline class="Stem" transform="matrix(.26458 0 0 .26458 -158.25 -239.16)" points="1267.6 1139.5 1267.6 1062.1"/><polyline class="Stem" transform="matrix(.26458 0 0 .26458 -158.25 -239.16)" points="1381.9 1096.4 1381.9 1217.1"/><polyline class="Stem" transform="matrix(.26458 0 0 .26458 -158.25 -239.16)" points="1455.6 1096.4 1455.6 1217.1"/><polyline class="Stem" transform="matrix(.26458 0 0 .26458 -158.25 -239.16)" points="1599.4 1096.4 1599.4 1179.9"/><polyline class="Stem" transform="matrix(.26458 0 0 .26458 -158.25 -239.16)" points="1673.1 1096.4 1673.1 1179.9"/><polyline class="Stem" transform="matrix(.26458 0 0 .26458 -158.25 -239.16)" points="1816.9 1096.4 1816.9 1217.1"/><polyline class="Stem" transform="matrix(.26458 0 0 .26458 -158.25 -239.16)" points="1890.6 1096.4 1890.6 1217.1"/><polyline class="Stem" transform="matrix(.26458 0 0 .26458 -158.25 -239.16)" points="2063.9 1139.5 2063.9 1062.1"/><polyline class="Stem" transform="matrix(.26458 0 0 .26458 -158.25 -239.16)" points="2137.6 1139.5 2137.6 1062.1"/><polyline class="Stem" transform="matrix(.26458 0 0 .26458 -158.25 -239.16)" points="2281.4 1189.2 2281.4 1062.1"/><polyline class="Stem" transform="matrix(.26458 0 0 .26458 -158.25 -239.16)" points="2355.2 1189.2 2355.2 1062.1"/><polyline class="Stem" transform="matrix(.26458 0 0 .26458 -158.25 -239.16)" points="2499 1189.2 2499 1105.5"/><polyline class="Stem" transform="matrix(.26458 0 0 .26458 -158.25 -239.16)" points="2572.7 1189.2 2572.7 1105.5"/><polyline class="Stem" transform="matrix(.26458 0 0 .26458 -158.25 -239.16)" points="2716.5 1238.8 2716.5 1105.5"/><polyline class="Stem" transform="matrix(.26458 0 0 .26458 -158.25 -239.16)" points="397.48 1685.2 397.48 1576.8"/><polyline class="Stem" transform="matrix(.26458 0 0 .26458 -158.25 -239.16)" points="471.19 1685.2 471.19 1552"/><polyline class="Stem" transform="matrix(.26458 0 0 .26458 -158.25 -239.16)" points="615 1685.2 615 1552"/><polyline class="Stem" transform="matrix(.26458 0 0 .26458 -158.25 -239.16)" points="688.71 1635.6 688.71 1552"/><polyline class="Stem" transform="matrix(.26458 0 0 .26458 -158.25 -239.16)" points="832.52 1635.6 832.52 1552"/><polyline class="Stem" transform="matrix(.26458 0 0 .26458 -158.25 -239.16)" points="906.23 1635.6 906.23 1508.6"/><polyline class="Stem" transform="matrix(.26458 0 0 .26458 -158.25 -239.16)" points="1050 1635.6 1050 1508.6"/><polyline class="Stem" transform="matrix(.26458 0 0 .26458 -158.25 -239.16)" points="1123.8 1586 1123.8 1508.6"/><polyline class="Stem" transform="matrix(.26458 0 0 .26458 -158.25 -239.16)" points="1267.6 1586 1267.6 1508.6"/><polyline class="Stem" transform="matrix(.26458 0 0 .26458 -158.25 -239.16)" points="1311.8 1542.9 1311.8 1663.6"/><polyline class="Stem" transform="matrix(.26458 0 0 .26458 -158.25 -239.16)" points="1455.6 1542.9 1455.6 1663.6"/><polyline class="Stem" transform="matrix(.26458 0 0 .26458 -158.25 -239.16)" points="1529.3 1542.9 1529.3 1626.4"/><polyline class="Stem" transform="matrix(.26458 0 0 .26458 -158.25 -239.16)" points="1673.1 1542.9 1673.1 1626.4"/><polyline class="Stem" transform="matrix(.26458 0 0 .26458 -158.25 -239.16)" points="1746.8 1542.9 1746.8 1663.6"/><polyline class="Stem" transform="matrix(.26458 0 0 .26458 -158.25 -239.16)" points="1890.6 1542.9 1890.6 1663.6"/><polyline class="Stem" transform="matrix(.26458 0 0 .26458 -158.25 -239.16)" points="1993.8 1586 1993.8 1508.6"/><polyline class="Stem" transform="matrix(.26458 0 0 .26458 -158.25 -239.16)" points="2137.6 1586 2137.6 1508.6"/><polyline class="Stem" transform="matrix(.26458 0 0 .26458 -158.25 -239.16)" points="2211.3 1635.6 2211.3 1508.6"/><polyline class="Stem" transform="matrix(.26458 0 0 .26458 -158.25 -239.16)" points="2355.2 1635.6 2355.2 1508.6"/><polyline class="Stem" transform="matrix(.26458 0 0 .26458 -158.25 -239.16)" points="2428.9 1635.6 2428.9 1552"/><polyline class="Stem" transform="matrix(.26458 0 0 .26458 -158.25 -239.16)" points="2572.7 1635.6 2572.7 1552"/><polyline class="Stem" transform="matrix(.26458 0 0 .26458 -158.25 -239.16)" points="2646.4 1685.2 2646.4 1552"/></g></g><g stroke-width=".2625"><path class="Note" d="m-52.98 87.299c-0.47169-0.86543-1.4683-1.3371-2.6783-1.3371-0.89003 0-1.8621 0.2625-2.8096 0.75878-1.7309 0.91876-2.7809 2.4692-2.7809 3.8063 0 0.36914 0.07793 0.73828 0.2625 1.0787 0.47168 0.86952 1.4684 1.3166 2.6783 1.3166 0.89006 0 1.8621-0.2379 2.8096-0.73419 1.7308-0.92286 2.7808-2.4732 2.7808-3.8145 0-0.36504-0.07794-0.73418-0.2625-1.0746m-1.1279 1.7842c-0.44706 0.44707-1.3412 0.99668-2.2846 1.5258-0.94335 0.525-1.8908 0.91875-2.5184 1.05-0.13125 0.02871-0.2625 0.05332-0.39375 0.05332-0.42246 0-0.73828-0.15586-0.91875-0.50039-0.08203-0.13125-0.13125-0.28711-0.13125-0.44707 0-0.28711 0.18047-0.63164 0.47168-0.91875 0.44707-0.44707 1.3125-0.99668 2.2559-1.5217 0.94747-0.525 1.8908-0.91875 2.5225-1.05 0.13125-0.02871 0.2625-0.05332 0.39375-0.05332 0.41835 0 0.75878 0.15586 0.94335 0.49629 0.07794 0.13125 0.10665 0.29121 0.10665 0.44707 0 0.29121-0.15997 0.60293-0.44709 0.91875"/><path class="Note" d="m-14.931 87.311c-0.47169-0.86954-1.4683-1.3412-2.6783-1.3412-0.89003 0-1.8621 0.2625-2.8096 0.76288-1.7309 0.91876-2.7809 2.465-2.7809 3.8063 0 0.36504 0.07793 0.73418 0.2625 1.0746 0.47168 0.86544 1.4684 1.3125 2.6783 1.3125 0.89006 0 1.8621-0.23378 2.8096-0.73419 1.7308-0.91875 2.7808-2.4691 2.7808-3.8062 0-0.36914-0.07794-0.73418-0.2625-1.0746"/><path class="Note" d="m-14.931 74.185c-0.47169-0.86954-1.4683-1.3412-2.6783-1.3412-0.89003 0-1.8621 0.2625-2.8096 0.76288-1.7309 0.91876-2.7809 2.465-2.7809 3.8063 0 0.36504 0.07793 0.73418 0.2625 1.0746 0.47168 0.86544 1.4684 1.3125 2.6783 1.3125 0.89006 0 1.8621-0.23378 2.8096-0.73419 1.7308-0.91875 2.7808-2.4691 2.7808-3.8062 0-0.36914-0.07794-0.73418-0.2625-1.0746"/><path class="Note" d="m4.572 87.299c-0.47169-0.86543-1.4683-1.3371-2.6783-1.3371-0.89003 0-1.8621 0.2625-2.8096 0.75878-1.7309 0.91876-2.7809 2.4692-2.7809 3.8063 0 0.36914 0.07793 0.73828 0.2625 1.0787 0.47168 0.86952 1.4684 1.3166 2.6783 1.3166 0.89006 0 1.8621-0.2379 2.8096-0.73419 1.7308-0.92286 2.7808-2.4732 2.7808-3.8145 0-0.36504-0.077936-0.73418-0.2625-1.0746m-1.1279 1.7842c-0.44706 0.44707-1.3412 0.99668-2.2846 1.5258-0.94335 0.525-1.8908 0.91875-2.5184 1.05-0.13125 0.02871-0.2625 0.05332-0.39375 0.05332-0.42246 0-0.73828-0.15586-0.91875-0.50039-0.082031-0.13125-0.13125-0.28711-0.13125-0.44707 0-0.28711 0.18047-0.63164 0.47168-0.91875 0.44707-0.44707 1.3125-0.99668 2.2559-1.5217 0.94747-0.525 1.8908-0.91875 2.5225-1.05 0.13125-0.02871 0.2625-0.05332 0.39375-0.05332 0.41835 0 0.75878 0.15586 0.94335 0.49629 0.077936 0.13125 0.10665 0.29121 0.10665 0.44707 0 0.29121-0.15997 0.60293-0.44709 0.91875"/><path class="Note" d="m4.572 74.173c-0.47169-0.86543-1.4683-1.3371-2.6783-1.3371-0.89003 0-1.8621 0.2625-2.8096 0.75878-1.7309 0.91876-2.7809 2.4692-2.7809 3.8063 0 0.36914 0.07793 0.73828 0.2625 1.0787 0.47168 0.86952 1.4684 1.3166 2.6783 1.3166 0.89006 0 1.8621-0.2379 2.8096-0.73419 1.7308-0.92286 2.7808-2.4732 2.7808-3.8145 0-0.36504-0.077936-0.73418-0.2625-1.0746m-1.1279 1.7842c-0.44706 0.44707-1.3412 0.99668-2.2846 1.5258-0.94335 0.525-1.8908 0.91875-2.5184 1.05-0.13125 0.02871-0.2625 0.05332-0.39375 0.05332-0.42246 0-0.73828-0.15586-0.91875-0.50039-0.082031-0.13125-0.13125-0.28711-0.13125-0.44707 0-0.28711 0.18047-0.63164 0.47168-0.91875 0.44707-0.44707 1.3125-0.99668 2.2559-1.5217 0.94747-0.525 1.8908-0.91875 2.5225-1.05 0.13125-0.02871 0.2625-0.05332 0.39375-0.05332 0.41835 0 0.75878 0.15586 0.94335 0.49629 0.077936 0.13125 0.10665 0.29121 0.10665 0.44707 0 0.29121-0.15997 0.60293-0.44709 0.91875"/><path class="Note" d="m42.621 74.185c-0.47169-0.86954-1.4683-1.3412-2.6783-1.3412-0.89003 0-1.8621 0.2625-2.8096 0.76288-1.7309 0.91876-2.7809 2.465-2.7809 3.8063 0 0.36504 0.07793 0.73418 0.2625 1.0746 0.47168 0.86544 1.4684 1.3125 2.6783 1.3125 0.89006 0 1.8621-0.23378 2.8096-0.73419 1.7308-0.91875 2.7808-2.4691 2.7808-3.8062 0-0.36914-0.07794-0.73418-0.2625-1.0746"/><path class="Note" d="m62.124 74.173c-0.47169-0.86543-1.4683-1.3371-2.6783-1.3371-0.89003 0-1.8621 0.2625-2.8096 0.75878-1.7309 0.91876-2.7809 2.4692-2.7809 3.8063 0 0.36914 0.07793 0.73828 0.2625 1.0787 0.47168 0.86952 1.4684 1.3166 2.6783 1.3166 0.89006 0 1.8621-0.2379 2.8096-0.73419 1.7308-0.92286 2.7808-2.4732 2.7808-3.8145 0-0.36504-0.07794-0.73418-0.2625-1.0746m-1.1279 1.7842c-0.44706 0.44707-1.3412 0.99668-2.2846 1.5258-0.94335 0.525-1.8908 0.91875-2.5184 1.05-0.13125 0.02871-0.2625 0.05332-0.39375 0.05332-0.42246 0-0.73828-0.15586-0.91875-0.50039-0.08203-0.13125-0.13125-0.28711-0.13125-0.44707 0-0.28711 0.18047-0.63164 0.47168-0.91875 0.44707-0.44707 1.3125-0.99668 2.2559-1.5217 0.94747-0.525 1.8908-0.91875 2.5225-1.05 0.13125-0.02871 0.2625-0.05332 0.39375-0.05332 0.41835 0 0.75878 0.15586 0.94335 0.49629 0.07794 0.13125 0.10665 0.29121 0.10665 0.44707 0 0.29121-0.15997 0.60293-0.44709 0.91875"/><path class="Note" d="m100.17 74.185c-0.47169-0.86954-1.4683-1.3412-2.6783-1.3412-0.89003 0-1.8621 0.2625-2.8096 0.76288-1.7309 0.91876-2.7809 2.465-2.7809 3.8063 0 0.36504 0.07793 0.73418 0.2625 1.0746 0.47168 0.86544 1.4684 1.3125 2.6783 1.3125 0.89006 0 1.8621-0.23378 2.8096-0.73419 1.7308-0.91875 2.7808-2.4691 2.7808-3.8062 0-0.36914-0.0779-0.73418-0.2625-1.0746"/><path class="Note" d="m100.17 61.062c-0.47169-0.86954-1.4683-1.3412-2.6783-1.3412-0.89003 0-1.8621 0.2625-2.8096 0.76288-1.7309 0.91876-2.7809 2.465-2.7809 3.8063 0 0.36504 0.07793 0.73418 0.2625 1.0746 0.47168 0.86544 1.4684 1.3125 2.6783 1.3125 0.89006 0 1.8621-0.23378 2.8096-0.73419 1.7308-0.91875 2.7808-2.4691 2.7808-3.8062 0-0.36914-0.0779-0.73418-0.2625-1.0746"/><path class="Note" d="m119.68 74.173c-0.47169-0.86543-1.4684-1.3371-2.6783-1.3371-0.89004 0-1.8621 0.2625-2.8096 0.75878-1.7309 0.91876-2.7809 2.4692-2.7809 3.8063 0 0.36914 0.0779 0.73828 0.2625 1.0787 0.47168 0.86952 1.4684 1.3166 2.6783 1.3166 0.89006 0 1.8621-0.2379 2.8096-0.73419 1.7308-0.92286 2.7808-2.4732 2.7808-3.8145 0-0.36504-0.0779-0.73418-0.2625-1.0746m-1.1279 1.7842c-0.44706 0.44707-1.3412 0.99668-2.2846 1.5258-0.94335 0.525-1.8908 0.91875-2.5184 1.05-0.13125 0.02871-0.2625 0.05332-0.39375 0.05332-0.42246 0-0.73828-0.15586-0.91875-0.50039-0.082-0.13125-0.13125-0.28711-0.13125-0.44707 0-0.28711 0.18047-0.63164 0.47168-0.91875 0.44707-0.44707 1.3125-0.99668 2.2559-1.5217 0.94746-0.525 1.8908-0.91875 2.5225-1.05 0.13125-0.02871 0.2625-0.05332 0.39375-0.05332 0.41835 0 0.75879 0.15586 0.94335 0.49629 0.0779 0.13125 0.10665 0.29121 0.10665 0.44707 0 0.29121-0.15996 0.60293-0.44709 0.91875"/><path class="Note" d="m119.68 61.049c-0.47169-0.86543-1.4684-1.3371-2.6783-1.3371-0.89004 0-1.8621 0.2625-2.8096 0.75878-1.7309 0.91876-2.7809 2.4692-2.7809 3.8063 0 0.36914 0.0779 0.73828 0.2625 1.0787 0.47168 0.86952 1.4684 1.3166 2.6783 1.3166 0.89006 0 1.8621-0.2379 2.8096-0.73419 1.7308-0.92286 2.7808-2.4732 2.7808-3.8145 0-0.36504-0.0779-0.73418-0.2625-1.0746m-1.1279 1.7842c-0.44706 0.44707-1.3412 0.99668-2.2846 1.5258-0.94335 0.525-1.8908 0.91875-2.5184 1.05-0.13125 0.02871-0.2625 0.05332-0.39375 0.05332-0.42246 0-0.73828-0.15586-0.91875-0.50039-0.082-0.13125-0.13125-0.28711-0.13125-0.44707 0-0.28711 0.18047-0.63164 0.47168-0.91875 0.44707-0.44707 1.3125-0.99668 2.2559-1.5217 0.94746-0.525 1.8908-0.91875 2.5225-1.05 0.13125-0.02871 0.2625-0.05332 0.39375-0.05332 0.41835 0 0.75879 0.15586 0.94335 0.49629 0.0779 0.13125 0.10665 0.29121 0.10665 0.44707 0 0.29121-0.15996 0.60293-0.44709 0.91875"/><path class="Note" d="m157.72 61.062c-0.47169-0.86954-1.4684-1.3412-2.6783-1.3412-0.89004 0-1.8621 0.2625-2.8096 0.76288-1.7309 0.91876-2.7809 2.465-2.7809 3.8063 0 0.36504 0.0779 0.73418 0.2625 1.0746 0.47168 0.86544 1.4684 1.3125 2.6783 1.3125 0.89006 0 1.8621-0.23378 2.8096-0.73419 1.7308-0.91875 2.7808-2.4691 2.7808-3.8062 0-0.36914-0.0779-0.73418-0.2625-1.0746"/><path class="Note" d="m177.23 61.049c-0.47169-0.86543-1.4684-1.3371-2.6783-1.3371-0.89004 0-1.8621 0.2625-2.8096 0.75878-1.7309 0.91876-2.7809 2.4692-2.7809 3.8063 0 0.36914 0.0779 0.73828 0.2625 1.0787 0.47168 0.86952 1.4684 1.3166 2.6783 1.3166 0.89006 0 1.8621-0.2379 2.8096-0.73419 1.7308-0.92286 2.7808-2.4732 2.7808-3.8145 0-0.36504-0.0779-0.73418-0.2625-1.0746m-1.1279 1.7842c-0.44706 0.44707-1.3412 0.99668-2.2846 1.5258-0.94335 0.525-1.8908 0.91875-2.5184 1.05-0.13125 0.02871-0.2625 0.05332-0.39375 0.05332-0.42246 0-0.73828-0.15586-0.91875-0.50039-0.082-0.13125-0.13125-0.28711-0.13125-0.44707 0-0.28711 0.18047-0.63164 0.47168-0.91875 0.44707-0.44707 1.3125-0.99668 2.2559-1.5217 0.94746-0.525 1.8908-0.91875 2.5225-1.05 0.13125-0.02871 0.2625-0.05332 0.39375-0.05332 0.41835 0 0.75879 0.15586 0.94335 0.49629 0.0779 0.13125 0.10665 0.29121 0.10665 0.44707 0 0.29121-0.15996 0.60293-0.44709 0.91875"/><path class="Note" d="m215.28 61.062c-0.47169-0.86954-1.4684-1.3412-2.6783-1.3412-0.89004 0-1.8621 0.2625-2.8096 0.76288-1.7309 0.91876-2.7809 2.465-2.7809 3.8063 0 0.36504 0.0779 0.73418 0.2625 1.0746 0.47168 0.86544 1.4684 1.3125 2.6783 1.3125 0.89006 0 1.8621-0.23378 2.8096-0.73419 1.7308-0.91875 2.7808-2.4691 2.7808-3.8062 0-0.36914-0.0779-0.73418-0.2625-1.0746"/><path class="Note" d="m215.28 47.936c-0.47169-0.86954-1.4684-1.3412-2.6783-1.3412-0.89004 0-1.8621 0.2625-2.8096 0.76288-1.7309 0.91876-2.7809 2.465-2.7809 3.8063 0 0.36504 0.0779 0.73418 0.2625 1.0746 0.47168 0.86544 1.4684 1.3125 2.6783 1.3125 0.89006 0 1.8621-0.23378 2.8096-0.73419 1.7308-0.91875 2.7808-2.4691 2.7808-3.8062 0-0.36914-0.0779-0.73418-0.2625-1.0746"/><path class="Note" d="m234.78 61.049c-0.47169-0.86543-1.4684-1.3371-2.6783-1.3371-0.89004 0-1.8621 0.2625-2.8096 0.75878-1.7309 0.91876-2.7809 2.4692-2.7809 3.8063 0 0.36914 0.0779 0.73828 0.2625 1.0787 0.47168 0.86952 1.4684 1.3166 2.6783 1.3166 0.89006 0 1.8621-0.2379 2.8096-0.73419 1.7308-0.92286 2.7808-2.4732 2.7808-3.8145 0-0.36504-0.0779-0.73418-0.2625-1.0746m-1.1279 1.7842c-0.44706 0.44707-1.3412 0.99668-2.2846 1.5258-0.94335 0.525-1.8908 0.91875-2.5184 1.05-0.13125 0.02871-0.2625 0.05332-0.39375 0.05332-0.42246 0-0.73828-0.15586-0.91875-0.50039-0.082-0.13125-0.13125-0.28711-0.13125-0.44707 0-0.28711 0.18047-0.63164 0.47168-0.91875 0.44707-0.44707 1.3125-0.99668 2.2559-1.5217 0.94746-0.525 1.8908-0.91875 2.5225-1.05 0.13125-0.02871 0.2625-0.05332 0.39375-0.05332 0.41835 0 0.75879 0.15586 0.94335 0.49629 0.0779 0.13125 0.10665 0.29121 0.10665 0.44707 0 0.29121-0.15996 0.60293-0.44709 0.91875"/><path class="Note" d="m234.78 47.923c-0.47169-0.86543-1.4684-1.3371-2.6783-1.3371-0.89004 0-1.8621 0.2625-2.8096 0.75878-1.7309 0.91876-2.7809 2.4692-2.7809 3.8063 0 0.36914 0.0779 0.73828 0.2625 1.0787 0.47168 0.86952 1.4684 1.3166 2.6783 1.3166 0.89006 0 1.8621-0.2379 2.8096-0.73419 1.7308-0.92286 2.7808-2.4732 2.7808-3.8145 0-0.36504-0.0779-0.73418-0.2625-1.0746m-1.1279 1.7842c-0.44706 0.44707-1.3412 0.99668-2.2846 1.5258-0.94335 0.525-1.8908 0.91875-2.5184 1.05-0.13125 0.02871-0.2625 0.05332-0.39375 0.05332-0.42246 0-0.73828-0.15586-0.91875-0.50039-0.082-0.13125-0.13125-0.28711-0.13125-0.44707 0-0.28711 0.18047-0.63164 0.47168-0.91875 0.44707-0.44707 1.3125-0.99668 2.2559-1.5217 0.94746-0.525 1.8908-0.91875 2.5225-1.05 0.13125-0.02871 0.2625-0.05332 0.39375-0.05332 0.41835 0 0.75879 0.15586 0.94335 0.49629 0.0779 0.13125 0.10665 0.29121 0.10665 0.44707 0 0.29121-0.15996 0.60293-0.44709 0.91875"/><path class="Note" d="m272.83 47.936c-0.47169-0.86954-1.4684-1.3412-2.6783-1.3412-0.89004 0-1.8621 0.2625-2.8096 0.76288-1.7309 0.91876-2.7809 2.465-2.7809 3.8063 0 0.36504 0.0779 0.73418 0.2625 1.0746 0.47168 0.86544 1.4684 1.3125 2.6783 1.3125 0.89006 0 1.8621-0.23378 2.8096-0.73419 1.7308-0.91875 2.7808-2.4691 2.7808-3.8062 0-0.36914-0.0779-0.73418-0.2625-1.0746"/><path class="Note" d="m292.33 47.923c-0.47169-0.86543-1.4684-1.3371-2.6783-1.3371-0.89004 0-1.8621 0.2625-2.8096 0.75878-1.7309 0.91876-2.7809 2.4692-2.7809 3.8063 0 0.36914 0.0779 0.73828 0.2625 1.0787 0.47168 0.86952 1.4684 1.3166 2.6783 1.3166 0.89006 0 1.8621-0.2379 2.8096-0.73419 1.7308-0.92286 2.7808-2.4732 2.7808-3.8145 0-0.36504-0.0779-0.73418-0.2625-1.0746m-1.1279 1.7842c-0.44706 0.44707-1.3412 0.99668-2.2846 1.5258-0.94335 0.525-1.8908 0.91875-2.5184 1.05-0.13125 0.02871-0.2625 0.05332-0.39375 0.05332-0.42246 0-0.73828-0.15586-0.91875-0.50039-0.082-0.13125-0.13125-0.28711-0.13125-0.44707 0-0.28711 0.18047-0.63164 0.47168-0.91875 0.44707-0.44707 1.3125-0.99668 2.2559-1.5217 0.94746-0.525 1.8908-0.91875 2.5225-1.05 0.13125-0.02871 0.2625-0.05332 0.39375-0.05332 0.41835 0 0.75879 0.15586 0.94335 0.49629 0.0779 0.13125 0.10665 0.29121 0.10665 0.44707 0 0.29121-0.15996 0.60293-0.44709 0.91875"/><path class="Note" d="m330.38 61.062c-0.47169-0.86954-1.4684-1.3412-2.6783-1.3412-0.89004 0-1.8621 0.2625-2.8096 0.76288-1.7309 0.91876-2.7809 2.465-2.7809 3.8063 0 0.36504 0.0779 0.73418 0.2625 1.0746 0.47168 0.86544 1.4684 1.3125 2.6783 1.3125 0.89006 0 1.8621-0.23378 2.8096-0.73419 1.7308-0.91875 2.7808-2.4691 2.7808-3.8062 0-0.36914-0.0779-0.73418-0.2625-1.0746"/><path class="Note" d="m330.38 47.936c-0.47169-0.86954-1.4684-1.3412-2.6783-1.3412-0.89004 0-1.8621 0.2625-2.8096 0.76288-1.7309 0.91876-2.7809 2.465-2.7809 3.8063 0 0.36504 0.0779 0.73418 0.2625 1.0746 0.47168 0.86544 1.4684 1.3125 2.6783 1.3125 0.89006 0 1.8621-0.23378 2.8096-0.73419 1.7308-0.91875 2.7808-2.4691 2.7808-3.8062 0-0.36914-0.0779-0.73418-0.2625-1.0746"/><path class="Note" d="m349.88 61.049c-0.47169-0.86543-1.4684-1.3371-2.6783-1.3371-0.89004 0-1.8621 0.2625-2.8096 0.75878-1.7309 0.91876-2.7809 2.4692-2.7809 3.8063 0 0.36914 0.0779 0.73828 0.2625 1.0787 0.47168 0.86952 1.4684 1.3166 2.6783 1.3166 0.89006 0 1.8621-0.2379 2.8096-0.73419 1.7308-0.92286 2.7808-2.4732 2.7808-3.8145 0-0.36504-0.0779-0.73418-0.2625-1.0746m-1.1279 1.7842c-0.44706 0.44707-1.3412 0.99668-2.2846 1.5258-0.94335 0.525-1.8908 0.91875-2.5184 1.05-0.13125 0.02871-0.2625 0.05332-0.39375 0.05332-0.42246 0-0.73828-0.15586-0.91875-0.50039-0.082-0.13125-0.13125-0.28711-0.13125-0.44707 0-0.28711 0.18047-0.63164 0.47168-0.91875 0.44707-0.44707 1.3125-0.99668 2.2559-1.5217 0.94746-0.525 1.8908-0.91875 2.5225-1.05 0.13125-0.02871 0.2625-0.05332 0.39375-0.05332 0.41835 0 0.75879 0.15586 0.94335 0.49629 0.0779 0.13125 0.10665 0.29121 0.10665 0.44707 0 0.29121-0.15996 0.60293-0.44709 0.91875"/><path class="Note" d="m349.88 47.923c-0.47169-0.86543-1.4684-1.3371-2.6783-1.3371-0.89004 0-1.8621 0.2625-2.8096 0.75878-1.7309 0.91876-2.7809 2.4692-2.7809 3.8063 0 0.36914 0.0779 0.73828 0.2625 1.0787 0.47168 0.86952 1.4684 1.3166 2.6783 1.3166 0.89006 0 1.8621-0.2379 2.8096-0.73419 1.7308-0.92286 2.7808-2.4732 2.7808-3.8145 0-0.36504-0.0779-0.73418-0.2625-1.0746m-1.1279 1.7842c-0.44706 0.44707-1.3412 0.99668-2.2846 1.5258-0.94335 0.525-1.8908 0.91875-2.5184 1.05-0.13125 0.02871-0.2625 0.05332-0.39375 0.05332-0.42246 0-0.73828-0.15586-0.91875-0.50039-0.082-0.13125-0.13125-0.28711-0.13125-0.44707 0-0.28711 0.18047-0.63164 0.47168-0.91875 0.44707-0.44707 1.3125-0.99668 2.2559-1.5217 0.94746-0.525 1.8908-0.91875 2.5225-1.05 0.13125-0.02871 0.2625-0.05332 0.39375-0.05332 0.41835 0 0.75879 0.15586 0.94335 0.49629 0.0779 0.13125 0.10665 0.29121 0.10665 0.44707 0 0.29121-0.15996 0.60293-0.44709 0.91875"/><path class="Note" d="m387.93 61.062c-0.47169-0.86954-1.4684-1.3412-2.6783-1.3412-0.89004 0-1.8621 0.2625-2.8096 0.76288-1.7309 0.91876-2.7809 2.465-2.7809 3.8063 0 0.36504 0.0779 0.73418 0.2625 1.0746 0.47168 0.86544 1.4684 1.3125 2.6783 1.3125 0.89006 0 1.8621-0.23378 2.8096-0.73419 1.7308-0.91875 2.7808-2.4691 2.7808-3.8062 0-0.36914-0.0779-0.73418-0.2625-1.0746"/><path class="Note" d="m407.43 61.049c-0.47169-0.86543-1.4684-1.3371-2.6783-1.3371-0.89004 0-1.8621 0.2625-2.8096 0.75878-1.7309 0.91876-2.7809 2.4692-2.7809 3.8063 0 0.36914 0.0779 0.73828 0.2625 1.0787 0.47168 0.86952 1.4684 1.3166 2.6783 1.3166 0.89006 0 1.8621-0.2379 2.8096-0.73419 1.7308-0.92286 2.7808-2.4732 2.7808-3.8145 0-0.36504-0.0779-0.73418-0.2625-1.0746m-1.1279 1.7842c-0.44706 0.44707-1.3412 0.99668-2.2846 1.5258-0.94335 0.525-1.8908 0.91875-2.5184 1.05-0.13125 0.02871-0.2625 0.05332-0.39375 0.05332-0.42246 0-0.73828-0.15586-0.91875-0.50039-0.082-0.13125-0.13125-0.28711-0.13125-0.44707 0-0.28711 0.18047-0.63164 0.47168-0.91875 0.44707-0.44707 1.3125-0.99668 2.2559-1.5217 0.94746-0.525 1.8908-0.91875 2.5225-1.05 0.13125-0.02871 0.2625-0.05332 0.39375-0.05332 0.41835 0 0.75879 0.15586 0.94335 0.49629 0.0779 0.13125 0.10665 0.29121 0.10665 0.44707 0 0.29121-0.15996 0.60293-0.44709 0.91875"/><path class="Note" d="m445.48 74.185c-0.47169-0.86954-1.4684-1.3412-2.6783-1.3412-0.89004 0-1.8621 0.2625-2.8096 0.76288-1.7309 0.91876-2.7809 2.465-2.7809 3.8063 0 0.36504 0.0779 0.73418 0.2625 1.0746 0.47168 0.86544 1.4684 1.3125 2.6783 1.3125 0.89006 0 1.8621-0.23378 2.8096-0.73419 1.7308-0.91875 2.7808-2.4691 2.7808-3.8062 0-0.36914-0.0779-0.73418-0.2625-1.0746"/><path class="Note" d="m445.48 61.062c-0.47169-0.86954-1.4684-1.3412-2.6783-1.3412-0.89004 0-1.8621 0.2625-2.8096 0.76288-1.7309 0.91876-2.7809 2.465-2.7809 3.8063 0 0.36504 0.0779 0.73418 0.2625 1.0746 0.47168 0.86544 1.4684 1.3125 2.6783 1.3125 0.89006 0 1.8621-0.23378 2.8096-0.73419 1.7308-0.91875 2.7808-2.4691 2.7808-3.8062 0-0.36914-0.0779-0.73418-0.2625-1.0746"/><path class="Note" d="m464.99 74.173c-0.47169-0.86543-1.4684-1.3371-2.6783-1.3371-0.89004 0-1.8621 0.2625-2.8096 0.75878-1.7309 0.91876-2.7809 2.4692-2.7809 3.8063 0 0.36914 0.0779 0.73828 0.2625 1.0787 0.47168 0.86952 1.4684 1.3166 2.6783 1.3166 0.89006 0 1.8621-0.2379 2.8096-0.73419 1.7308-0.92286 2.7808-2.4732 2.7808-3.8145 0-0.36504-0.0779-0.73418-0.2625-1.0746m-1.1279 1.7842c-0.44706 0.44707-1.3412 0.99668-2.2846 1.5258-0.94335 0.525-1.8908 0.91875-2.5184 1.05-0.13125 0.02871-0.2625 0.05332-0.39375 0.05332-0.42246 0-0.73828-0.15586-0.91875-0.50039-0.082-0.13125-0.13125-0.28711-0.13125-0.44707 0-0.28711 0.18047-0.63164 0.47168-0.91875 0.44707-0.44707 1.3125-0.99668 2.2559-1.5217 0.94746-0.525 1.8908-0.91875 2.5225-1.05 0.13125-0.02871 0.2625-0.05332 0.39375-0.05332 0.41835 0 0.75879 0.15586 0.94335 0.49629 0.0779 0.13125 0.10665 0.29121 0.10665 0.44707 0 0.29121-0.15996 0.60293-0.44709 0.91875"/><path class="Note" d="m464.99 61.049c-0.47169-0.86543-1.4684-1.3371-2.6783-1.3371-0.89004 0-1.8621 0.2625-2.8096 0.75878-1.7309 0.91876-2.7809 2.4692-2.7809 3.8063 0 0.36914 0.0779 0.73828 0.2625 1.0787 0.47168 0.86952 1.4684 1.3166 2.6783 1.3166 0.89006 0 1.8621-0.2379 2.8096-0.73419 1.7308-0.92286 2.7808-2.4732 2.7808-3.8145 0-0.36504-0.0779-0.73418-0.2625-1.0746m-1.1279 1.7842c-0.44706 0.44707-1.3412 0.99668-2.2846 1.5258-0.94335 0.525-1.8908 0.91875-2.5184 1.05-0.13125 0.02871-0.2625 0.05332-0.39375 0.05332-0.42246 0-0.73828-0.15586-0.91875-0.50039-0.082-0.13125-0.13125-0.28711-0.13125-0.44707 0-0.28711 0.18047-0.63164 0.47168-0.91875 0.44707-0.44707 1.3125-0.99668 2.2559-1.5217 0.94746-0.525 1.8908-0.91875 2.5225-1.05 0.13125-0.02871 0.2625-0.05332 0.39375-0.05332 0.41835 0 0.75879 0.15586 0.94335 0.49629 0.0779 0.13125 0.10665 0.29121 0.10665 0.44707 0 0.29121-0.15996 0.60293-0.44709 0.91875"/><path class="Note" d="m503.04 74.185c-0.47169-0.86954-1.4684-1.3412-2.6783-1.3412-0.89004 0-1.8621 0.2625-2.8096 0.76288-1.7309 0.91876-2.7809 2.465-2.7809 3.8063 0 0.36504 0.0779 0.73418 0.2625 1.0746 0.47168 0.86544 1.4684 1.3125 2.6783 1.3125 0.89006 0 1.8621-0.23378 2.8096-0.73419 1.7308-0.91875 2.7808-2.4691 2.7808-3.8062 0-0.36914-0.0779-0.73418-0.2625-1.0746"/><path class="Note" d="m522.54 74.173c-0.47169-0.86543-1.4684-1.3371-2.6783-1.3371-0.89004 0-1.8621 0.2625-2.8096 0.75878-1.7309 0.91876-2.7809 2.4692-2.7809 3.8063 0 0.36914 0.0779 0.73828 0.2625 1.0787 0.47168 0.86952 1.4684 1.3166 2.6783 1.3166 0.89006 0 1.8621-0.2379 2.8096-0.73419 1.7308-0.92286 2.7808-2.4732 2.7808-3.8145 0-0.36504-0.0779-0.73418-0.2625-1.0746m-1.1279 1.7842c-0.44706 0.44707-1.3412 0.99668-2.2846 1.5258-0.94335 0.525-1.8908 0.91875-2.5184 1.05-0.13125 0.02871-0.2625 0.05332-0.39375 0.05332-0.42246 0-0.73828-0.15586-0.91875-0.50039-0.082-0.13125-0.13125-0.28711-0.13125-0.44707 0-0.28711 0.18047-0.63164 0.47168-0.91875 0.44707-0.44707 1.3125-0.99668 2.2559-1.5217 0.94746-0.525 1.8908-0.91875 2.5225-1.05 0.13125-0.02871 0.2625-0.05332 0.39375-0.05332 0.41835 0 0.75879 0.15586 0.94335 0.49629 0.0779 0.13125 0.10665 0.29121 0.10665 0.44707 0 0.29121-0.15996 0.60293-0.44709 0.91875"/><path class="Note" d="m560.59 87.311c-0.47169-0.86954-1.4684-1.3412-2.6783-1.3412-0.89004 0-1.8621 0.2625-2.8096 0.76288-1.7309 0.91876-2.7809 2.465-2.7809 3.8063 0 0.36504 0.0779 0.73418 0.2625 1.0746 0.47168 0.86544 1.4684 1.3125 2.6783 1.3125 0.89006 0 1.8621-0.23378 2.8096-0.73419 1.7308-0.91875 2.7808-2.4691 2.7808-3.8062 0-0.36914-0.0779-0.73418-0.2625-1.0746"/><path class="Note" d="m560.59 74.185c-0.47169-0.86954-1.4684-1.3412-2.6783-1.3412-0.89004 0-1.8621 0.2625-2.8096 0.76288-1.7309 0.91876-2.7809 2.465-2.7809 3.8063 0 0.36504 0.0779 0.73418 0.2625 1.0746 0.47168 0.86544 1.4684 1.3125 2.6783 1.3125 0.89006 0 1.8621-0.23378 2.8096-0.73419 1.7308-0.91875 2.7808-2.4691 2.7808-3.8062 0-0.36914-0.0779-0.73418-0.2625-1.0746"/><path class="Note" d="m-52.98 205.44c-0.47169-0.86954-1.4683-1.3412-2.6783-1.3412-0.89003 0-1.8621 0.2625-2.8096 0.76287-1.7309 0.91876-2.7809 2.465-2.7809 3.8063 0 0.36504 0.07793 0.73418 0.2625 1.0746 0.47168 0.86544 1.4684 1.3125 2.6783 1.3125 0.89006 0 1.8621-0.23379 2.8096-0.73419 1.7308-0.91875 2.7808-2.4691 2.7808-3.8062 0-0.36914-0.07794-0.73418-0.2625-1.0746"/><path class="Note" d="m-33.477 205.42c-0.47169-0.86542-1.4683-1.3371-2.6783-1.3371-0.89003 0-1.8621 0.2625-2.8096 0.75878-1.7309 0.91877-2.7809 2.4692-2.7809 3.8063 0 0.36914 0.07793 0.73828 0.2625 1.0787 0.47168 0.86952 1.4684 1.3166 2.6783 1.3166 0.89006 0 1.8621-0.2379 2.8096-0.73419 1.7308-0.92285 2.7808-2.4732 2.7808-3.8145 0-0.36503-0.07794-0.73417-0.2625-1.0746m-1.1279 1.7842c-0.44706 0.44707-1.3412 0.99668-2.2846 1.5258-0.94335 0.525-1.8908 0.91875-2.5184 1.05-0.13125 0.0287-0.2625 0.0533-0.39375 0.0533-0.42246 0-0.73828-0.15586-0.91875-0.50039-0.08203-0.13125-0.13125-0.28711-0.13125-0.44707 0-0.28711 0.18047-0.63164 0.47168-0.91875 0.44707-0.44707 1.3125-0.99668 2.2559-1.5217 0.94747-0.525 1.8908-0.91875 2.5225-1.05 0.13125-0.0287 0.2625-0.0533 0.39375-0.0533 0.41835 0 0.75878 0.15586 0.94335 0.49628 0.07794 0.13125 0.10665 0.29122 0.10665 0.44708 0 0.29121-0.15997 0.60292-0.44709 0.91875"/><path class="Note" d="m-33.477 192.3c-0.47169-0.86542-1.4683-1.3371-2.6783-1.3371-0.89003 0-1.8621 0.2625-2.8096 0.75878-1.7309 0.91877-2.7809 2.4692-2.7809 3.8063 0 0.36914 0.07793 0.73828 0.2625 1.0787 0.47168 0.86952 1.4684 1.3166 2.6783 1.3166 0.89006 0 1.8621-0.2379 2.8096-0.73419 1.7308-0.92285 2.7808-2.4732 2.7808-3.8145 0-0.36503-0.07794-0.73417-0.2625-1.0746m-1.1279 1.7842c-0.44706 0.44707-1.3412 0.99668-2.2846 1.5258-0.94335 0.525-1.8908 0.91875-2.5184 1.05-0.13125 0.0287-0.2625 0.0533-0.39375 0.0533-0.42246 0-0.73828-0.15586-0.91875-0.50039-0.08203-0.13125-0.13125-0.28711-0.13125-0.44707 0-0.28711 0.18047-0.63164 0.47168-0.91875 0.44707-0.44707 1.3125-0.99668 2.2559-1.5217 0.94747-0.525 1.8908-0.91875 2.5225-1.05 0.13125-0.0287 0.2625-0.0533 0.39375-0.0533 0.41835 0 0.75878 0.15586 0.94335 0.49628 0.07794 0.13125 0.10665 0.29122 0.10665 0.44708 0 0.29121-0.15997 0.60292-0.44709 0.91875"/><path class="Note" d="m4.572 205.44c-0.47169-0.86954-1.4683-1.3412-2.6783-1.3412-0.89003 0-1.8621 0.2625-2.8096 0.76287-1.7309 0.91876-2.7809 2.465-2.7809 3.8063 0 0.36504 0.07793 0.73418 0.2625 1.0746 0.47168 0.86544 1.4684 1.3125 2.6783 1.3125 0.89006 0 1.8621-0.23379 2.8096-0.73419 1.7308-0.91875 2.7808-2.4691 2.7808-3.8062 0-0.36914-0.077936-0.73418-0.2625-1.0746"/><path class="Note" d="m4.572 192.31c-0.47169-0.86954-1.4683-1.3412-2.6783-1.3412-0.89003 0-1.8621 0.2625-2.8096 0.76287-1.7309 0.91876-2.7809 2.465-2.7809 3.8063 0 0.36504 0.07793 0.73418 0.2625 1.0746 0.47168 0.86544 1.4684 1.3125 2.6783 1.3125 0.89006 0 1.8621-0.23379 2.8096-0.73419 1.7308-0.91875 2.7808-2.4691 2.7808-3.8062 0-0.36914-0.077936-0.73418-0.2625-1.0746"/><path class="Note" d="m24.075 192.3c-0.47169-0.86542-1.4683-1.3371-2.6783-1.3371-0.89003 0-1.8621 0.2625-2.8096 0.75878-1.7309 0.91877-2.7809 2.4692-2.7809 3.8063 0 0.36914 0.07793 0.73828 0.2625 1.0787 0.47168 0.86952 1.4684 1.3166 2.6783 1.3166 0.89006 0 1.8621-0.2379 2.8096-0.73419 1.7308-0.92285 2.7808-2.4732 2.7808-3.8145 0-0.36503-0.07794-0.73417-0.2625-1.0746m-1.1279 1.7842c-0.44706 0.44707-1.3412 0.99668-2.2846 1.5258-0.94335 0.525-1.8908 0.91875-2.5184 1.05-0.13125 0.0287-0.2625 0.0533-0.39375 0.0533-0.42246 0-0.73828-0.15586-0.91875-0.50039-0.08203-0.13125-0.13125-0.28711-0.13125-0.44707 0-0.28711 0.18047-0.63164 0.47168-0.91875 0.44707-0.44707 1.3125-0.99668 2.2559-1.5217 0.94747-0.525 1.8908-0.91875 2.5225-1.05 0.13125-0.0287 0.2625-0.0533 0.39375-0.0533 0.41835 0 0.75878 0.15586 0.94335 0.49628 0.07794 0.13125 0.10665 0.29122 0.10665 0.44708 0 0.29121-0.15997 0.60292-0.44709 0.91875"/><path class="Note" d="m62.124 192.31c-0.47169-0.86954-1.4683-1.3412-2.6783-1.3412-0.89003 0-1.8621 0.2625-2.8096 0.76287-1.7309 0.91876-2.7809 2.465-2.7809 3.8063 0 0.36504 0.07793 0.73418 0.2625 1.0746 0.47168 0.86544 1.4684 1.3125 2.6783 1.3125 0.89006 0 1.8621-0.23379 2.8096-0.73419 1.7308-0.91875 2.7808-2.4691 2.7808-3.8062 0-0.36914-0.07794-0.73418-0.2625-1.0746"/><path class="Note" d="m81.626 192.3c-0.47169-0.86542-1.4683-1.3371-2.6783-1.3371-0.89003 0-1.8621 0.2625-2.8096 0.75878-1.7309 0.91877-2.7809 2.4692-2.7809 3.8063 0 0.36914 0.07793 0.73828 0.2625 1.0787 0.47168 0.86952 1.4684 1.3166 2.6783 1.3166 0.89006 0 1.8621-0.2379 2.8096-0.73419 1.7308-0.92285 2.7808-2.4732 2.7808-3.8145 0-0.36503-0.07794-0.73417-0.2625-1.0746m-1.1279 1.7842c-0.44706 0.44707-1.3412 0.99668-2.2846 1.5258-0.94335 0.525-1.8908 0.91875-2.5184 1.05-0.13125 0.0287-0.2625 0.0533-0.39375 0.0533-0.42246 0-0.73828-0.15586-0.91875-0.50039-0.08203-0.13125-0.13125-0.28711-0.13125-0.44707 0-0.28711 0.18047-0.63164 0.47168-0.91875 0.44707-0.44707 1.3125-0.99668 2.2559-1.5217 0.94747-0.525 1.8908-0.91875 2.5225-1.05 0.13125-0.0287 0.2625-0.0533 0.39375-0.0533 0.41835 0 0.75878 0.15586 0.94335 0.49628 0.07794 0.13125 0.10665 0.29122 0.10665 0.44708 0 0.29121-0.15997 0.60292-0.44709 0.91875"/><path class="Note" d="m81.626 179.17c-0.47169-0.86542-1.4683-1.3371-2.6783-1.3371-0.89003 0-1.8621 0.2625-2.8096 0.75878-1.7309 0.91877-2.7809 2.4692-2.7809 3.8063 0 0.36914 0.07793 0.73828 0.2625 1.0787 0.47168 0.86952 1.4684 1.3166 2.6783 1.3166 0.89006 0 1.8621-0.2379 2.8096-0.73419 1.7308-0.92285 2.7808-2.4732 2.7808-3.8145 0-0.36503-0.07794-0.73417-0.2625-1.0746m-1.1279 1.7842c-0.44706 0.44707-1.3412 0.99668-2.2846 1.5258-0.94335 0.525-1.8908 0.91875-2.5184 1.05-0.13125 0.0287-0.2625 0.0533-0.39375 0.0533-0.42246 0-0.73828-0.15586-0.91875-0.50039-0.08203-0.13125-0.13125-0.28711-0.13125-0.44707 0-0.28711 0.18047-0.63164 0.47168-0.91875 0.44707-0.44707 1.3125-0.99668 2.2559-1.5217 0.94747-0.525 1.8908-0.91875 2.5225-1.05 0.13125-0.0287 0.2625-0.0533 0.39375-0.0533 0.41835 0 0.75878 0.15586 0.94335 0.49628 0.07794 0.13125 0.10665 0.29122 0.10665 0.44708 0 0.29121-0.15997 0.60292-0.44709 0.91875"/><path class="Note" d="m119.68 192.31c-0.47169-0.86954-1.4684-1.3412-2.6783-1.3412-0.89004 0-1.8621 0.2625-2.8096 0.76287-1.7309 0.91876-2.7809 2.465-2.7809 3.8063 0 0.36504 0.0779 0.73418 0.2625 1.0746 0.47168 0.86544 1.4684 1.3125 2.6783 1.3125 0.89006 0 1.8621-0.23379 2.8096-0.73419 1.7308-0.91875 2.7808-2.4691 2.7808-3.8062 0-0.36914-0.0779-0.73418-0.2625-1.0746"/><path class="Note" d="m119.68 179.18c-0.47169-0.86954-1.4684-1.3412-2.6783-1.3412-0.89004 0-1.8621 0.2625-2.8096 0.76287-1.7309 0.91876-2.7809 2.465-2.7809 3.8063 0 0.36504 0.0779 0.73418 0.2625 1.0746 0.47168 0.86544 1.4684 1.3125 2.6783 1.3125 0.89006 0 1.8621-0.23379 2.8096-0.73419 1.7308-0.91875 2.7808-2.4691 2.7808-3.8062 0-0.36914-0.0779-0.73418-0.2625-1.0746"/><path class="Note" d="m139.18 179.17c-0.47169-0.86542-1.4684-1.3371-2.6783-1.3371-0.89004 0-1.8621 0.2625-2.8096 0.75878-1.7309 0.91877-2.7809 2.4692-2.7809 3.8063 0 0.36914 0.0779 0.73828 0.2625 1.0787 0.47168 0.86952 1.4684 1.3166 2.6783 1.3166 0.89006 0 1.8621-0.2379 2.8096-0.73419 1.7308-0.92285 2.7808-2.4732 2.7808-3.8145 0-0.36503-0.0779-0.73417-0.2625-1.0746m-1.1279 1.7842c-0.44706 0.44707-1.3412 0.99668-2.2846 1.5258-0.94335 0.525-1.8908 0.91875-2.5184 1.05-0.13125 0.0287-0.2625 0.0533-0.39375 0.0533-0.42246 0-0.73828-0.15586-0.91875-0.50039-0.082-0.13125-0.13125-0.28711-0.13125-0.44707 0-0.28711 0.18047-0.63164 0.47168-0.91875 0.44707-0.44707 1.3125-0.99668 2.2559-1.5217 0.94746-0.525 1.8908-0.91875 2.5225-1.05 0.13125-0.0287 0.2625-0.0533 0.39375-0.0533 0.41835 0 0.75879 0.15586 0.94335 0.49628 0.0779 0.13125 0.10665 0.29122 0.10665 0.44708 0 0.29121-0.15996 0.60292-0.44709 0.91875"/><path class="Note" d="m177.23 179.18c-0.47169-0.86954-1.4684-1.3412-2.6783-1.3412-0.89004 0-1.8621 0.2625-2.8096 0.76287-1.7309 0.91876-2.7809 2.465-2.7809 3.8063 0 0.36504 0.0779 0.73418 0.2625 1.0746 0.47168 0.86544 1.4684 1.3125 2.6783 1.3125 0.89006 0 1.8621-0.23379 2.8096-0.73419 1.7308-0.91875 2.7808-2.4691 2.7808-3.8062 0-0.36914-0.0779-0.73418-0.2625-1.0746"/><path class="Note" d="m196.73 179.17c-0.47169-0.86542-1.4684-1.3371-2.6783-1.3371-0.89004 0-1.8621 0.2625-2.8096 0.75878-1.7309 0.91877-2.7809 2.4692-2.7809 3.8063 0 0.36914 0.0779 0.73828 0.2625 1.0787 0.47168 0.86952 1.4684 1.3166 2.6783 1.3166 0.89006 0 1.8621-0.2379 2.8096-0.73419 1.7308-0.92285 2.7808-2.4732 2.7808-3.8145 0-0.36503-0.0779-0.73417-0.2625-1.0746m-1.1279 1.7842c-0.44706 0.44707-1.3412 0.99668-2.2846 1.5258-0.94335 0.525-1.8908 0.91875-2.5184 1.05-0.13125 0.0287-0.2625 0.0533-0.39375 0.0533-0.42246 0-0.73828-0.15586-0.91875-0.50039-0.082-0.13125-0.13125-0.28711-0.13125-0.44707 0-0.28711 0.18047-0.63164 0.47168-0.91875 0.44707-0.44707 1.3125-0.99668 2.2559-1.5217 0.94746-0.525 1.8908-0.91875 2.5225-1.05 0.13125-0.0287 0.2625-0.0533 0.39375-0.0533 0.41835 0 0.75879 0.15586 0.94335 0.49628 0.0779 0.13125 0.10665 0.29122 0.10665 0.44708 0 0.29121-0.15996 0.60292-0.44709 0.91875"/><path class="Note" d="m196.73 166.05c-0.47169-0.86542-1.4684-1.3371-2.6783-1.3371-0.89004 0-1.8621 0.2625-2.8096 0.75878-1.7309 0.91877-2.7809 2.4692-2.7809 3.8063 0 0.36914 0.0779 0.73828 0.2625 1.0787 0.47168 0.86952 1.4684 1.3166 2.6783 1.3166 0.89006 0 1.8621-0.2379 2.8096-0.73419 1.7308-0.92285 2.7808-2.4732 2.7808-3.8145 0-0.36503-0.0779-0.73417-0.2625-1.0746m-1.1279 1.7842c-0.44706 0.44707-1.3412 0.99668-2.2846 1.5258-0.94335 0.525-1.8908 0.91875-2.5184 1.05-0.13125 0.0287-0.2625 0.0533-0.39375 0.0533-0.42246 0-0.73828-0.15586-0.91875-0.50039-0.082-0.13125-0.13125-0.28711-0.13125-0.44707 0-0.28711 0.18047-0.63164 0.47168-0.91875 0.44707-0.44707 1.3125-0.99668 2.2559-1.5217 0.94746-0.525 1.8908-0.91875 2.5225-1.05 0.13125-0.0287 0.2625-0.0533 0.39375-0.0533 0.41835 0 0.75879 0.15586 0.94335 0.49628 0.0779 0.13125 0.10665 0.29122 0.10665 0.44708 0 0.29121-0.15996 0.60292-0.44709 0.91875"/><path class="Note" d="m234.78 179.18c-0.47169-0.86954-1.4684-1.3412-2.6783-1.3412-0.89004 0-1.8621 0.2625-2.8096 0.76287-1.7309 0.91876-2.7809 2.465-2.7809 3.8063 0 0.36504 0.0779 0.73418 0.2625 1.0746 0.47168 0.86544 1.4684 1.3125 2.6783 1.3125 0.89006 0 1.8621-0.23379 2.8096-0.73419 1.7308-0.91875 2.7808-2.4691 2.7808-3.8062 0-0.36914-0.0779-0.73418-0.2625-1.0746"/><path class="Note" d="m234.78 166.06c-0.47169-0.86954-1.4684-1.3412-2.6783-1.3412-0.89004 0-1.8621 0.2625-2.8096 0.76287-1.7309 0.91876-2.7809 2.465-2.7809 3.8063 0 0.36504 0.0779 0.73418 0.2625 1.0746 0.47168 0.86544 1.4684 1.3125 2.6783 1.3125 0.89006 0 1.8621-0.23379 2.8096-0.73419 1.7308-0.91875 2.7808-2.4691 2.7808-3.8062 0-0.36914-0.0779-0.73418-0.2625-1.0746"/><path class="Note" d="m254.28 166.05c-0.47169-0.86542-1.4684-1.3371-2.6783-1.3371-0.89004 0-1.8621 0.2625-2.8096 0.75878-1.7309 0.91877-2.7809 2.4692-2.7809 3.8063 0 0.36914 0.0779 0.73828 0.2625 1.0787 0.47168 0.86952 1.4684 1.3166 2.6783 1.3166 0.89006 0 1.8621-0.2379 2.8096-0.73419 1.7308-0.92285 2.7808-2.4732 2.7808-3.8145 0-0.36503-0.0779-0.73417-0.2625-1.0746m-1.1279 1.7842c-0.44706 0.44707-1.3412 0.99668-2.2846 1.5258-0.94335 0.525-1.8908 0.91875-2.5184 1.05-0.13125 0.0287-0.2625 0.0533-0.39375 0.0533-0.42246 0-0.73828-0.15586-0.91875-0.50039-0.082-0.13125-0.13125-0.28711-0.13125-0.44707 0-0.28711 0.18047-0.63164 0.47168-0.91875 0.44707-0.44707 1.3125-0.99668 2.2559-1.5217 0.94746-0.525 1.8908-0.91875 2.5225-1.05 0.13125-0.0287 0.2625-0.0533 0.39375-0.0533 0.41835 0 0.75879 0.15586 0.94335 0.49628 0.0779 0.13125 0.10665 0.29122 0.10665 0.44708 0 0.29121-0.15996 0.60292-0.44709 0.91875"/><path class="Note" d="m292.33 166.06c-0.47169-0.86954-1.4684-1.3412-2.6783-1.3412-0.89004 0-1.8621 0.2625-2.8096 0.76287-1.7309 0.91876-2.7809 2.465-2.7809 3.8063 0 0.36504 0.0779 0.73418 0.2625 1.0746 0.47168 0.86544 1.4684 1.3125 2.6783 1.3125 0.89006 0 1.8621-0.23379 2.8096-0.73419 1.7308-0.91875 2.7808-2.4691 2.7808-3.8062 0-0.36914-0.0779-0.73418-0.2625-1.0746"/><path class="Note" d="m311.83 179.17c-0.47169-0.86542-1.4684-1.3371-2.6783-1.3371-0.89004 0-1.8621 0.2625-2.8096 0.75878-1.7309 0.91877-2.7809 2.4692-2.7809 3.8063 0 0.36914 0.0779 0.73828 0.2625 1.0787 0.47168 0.86952 1.4684 1.3166 2.6783 1.3166 0.89006 0 1.8621-0.2379 2.8096-0.73419 1.7308-0.92285 2.7808-2.4732 2.7808-3.8145 0-0.36503-0.0779-0.73417-0.2625-1.0746m-1.1279 1.7842c-0.44706 0.44707-1.3412 0.99668-2.2846 1.5258-0.94335 0.525-1.8908 0.91875-2.5184 1.05-0.13125 0.0287-0.2625 0.0533-0.39375 0.0533-0.42246 0-0.73828-0.15586-0.91875-0.50039-0.082-0.13125-0.13125-0.28711-0.13125-0.44707 0-0.28711 0.18047-0.63164 0.47168-0.91875 0.44707-0.44707 1.3125-0.99668 2.2559-1.5217 0.94746-0.525 1.8908-0.91875 2.5225-1.05 0.13125-0.0287 0.2625-0.0533 0.39375-0.0533 0.41835 0 0.75879 0.15586 0.94335 0.49628 0.0779 0.13125 0.10665 0.29122 0.10665 0.44708 0 0.29121-0.15996 0.60292-0.44709 0.91875"/><path class="Note" d="m311.83 166.05c-0.47169-0.86542-1.4684-1.3371-2.6783-1.3371-0.89004 0-1.8621 0.2625-2.8096 0.75878-1.7309 0.91877-2.7809 2.4692-2.7809 3.8063 0 0.36914 0.0779 0.73828 0.2625 1.0787 0.47168 0.86952 1.4684 1.3166 2.6783 1.3166 0.89006 0 1.8621-0.2379 2.8096-0.73419 1.7308-0.92285 2.7808-2.4732 2.7808-3.8145 0-0.36503-0.0779-0.73417-0.2625-1.0746m-1.1279 1.7842c-0.44706 0.44707-1.3412 0.99668-2.2846 1.5258-0.94335 0.525-1.8908 0.91875-2.5184 1.05-0.13125 0.0287-0.2625 0.0533-0.39375 0.0533-0.42246 0-0.73828-0.15586-0.91875-0.50039-0.082-0.13125-0.13125-0.28711-0.13125-0.44707 0-0.28711 0.18047-0.63164 0.47168-0.91875 0.44707-0.44707 1.3125-0.99668 2.2559-1.5217 0.94746-0.525 1.8908-0.91875 2.5225-1.05 0.13125-0.0287 0.2625-0.0533 0.39375-0.0533 0.41835 0 0.75879 0.15586 0.94335 0.49628 0.0779 0.13125 0.10665 0.29122 0.10665 0.44708 0 0.29121-0.15996 0.60292-0.44709 0.91875"/><path class="Note" d="m349.88 179.18c-0.47169-0.86954-1.4684-1.3412-2.6783-1.3412-0.89004 0-1.8621 0.2625-2.8096 0.76287-1.7309 0.91876-2.7809 2.465-2.7809 3.8063 0 0.36504 0.0779 0.73418 0.2625 1.0746 0.47168 0.86544 1.4684 1.3125 2.6783 1.3125 0.89006 0 1.8621-0.23379 2.8096-0.73419 1.7308-0.91875 2.7808-2.4691 2.7808-3.8062 0-0.36914-0.0779-0.73418-0.2625-1.0746"/><path class="Note" d="m349.88 166.06c-0.47169-0.86954-1.4684-1.3412-2.6783-1.3412-0.89004 0-1.8621 0.2625-2.8096 0.76287-1.7309 0.91876-2.7809 2.465-2.7809 3.8063 0 0.36504 0.0779 0.73418 0.2625 1.0746 0.47168 0.86544 1.4684 1.3125 2.6783 1.3125 0.89006 0 1.8621-0.23379 2.8096-0.73419 1.7308-0.91875 2.7808-2.4691 2.7808-3.8062 0-0.36914-0.0779-0.73418-0.2625-1.0746"/><path class="Note" d="m369.39 179.17c-0.47169-0.86542-1.4684-1.3371-2.6783-1.3371-0.89004 0-1.8621 0.2625-2.8096 0.75878-1.7309 0.91877-2.7809 2.4692-2.7809 3.8063 0 0.36914 0.0779 0.73828 0.2625 1.0787 0.47168 0.86952 1.4684 1.3166 2.6783 1.3166 0.89006 0 1.8621-0.2379 2.8096-0.73419 1.7308-0.92285 2.7808-2.4732 2.7808-3.8145 0-0.36503-0.0779-0.73417-0.2625-1.0746m-1.1279 1.7842c-0.44706 0.44707-1.3412 0.99668-2.2846 1.5258-0.94335 0.525-1.8908 0.91875-2.5184 1.05-0.13125 0.0287-0.2625 0.0533-0.39375 0.0533-0.42246 0-0.73828-0.15586-0.91875-0.50039-0.082-0.13125-0.13125-0.28711-0.13125-0.44707 0-0.28711 0.18047-0.63164 0.47168-0.91875 0.44707-0.44707 1.3125-0.99668 2.2559-1.5217 0.94746-0.525 1.8908-0.91875 2.5225-1.05 0.13125-0.0287 0.2625-0.0533 0.39375-0.0533 0.41835 0 0.75879 0.15586 0.94335 0.49628 0.0779 0.13125 0.10665 0.29122 0.10665 0.44708 0 0.29121-0.15996 0.60292-0.44709 0.91875"/><path class="Note" d="m407.43 179.18c-0.47169-0.86954-1.4684-1.3412-2.6783-1.3412-0.89004 0-1.8621 0.2625-2.8096 0.76287-1.7309 0.91876-2.7809 2.465-2.7809 3.8063 0 0.36504 0.0779 0.73418 0.2625 1.0746 0.47168 0.86544 1.4684 1.3125 2.6783 1.3125 0.89006 0 1.8621-0.23379 2.8096-0.73419 1.7308-0.91875 2.7808-2.4691 2.7808-3.8062 0-0.36914-0.0779-0.73418-0.2625-1.0746"/><path class="Note" d="m426.94 192.3c-0.47169-0.86542-1.4684-1.3371-2.6783-1.3371-0.89004 0-1.8621 0.2625-2.8096 0.75878-1.7309 0.91877-2.7809 2.4692-2.7809 3.8063 0 0.36914 0.0779 0.73828 0.2625 1.0787 0.47168 0.86952 1.4684 1.3166 2.6783 1.3166 0.89006 0 1.8621-0.2379 2.8096-0.73419 1.7308-0.92285 2.7808-2.4732 2.7808-3.8145 0-0.36503-0.0779-0.73417-0.2625-1.0746m-1.1279 1.7842c-0.44706 0.44707-1.3412 0.99668-2.2846 1.5258-0.94335 0.525-1.8908 0.91875-2.5184 1.05-0.13125 0.0287-0.2625 0.0533-0.39375 0.0533-0.42246 0-0.73828-0.15586-0.91875-0.50039-0.082-0.13125-0.13125-0.28711-0.13125-0.44707 0-0.28711 0.18047-0.63164 0.47168-0.91875 0.44707-0.44707 1.3125-0.99668 2.2559-1.5217 0.94746-0.525 1.8908-0.91875 2.5225-1.05 0.13125-0.0287 0.2625-0.0533 0.39375-0.0533 0.41835 0 0.75879 0.15586 0.94335 0.49628 0.0779 0.13125 0.10665 0.29122 0.10665 0.44708 0 0.29121-0.15996 0.60292-0.44709 0.91875"/><path class="Note" d="m426.94 179.17c-0.47169-0.86542-1.4684-1.3371-2.6783-1.3371-0.89004 0-1.8621 0.2625-2.8096 0.75878-1.7309 0.91877-2.7809 2.4692-2.7809 3.8063 0 0.36914 0.0779 0.73828 0.2625 1.0787 0.47168 0.86952 1.4684 1.3166 2.6783 1.3166 0.89006 0 1.8621-0.2379 2.8096-0.73419 1.7308-0.92285 2.7808-2.4732 2.7808-3.8145 0-0.36503-0.0779-0.73417-0.2625-1.0746m-1.1279 1.7842c-0.44706 0.44707-1.3412 0.99668-2.2846 1.5258-0.94335 0.525-1.8908 0.91875-2.5184 1.05-0.13125 0.0287-0.2625 0.0533-0.39375 0.0533-0.42246 0-0.73828-0.15586-0.91875-0.50039-0.082-0.13125-0.13125-0.28711-0.13125-0.44707 0-0.28711 0.18047-0.63164 0.47168-0.91875 0.44707-0.44707 1.3125-0.99668 2.2559-1.5217 0.94746-0.525 1.8908-0.91875 2.5225-1.05 0.13125-0.0287 0.2625-0.0533 0.39375-0.0533 0.41835 0 0.75879 0.15586 0.94335 0.49628 0.0779 0.13125 0.10665 0.29122 0.10665 0.44708 0 0.29121-0.15996 0.60292-0.44709 0.91875"/><path class="Note" d="m464.99 192.31c-0.47169-0.86954-1.4684-1.3412-2.6783-1.3412-0.89004 0-1.8621 0.2625-2.8096 0.76287-1.7309 0.91876-2.7809 2.465-2.7809 3.8063 0 0.36504 0.0779 0.73418 0.2625 1.0746 0.47168 0.86544 1.4684 1.3125 2.6783 1.3125 0.89006 0 1.8621-0.23379 2.8096-0.73419 1.7308-0.91875 2.7808-2.4691 2.7808-3.8062 0-0.36914-0.0779-0.73418-0.2625-1.0746"/><path class="Note" d="m464.99 179.18c-0.47169-0.86954-1.4684-1.3412-2.6783-1.3412-0.89004 0-1.8621 0.2625-2.8096 0.76287-1.7309 0.91876-2.7809 2.465-2.7809 3.8063 0 0.36504 0.0779 0.73418 0.2625 1.0746 0.47168 0.86544 1.4684 1.3125 2.6783 1.3125 0.89006 0 1.8621-0.23379 2.8096-0.73419 1.7308-0.91875 2.7808-2.4691 2.7808-3.8062 0-0.36914-0.0779-0.73418-0.2625-1.0746"/><path class="Note" d="m484.49 192.3c-0.47169-0.86542-1.4684-1.3371-2.6783-1.3371-0.89004 0-1.8621 0.2625-2.8096 0.75878-1.7309 0.91877-2.7809 2.4692-2.7809 3.8063 0 0.36914 0.0779 0.73828 0.2625 1.0787 0.47168 0.86952 1.4684 1.3166 2.6783 1.3166 0.89006 0 1.8621-0.2379 2.8096-0.73419 1.7308-0.92285 2.7808-2.4732 2.7808-3.8145 0-0.36503-0.0779-0.73417-0.2625-1.0746m-1.1279 1.7842c-0.44706 0.44707-1.3412 0.99668-2.2846 1.5258-0.94335 0.525-1.8908 0.91875-2.5184 1.05-0.13125 0.0287-0.2625 0.0533-0.39375 0.0533-0.42246 0-0.73828-0.15586-0.91875-0.50039-0.082-0.13125-0.13125-0.28711-0.13125-0.44707 0-0.28711 0.18047-0.63164 0.47168-0.91875 0.44707-0.44707 1.3125-0.99668 2.2559-1.5217 0.94746-0.525 1.8908-0.91875 2.5225-1.05 0.13125-0.0287 0.2625-0.0533 0.39375-0.0533 0.41835 0 0.75879 0.15586 0.94335 0.49628 0.0779 0.13125 0.10665 0.29122 0.10665 0.44708 0 0.29121-0.15996 0.60292-0.44709 0.91875"/><path class="Note" d="m522.54 192.31c-0.47169-0.86954-1.4684-1.3412-2.6783-1.3412-0.89004 0-1.8621 0.2625-2.8096 0.76287-1.7309 0.91876-2.7809 2.465-2.7809 3.8063 0 0.36504 0.0779 0.73418 0.2625 1.0746 0.47168 0.86544 1.4684 1.3125 2.6783 1.3125 0.89006 0 1.8621-0.23379 2.8096-0.73419 1.7308-0.91875 2.7808-2.4691 2.7808-3.8062 0-0.36914-0.0779-0.73418-0.2625-1.0746"/><path class="Note" d="m542.04 205.42c-0.47169-0.86542-1.4684-1.3371-2.6783-1.3371-0.89004 0-1.8621 0.2625-2.8096 0.75878-1.7309 0.91877-2.7809 2.4692-2.7809 3.8063 0 0.36914 0.0779 0.73828 0.2625 1.0787 0.47168 0.86952 1.4684 1.3166 2.6783 1.3166 0.89006 0 1.8621-0.2379 2.8096-0.73419 1.7308-0.92285 2.7808-2.4732 2.7808-3.8145 0-0.36503-0.0779-0.73417-0.2625-1.0746m-1.1279 1.7842c-0.44706 0.44707-1.3412 0.99668-2.2846 1.5258-0.94335 0.525-1.8908 0.91875-2.5184 1.05-0.13125 0.0287-0.2625 0.0533-0.39375 0.0533-0.42246 0-0.73828-0.15586-0.91875-0.50039-0.082-0.13125-0.13125-0.28711-0.13125-0.44707 0-0.28711 0.18047-0.63164 0.47168-0.91875 0.44707-0.44707 1.3125-0.99668 2.2559-1.5217 0.94746-0.525 1.8908-0.91875 2.5225-1.05 0.13125-0.0287 0.2625-0.0533 0.39375-0.0533 0.41835 0 0.75879 0.15586 0.94335 0.49628 0.0779 0.13125 0.10665 0.29122 0.10665 0.44708 0 0.29121-0.15996 0.60292-0.44709 0.91875"/><path class="Note" d="m542.04 192.3c-0.47169-0.86542-1.4684-1.3371-2.6783-1.3371-0.89004 0-1.8621 0.2625-2.8096 0.75878-1.7309 0.91877-2.7809 2.4692-2.7809 3.8063 0 0.36914 0.0779 0.73828 0.2625 1.0787 0.47168 0.86952 1.4684 1.3166 2.6783 1.3166 0.89006 0 1.8621-0.2379 2.8096-0.73419 1.7308-0.92285 2.7808-2.4732 2.7808-3.8145 0-0.36503-0.0779-0.73417-0.2625-1.0746m-1.1279 1.7842c-0.44706 0.44707-1.3412 0.99668-2.2846 1.5258-0.94335 0.525-1.8908 0.91875-2.5184 1.05-0.13125 0.0287-0.2625 0.0533-0.39375 0.0533-0.42246 0-0.73828-0.15586-0.91875-0.50039-0.082-0.13125-0.13125-0.28711-0.13125-0.44707 0-0.28711 0.18047-0.63164 0.47168-0.91875 0.44707-0.44707 1.3125-0.99668 2.2559-1.5217 0.94746-0.525 1.8908-0.91875 2.5225-1.05 0.13125-0.0287 0.2625-0.0533 0.39375-0.0533 0.41835 0 0.75879 0.15586 0.94335 0.49628 0.0779 0.13125 0.10665 0.29122 0.10665 0.44708 0 0.29121-0.15996 0.60292-0.44709 0.91875"/><path class="Clef" d="m-80.116 64.913c-0.32403-1.4233-1.0172-2.4281-1.2223-2.6988-0.83672-1.1238-1.8908-1.8703-3.1213-2.2272-0.81622-0.22969-1.6037-0.2625-2.2394-0.21328-0.27481-1.5791-0.53731-3.1213-0.77522-4.5527 1.4315-1.6201 2.383-3.1418 2.9818-4.2697 0.91056-1.7268 1.21-2.9285 1.2264-2.9818 0.45116-1.3699 0.5455-3.392 0.25428-5.5453-0.2625-1.981-0.8121-3.7446-1.4314-4.5977-0.2666-0.37328-0.5455-0.56621-0.81622-0.56621-0.31991 0-0.98025 0.32419-1.7391 1.0542-0.60291 0.57409-1.4602 1.5955-2.1328 3.1746-0.7875 1.8539-0.84491 4.3436-0.75057 6.1072 0.09844 1.9113 0.38963 3.4043 0.39375 3.4166 0.0041 0.0246 0.07381 0.41835 0.18866 1.091-0.05741 0.06153-0.12303 0.11896-0.18866 0.18459-0.27072 0.2625-0.58244 0.55781-0.94747 0.92284-0.22559 0.22559-0.47578 0.46347-0.73828 0.71778-2.2148 2.1369-5.574 5.373-5.574 10.402 0 1.2346 0.23789 2.3953 0.70547 3.4494 0.41426 0.94336 1.0172 1.8047 1.7883 2.5594 2.0303 1.9852 4.8111 2.826 6.6609 2.785 0.77519-0.0205 1.4684-0.08203 2.0959-0.20097 0.47988 2.5224 0.77928 4.3682 0.7875 5.7709 0.01231 1.7104-0.42247 2.7562-1.4438 3.4822-0.63984 0.45525-1.3781 0.70547-2.1902 0.74238-0.68085 0.03281-1.2756-0.09025-1.6488-0.19688h-0.0041s-0.07384-0.02462-0.07794-0.07384 0.09022-0.0615 0.09022-0.0615h0.0082c0.5045-0.11484 1.4397-0.43887 2.059-1.3043 0.47169-0.66444 0.70137-1.8785 0.2174-2.9121-0.29122-0.62756-0.94747-1.4027-2.424-1.5217-0.65625-0.05331-1.251 0.08203-1.776 0.39784-0.47578 0.283-0.86953 0.71368-1.1443 1.2387-0.64394 1.2346-0.525 2.7398 0.29531 3.7488 0.77928 0.95156 1.9893 1.5586 3.4166 1.7103 0.22559 0.02462 0.44706 0.03281 0.66856 0.03281 1.1648 0 2.3174-0.31581 3.2566-0.89413 0.95978-0.67675 1.5176-1.7227 1.694-3.1992 0.14766-1.2182 0.0451-2.7727-0.31994-4.8932-0.09434-0.54962-0.23788-1.3453-0.41016-2.3297 1.5094-0.5045 2.6004-1.4438 3.5889-2.9818 0.86544-1.5053 1.1115-3.109 0.73828-4.766m-8.9824 6.8824c-1.2182-0.31994-2.383-0.97618-3.3674-1.899-0.34453-0.31991-0.83672-0.89004-1.2223-1.7801-0.35684-0.83262-0.53322-1.735-0.51681-2.6742 0.01641-1.2346 0.36094-2.502 1.0172-3.757 0.767-1.4643 1.9647-2.9162 3.5561-4.3148 0.38144-0.33632 0.74238-0.67266 1.0787-1.009 0.20097 1.1197 0.41835 2.3502 0.64803 3.6299-1.009 0.33222-2.2558 1.1607-3.0721 2.6455-0.93106 1.7227-0.89415 3.1746-0.70137 4.0893 0.24609 1.1689 0.91056 2.1574 1.817 2.707 0.24609 0.14766 1.3289 0.70547 1.8129 0.55372 0.09844-0.02872 0.16818-0.09025 0.20509-0.17637 0.13534-0.30762-0.13534-0.47578-0.54141-0.72598-0.15997-0.09844-0.33634-0.20918-0.525-0.34863-0.87363-0.65215-1.2551-1.8211-0.97206-2.9736 0.15175-0.62754 0.48807-1.1977 0.97206-1.6447 0.43475-0.40605 0.97206-0.69318 1.5955-0.86133 0.53731 2.9531 1.0787 5.8817 1.5094 8.076 0.03281 0.18047 0.06972 0.35682 0.10253 0.53319-1.1484 0.24609-2.2887 0.2215-3.3961-0.06972m2.9737-8.7158c2.7152-0.12303 3.8349 1.8293 4.0688 3.0967 0.12303 0.66856 0.12303 1.8334-0.28303 2.9408-0.3076 0.8326-0.95156 1.9031-2.301 2.4445-0.01641-0.11075-0.03691-0.22559-0.05741-0.33634-0.40606-2.3051-0.91466-5.1926-1.4273-8.1457m-1.9237-18.625c0.46759-1.5053 1.1854-2.3584 1.7104-2.8137 0.45938-0.39787 0.89003-0.58653 1.132-0.58653 0.03691 0 0.06972 0.0082 0.09432 0.01641 0.12306 0.03691 0.2625 0.18456 0.38556 0.41425 0.60703 1.1238 0.41016 2.8875 0.05741 4.0523-0.42656 1.4192-1.1935 2.8916-3.5027 5.4141-0.04512-0.29122-0.08613-0.566-0.12716-0.82441-0.32812-2.1738-0.242-4.0852 0.25019-5.6725"/><path class="Clef" d="m-80.116 183.04c-0.32403-1.4233-1.0172-2.4281-1.2223-2.6988-0.83672-1.1238-1.8908-1.8703-3.1213-2.2272-0.81622-0.22969-1.6037-0.2625-2.2394-0.21328-0.27481-1.5791-0.53731-3.1213-0.77522-4.5528 1.4315-1.6201 2.383-3.1418 2.9818-4.2697 0.91056-1.7268 1.21-2.9285 1.2264-2.9818 0.45116-1.3699 0.5455-3.392 0.25428-5.5453-0.2625-1.981-0.8121-3.7446-1.4314-4.5977-0.2666-0.37328-0.5455-0.56622-0.81622-0.56622-0.31991 0-0.98025 0.32419-1.7391 1.0542-0.60291 0.57409-1.4602 1.5955-2.1328 3.1746-0.7875 1.8539-0.84491 4.3436-0.75057 6.1072 0.09844 1.9113 0.38963 3.4043 0.39375 3.4166 0.0041 0.0246 0.07381 0.41835 0.18866 1.091-0.05741 0.0615-0.12303 0.11897-0.18866 0.18459-0.27072 0.2625-0.58244 0.55782-0.94747 0.92285-0.22559 0.22559-0.47578 0.46347-0.73828 0.71778-2.2148 2.1369-5.574 5.373-5.574 10.402 0 1.2346 0.23789 2.3953 0.70547 3.4494 0.41426 0.94336 1.0172 1.8047 1.7883 2.5594 2.0303 1.9852 4.8111 2.826 6.6609 2.785 0.77519-0.0205 1.4684-0.082 2.0959-0.20097 0.47988 2.5224 0.77928 4.3682 0.7875 5.7709 0.01231 1.7104-0.42247 2.7562-1.4438 3.4822-0.63984 0.45525-1.3781 0.70547-2.1902 0.74237-0.68085 0.0328-1.2756-0.0902-1.6488-0.19687h-0.0041s-0.07384-0.0246-0.07794-0.0738 0.09022-0.0615 0.09022-0.0615h0.0082c0.5045-0.11484 1.4397-0.43887 2.059-1.3043 0.47169-0.66444 0.70137-1.8785 0.2174-2.9121-0.29122-0.62756-0.94747-1.4028-2.424-1.5217-0.65625-0.0533-1.251 0.082-1.776 0.39785-0.47578 0.283-0.86953 0.71368-1.1443 1.2387-0.64394 1.2346-0.525 2.7398 0.29531 3.7488 0.77928 0.95156 1.9893 1.5586 3.4166 1.7103 0.22559 0.0246 0.44706 0.0328 0.66856 0.0328 1.1648 0 2.3174-0.31581 3.2566-0.89412 0.95978-0.67676 1.5176-1.7227 1.694-3.1992 0.14766-1.2182 0.0451-2.7727-0.31994-4.8932-0.09434-0.54962-0.23788-1.3453-0.41016-2.3297 1.5094-0.5045 2.6004-1.4438 3.5889-2.9818 0.86544-1.5053 1.1115-3.109 0.73828-4.766m-8.9824 6.8824c-1.2182-0.31994-2.383-0.97619-3.3674-1.899-0.34453-0.31991-0.83672-0.89004-1.2223-1.7801-0.35684-0.83262-0.53322-1.735-0.51681-2.6742 0.01641-1.2346 0.36094-2.502 1.0172-3.757 0.767-1.4642 1.9647-2.9162 3.5561-4.3148 0.38144-0.33631 0.74238-0.67266 1.0787-1.009 0.20097 1.1197 0.41835 2.3502 0.64803 3.6299-1.009 0.33222-2.2558 1.1607-3.0721 2.6455-0.93106 1.7227-0.89415 3.1746-0.70137 4.0893 0.24609 1.1689 0.91056 2.1574 1.817 2.707 0.24609 0.14765 1.3289 0.70546 1.8129 0.55371 0.09844-0.0287 0.16818-0.0902 0.20509-0.17637 0.13534-0.30762-0.13534-0.47578-0.54141-0.72598-0.15997-0.0984-0.33634-0.20918-0.525-0.34863-0.87363-0.65215-1.2551-1.8211-0.97206-2.9736 0.15175-0.62754 0.48807-1.1977 0.97206-1.6447 0.43475-0.40605 0.97206-0.69317 1.5955-0.86133 0.53731 2.9531 1.0787 5.8816 1.5094 8.076 0.03281 0.18046 0.06972 0.35681 0.10253 0.53319-1.1484 0.24609-2.2887 0.22149-3.3961-0.0697m2.9737-8.7158c2.7152-0.12304 3.8349 1.8293 4.0688 3.0967 0.12303 0.66855 0.12303 1.8334-0.28303 2.9408-0.3076 0.8326-0.95156 1.9031-2.301 2.4445-0.01641-0.11075-0.03691-0.22559-0.05741-0.33634-0.40606-2.3051-0.91466-5.1926-1.4273-8.1457m-1.9237-18.625c0.46759-1.5053 1.1854-2.3584 1.7104-2.8137 0.45938-0.39787 0.89003-0.58653 1.132-0.58653 0.03691 0 0.06972 8e-3 0.09432 0.0164 0.12306 0.0369 0.2625 0.18457 0.38556 0.41426 0.60703 1.1238 0.41016 2.8875 0.05741 4.0523-0.42656 1.4192-1.1935 2.8916-3.5027 5.4141-0.04512-0.29122-0.08613-0.566-0.12716-0.82441-0.32812-2.1738-0.242-4.0852 0.25019-5.6725"/></g><path class="StaffText" d="m-94.604 29.021c3.2327 0 5.8909-2.6564 5.8909-5.9108 0-2.9599-1.8314-5.366-6.4161-5.366-0.45879 0-2.1704 0.13652-2.898 0.13652-0.81015 0-1.0171-0.03307-1.877-0.03307-0.28919 0-0.49186 0.06615-0.49186 0.21908 0 0.186 0.1696 0.23548 0.55801 0.30162 0.84746 0.15319 1.1329 0.42598 1.1329 1.2361v7.6121c0 0.80962-0.28549 1.1139-1.1329 1.2674-0.38841 0.06615-0.55801 0.08467-0.55801 0.26988 0 0.17727 0.20267 0.22754 0.49186 0.22754 0.8972 0 1.0999-0.09525 1.7777-0.09525 1.3354 0 3.1832 0.13494 3.5224 0.13494m-0.2069-0.59531c-1.2692 0-2.5381-0.20108-2.5381-1.5743v-7.5486c0-1.0171 0.83079-1.0337 2.3027-1.0337 2.3191 0 4.7252 1.8812 4.7252 5.1305 0 2.9464-1.8478 5.026-4.4897 5.026m10.649 0.71173c2.5426 0 3.8283-1.86 3.8283-3.8402 0-1.8314-1.5256-3.4065-3.4891-3.4065-2.0796 0-3.7084 1.9637-3.7084 3.8441 0 1.9817 1.4758 3.4025 3.3692 3.4025m0.3556-0.508c-1.3518 0-2.3357-1.6087-2.3357-3.2827 0-0.81439 0.08678-1.6783 0.5416-2.2529 0.40931-0.5252 0.88053-0.67813 1.4922-0.67813 1.4388 0 2.3855 1.6785 2.3855 3.2874 0 0.66146-0.06615 1.4711-0.33893 1.995-0.33893 0.66146-0.97975 0.93133-1.7447 0.93133m7.2636 0.508c1.0335 0 1.9804-0.84402 1.9804-1.0292 0-0.11906-0.03307-0.24077-0.11589-0.24077-0.0164 0-0.05371 0.01852-0.07038 0.0344-0.28522 0.20638-0.59108 0.30692-1.2525 0.30692-0.7276 0-1.1163-0.5424-1.1163-1.4552v-3.3372c0-0.45905 0.09922-0.47546 0.67813-0.47546h1.6743c0.08678 0 0.1696-0.23574 0.1696-0.43842 0-0.20241-0.08281-0.372-0.1696-0.372h-1.9307c-0.28522 0-0.43815-0.07012-0.40508-0.32253l0.08255-0.76068c0.02064-0.15293-0.11562-0.186-0.21908-0.186-0.11986 0-0.186 0.08281-0.28522 0.20267-0.30586 0.372-0.84746 0.8972-1.5089 1.3518-0.03307 0.01667-0.11986 0.13652-0.11986 0.186 0 0.1696 0.08678 0.3392 0.20241 0.3392h0.10345c0.44238 0 0.5416 0.07011 0.5416 0.25612v3.9269c0 1.3388 0.66146 2.0135 1.7611 2.0135m5.3165 0c1.0335 0 1.9801-0.84402 1.9801-1.0292 0-0.11906-0.03307-0.24077-0.11562-0.24077-0.01667 0-0.05371 0.01852-0.07038 0.0344-0.28522 0.20638-0.59108 0.30692-1.2525 0.30692-0.7276 0-1.1163-0.5424-1.1163-1.4552v-3.3372c0-0.45905 0.09922-0.47546 0.67813-0.47546h1.6743c0.08678 0 0.16933-0.23574 0.16933-0.43842 0-0.20241-0.08255-0.372-0.16933-0.372h-1.9307c-0.28522 0-0.43815-0.07012-0.40508-0.32253l0.08255-0.76068c0.02064-0.15293-0.11562-0.186-0.21908-0.186-0.11986 0-0.186 0.08281-0.28522 0.20267-0.30586 0.372-0.84746 0.8972-1.5089 1.3518-0.03307 0.01667-0.11986 0.13652-0.11986 0.186 0 0.1696 0.08678 0.3392 0.20241 0.3392h0.10345c0.44238 0 0.5416 0.07011 0.5416 0.25612v3.9269c0 1.3388 0.66146 2.0135 1.7611 2.0135m5.7216 0.01588c0.8972 0 1.7611-0.38629 2.2696-1.0451 0.20267-0.25665 0.30586-0.49212 0.30586-0.71438 0-0.10054-0.04948-0.16669-0.13626-0.16669-0.06615 0-0.09922 0.01852-0.186 0.13229-0.42175 0.49212-0.98002 0.76465-1.6579 0.76465-1.4388 0-2.6085-1.3229-2.6085-2.9467 0-0.49212 0.10319-0.62838 0.42148-0.62838h3.5761c0.3556 0 0.5043-0.1696 0.5043-0.5252 0-1.2525-0.96308-2.1331-2.3191-2.1331-1.7777 0-3.266 1.6288-3.266 3.5769 0 2.2146 1.2361 3.6856 3.0964 3.6856m-1.5544-5.1295c-0.13652 0-0.20664-0.04948-0.20664-0.16933 0-0.67389 0.90117-1.4719 1.6783-1.4719 0.79375 0 1.4552 0.5416 1.4552 1.1867 0 0.23548-0.03307 0.35534-0.13626 0.372-0.372 0.06615-0.7112 0.08255-1.2528 0.08255h-1.5378m10.596 5.2009c0.07011 0 0.08678 0 0.27278-0.10319 0.79375-0.33867 1.3518-0.49212 1.9801-0.57415 0.12012 0 0.23574-0.15346 0.23574-0.30692 0-0.13229-0.08255-0.16933-0.30189-0.15346-0.28919 0.03704-0.61172 0.05556-0.73157 0.05556-0.25215 0-0.3556-0.32279-0.3556-1.106v-7.6512c0-1.5214 0.11986-2.1 0.11986-2.3027-0.0164-0.06615-0.04948-0.09922-0.11986-0.09922-0.04948 0-0.13229 0.01667-0.21908 0.04974-0.32253 0.13626-0.83106 0.372-1.8272 0.62415-0.10345 0.03731-0.13652 0.11986-0.13652 0.20664 0 0.09922 0.04974 0.20267 0.15293 0.21908 0.5416 0.09922 0.84746 0.32253 0.84746 1.2361v2.4019c0 0.30612-0.07011 0.40931-0.11986 0.40931-0.04948 0-0.11986-0.0164-0.21908-0.05371-0.25638-0.08255-0.76491-0.186-1.2195-0.186-2.373 0-3.8119 1.8314-3.8119 3.7939 0 1.7092 1.2031 3.4528 3.1337 3.4528 1.1163 0 1.8812-0.67469 2.2201-1.1986v0.10054c0 0.2884-0.08678 0.7964-0.08678 1.016 0 0.05027 0.13626 0.16933 0.186 0.16933m-1.7074-0.96838c-0.74824 0-2.5426-0.40481-2.5426-2.9591 0-2.2532 1.3065-2.8112 2.0836-2.8112 1.2528 0 2.0836 0.97975 2.0836 1.8934l-0.0164 3.0514c-0.42598 0.48683-1.0171 0.8255-1.6081 0.8255m18.401 1.0001c0.42148 0 1.3724-0.10319 1.3724-0.59002 0-0.13758-0.08678-0.18521-0.25638-0.18521-0.79375 0-1.3518-0.03704-1.9471-0.56356-1.5917-1.4393-2.3855-2.7072-3.4354-4.299-0.07038-0.09922-0.08705-0.186 0-0.21908 0.93001-0.47546 1.9965-1.3229 1.9965-2.8443 0-1.8478-1.3351-2.7781-3.8074-2.7781-0.98398 0-1.3065 0.08678-1.9473 0.08678-0.69453 0-0.74824-0.01641-1.6618-0.01641-0.28522 0-0.49186 0.04948-0.49186 0.186 0 0.1487 0.16933 0.30162 0.56224 0.3347 0.96308 0.10345 1.0292 0.3392 1.0292 1.629v7.2086c0 0.83344-0.38841 1.1377-1.2359 1.2912-0.38867 0.06615-0.55827 0.15346-0.55827 0.30162 0 0.13758 0.20267 0.18521 0.49212 0.18521 0.91361 0 1.3393-0.11377 2.2034-0.11377 0.64082 0 0.74401 0.11377 1.6576 0.11377 0.28945 0 0.49212-0.04763 0.49212-0.18521 0-0.14817-0.1696-0.23548-0.55827-0.30162-0.84746-0.15346-1.1369-0.7276-1.1369-1.4605v-2.9755c0-0.20664 0.06615-0.3556 0.25638-0.33893 0.30189 0.03307 0.84349 0.11562 1.3354 0.3556 0.33893 0.16933 0.5416 0.35534 0.7276 0.65722 1.17 1.8968 1.7447 2.5927 2.5755 3.6087 0.59134 0.7276 1.3727 0.91281 2.336 0.91281m-6.3336-5.923c-0.55801 0-0.8972-0.03731-0.8972-0.59531 0-1.3518 0.01667-2.3027 0.03307-2.8773 0.05398-1.17 0.18627-1.5751 0.91387-1.5751 2.1373 0 2.4926 1.17 2.4926 2.5384 0 1.3062-0.98372 2.5093-2.5424 2.5093m8.2807 5.6187c0.67786 0 0.77708-0.08202 1.3684-0.08202 0.59531 0 0.61172 0.08202 1.2898 0.08202 0.25215 0 0.33893-0.05027 0.33893-0.18521 0-0.13758-0.13652-0.20373-0.372-0.26988-0.33893-0.10319-0.64505-0.24077-0.66146-0.69585v-3.4383c0-0.69453 0.09922-0.93028 0.45482-1.2197 0.32226-0.25215 0.98372-0.372 1.4055-0.372 0.7276 0 1.5751 0.67813 1.5751 1.5256v3.4515c0 0.46038-0.32253 0.62971-0.65722 0.74877-0.25638 0.08202-0.39291 0.11642-0.39291 0.26988 0 0.13494 0.10345 0.18521 0.3392 0.18521 0.67786 0 0.7276-0.08202 1.3229-0.08202 0.59108 0 0.64082 0.08202 1.3187 0.08202 0.23971 0 0.33893-0.05027 0.33893-0.18521 0-0.13758-0.15293-0.20373-0.38841-0.26988-0.3392-0.10319-0.69453-0.2884-0.69453-0.74877v-3.5549c0-1.3187-0.83106-2.3027-1.9307-2.3027-1.0668 0-2.0505 0.67786-2.5715 1.0665-0.08678-0.1487-0.11986-0.26855-0.11986-0.62415v-2.9477c0-1.8108 0.15293-2.1 0.15293-2.3027 0-0.06615-0.05371-0.11562-0.11986-0.11562-0.03307 0-0.06615 0.0164-0.10345 0.03307-0.55801 0.23548-1.4015 0.50826-1.877 0.65722-0.10319 0.03731-0.13626 0.10345-0.13626 0.20664 0 0.13229 0.04948 0.21908 0.15293 0.23574 0.57468 0.10319 0.74401 0.60775 0.74401 1.2195v8.482c-0.0164 0.45508-0.38841 0.59267-0.7276 0.69585-0.28919 0.08202-0.38841 0.13229-0.38841 0.26988 0 0.13494 0.13626 0.18521 0.33893 0.18521m9.1406 4.7757c0.49186 0 0.89694-0.23812 1.0996-0.69585 0.69453-1.6245 1.5587-3.7571 1.6288-3.9105l2.3027-5.4861c0.21934-0.5416 0.65749-1.0337 0.99642-1.1329 0.186-0.07012 0.38867-0.13626 0.38867-0.30586 0-0.13626-0.21908-0.15293-0.33893-0.15293-0.37227 0-0.37227 0.08678-0.99642 0.08678-0.62838 0-0.8972-0.08678-1.2031-0.08678-0.11986 0-0.33893 0.05371-0.33893 0.186 0 0.1696 0.30586 0.32253 0.49186 0.40931 0.20267 0.08282 0.33893 0.21908 0.33893 0.64082 0 0.1696-0.07011 0.47546-0.13626 0.62838l-1.17 3.0967c-0.01667 0.05292-0.04974 0.10319-0.08281 0.10319-0.04948 0-0.08678-0.05027-0.10319-0.10319l-1.3684-3.3861c-0.05371-0.11986-0.13652-0.33893-0.13652-0.47546 0-0.31829 0.09922-0.47122 0.3392-0.5416 0.186-0.04948 0.49186-0.20241 0.49186-0.372 0-0.13229-0.20664-0.186-0.33893-0.186-0.67813 0-0.69453 0.08678-1.2898 0.08678-0.59134 0-0.55827-0.08678-1.2361-0.08678-0.11589 0-0.33893 0.01667-0.33893 0.15293 0 0.1696 0.20664 0.23574 0.39264 0.30586 0.33893 0.09922 0.59108 0.42175 0.76068 0.83106l1.9637 4.9599c0.04948 0.13229 0.06615 0.30162 0.06615 0.48948 0 0.15346-0.01667 0.2884-0.04974 0.39158-0.49186 1.3018-1.0665 2.4183-1.4385 3.0136-0.08282 0.13229-0.186 0.18785-0.32253 0.18785-0.186 0-0.42175-0.10319-0.67786-0.10319-0.3556 0-0.55827 0.35454-0.55827 0.75935 0 0.508 0.42598 0.69585 0.86413 0.69585m9.5332-4.5905c1.0335 0 1.9801-0.84402 1.9801-1.0292 0-0.11906-0.03307-0.24077-0.11562-0.24077-0.01667 0-0.05371 0.01852-0.07038 0.0344-0.28522 0.20638-0.59108 0.30692-1.2525 0.30692-0.7276 0-1.1163-0.5424-1.1163-1.4552v-3.3372c0-0.45905 0.09922-0.47546 0.67813-0.47546h1.6743c0.08678 0 0.16933-0.23574 0.16933-0.43842 0-0.20241-0.08255-0.372-0.16933-0.372h-1.9307c-0.28522 0-0.43815-0.07012-0.40508-0.32253l0.08255-0.76068c0.02064-0.15293-0.11562-0.186-0.21908-0.186-0.11986 0-0.186 0.08281-0.28522 0.20267-0.30586 0.372-0.84746 0.8972-1.5089 1.3518-0.03307 0.01667-0.11986 0.13652-0.11986 0.186 0 0.1696 0.08678 0.3392 0.20241 0.3392h0.10345c0.44238 0 0.5416 0.07011 0.5416 0.25612v3.9269c0 1.3388 0.66146 2.0135 1.7611 2.0135m2.7781-0.18521c0.67813 0 0.77735-0.08202 1.3684-0.08202 0.59531 0 0.61172 0.08202 1.2898 0.08202 0.25215 0 0.33893-0.05027 0.33893-0.18521 0-0.13758-0.13626-0.20373-0.372-0.26988-0.33893-0.10319-0.64505-0.24077-0.66146-0.69585v-3.4383c0-0.69453 0.09922-0.93028 0.45482-1.2197 0.32226-0.25215 0.98372-0.372 1.4055-0.372 0.7276 0 1.5751 0.67813 1.5751 1.5256v3.4515c0 0.46038-0.32226 0.62971-0.65722 0.74877-0.25638 0.08202-0.39264 0.11642-0.39264 0.26988 0 0.13494 0.10319 0.18521 0.33893 0.18521 0.67786 0 0.7276-0.08202 1.3229-0.08202 0.59108 0 0.64082 0.08202 1.3187 0.08202 0.23971 0 0.33893-0.05027 0.33893-0.18521 0-0.13758-0.15293-0.20373-0.38841-0.26988-0.3392-0.10319-0.69453-0.2884-0.69453-0.74877v-3.5549c0-1.3187-0.83106-2.3027-1.9307-2.3027-1.0665 0-2.0505 0.67786-2.5715 1.0665-0.08678-0.1487-0.11986-0.26855-0.11986-0.62415v-2.9477c0-1.8108 0.15293-2.1 0.15293-2.3027 0-0.06615-0.05371-0.11562-0.11986-0.11562-0.03307 0-0.06615 0.0164-0.10345 0.03307-0.55801 0.23548-1.4015 0.50826-1.8767 0.65722-0.10345 0.03731-0.13652 0.10345-0.13652 0.20664 0 0.13229 0.04948 0.21908 0.15293 0.23574 0.57468 0.10319 0.74427 0.60775 0.74427 1.2195v8.482c-0.01667 0.45508-0.38867 0.59267-0.7276 0.69585-0.28945 0.08202-0.38867 0.13229-0.38867 0.26988 0 0.13494 0.13626 0.18521 0.33893 0.18521m8.8016 0c0.67786 0 0.78131-0.08202 1.3724-0.08202 0.59134 0 0.69453 0.08202 1.3727 0.08202 0.20241 0 0.33893-0.05027 0.33893-0.18521 0-0.17198-0.20664-0.20373-0.39264-0.26988-0.33496-0.10319-0.7276-0.18521-0.7276-0.64558v-3.4885c0-0.57468 0.13626-0.97975 0.45879-1.2197 0.42175-0.3347 0.8972-0.45455 1.4716-0.45455 0.7276 0 1.356 0.79375 1.356 1.6081v3.5547c0 0.46038-0.40508 0.5424-0.74401 0.64558-0.186 0.06615-0.39264 0.0979-0.39264 0.26988 0 0.13494 0.15293 0.18521 0.33893 0.18521 0.67786 0 0.81439-0.08202 1.4055-0.08202 0.59531 0 0.7112 0.08202 1.3891 0.08202 0.21907 0 0.3392-0.05027 0.3392-0.18521 0-0.15346-0.1696-0.2196-0.38867-0.26988-0.33894-0.08731-0.76069-0.1852-0.76069-0.64558v-3.4885c0-0.59134 0.16933-0.97975 0.47122-1.2197 0.42571-0.3347 0.8972-0.45455 1.4758-0.45455 0.7276 0 1.352 0.79375 1.352 1.6081v3.5547c0 0.46038-0.37227 0.55827-0.7276 0.64558-0.21934 0.05027-0.38867 0.0979-0.38867 0.26988 0 0.13494 0.13626 0.18521 0.33893 0.18521 0.67813 0 0.81042-0.08202 1.4057-0.08202 0.59108 0 0.66146 0.08202 1.3351 0.08202 0.25638 0 0.3392-0.05027 0.3392-0.18521 0-0.15346-0.1696-0.20373-0.38867-0.26988-0.33893-0.10319-0.7276-0.18521-0.7276-0.64558v-3.6044c0-1.1864-0.59108-2.3564-1.6949-2.3564-1.0999 0-2.0299 0.52493-2.7575 1.17h-0.05371c-0.3556-0.86413-0.87656-1.17-1.691-1.17-1.3023 0-2.1331 0.64479-2.6416 1.1369h-0.033073c-0.016669-0.01667-0.033073-0.10345-0.033073-0.20267 0-0.32253 0.08255-0.93424 0.08255-1.0832 0-0.07012-0.049477-0.11986-0.099219-0.11986-0.070115 0-0.11986 0.04974-0.15293 0.06614-0.61172 0.38867-0.81439 0.66146-1.728 0.88053-0.086783 0.01667-0.13652 0.07038-0.13652 0.20267 0 0.13652 0.049742 0.20664 0.15293 0.22331 0.57468 0.09922 0.64505 0.60775 0.64505 1.2155v3.6415c0 0.46038-0.40931 0.5424-0.73184 0.64558-0.21908 0.06615-0.38867 0.11642-0.38867 0.26988 0 0.15081 0.15319 0.18521 0.3392 0.18521" stroke-width=".26458"/><path class="StaffText" d="m-90.102 147.38c0.42175 0 1.3727-0.10319 1.3727-0.59002 0-0.13758-0.08678-0.18785-0.25638-0.18785-0.79375 0-1.3518-0.0371-1.9471-0.56092-1.5917-1.4393-2.3855-2.7093-3.4356-4.2995-0.07012-0.10054-0.08678-0.18521 0-0.2196 0.93028-0.47625 1.9968-1.3229 1.9968-2.8443 0-1.8468-1.3354-2.7781-3.8076-2.7781-0.98372 0-1.3062 0.0873-1.9471 0.0873-0.69453 0-0.74824-0.0159-1.6618-0.0159-0.28522 0-0.49213 0.0476-0.49213 0.18521 0 0.14816 0.1696 0.30162 0.56224 0.33602 0.96335 0.10318 1.0295 0.33866 1.0295 1.6272v7.2099c0 0.83079-0.38867 1.1377-1.2361 1.2912-0.38867 0.0661-0.558 0.15081-0.558 0.30162 0 0.13494 0.2024 0.18521 0.49186 0.18521 0.91361 0 1.3396-0.11642 2.2034-0.11642 0.64082 0 0.74427 0.11642 1.6579 0.11642 0.28945 0 0.49186-0.0503 0.49186-0.18521 0-0.15081-0.16933-0.23548-0.55801-0.30162-0.84746-0.15346-1.1369-0.72761-1.1369-1.4605v-2.9766c0-0.20637 0.06615-0.35454 0.25638-0.33866 0.30162 0.0317 0.84323 0.11641 1.3354 0.35454 0.33893 0.16933 0.5416 0.35719 0.7276 0.65881 1.17 1.8971 1.7444 2.5903 2.5755 3.6089 0.59108 0.7276 1.3727 0.91281 2.3357 0.91281m-6.3333-5.924c-0.55827 0-0.8972-0.037-0.8972-0.59531 0-1.352 0.01667-2.3019 0.03307-2.876 0.05371-1.1721 0.186-1.5769 0.91361-1.5769 2.1373 0 2.4929 1.1695 2.4929 2.54 0 1.3044-0.98399 2.5082-2.5424 2.5082m11.224 5.8208c0.89694 0 1.7611-0.38893 2.2696-1.0451 0.20241-0.25665 0.30586-0.49213 0.30586-0.71702 0-0.0979-0.04974-0.16404-0.13652-0.16404-0.06615 0-0.09922 0.0159-0.186 0.13229-0.42175 0.49212-0.97975 0.76464-1.6576 0.76464-1.4388 0-2.6088-1.3229-2.6088-2.9474 0-0.49213 0.10345-0.62971 0.42175-0.62971h3.5761c0.35534 0 0.5043-0.16934 0.5043-0.52388 0-1.2515-0.96335-2.1325-2.3193-2.1325-1.7777 0-3.266 1.6272-3.266 3.5745 0 2.2172 1.2361 3.6883 3.0967 3.6883m-1.5544-5.1303c-0.13652 0-0.2069-0.0503-0.2069-0.16933 0-0.67469 0.90144-1.4711 1.6785-1.4711 0.79375 0 1.4552 0.53975 1.4552 1.1853 0 0.23548-0.03307 0.35719-0.13652 0.37306-0.372 0.0661-0.71094 0.082-1.2525 0.082h-1.5378m8.173 5.2335h0.10345c0.11986-0.15346 0.372-0.75935 0.372-0.75935s0.55801-1.4922 0.64505-1.6801l1.3187-3.1829c0.23971-0.55827 0.71094-1.0319 1.0501-1.1324 0.27278-0.0873 0.38841-0.15346 0.38841-0.30692 0-0.13494-0.16933-0.15081-0.33893-0.15081-0.31829 0-0.40508 0.0847-0.99616 0.0847-0.59531 0-0.98398-0.0847-1.2361-0.0847-0.15293 0-0.3392 0.0159-0.3392 0.15081 0 0.15346 0.10345 0.20373 0.38867 0.30692 0.30586 0.11641 0.44238 0.26987 0.44238 0.71173 0 0.18521-0.05371 0.4736-0.13652 0.69321l-1.2856 3.2994c-0.02064 0.0212-0.03731 0.0212-0.05371 0l-1.3354-3.556c-0.05371-0.13229-0.07038-0.30163-0.07038-0.45244 0-0.32279 0.10345-0.61383 0.3392-0.69585 0.20241-0.0714 0.38841-0.13759 0.38841-0.30692 0-0.13494-0.21908-0.15081-0.3347-0.15081-0.66146 0-0.67813 0.0847-1.2734 0.0847-0.59108 0-0.57468-0.0847-1.2361-0.0847-0.11562 0-0.33893 0.0159-0.33893 0.15081 0 0.15346 0.11986 0.20373 0.30586 0.27517 0.3392 0.0979 0.69453 0.45244 0.86413 0.86254 0.5416 1.3864 1.1327 2.6908 1.6412 4.0984 0.13652 0.37041 0.27279 0.80962 0.42598 1.18 0.04948 0.15346 0.21908 0.64558 0.30162 0.64558m7.4001-0.10319c0.8972 0 1.7611-0.38893 2.2696-1.0451 0.20267-0.25665 0.30586-0.49213 0.30586-0.71702 0-0.0979-0.04948-0.16404-0.13626-0.16404-0.06615 0-0.09922 0.0159-0.186 0.13229-0.42174 0.49212-0.98002 0.76464-1.6579 0.76464-1.4388 0-2.6085-1.3229-2.6085-2.9474 0-0.49213 0.10319-0.62971 0.42148-0.62971h3.5761c0.3556 0 0.5043-0.16934 0.5043-0.52388 0-1.2515-0.96308-2.1325-2.3191-2.1325-1.7777 0-3.266 1.6272-3.266 3.5745 0 2.2172 1.2361 3.6883 3.0964 3.6883m-1.5544-5.1303c-0.13652 0-0.20664-0.0503-0.20664-0.16933 0-0.67469 0.90117-1.4711 1.6783-1.4711 0.79375 0 1.4552 0.53975 1.4552 1.1853 0 0.23548-0.03307 0.35719-0.13626 0.37306-0.372 0.0661-0.7112 0.082-1.2528 0.082h-1.5378m5.3827 4.9292c0.67786 0 0.77708-0.0847 1.3684-0.0847 0.59531 0 0.79772 0.0847 1.4758 0.0847 0.23548 0 0.33893-0.0503 0.33893-0.18785 0-0.15346-0.15293-0.20109-0.39264-0.26723-0.55827-0.16934-0.8972-0.33867-0.8972-0.64559v-3.4184c0-1.1377 0.62839-1.4235 1.17-1.4235 0.16933 0 0.3556 0.082 0.5416 0.15346 0.16933 0.082 0.33893 0.14816 0.47546 0.14816 0.33893 0 0.65722-0.53975 0.65722-0.88106 0-0.30162-0.33496-0.53975-0.81042-0.53975-0.66146 0-1.4055 0.49213-1.9471 1.1536-0.0164 0-0.03307-0.0185-0.03307-0.0344 0.03307-0.53975 0.04974-1.1536 0.04974-1.2674 0-0.0714-0.03307-0.1217-0.08281-0.1217-0.05371 0-0.11986 0.0344-0.25638 0.1217-0.35534 0.21696-1.0829 0.6403-1.6743 0.8255-0.07011 0.0159-0.15293 0.10319-0.15293 0.20373 0 0.10319 0.08281 0.20638 0.1696 0.22225 0.55801 0.11642 0.69453 0.60854 0.69453 1.2144v3.6433c0 0.32279-0.22331 0.5424-0.64505 0.64559-0.25215 0.0661-0.38867 0.0979-0.38867 0.26723 0 0.13758 0.09922 0.18785 0.3392 0.18785m7.2636 0.18521c1.4716 0 2.4887-0.84402 2.4887-2.0638 0-1.0504-0.64479-1.5743-1.9471-2.3178-0.91361-0.52652-1.17-0.86519-1.17-1.3891 0-0.64559 0.52493-1.0028 1.0832-1.0028 0.64479 0 1.0665 0.40746 1.3724 1.1536 0.03307 0.0847 0.186 0.15081 0.32253 0.15081 0.08255 0 0.16933-0.0344 0.16933-0.11642 0-0.47625-0.15293-1.0821-0.32226-1.3388-0.21908-0.15346-0.67813-0.32279-1.356-0.32279-1.5214 0-2.2863 0.86254-2.2863 1.9473 0 0.84667 0.45879 1.3891 1.6124 2.0982 1.0128 0.62971 1.3684 0.98425 1.3684 1.5928 0 0.66146-0.5252 1.1536-1.1824 1.1536-0.66146 0-1.3891-0.42597-1.6785-1.5425-0.0164-0.082-0.11986-0.11906-0.20241-0.11906-0.12012 0-0.21934 0.0529-0.21934 0.15346 0.01667 0.38894 0.06615 1.1192 0.18627 1.3547 0.42148 0.38893 1.0665 0.60854 1.7611 0.60854m6.6352 0.0159c0.8972 0 1.7611-0.38893 2.2696-1.0451 0.20267-0.25665 0.30586-0.49213 0.30586-0.71702 0-0.0979-0.04948-0.16404-0.13626-0.16404-0.06615 0-0.09922 0.0159-0.186 0.13229-0.42174 0.49212-0.98002 0.76464-1.6579 0.76464-1.4388 0-2.6085-1.3229-2.6085-2.9474 0-0.49213 0.10319-0.62971 0.42148-0.62971h3.5761c0.3556 0 0.5043-0.16934 0.5043-0.52388 0-1.2515-0.96308-2.1325-2.3191-2.1325-1.7777 0-3.266 1.6272-3.266 3.5745 0 2.2172 1.2361 3.6883 3.0964 3.6883m-1.5544-5.1303c-0.13652 0-0.20664-0.0503-0.20664-0.16933 0-0.67469 0.90117-1.4711 1.6783-1.4711 0.79375 0 1.4552 0.53975 1.4552 1.1853 0 0.23548-0.03307 0.35719-0.13626 0.37306-0.372 0.0661-0.7112 0.082-1.2528 0.082h-1.5378m14.221 4.998c3.2329 0 5.8912-2.6591 5.8912-5.9108 0-2.9607-1.8314-5.3658-6.4161-5.3658-0.45905 0-2.1706 0.13494-2.8982 0.13494-0.81016 0-1.0168-0.0318-1.8767-0.0318-0.28945 0-0.49212 0.0661-0.49212 0.21696 0 0.18785 0.1696 0.23812 0.55827 0.30427 0.84746 0.15081 1.1327 0.42333 1.1327 1.2356v7.6094c0 0.81227-0.28522 1.1165-1.1327 1.27-0.38867 0.0661-0.55827 0.082-0.55827 0.26987 0 0.17727 0.20267 0.2249 0.49212 0.2249 0.89694 0 1.0996-0.0926 1.7775-0.0926 1.3354 0 3.1835 0.13494 3.5224 0.13494m-0.20664-0.59531c-1.2692 0-2.5384-0.20108-2.5384-1.5743v-7.5486c0-1.0186 0.83106-1.0345 2.3027-1.0345 2.3193 0 4.7252 1.8812 4.7252 5.1303 0 2.9474-1.8478 5.0271-4.4894 5.0271m10.649 0.71173c2.5424 0 3.828-1.86 3.828-3.8418 0-1.8309-1.5253-3.4052-3.4891-3.4052-2.0794 0-3.7084 1.9632-3.7084 3.8444 0 1.9791 1.4758 3.4025 3.3695 3.4025m0.35534-0.508c-1.3518 0-2.3357-1.6087-2.3357-3.2835 0-0.81492 0.08678-1.6775 0.5416-2.2542 0.40931-0.52388 0.88053-0.67733 1.4925-0.67733 1.4385 0 2.3852 1.6801 2.3852 3.2861 0 0.66146-0.06614 1.4737-0.33893 1.9976-0.33893 0.66146-0.97975 0.93134-1.7447 0.93134m7.2639 0.508c1.0335 0 1.9801-0.84402 1.9801-1.0292 0-0.12171-0.03307-0.24077-0.11589-0.24077-0.0164 0-0.05371 0.0159-0.07011 0.0344-0.28522 0.20638-0.59134 0.30427-1.2528 0.30427-0.7276 0-1.116-0.53975-1.116-1.4552v-3.3364c0-0.45773 0.09922-0.4736 0.67786-0.4736h1.6743c0.08678 0 0.1696-0.23548 0.1696-0.43921s-0.08281-0.37306-0.1696-0.37306h-1.9307c-0.28522 0-0.43815-0.0688-0.40508-0.32015l0.08281-0.762c0.02064-0.15346-0.11589-0.18521-0.21908-0.18521-0.12012 0-0.18627 0.082-0.28548 0.20108-0.30586 0.37307-0.84746 0.89694-1.5089 1.352-0.03307 0.0159-0.11986 0.13758-0.11986 0.18785 0 0.16933 0.08678 0.33867 0.20267 0.33867h0.10319c0.44238 0 0.5416 0.0688 0.5416 0.25664v3.9264c0 1.3388 0.66146 2.0135 1.7613 2.0135m5.3163 0c1.0337 0 1.9804-0.84402 1.9804-1.0292 0-0.12171-0.03307-0.24077-0.11589-0.24077-0.0164 0-0.05371 0.0159-0.07011 0.0344-0.28548 0.20638-0.59134 0.30427-1.2528 0.30427-0.7276 0-1.1163-0.53975-1.1163-1.4552v-3.3364c0-0.45773 0.09922-0.4736 0.67813-0.4736h1.6743c0.08678 0 0.1696-0.23548 0.1696-0.43921s-0.08282-0.37306-0.1696-0.37306h-1.9307c-0.28522 0-0.43815-0.0688-0.40508-0.32015l0.08255-0.762c0.0209-0.15346-0.11562-0.18521-0.21908-0.18521-0.11986 0-0.186 0.082-0.28522 0.20108-0.30586 0.37307-0.84746 0.89694-1.5089 1.352-0.03307 0.0159-0.11986 0.13758-0.11986 0.18785 0 0.16933 0.08678 0.33867 0.20267 0.33867h0.10319c0.44238 0 0.5416 0.0688 0.5416 0.25664v3.9264c0 1.3388 0.66146 2.0135 1.7611 2.0135m5.7216 0.0159c0.8972 0 1.7613-0.38893 2.2696-1.0451 0.20267-0.25665 0.30612-0.49213 0.30612-0.71702 0-0.0979-0.049742-0.16404-0.13652-0.16404-0.066146 0-0.099219 0.0159-0.186 0.13229-0.42175 0.49212-0.97975 0.76464-1.6579 0.76464-1.4385 0-2.6085-1.3229-2.6085-2.9474 0-0.49213 0.10345-0.62971 0.42175-0.62971h3.5758c0.3556 0 0.50456-0.16934 0.50456-0.52388 0-1.2515-0.96335-2.1325-2.3193-2.1325-1.7777 0-3.266 1.6272-3.266 3.5745 0 2.2172 1.2361 3.6883 3.0964 3.6883m-1.5544-5.1303c-0.13626 0-0.20664-0.0503-0.20664-0.16933 0-0.67469 0.90117-1.4711 1.6785-1.4711 0.79375 0 1.4552 0.53975 1.4552 1.1853 0 0.23548-0.03307 0.35719-0.13652 0.37306-0.372 0.0661-0.71094 0.082-1.2525 0.082h-1.538m10.596 5.2017c0.070379 0 0.086783 0 0.27279-0.10319 0.79375-0.34131 1.352-0.49212 1.9804-0.57679 0.11986 0 0.23548-0.15081 0.23548-0.30427 0-0.13229-0.08255-0.16933-0.30162-0.15346-0.28945 0.037-0.61198 0.0529-0.73184 0.0529-0.25215 0-0.3556-0.32279-0.3556-1.1033v-7.6518c0-1.5214 0.12012-2.1008 0.12012-2.3019-0.016669-0.0661-0.049742-0.10054-0.12012-0.10054-0.049477 0-0.13229 0.0159-0.21908 0.0503-0.32226 0.13494-0.83079 0.37042-1.8272 0.62442-0.10345 0.037-0.13652 0.11906-0.13652 0.20637 0 0.0979 0.049742 0.20109 0.15319 0.21961 0.54134 0.0979 0.84746 0.32279 0.84746 1.2356v2.4024c0 0.30427-0.070379 0.40746-0.11986 0.40746-0.049742 0-0.12012-0.0159-0.21934-0.0529-0.25612-0.082-0.76465-0.18521-1.2195-0.18521-2.373 0-3.8116 1.8309-3.8116 3.7941 0 1.7066 1.2031 3.4528 3.1337 3.4528 1.116 0 1.8809-0.67469 2.2199-1.1986v0.0979c0 0.29104-0.086783 0.79904-0.086783 1.0186 0 0.0476 0.13652 0.16933 0.186 0.16933m-1.7074-0.96837c-0.74824 0-2.5424-0.40482-2.5424-2.9607 0-2.2516 1.3062-2.8099 2.0836-2.8099 1.2525 0 2.0836 0.97896 2.0836 1.8918l-0.016669 3.0533c-0.42571 0.48683-1.0171 0.8255-1.6081 0.8255m18.401 1.0001c0.42175 0 1.3724-0.10319 1.3724-0.59002 0-0.13758-0.08678-0.18785-0.25612-0.18785-0.79375 0-1.352-0.0371-1.9473-0.56092-1.5915-1.4393-2.3852-2.7093-3.4354-4.2995-0.070379-0.10054-0.086783-0.18521 0-0.2196 0.93028-0.47625 1.9968-1.3229 1.9968-2.8443 0-1.8468-1.3354-2.7781-3.8076-2.7781-0.98399 0-1.3062 0.0873-1.9471 0.0873-0.69453 0-0.74824-0.0159-1.6618-0.0159-0.28549 0-0.49212 0.0476-0.49212 0.18521 0 0.14816 0.1696 0.30162 0.56224 0.33602 0.96335 0.10318 1.0295 0.33866 1.0295 1.6272v7.2099c0 0.83079-0.38867 1.1377-1.2361 1.2912-0.38867 0.0661-0.55801 0.15081-0.55801 0.30162 0 0.13494 0.20241 0.18521 0.49186 0.18521 0.91361 0 1.3393-0.11642 2.2034-0.11642 0.64082 0 0.74427 0.11642 1.6579 0.11642 0.28919 0 0.49186-0.0503 0.49186-0.18521 0-0.15081-0.1696-0.23548-0.55801-0.30162-0.84746-0.15346-1.1369-0.72761-1.1369-1.4605v-2.9766c0-0.20637 0.066146-0.35454 0.25638-0.33866 0.30162 0.0317 0.84323 0.11641 1.3351 0.35454 0.3392 0.16933 0.5416 0.35719 0.7276 0.65881 1.17 1.8971 1.7447 2.5903 2.5757 3.6089 0.59108 0.7276 1.3724 0.91281 2.3357 0.91281m-6.3336-5.924c-0.55801 0-0.89694-0.037-0.89694-0.59531 0-1.352 0.016404-2.3019 0.033073-2.876 0.05371-1.1721 0.186-1.5769 0.91361-1.5769 2.1373 0 2.4929 1.1695 2.4929 2.54 0 1.3044-0.98399 2.5082-2.5426 2.5082m8.2807 5.6198c0.67813 0 0.77734-0.0847 1.3684-0.0847 0.59531 0 0.61198 0.0847 1.2898 0.0847 0.25215 0 0.33893-0.0503 0.33893-0.18785 0-0.13494-0.13626-0.20109-0.372-0.26723-0.33893-0.10319-0.64479-0.24077-0.66146-0.69586v-3.4396c0-0.69321 0.09922-0.92869 0.45482-1.2197 0.32253-0.25135 0.98398-0.37042 1.4055-0.37042 0.7276 0 1.5753 0.67734 1.5753 1.524v3.4528c0 0.45772-0.32253 0.62706-0.65749 0.74877-0.25638 0.082-0.39264 0.11377-0.39264 0.26723 0 0.13758 0.10319 0.18785 0.33893 0.18785 0.67813 0 0.7276-0.0847 1.3229-0.0847 0.59108 0 0.64082 0.0847 1.3187 0.0847 0.23998 0 0.3392-0.0503 0.3392-0.18785 0-0.13494-0.15293-0.20109-0.38867-0.26723-0.33893-0.10319-0.69453-0.29105-0.69453-0.74877v-3.556c0-1.3176-0.83106-2.3019-1.9307-2.3019-1.0665 0-2.0505 0.67733-2.5715 1.0663-0.08678-0.14817-0.11986-0.26987-0.11986-0.62442v-2.9474c0-1.8098 0.15293-2.1008 0.15293-2.3019 0-0.0661-0.05371-0.11642-0.11986-0.11642-0.03307 0-0.06615 0.0159-0.10319 0.0317-0.55827 0.23548-1.4015 0.51065-1.877 0.65882-0.10345 0.037-0.13652 0.10318-0.13652 0.20637 0 0.13229 0.04974 0.21961 0.15293 0.23548 0.57468 0.10319 0.74427 0.60854 0.74427 1.2197v8.4825c-0.01667 0.45509-0.38867 0.59267-0.7276 0.69586-0.28945 0.082-0.38867 0.13229-0.38867 0.26723 0 0.13758 0.13652 0.18785 0.33893 0.18785m9.1406 4.7731c0.49212 0 0.8972-0.23548 1.0996-0.69321 0.69453-1.6245 1.5587-3.7597 1.629-3.9105l2.3027-5.4875c0.21908-0.54239 0.65722-1.0319 0.99616-1.1324 0.18627-0.0714 0.38867-0.13759 0.38867-0.30692 0-0.13494-0.21908-0.15081-0.33893-0.15081-0.372 0-0.372 0.0847-0.99642 0.0847-0.62839 0-0.89694-0.0847-1.2031-0.0847-0.11986 0-0.33893 0.0529-0.33893 0.18521 0 0.16933 0.30586 0.32279 0.49212 0.4101 0.20241 0.082 0.33893 0.21696 0.33893 0.64029 0 0.16934-0.07038 0.47361-0.13652 0.62707l-1.17 3.0983c-0.0164 0.0529-0.04948 0.10318-0.08255 0.10318-0.04974 0-0.08678-0.0503-0.10345-0.10318l-1.3684-3.3867c-0.05371-0.11906-0.13626-0.33867-0.13626-0.47625 0-0.3175 0.09922-0.47096 0.33893-0.53975 0.186-0.0503 0.49186-0.20373 0.49186-0.37306 0-0.13229-0.20664-0.18521-0.33893-0.18521-0.67786 0-0.69453 0.0847-1.2898 0.0847-0.59108 0-0.55801-0.0847-1.2361-0.0847-0.11562 0-0.33893 0.0159-0.33893 0.15081 0 0.16933 0.20664 0.23548 0.39264 0.30692 0.3392 0.10054 0.59134 0.42069 0.76068 0.83079l1.9637 4.9609c0.04974 0.13229 0.06614 0.30162 0.06614 0.48683 0 0.15346-0.0164 0.29104-0.04948 0.39423-0.49212 1.3018-1.0668 2.4183-1.4388 3.0136-0.08255 0.1323-0.186 0.18521-0.32253 0.18521-0.186 0-0.42148-0.10319-0.67786-0.10319-0.3556 0-0.55801 0.35719-0.55801 0.762 0 0.508 0.42572 0.69321 0.86386 0.69321m9.5332-4.5879c1.0337 0 1.9804-0.84402 1.9804-1.0292 0-0.12171-0.03307-0.24077-0.11589-0.24077-0.0164 0-0.05371 0.0159-0.07011 0.0344-0.28522 0.20638-0.59134 0.30427-1.2528 0.30427-0.7276 0-1.116-0.53975-1.116-1.4552v-3.3364c0-0.45773 0.09922-0.4736 0.67786-0.4736h1.6743c0.08678 0 0.1696-0.23548 0.1696-0.43921s-0.08281-0.37306-0.1696-0.37306h-1.9307c-0.28522 0-0.43815-0.0688-0.40508-0.32015l0.08281-0.762c0.02064-0.15346-0.11589-0.18521-0.21934-0.18521-0.11986 0-0.186 0.082-0.28522 0.20108-0.30586 0.37307-0.84746 0.89694-1.5089 1.352-0.03307 0.0159-0.11986 0.13758-0.11986 0.18785 0 0.16933 0.08678 0.33867 0.20267 0.33867h0.10319c0.44238 0 0.5416 0.0688 0.5416 0.25664v3.9264c0 1.3388 0.66146 2.0135 1.7611 2.0135m2.7781-0.18521c0.67813 0 0.77735-0.0847 1.3684-0.0847 0.59531 0 0.61198 0.0847 1.2898 0.0847 0.25215 0 0.3392-0.0503 0.3392-0.18785 0-0.13494-0.13652-0.20109-0.37227-0.26723-0.33893-0.10319-0.64479-0.24077-0.66146-0.69586v-3.4396c0-0.69321 0.09922-0.92869 0.45482-1.2197 0.32253-0.25135 0.98398-0.37042 1.4057-0.37042 0.7276 0 1.5751 0.67734 1.5751 1.524v3.4528c0 0.45772-0.32253 0.62706-0.65749 0.74877-0.25612 0.082-0.39264 0.11377-0.39264 0.26723 0 0.13758 0.10345 0.18785 0.33893 0.18785 0.67813 0 0.7276-0.0847 1.3229-0.0847 0.59134 0 0.64082 0.0847 1.3189 0.0847 0.23971 0 0.33893-0.0503 0.33893-0.18785 0-0.13494-0.15293-0.20109-0.38867-0.26723-0.33893-0.10319-0.69453-0.29105-0.69453-0.74877v-3.556c0-1.3176-0.83106-2.3019-1.9307-2.3019-1.0665 0-2.0505 0.67733-2.5715 1.0663-0.08678-0.14817-0.11986-0.26987-0.11986-0.62442v-2.9474c0-1.8098 0.15293-2.1008 0.15293-2.3019 0-0.0661-0.05371-0.11642-0.11986-0.11642-0.03307 0-0.06615 0.0159-0.10319 0.0317-0.55827 0.23548-1.4015 0.51065-1.877 0.65882-0.10345 0.037-0.13652 0.10318-0.13652 0.20637 0 0.13229 0.04974 0.21961 0.15293 0.23548 0.57468 0.10319 0.74427 0.60854 0.74427 1.2197v8.4825c-0.01667 0.45509-0.38867 0.59267-0.7276 0.69586-0.28946 0.082-0.38867 0.13229-0.38867 0.26723 0 0.13758 0.13652 0.18785 0.33893 0.18785m8.8016 0c0.67813 0 0.78131-0.0847 1.3727-0.0847 0.59108 0 0.69453 0.0847 1.3724 0.0847 0.20267 0 0.33893-0.0503 0.33893-0.18785 0-0.16934-0.20664-0.20109-0.39264-0.26723-0.33496-0.10319-0.7276-0.18786-0.7276-0.64559v-3.4898c0-0.57415 0.13652-0.97896 0.45879-1.2197 0.42175-0.33338 0.8972-0.45508 1.4719-0.45508 0.7276 0 1.356 0.79375 1.356 1.6087v3.556c0 0.45773-0.40508 0.5424-0.74427 0.64559-0.186 0.0661-0.39264 0.0979-0.39264 0.26723 0 0.13758 0.15293 0.18785 0.33893 0.18785 0.67813 0 0.81439-0.0847 1.4057-0.0847 0.59531 0 0.71094 0.0847 1.3891 0.0847 0.21908 0 0.33893-0.0503 0.33893-0.18785 0-0.15346-0.1696-0.21961-0.38867-0.26723-0.33893-0.0873-0.76068-0.18786-0.76068-0.64559v-3.4898c0-0.59002 0.1696-0.97896 0.47122-1.2197 0.42598-0.33338 0.8972-0.45508 1.4761-0.45508 0.7276 0 1.3518 0.79375 1.3518 1.6087v3.556c0 0.45773-0.372 0.55827-0.7276 0.64559-0.21908 0.0476-0.38867 0.0979-0.38867 0.26723 0 0.13758 0.13652 0.18785 0.33893 0.18785 0.67813 0 0.81042-0.0847 1.4057-0.0847 0.59108 0 0.66146 0.0847 1.3354 0.0847 0.25638 0 0.33893-0.0503 0.33893-0.18785 0-0.15346-0.1696-0.20109-0.38867-0.26723-0.33893-0.10319-0.7276-0.18786-0.7276-0.64559v-3.6063c0-1.1853-0.59108-2.3548-1.6949-2.3548-1.0996 0-2.0299 0.52388-2.7575 1.1695h-0.05371c-0.3556-0.86519-0.8763-1.1695-1.691-1.1695-1.302 0-2.1331 0.64558-2.6416 1.1351h-0.03307c-0.0164-0.0159-0.03307-0.10318-0.03307-0.20108 0-0.32279 0.08281-0.93398 0.08281-1.0822 0-0.0714-0.04974-0.1217-0.09922-0.1217-0.07038 0-0.12012 0.0503-0.15319 0.0661-0.61172 0.38894-0.81439 0.66146-1.728 0.88106-0.08678 0.0159-0.13626 0.0714-0.13626 0.20373 0 0.13494 0.04948 0.20638 0.15293 0.22225 0.57468 0.0979 0.64479 0.60854 0.64479 1.2144v3.6433c0 0.45773-0.40931 0.5424-0.73157 0.64559-0.21934 0.0661-0.38867 0.11377-0.38867 0.26723 0 0.15345 0.15293 0.18785 0.33893 0.18785" stroke-width=".26458"/><g stroke-width=".2625"><path class="NoteDot" d="m-49.438 89.435c0 0.72598 0.58652 1.3125 1.3125 1.3125 0.72598 0 1.3125-0.58652 1.3125-1.3125s-0.58652-1.3125-1.3125-1.3125c-0.72598 0-1.3125 0.58652-1.3125 1.3125"/><path class="NoteDot" d="m8.1137 89.435c0 0.72598 0.58652 1.3125 1.3125 1.3125 0.72598 0 1.3125-0.58652 1.3125-1.3125s-0.58652-1.3125-1.3125-1.3125c-0.72598 0-1.3125 0.58652-1.3125 1.3125"/><path class="NoteDot" d="m8.1137 76.309c0 0.72598 0.58652 1.3125 1.3125 1.3125 0.72598 0 1.3125-0.58652 1.3125-1.3125s-0.58652-1.3125-1.3125-1.3125c-0.72598 0-1.3125 0.58652-1.3125 1.3125"/><path class="NoteDot" d="m65.666 76.309c0 0.72598 0.58652 1.3125 1.3125 1.3125 0.72598 0 1.3125-0.58652 1.3125-1.3125s-0.58652-1.3125-1.3125-1.3125c-0.72598 0-1.3125 0.58652-1.3125 1.3125"/><path class="NoteDot" d="m123.22 76.309c0 0.72598 0.58652 1.3125 1.3125 1.3125s1.3125-0.58652 1.3125-1.3125-0.58652-1.3125-1.3125-1.3125-1.3125 0.58652-1.3125 1.3125"/><path class="NoteDot" d="m123.22 63.186c0 0.72598 0.58652 1.3125 1.3125 1.3125s1.3125-0.58652 1.3125-1.3125-0.58652-1.3125-1.3125-1.3125-1.3125 0.58652-1.3125 1.3125"/><path class="NoteDot" d="m180.77 63.186c0 0.72598 0.58652 1.3125 1.3125 1.3125s1.3125-0.58652 1.3125-1.3125-0.58652-1.3125-1.3125-1.3125-1.3125 0.58652-1.3125 1.3125"/><path class="NoteDot" d="m238.32 63.186c0 0.72598 0.58652 1.3125 1.3125 1.3125s1.3125-0.58652 1.3125-1.3125-0.58652-1.3125-1.3125-1.3125-1.3125 0.58652-1.3125 1.3125"/><path class="NoteDot" d="m238.32 50.06c0 0.72598 0.58652 1.3125 1.3125 1.3125s1.3125-0.58652 1.3125-1.3125-0.58652-1.3125-1.3125-1.3125-1.3125 0.58652-1.3125 1.3125"/><path class="NoteDot" d="m295.87 50.06c0 0.72598 0.58652 1.3125 1.3125 1.3125s1.3125-0.58652 1.3125-1.3125-0.58652-1.3125-1.3125-1.3125-1.3125 0.58652-1.3125 1.3125"/><path class="NoteDot" d="m353.42 63.186c0 0.72598 0.58652 1.3125 1.3125 1.3125s1.3125-0.58652 1.3125-1.3125-0.58652-1.3125-1.3125-1.3125-1.3125 0.58652-1.3125 1.3125"/><path class="NoteDot" d="m353.42 50.06c0 0.72598 0.58652 1.3125 1.3125 1.3125s1.3125-0.58652 1.3125-1.3125-0.58652-1.3125-1.3125-1.3125-1.3125 0.58652-1.3125 1.3125"/><path class="NoteDot" d="m410.98 63.186c0 0.72598 0.58652 1.3125 1.3125 1.3125s1.3125-0.58652 1.3125-1.3125-0.58652-1.3125-1.3125-1.3125-1.3125 0.58652-1.3125 1.3125"/><path class="NoteDot" d="m468.53 76.309c0 0.72598 0.58652 1.3125 1.3125 1.3125s1.3125-0.58652 1.3125-1.3125-0.58652-1.3125-1.3125-1.3125-1.3125 0.58652-1.3125 1.3125"/><path class="NoteDot" d="m468.53 63.186c0 0.72598 0.58652 1.3125 1.3125 1.3125s1.3125-0.58652 1.3125-1.3125-0.58652-1.3125-1.3125-1.3125-1.3125 0.58652-1.3125 1.3125"/><path class="NoteDot" d="m526.08 76.309c0 0.72598 0.58652 1.3125 1.3125 1.3125s1.3125-0.58652 1.3125-1.3125-0.58652-1.3125-1.3125-1.3125-1.3125 0.58652-1.3125 1.3125"/><path class="NoteDot" d="m-29.936 207.56c0 0.72598 0.58652 1.3125 1.3125 1.3125 0.72598 0 1.3125-0.58652 1.3125-1.3125s-0.58652-1.3125-1.3125-1.3125c-0.72598 0-1.3125 0.58652-1.3125 1.3125"/><path class="NoteDot" d="m-29.936 194.44c0 0.72598 0.58652 1.3125 1.3125 1.3125 0.72598 0 1.3125-0.58652 1.3125-1.3125s-0.58652-1.3125-1.3125-1.3125c-0.72598 0-1.3125 0.58652-1.3125 1.3125"/><path class="NoteDot" d="m27.616 194.44c0 0.72598 0.58652 1.3125 1.3125 1.3125 0.72598 0 1.3125-0.58652 1.3125-1.3125s-0.58652-1.3125-1.3125-1.3125c-0.72598 0-1.3125 0.58652-1.3125 1.3125"/><path class="NoteDot" d="m85.168 194.44c0 0.72598 0.58652 1.3125 1.3125 1.3125 0.72598 0 1.3125-0.58652 1.3125-1.3125s-0.58652-1.3125-1.3125-1.3125c-0.72598 0-1.3125 0.58652-1.3125 1.3125"/><path class="NoteDot" d="m85.168 181.31c0 0.72598 0.58652 1.3125 1.3125 1.3125 0.72598 0 1.3125-0.58652 1.3125-1.3125s-0.58652-1.3125-1.3125-1.3125c-0.72598 0-1.3125 0.58652-1.3125 1.3125"/><path class="NoteDot" d="m142.72 181.31c0 0.72598 0.58652 1.3125 1.3125 1.3125s1.3125-0.58652 1.3125-1.3125-0.58652-1.3125-1.3125-1.3125-1.3125 0.58652-1.3125 1.3125"/><path class="NoteDot" d="m200.27 181.31c0 0.72598 0.58652 1.3125 1.3125 1.3125s1.3125-0.58652 1.3125-1.3125-0.58652-1.3125-1.3125-1.3125-1.3125 0.58652-1.3125 1.3125"/><path class="NoteDot" d="m200.27 168.19c0 0.72598 0.58652 1.3125 1.3125 1.3125s1.3125-0.58652 1.3125-1.3125-0.58652-1.3125-1.3125-1.3125-1.3125 0.58652-1.3125 1.3125"/><path class="NoteDot" d="m257.82 168.19c0 0.72598 0.58652 1.3125 1.3125 1.3125s1.3125-0.58652 1.3125-1.3125-0.58652-1.3125-1.3125-1.3125-1.3125 0.58652-1.3125 1.3125"/><path class="NoteDot" d="m315.38 181.31c0 0.72598 0.58652 1.3125 1.3125 1.3125s1.3125-0.58652 1.3125-1.3125-0.58652-1.3125-1.3125-1.3125-1.3125 0.58652-1.3125 1.3125"/><path class="NoteDot" d="m315.38 168.19c0 0.72598 0.58652 1.3125 1.3125 1.3125s1.3125-0.58652 1.3125-1.3125-0.58652-1.3125-1.3125-1.3125-1.3125 0.58652-1.3125 1.3125"/><path class="NoteDot" d="m372.93 181.31c0 0.72598 0.58652 1.3125 1.3125 1.3125s1.3125-0.58652 1.3125-1.3125-0.58652-1.3125-1.3125-1.3125-1.3125 0.58652-1.3125 1.3125"/><path class="NoteDot" d="m430.48 194.44c0 0.72598 0.58652 1.3125 1.3125 1.3125s1.3125-0.58652 1.3125-1.3125-0.58652-1.3125-1.3125-1.3125-1.3125 0.58652-1.3125 1.3125"/><path class="NoteDot" d="m430.48 181.31c0 0.72598 0.58652 1.3125 1.3125 1.3125s1.3125-0.58652 1.3125-1.3125-0.58652-1.3125-1.3125-1.3125-1.3125 0.58652-1.3125 1.3125"/><path class="NoteDot" d="m488.03 194.44c0 0.72598 0.58652 1.3125 1.3125 1.3125s1.3125-0.58652 1.3125-1.3125-0.58652-1.3125-1.3125-1.3125-1.3125 0.58652-1.3125 1.3125"/><path class="NoteDot" d="m545.58 207.56c0 0.72598 0.58652 1.3125 1.3125 1.3125s1.3125-0.58652 1.3125-1.3125-0.58652-1.3125-1.3125-1.3125-1.3125 0.58652-1.3125 1.3125"/><path class="NoteDot" d="m545.58 194.44c0 0.72598 0.58652 1.3125 1.3125 1.3125s1.3125-0.58652 1.3125-1.3125-0.58652-1.3125-1.3125-1.3125-1.3125 0.58652-1.3125 1.3125"/></g></g></svg>
