<svg width="675mm" height="85.115mm" viewBox="0 0 675 85.115" xmlns="http://www.w3.org/2000/svg"><g fill="none" stroke="#000" stroke-linejoin="bevel" stroke-width="2.73"><path class="StaffLines" d="M0 29.81h674.996M0 36.374h674.996M0 42.936h674.996M0 49.497h674.996M0 56.06h674.996" stroke-width=".7223033999999999"/></g><g fill-rule="evenodd" stroke="#000" stroke-linecap="round" stroke-linejoin="round" stroke-width=".46"><path class="SlurSegment" d="M45.02 78.378c7.193 6.837 21.58 6.837 28.775 0-7.194 8.675-21.582 8.675-28.776 0M102.57 78.378c10.255 3.43 24.643-3.133 28.776-13.125-3.37 11.664-17.76 18.226-28.776 13.125M160.122 65.248c7.194 6.837 21.582 6.837 28.776 0-7.194 8.675-21.582 8.675-28.776 0M217.673 65.248c10.255 3.43 24.643-3.133 28.776-13.125-3.372 11.664-17.76 18.226-28.777 13.125M281.46 40.312c1.553-10.294 12.824-16.857 22.542-13.125-8.795-2.144-20.066 4.418-22.542 13.125M332.78 27.187c7.194-8.675 21.582-8.675 28.776 0-7.194-6.837-21.582-6.837-28.776 0M390.33 27.187c7.194-8.675 21.582-8.675 28.776 0-7.194-6.837-21.582-6.837-28.776 0M447.88 27.187c11.017-5.1 25.405 1.46 28.776 13.125-4.133-9.992-18.52-16.554-28.776-13.125M505.43 52.128c4.133 9.992 18.52 16.554 28.776 13.125-11.017 5.1-25.405-1.46-28.776-13.125M562.99 65.248c7.194 6.837 21.582 6.837 28.776 0-7.194 8.675-21.582 8.675-28.776 0M620.54 65.248c4.135 9.992 18.523 16.554 28.776 13.125-11.017 5.1-25.405-1.46-28.776-13.125"/></g><g stroke="#000" stroke-linejoin="bevel"><path class="BarLine" stroke-width="1.1800267999999998" d="M674.414 29.45v26.97"/><g stroke-width="3.97"><path class="LedgerLine" d="M38.45 69.185h13.124M38.45 62.623h13.124M67.227 69.185H80.35M67.227 62.623H80.35M96.003 69.185h13.123M96.003 62.623h13.123M642.744 69.185h13.123M642.744 62.623h13.123" stroke-width="1.0503826"/></g><g stroke-width="2.73"><path class="Stem" d="M48.915 71.627v-28.69M77.69 71.627V36.374M106.467 71.627V36.374M135.242 58.5V36.375M164.018 58.5V36.375M192.794 58.5V24.89M221.56 58.5V24.89M250.345 45.375V24.89M279.132 45.375V24.89M300.086 33.974v31.93M328.873 33.974v31.93M357.632 33.974V56.06M386.42 33.974V56.06M415.18 33.974v31.93M443.965 33.974v31.93M480.556 45.375V24.89M509.316 45.375V24.89M538.103 58.5V24.89M566.89 58.5V24.89M595.65 58.5V36.375M624.435 58.5V36.375M653.195 71.627V36.374" stroke-width=".7223033999999999"/></g></g><g stroke-width=".263"><path class="Note" d="M77.8 70.328c-.473-.865-1.47-1.337-2.68-1.337-.89 0-1.86.263-2.81.76-1.73.918-2.78 2.47-2.78 3.806 0 .37.078.738.263 1.08.47.868 1.468 1.315 2.678 1.315.89 0 1.863-.237 2.81-.733 1.73-.923 2.78-2.473 2.78-3.814 0-.365-.077-.735-.26-1.075m-1.13 1.784c-.446.447-1.34.997-2.284 1.526-.943.525-1.89.92-2.518 1.05-.13.03-.262.053-.394.053-.422 0-.738-.155-.918-.5-.083-.13-.132-.286-.132-.446 0-.287.18-.632.472-.92.447-.446 1.312-.996 2.256-1.52.947-.526 1.89-.92 2.522-1.05.132-.03.263-.054.394-.054.418 0 .76.156.943.496.08.132.108.292.108.447 0 .292-.16.603-.447.92M77.8 57.208c-.473-.865-1.47-1.337-2.68-1.337-.89 0-1.86.263-2.81.76-1.73.918-2.78 2.47-2.78 3.806 0 .37.078.738.263 1.08.47.868 1.468 1.315 2.678 1.315.89 0 1.863-.237 2.81-.733 1.73-.923 2.78-2.473 2.78-3.814 0-.365-.077-.735-.26-1.075m-1.13 1.784c-.446.447-1.34.997-2.284 1.526-.943.525-1.89.92-2.518 1.05-.13.03-.262.053-.394.053-.422 0-.738-.155-.918-.5-.083-.13-.132-.286-.132-.446 0-.287.18-.632.472-.92.447-.446 1.312-.996 2.256-1.52.947-.526 1.89-.92 2.522-1.05.132-.03.263-.054.394-.054.418 0 .76.156.943.496.08.132.108.292.108.447 0 .292-.16.603-.447.92M106.574 70.328c-.472-.865-1.468-1.337-2.678-1.337-.89 0-1.862.263-2.81.76-1.73.918-2.78 2.47-2.78 3.806 0 .37.077.738.262 1.08.47.868 1.468 1.315 2.678 1.315.89 0 1.862-.237 2.81-.733 1.73-.923 2.78-2.473 2.78-3.814 0-.365-.078-.735-.262-1.075m-1.128 1.784c-.447.447-1.34.997-2.285 1.526-.942.525-1.89.92-2.517 1.05-.13.03-.262.053-.394.053-.423 0-.74-.155-.92-.5-.082-.13-.13-.286-.13-.446 0-.287.18-.632.47-.92.448-.446 1.313-.996 2.257-1.52.947-.526 1.89-.92 2.522-1.05.13-.03.262-.054.393-.054.418 0 .76.156.943.496.078.132.107.292.107.447 0 .292-.16.603-.447.92M106.574 57.208c-.472-.865-1.468-1.337-2.678-1.337-.89 0-1.862.263-2.81.76-1.73.918-2.78 2.47-2.78 3.806 0 .37.077.738.262 1.08.47.868 1.468 1.315 2.678 1.315.89 0 1.862-.237 2.81-.733 1.73-.923 2.78-2.473 2.78-3.814 0-.365-.078-.735-.262-1.075m-1.128 1.784c-.447.447-1.34.997-2.285 1.526-.942.525-1.89.92-2.517 1.05-.13.03-.262.053-.394.053-.423 0-.74-.155-.92-.5-.082-.13-.13-.286-.13-.446 0-.287.18-.632.47-.92.448-.446 1.313-.996 2.257-1.52.947-.526 1.89-.92 2.522-1.05.13-.03.262-.054.393-.054.418 0 .76.156.943.496.078.132.107.292.107.447 0 .292-.16.603-.447.92M135.35 57.208c-.47-.865-1.468-1.337-2.678-1.337-.89 0-1.862.263-2.81.76-1.73.918-2.78 2.47-2.78 3.806 0 .37.077.738.262 1.08.472.868 1.468 1.315 2.678 1.315.89 0 1.862-.237 2.81-.733 1.73-.923 2.78-2.473 2.78-3.814 0-.365-.077-.735-.262-1.075m-1.128 1.784c-.447.447-1.34.997-2.284 1.526-.944.525-1.89.92-2.52 1.05-.13.03-.26.053-.393.053-.422 0-.738-.155-.918-.5-.082-.13-.132-.286-.132-.446 0-.287.18-.632.472-.92.447-.446 1.313-.996 2.256-1.52.948-.526 1.89-.92 2.523-1.05.13-.03.262-.054.393-.054.418 0 .758.156.943.496.078.132.106.292.106.447 0 .292-.16.603-.448.92M164.126 57.208c-.472-.865-1.468-1.337-2.678-1.337-.89 0-1.862.263-2.81.76-1.73.918-2.78 2.47-2.78 3.806 0 .37.077.738.262 1.08.47.868 1.468 1.315 2.678 1.315.89 0 1.862-.237 2.81-.733 1.73-.923 2.78-2.473 2.78-3.814 0-.365-.078-.735-.262-1.075m-1.128 1.784c-.447.447-1.34.997-2.285 1.526-.943.525-1.89.92-2.518 1.05-.13.03-.263.053-.394.053-.42 0-.737-.155-.918-.5-.082-.13-.13-.286-.13-.446 0-.287.18-.632.47-.92.448-.446 1.313-.996 2.257-1.52.946-.526 1.89-.92 2.52-1.05.133-.03.264-.054.395-.054.418 0 .76.156.943.496.078.132.107.292.107.447 0 .292-.16.603-.447.92M192.902 57.208c-.472-.865-1.468-1.337-2.678-1.337-.89 0-1.862.263-2.81.76-1.73.918-2.78 2.47-2.78 3.806 0 .37.077.738.262 1.08.47.868 1.468 1.315 2.678 1.315.89 0 1.862-.237 2.81-.733 1.73-.923 2.78-2.473 2.78-3.814 0-.365-.078-.735-.262-1.075m-1.128 1.784c-.447.447-1.34.997-2.285 1.526-.944.525-1.89.92-2.52 1.05-.13.03-.262.053-.393.053-.422 0-.738-.155-.92-.5-.08-.13-.13-.286-.13-.446 0-.287.18-.632.472-.92.446-.446 1.31-.996 2.255-1.52.947-.526 1.89-.92 2.522-1.05.132-.03.263-.054.394-.054.42 0 .76.156.944.496.078.132.107.292.107.447 0 .292-.16.603-.446.92M192.902 44.078c-.472-.865-1.468-1.337-2.678-1.337-.89 0-1.862.263-2.81.76-1.73.918-2.78 2.47-2.78 3.806 0 .37.077.738.262 1.08.47.868 1.468 1.315 2.678 1.315.89 0 1.862-.237 2.81-.733 1.73-.923 2.78-2.473 2.78-3.814 0-.365-.078-.735-.262-1.075m-1.128 1.784c-.447.447-1.34.997-2.285 1.526-.944.525-1.89.92-2.52 1.05-.13.03-.262.053-.393.053-.422 0-.738-.155-.92-.5-.08-.13-.13-.286-.13-.446 0-.287.18-.632.472-.92.446-.446 1.31-.996 2.255-1.52.947-.526 1.89-.92 2.522-1.05.132-.03.263-.054.394-.054.42 0 .76.156.944.496.078.132.107.292.107.447 0 .292-.16.603-.446.92M221.68 57.208c-.473-.865-1.47-1.337-2.68-1.337-.89 0-1.86.263-2.81.76-1.73.918-2.78 2.47-2.78 3.806 0 .37.078.738.263 1.08.47.868 1.468 1.315 2.678 1.315.89 0 1.863-.237 2.81-.733 1.73-.923 2.78-2.473 2.78-3.814 0-.365-.077-.735-.26-1.075m-1.13 1.784c-.446.447-1.34.997-2.284 1.526-.943.525-1.89.92-2.518 1.05-.13.03-.263.053-.394.053-.422 0-.738-.155-.92-.5-.08-.13-.13-.286-.13-.446 0-.287.18-.632.472-.92.447-.446 1.312-.996 2.256-1.52.947-.526 1.89-.92 2.522-1.05.132-.03.263-.054.394-.054.418 0 .76.156.943.496.08.132.108.292.108.447 0 .292-.16.603-.447.92M221.68 44.078c-.473-.865-1.47-1.337-2.68-1.337-.89 0-1.86.263-2.81.76-1.73.918-2.78 2.47-2.78 3.806 0 .37.078.738.263 1.08.47.868 1.468 1.315 2.678 1.315.89 0 1.863-.237 2.81-.733 1.73-.923 2.78-2.473 2.78-3.814 0-.365-.077-.735-.26-1.075m-1.13 1.784c-.446.447-1.34.997-2.284 1.526-.943.525-1.89.92-2.518 1.05-.13.03-.263.053-.394.053-.422 0-.738-.155-.92-.5-.08-.13-.13-.286-.13-.446 0-.287.18-.632.472-.92.447-.446 1.312-.996 2.256-1.52.947-.526 1.89-.92 2.522-1.05.132-.03.263-.054.394-.054.418 0 .76.156.943.496.08.132.108.292.108.447 0 .292-.16.603-.447.92M250.46 44.078c-.472-.865-1.468-1.337-2.678-1.337-.89 0-1.862.263-2.81.76-1.73.918-2.78 2.47-2.78 3.806 0 .37.077.738.262 1.08.47.868 1.468 1.315 2.678 1.315.89 0 1.862-.237 2.81-.733 1.73-.923 2.78-2.473 2.78-3.814 0-.365-.078-.735-.262-1.075m-1.128 1.784c-.447.447-1.34.997-2.285 1.526-.943.525-1.89.92-2.518 1.05-.132.03-.264.053-.395.053-.422 0-.738-.155-.92-.5-.08-.13-.13-.286-.13-.446 0-.287.18-.632.472-.92.447-.446 1.312-.996 2.256-1.52.947-.526 1.89-.92 2.522-1.05.132-.03.263-.054.394-.054.417 0 .758.156.942.496.078.132.107.292.107.447 0 .292-.16.603-.448.92M279.23 44.078c-.472-.865-1.468-1.337-2.678-1.337-.89 0-1.862.263-2.81.76-1.73.918-2.78 2.47-2.78 3.806 0 .37.077.738.262 1.08.47.868 1.468 1.315 2.678 1.315.89 0 1.862-.237 2.81-.733 1.73-.923 2.78-2.473 2.78-3.814 0-.365-.077-.735-.262-1.075m-1.128 1.784c-.447.447-1.34.997-2.285 1.526-.943.525-1.89.92-2.518 1.05-.132.03-.263.053-.395.053-.422 0-.738-.155-.918-.5-.082-.13-.132-.286-.132-.446 0-.287.18-.632.472-.92.447-.446 1.312-.996 2.256-1.52.947-.526 1.89-.92 2.522-1.05.132-.03.263-.054.394-.054.417 0 .758.156.942.496.078.132.107.292.107.447 0 .292-.16.603-.448.92M308 44.078c-.472-.865-1.468-1.337-2.678-1.337-.89 0-1.862.263-2.81.76-1.73.918-2.78 2.47-2.78 3.806 0 .37.077.738.262 1.08.47.868 1.468 1.315 2.678 1.315.89 0 1.862-.237 2.81-.733 1.73-.923 2.78-2.473 2.78-3.814 0-.365-.077-.735-.262-1.075m-1.128 1.784c-.447.447-1.34.997-2.285 1.526-.943.525-1.89.92-2.518 1.05-.132.03-.263.053-.395.053-.422 0-.738-.155-.92-.5-.08-.13-.13-.286-.13-.446 0-.287.18-.632.472-.92.447-.446 1.312-.996 2.256-1.52.947-.526 1.89-.92 2.522-1.05.132-.03.263-.054.394-.054.417 0 .758.156.942.496.078.132.107.292.107.447 0 .292-.16.603-.448.92M308 30.956c-.472-.865-1.468-1.337-2.678-1.337-.89 0-1.862.26-2.81.758-1.73.918-2.78 2.47-2.78 3.806 0 .37.077.738.262 1.08.47.868 1.468 1.315 2.678 1.315.89 0 1.862-.24 2.81-.735 1.73-.923 2.78-2.473 2.78-3.814 0-.364-.077-.734-.262-1.074m-1.128 1.784c-.447.447-1.34.997-2.285 1.526-.943.525-1.89.92-2.518 1.05-.132.03-.263.053-.395.053-.422 0-.738-.157-.92-.5-.08-.132-.13-.288-.13-.448 0-.287.18-.632.472-.92.447-.446 1.312-.996 2.256-1.52.947-.526 1.89-.92 2.522-1.05.132-.03.263-.054.394-.054.417 0 .758.156.942.496.078.132.107.292.107.447 0 .293-.16.604-.448.92M336.78 44.078c-.472-.865-1.468-1.337-2.678-1.337-.89 0-1.862.263-2.81.76-1.73.918-2.78 2.47-2.78 3.806 0 .37.077.738.262 1.08.47.868 1.468 1.315 2.678 1.315.89 0 1.862-.237 2.81-.733 1.73-.923 2.78-2.473 2.78-3.814 0-.365-.077-.735-.262-1.075m-1.128 1.784c-.447.447-1.34.997-2.285 1.526-.943.525-1.89.92-2.518 1.05-.132.03-.264.053-.395.053-.422 0-.738-.155-.92-.5-.08-.13-.13-.286-.13-.446 0-.287.18-.632.472-.92.447-.446 1.312-.996 2.256-1.52.947-.526 1.89-.92 2.522-1.05.132-.03.263-.054.394-.054.417 0 .758.156.942.496.078.132.107.292.107.447 0 .292-.16.603-.448.92M336.78 30.956c-.472-.865-1.468-1.337-2.678-1.337-.89 0-1.862.26-2.81.758-1.73.918-2.78 2.47-2.78 3.806 0 .37.077.738.262 1.08.47.868 1.468 1.315 2.678 1.315.89 0 1.862-.24 2.81-.735 1.73-.923 2.78-2.473 2.78-3.814 0-.364-.077-.734-.262-1.074m-1.128 1.784c-.447.447-1.34.997-2.285 1.526-.943.525-1.89.92-2.518 1.05-.132.03-.264.053-.395.053-.422 0-.738-.157-.92-.5-.08-.132-.13-.288-.13-.448 0-.287.18-.632.472-.92.447-.446 1.312-.996 2.256-1.52.947-.526 1.89-.92 2.522-1.05.132-.03.263-.054.394-.054.417 0 .758.156.942.496.078.132.107.292.107.447 0 .293-.16.604-.448.92M365.56 30.956c-.472-.865-1.468-1.337-2.678-1.337-.89 0-1.862.26-2.81.758-1.73.918-2.78 2.47-2.78 3.806 0 .37.077.738.262 1.08.47.868 1.468 1.315 2.678 1.315.89 0 1.862-.24 2.81-.735 1.73-.923 2.78-2.473 2.78-3.814 0-.364-.077-.734-.262-1.074m-1.128 1.784c-.447.447-1.34.997-2.285 1.526-.943.525-1.89.92-2.518 1.05-.132.03-.263.053-.395.053-.422 0-.738-.157-.92-.5-.08-.132-.13-.288-.13-.448 0-.287.18-.632.472-.92.447-.446 1.312-.996 2.256-1.52.947-.526 1.89-.92 2.522-1.05.132-.03.263-.054.394-.054.417 0 .758.156.942.496.078.132.107.292.107.447 0 .293-.16.604-.448.92M394.33 30.956c-.472-.865-1.468-1.337-2.678-1.337-.89 0-1.862.26-2.81.758-1.73.918-2.78 2.47-2.78 3.806 0 .37.077.738.262 1.08.47.868 1.468 1.315 2.678 1.315.89 0 1.862-.24 2.81-.735 1.73-.923 2.78-2.473 2.78-3.814 0-.364-.077-.734-.262-1.074m-1.128 1.784c-.447.447-1.34.997-2.285 1.526-.943.525-1.89.92-2.518 1.05-.132.03-.263.053-.395.053-.422 0-.738-.157-.918-.5-.082-.132-.132-.288-.132-.448 0-.287.18-.632.472-.92.447-.446 1.312-.996 2.256-1.52.947-.526 1.89-.92 2.522-1.05.132-.03.263-.054.394-.054.417 0 .758.156.942.496.078.132.107.292.107.447 0 .293-.16.604-.448.92M423.11 44.078c-.472-.865-1.468-1.337-2.678-1.337-.89 0-1.862.263-2.81.76-1.73.918-2.78 2.47-2.78 3.806 0 .37.077.738.262 1.08.47.868 1.468 1.315 2.678 1.315.89 0 1.862-.237 2.81-.733 1.73-.923 2.78-2.473 2.78-3.814 0-.365-.077-.735-.262-1.075m-1.128 1.784c-.447.447-1.34.997-2.285 1.526-.943.525-1.89.92-2.518 1.05-.132.03-.263.053-.395.053-.422 0-.738-.155-.92-.5-.08-.13-.13-.286-.13-.446 0-.287.18-.632.472-.92.447-.446 1.312-.996 2.256-1.52.947-.526 1.89-.92 2.522-1.05.132-.03.263-.054.394-.054.417 0 .758.156.942.496.078.132.107.292.107.447 0 .292-.16.603-.448.92M423.11 30.956c-.472-.865-1.468-1.337-2.678-1.337-.89 0-1.862.26-2.81.758-1.73.918-2.78 2.47-2.78 3.806 0 .37.077.738.262 1.08.47.868 1.468 1.315 2.678 1.315.89 0 1.862-.24 2.81-.735 1.73-.923 2.78-2.473 2.78-3.814 0-.364-.077-.734-.262-1.074m-1.128 1.784c-.447.447-1.34.997-2.285 1.526-.943.525-1.89.92-2.518 1.05-.132.03-.263.053-.395.053-.422 0-.738-.157-.92-.5-.08-.132-.13-.288-.13-.448 0-.287.18-.632.472-.92.447-.446 1.312-.996 2.256-1.52.947-.526 1.89-.92 2.522-1.05.132-.03.263-.054.394-.054.417 0 .758.156.942.496.078.132.107.292.107.447 0 .293-.16.604-.448.92M451.89 44.078c-.472-.865-1.468-1.337-2.678-1.337-.89 0-1.862.263-2.81.76-1.73.918-2.78 2.47-2.78 3.806 0 .37.077.738.262 1.08.47.868 1.468 1.315 2.678 1.315.89 0 1.862-.237 2.81-.733 1.73-.923 2.78-2.473 2.78-3.814 0-.365-.077-.735-.262-1.075m-1.128 1.784c-.447.447-1.34.997-2.285 1.526-.943.525-1.89.92-2.518 1.05-.132.03-.263.053-.395.053-.422 0-.738-.155-.92-.5-.08-.13-.13-.286-.13-.446 0-.287.18-.632.472-.92.447-.446 1.312-.996 2.256-1.52.947-.526 1.89-.92 2.522-1.05.132-.03.263-.054.394-.054.417 0 .758.156.942.496.078.132.107.292.107.447 0 .292-.16.603-.448.92M451.89 30.956c-.472-.865-1.468-1.337-2.678-1.337-.89 0-1.862.26-2.81.758-1.73.918-2.78 2.47-2.78 3.806 0 .37.077.738.262 1.08.47.868 1.468 1.315 2.678 1.315.89 0 1.862-.24 2.81-.735 1.73-.923 2.78-2.473 2.78-3.814 0-.364-.077-.734-.262-1.074m-1.128 1.784c-.447.447-1.34.997-2.285 1.526-.943.525-1.89.92-2.518 1.05-.132.03-.263.053-.395.053-.422 0-.738-.157-.92-.5-.08-.132-.13-.288-.13-.448 0-.287.18-.632.472-.92.447-.446 1.312-.996 2.256-1.52.947-.526 1.89-.92 2.522-1.05.132-.03.263-.054.394-.054.417 0 .758.156.942.496.078.132.107.292.107.447 0 .293-.16.604-.448.92M480.66 44.078c-.472-.865-1.468-1.337-2.678-1.337-.89 0-1.862.263-2.81.76-1.73.918-2.78 2.47-2.78 3.806 0 .37.077.738.262 1.08.47.868 1.468 1.315 2.678 1.315.89 0 1.862-.237 2.81-.733 1.73-.923 2.78-2.473 2.78-3.814 0-.365-.078-.735-.262-1.075m-1.128 1.784c-.447.447-1.34.997-2.285 1.526-.943.525-1.89.92-2.518 1.05-.132.03-.264.053-.395.053-.422 0-.738-.155-.92-.5-.08-.13-.13-.286-.13-.446 0-.287.18-.632.472-.92.447-.446 1.312-.996 2.256-1.52.947-.526 1.89-.92 2.522-1.05.132-.03.263-.054.394-.054.417 0 .758.156.942.496.078.132.107.292.107.447 0 .292-.16.603-.448.92M509.44 44.078c-.472-.865-1.468-1.337-2.678-1.337-.89 0-1.862.263-2.81.76-1.73.918-2.78 2.47-2.78 3.806 0 .37.077.738.262 1.08.47.868 1.468 1.315 2.678 1.315.89 0 1.862-.237 2.81-.733 1.73-.923 2.78-2.473 2.78-3.814 0-.365-.078-.735-.262-1.075m-1.128 1.784c-.447.447-1.34.997-2.285 1.526-.943.525-1.89.92-2.518 1.05-.132.03-.264.053-.395.053-.422 0-.738-.155-.92-.5-.08-.13-.13-.286-.13-.446 0-.287.18-.632.472-.92.447-.446 1.312-.996 2.256-1.52.947-.526 1.89-.92 2.522-1.05.132-.03.263-.054.394-.054.417 0 .758.156.942.496.078.132.107.292.107.447 0 .292-.16.603-.448.92M538.21 57.208c-.472-.865-1.468-1.337-2.678-1.337-.89 0-1.862.263-2.81.76-1.73.918-2.78 2.47-2.78 3.806 0 .37.077.738.262 1.08.47.868 1.468 1.315 2.678 1.315.89 0 1.862-.237 2.81-.733 1.73-.923 2.78-2.473 2.78-3.814 0-.365-.077-.735-.262-1.075m-1.128 1.784c-.447.447-1.34.997-2.285 1.526-.943.525-1.89.92-2.518 1.05-.132.03-.263.053-.395.053-.422 0-.738-.155-.918-.5-.082-.13-.132-.286-.132-.446 0-.287.18-.632.472-.92.447-.446 1.312-.996 2.256-1.52.947-.526 1.89-.92 2.522-1.05.132-.03.263-.054.394-.054.417 0 .758.156.942.496.078.132.107.292.107.447 0 .292-.16.603-.448.92M538.21 44.078c-.472-.865-1.468-1.337-2.678-1.337-.89 0-1.862.263-2.81.76-1.73.918-2.78 2.47-2.78 3.806 0 .37.077.738.262 1.08.47.868 1.468 1.315 2.678 1.315.89 0 1.862-.237 2.81-.733 1.73-.923 2.78-2.473 2.78-3.814 0-.365-.077-.735-.262-1.075m-1.128 1.784c-.447.447-1.34.997-2.285 1.526-.943.525-1.89.92-2.518 1.05-.132.03-.263.053-.395.053-.422 0-.738-.155-.918-.5-.082-.13-.132-.286-.132-.446 0-.287.18-.632.472-.92.447-.446 1.312-.996 2.256-1.52.947-.526 1.89-.92 2.522-1.05.132-.03.263-.054.394-.054.417 0 .758.156.942.496.078.132.107.292.107.447 0 .292-.16.603-.448.92M566.99 57.208c-.472-.865-1.468-1.337-2.678-1.337-.89 0-1.862.263-2.81.76-1.73.918-2.78 2.47-2.78 3.806 0 .37.077.738.262 1.08.47.868 1.468 1.315 2.678 1.315.89 0 1.862-.237 2.81-.733 1.73-.923 2.78-2.473 2.78-3.814 0-.365-.077-.735-.262-1.075m-1.128 1.784c-.447.447-1.34.997-2.285 1.526-.943.525-1.89.92-2.518 1.05-.132.03-.263.053-.395.053-.422 0-.738-.155-.918-.5-.082-.13-.132-.286-.132-.446 0-.287.18-.632.472-.92.447-.446 1.312-.996 2.256-1.52.947-.526 1.89-.92 2.522-1.05.132-.03.263-.054.394-.054.417 0 .758.156.942.496.078.132.107.292.107.447 0 .292-.16.603-.448.92M566.99 44.078c-.472-.865-1.468-1.337-2.678-1.337-.89 0-1.862.263-2.81.76-1.73.918-2.78 2.47-2.78 3.806 0 .37.077.738.262 1.08.47.868 1.468 1.315 2.678 1.315.89 0 1.862-.237 2.81-.733 1.73-.923 2.78-2.473 2.78-3.814 0-.365-.077-.735-.262-1.075m-1.128 1.784c-.447.447-1.34.997-2.285 1.526-.943.525-1.89.92-2.518 1.05-.132.03-.263.053-.395.053-.422 0-.738-.155-.918-.5-.082-.13-.132-.286-.132-.446 0-.287.18-.632.472-.92.447-.446 1.312-.996 2.256-1.52.947-.526 1.89-.92 2.522-1.05.132-.03.263-.054.394-.054.417 0 .758.156.942.496.078.132.107.292.107.447 0 .292-.16.603-.448.92M595.77 57.208c-.472-.865-1.468-1.337-2.678-1.337-.89 0-1.862.263-2.81.76-1.73.918-2.78 2.47-2.78 3.806 0 .37.077.738.262 1.08.47.868 1.468 1.315 2.678 1.315.89 0 1.862-.237 2.81-.733 1.73-.923 2.78-2.473 2.78-3.814 0-.365-.077-.735-.262-1.075m-1.128 1.784c-.447.447-1.34.997-2.285 1.526-.943.525-1.89.92-2.518 1.05-.132.03-.263.053-.395.053-.422 0-.738-.155-.918-.5-.082-.13-.132-.286-.132-.446 0-.287.18-.632.472-.92.447-.446 1.312-.996 2.256-1.52.947-.526 1.89-.92 2.522-1.05.132-.03.263-.054.394-.054.417 0 .758.156.942.496.078.132.107.292.107.447 0 .292-.16.603-.448.92M624.54 57.208c-.472-.865-1.468-1.337-2.678-1.337-.89 0-1.862.263-2.81.76-1.73.918-2.78 2.47-2.78 3.806 0 .37.077.738.262 1.08.47.868 1.468 1.315 2.678 1.315.89 0 1.862-.237 2.81-.733 1.73-.923 2.78-2.473 2.78-3.814 0-.365-.077-.735-.262-1.075m-1.128 1.784c-.447.447-1.34.997-2.285 1.526-.943.525-1.89.92-2.518 1.05-.132.03-.263.053-.395.053-.422 0-.738-.155-.918-.5-.082-.13-.132-.286-.132-.446 0-.287.18-.632.472-.92.447-.446 1.312-.996 2.256-1.52.947-.526 1.89-.92 2.522-1.05.132-.03.263-.054.394-.054.417 0 .758.156.942.496.078.132.107.292.107.447 0 .292-.16.603-.448.92M653.32 70.328c-.472-.865-1.468-1.337-2.678-1.337-.89 0-1.862.263-2.81.76-1.73.918-2.78 2.47-2.78 3.806 0 .37.077.738.262 1.08.47.868 1.468 1.315 2.678 1.315.89 0 1.862-.237 2.81-.733 1.73-.923 2.78-2.473 2.78-3.814 0-.365-.077-.735-.262-1.075m-1.128 1.784c-.447.447-1.34.997-2.285 1.526-.943.525-1.89.92-2.518 1.05-.132.03-.263.053-.395.053-.422 0-.738-.155-.918-.5-.082-.13-.132-.286-.132-.446 0-.287.18-.632.472-.92.447-.446 1.312-.996 2.256-1.52.947-.526 1.89-.92 2.522-1.05.132-.03.263-.054.394-.054.417 0 .758.156.942.496.078.132.107.292.107.447 0 .292-.16.603-.448.92M653.32 57.208c-.472-.865-1.468-1.337-2.678-1.337-.89 0-1.862.263-2.81.76-1.73.918-2.78 2.47-2.78 3.806 0 .37.077.738.262 1.08.47.868 1.468 1.315 2.678 1.315.89 0 1.862-.237 2.81-.733 1.73-.923 2.78-2.473 2.78-3.814 0-.365-.077-.735-.262-1.075m-1.128 1.784c-.447.447-1.34.997-2.285 1.526-.943.525-1.89.92-2.518 1.05-.132.03-.263.053-.395.053-.422 0-.738-.155-.918-.5-.082-.13-.132-.286-.132-.446 0-.287.18-.632.472-.92.447-.446 1.312-.996 2.256-1.52.947-.526 1.89-.92 2.522-1.05.132-.03.263-.054.394-.054.417 0 .758.156.942.496.078.132.107.292.107.447 0 .292-.16.603-.448.92M49.023 70.328c-.472-.865-1.468-1.337-2.678-1.337-.89 0-1.862.263-2.81.76-1.73.918-2.78 2.47-2.78 3.806 0 .37.077.738.262 1.08.47.868 1.468 1.315 2.678 1.315.89 0 1.862-.237 2.81-.733 1.73-.923 2.78-2.473 2.78-3.814 0-.365-.078-.735-.262-1.075m-1.128 1.784c-.447.447-1.34.997-2.285 1.526-.943.525-1.89.92-2.518 1.05-.13.03-.263.053-.394.053-.422 0-.738-.155-.918-.5-.083-.13-.132-.286-.132-.446 0-.287.18-.632.472-.92.447-.446 1.312-.996 2.256-1.52.947-.526 1.89-.92 2.522-1.05.132-.03.263-.054.394-.054.418 0 .76.156.943.496.078.132.107.292.107.447 0 .292-.16.603-.447.92"/><path class="Clef" d="M21.89 47.948c-.324-1.423-1.017-2.428-1.222-2.7-.837-1.123-1.89-1.87-3.122-2.226-.816-.23-1.603-.262-2.24-.213-.274-1.58-.536-3.123-.774-4.554 1.43-1.62 2.383-3.142 2.982-4.27.91-1.726 1.21-2.928 1.226-2.98.45-1.37.545-3.393.254-5.547-.262-1.982-.812-3.745-1.43-4.598-.268-.374-.547-.567-.817-.567-.32 0-.98.325-1.74 1.055-.602.574-1.46 1.595-2.132 3.174-.788 1.854-.845 4.344-.75 6.107.098 1.913.39 3.406.393 3.418.004.025.074.418.19 1.09-.06.062-.124.12-.19.186-.27.262-.583.557-.948.922-.225.226-.475.464-.738.718-2.215 2.137-5.574 5.373-5.574 10.402 0 1.235.238 2.395.706 3.45.414.943 1.017 1.804 1.788 2.56 2.03 1.984 4.81 2.825 6.66 2.784.776-.02 1.47-.082 2.097-.2.48 2.52.778 4.367.786 5.77.013 1.71-.422 2.756-1.444 3.482-.64.455-1.378.706-2.19.742-.68.033-1.275-.09-1.65-.196h-.003s-.074-.025-.078-.074.09-.062.09-.062h.008c.504-.115 1.44-.44 2.06-1.304.47-.664.7-1.88.216-2.912-.29-.628-.947-1.403-2.424-1.522-.656-.053-1.25.082-1.776.398-.476.283-.87.714-1.144 1.24-.644 1.233-.525 2.738.295 3.747.78.95 1.99 1.558 3.417 1.71.225.024.447.033.668.033 1.165 0 2.318-.316 3.257-.895.96-.676 1.517-1.722 1.693-3.2.148-1.217.045-2.77-.32-4.892-.094-.55-.238-1.345-.41-2.33 1.51-.504 2.6-1.443 3.59-2.98.864-1.507 1.11-3.11.737-4.767m-8.982 6.88c-1.22-.32-2.383-.975-3.368-1.898-.344-.32-.837-.89-1.222-1.78-.357-.833-.533-1.735-.517-2.674.018-1.235.362-2.502 1.018-3.757.767-1.464 1.965-2.916 3.557-4.314.38-.336.742-.673 1.078-1.01l.648 3.63c-1.008.333-2.255 1.162-3.07 2.646-.932 1.723-.895 3.175-.702 4.09.246 1.168.91 2.157 1.817 2.707.246.146 1.33.704 1.813.552.098-.028.168-.09.205-.176.135-.308-.136-.476-.542-.726-.16-.098-.335-.21-.524-.35-.873-.65-1.255-1.82-.972-2.972.152-.628.488-1.198.972-1.645.435-.406.972-.693 1.596-.86.537 2.952 1.08 5.88 1.51 8.075.032.18.07.356.102.533-1.15.247-2.29.222-3.396-.07m2.973-8.715c2.716-.123 3.836 1.83 4.07 3.097.123.67.123 1.833-.283 2.94-.308.833-.952 1.904-2.3 2.445-.017-.11-.038-.225-.058-.336-.407-2.304-.916-5.192-1.43-8.145M13.96 27.49c.467-1.505 1.185-2.358 1.71-2.813.46-.398.89-.587 1.132-.587.037 0 .07.008.094.017.124.036.263.184.386.414.607 1.125.41 2.888.057 4.053-.426 1.42-1.193 2.892-3.502 5.414-.045-.29-.086-.566-.127-.824-.33-2.174-.242-4.085.25-5.673"/></g><path class="StaffText" d="M4.31 12.208c2.216 0 3.688-1.307 3.688-3.32 0-1.695-1.27-2.49-2.452-3.216C4.273 4.89 3.173 4.212 3.173 3.2c0-1.422.93-1.93 1.948-1.93.968 0 1.56.656 2.034 1.843.05.136.27.235.472.235.136 0 .256-.05.256-.186 0-.54-.203-1.198-.34-1.674-.05-.17-.185-.355-.355-.422C6.815.913 6.22.69 5.41.69c-2.39 0-3.54 1.373-3.54 3.084 0 1.642 1.473 2.402 2.796 3.233 1.198.744 1.91 1.187 1.91 2.576 0 1.252-.864 2.063-2.03 2.063-.968 0-1.964-.674-2.406-2.42-.033-.135-.153-.185-.27-.185-.185 0-.338.084-.338.237.033.475.05 1.32.17 1.777.033.137.136.253.22.34.627.524 1.437.814 2.388.814M10.842 3.2c.48 0 .847-.373.847-.848 0-.492-.373-.864-.865-.864-.475 0-.847.372-.847.864 0 .475.38.848.864.848M9.47 11.985c.66 0 .78-.083 1.372-.083.59 0 .728.083 1.372.083.22 0 .34-.05.34-.186 0-.17-.203-.22-.385-.27-.452-.12-.72-.257-.72-.645V6.958c0-.76.144-2.018.144-2.287 0-.048-.033-.086-.103-.086-.065 0-.152.054-.235.12-.29.236-.884.645-1.786.848-.1.016-.154.083-.154.202 0 .137.054.203.174.22.587.086.777.628.777 1.236v3.675c0 .405-.26.525-.74.645-.19.05-.397.1-.397.27 0 .135.137.185.34.185m4.146 0c.678 0 .78-.083 1.372-.083.592 0 .695.083 1.373.083.204 0 .34-.05.34-.186 0-.17-.207-.204-.393-.27-.335-.104-.727-.186-.727-.645v-3.49c0-.574.136-.98.46-1.22.42-.334.896-.454 1.47-.454.728 0 1.356.795 1.356 1.61v3.555c0 .46-.405.54-.744.645-.186.066-.392.1-.392.27 0 .135.152.185.338.185.68 0 .815-.083 1.406-.083.595 0 .71.083 1.39.083.218 0 .338-.05.338-.186 0-.154-.17-.22-.388-.27-.34-.087-.76-.186-.76-.645v-3.49c0-.59.168-.98.47-1.22.426-.334.897-.454 1.476-.454.727 0 1.352.795 1.352 1.61v3.555c0 .46-.372.558-.728.645-.22.05-.388.1-.388.268 0 .137.136.186.34.186.677 0 .81-.082 1.404-.082.59 0 .662.082 1.336.082.256 0 .34-.05.34-.186 0-.152-.17-.202-.39-.268-.34-.104-.728-.186-.728-.645V7.28c0-1.187-.59-2.357-1.695-2.357-1.1 0-2.03.526-2.757 1.17h-.054c-.355-.863-.876-1.17-1.69-1.17-1.303 0-2.134.645-2.642 1.137h-.034c-.016-.016-.033-.103-.033-.202 0-.323.083-.935.083-1.083 0-.07-.05-.12-.1-.12-.07 0-.12.05-.152.066-.612.39-.815.662-1.728.88-.087.018-.137.072-.137.204 0 .136.05.207.153.223.574.1.644.608.644 1.216v3.642c0 .46-.41.54-.732.645-.22.066-.388.116-.388.27 0 .152.153.185.34.185M26.72 16.76c.662 0 .762-.083 1.353-.083.595 0 .934.083 1.592.083.136 0 .376-.017.376-.153 0-.17-.206-.236-.392-.302-.34-.104-.98-.186-.98-.645v-3.167c0-.1.017-.864.066-.864.34.305 1.22.54 1.695.54 2.132 0 3.807-2.03 3.807-4.047 0-1.59-1.034-3.2-2.774-3.2-1.067 0-2.423.798-2.745 1.12-.017-.016-.017-.086-.017-.152 0-.272.088-.814.088-1.016 0-.066-.053-.153-.103-.153-.017 0-.017.017-.033.017-.542.224-1.1.476-1.964.678-.07.017-.12.104-.12.203 0 .103.05.203.137.223.558.117.777.98.777 1.237v8.583c0 .46-.39.54-.728.645-.186.066-.39.132-.39.302 0 .136.237.152.357.152m3.962-5.114c-.914 0-2.014-1.15-2.014-2.522 0-.405.05-1.576.05-2.555 0-.24 1.05-.882 1.864-.882.728 0 2.303.372 2.303 2.98 0 2.266-1.542 2.978-2.203 2.978m4.808.34c.657 0 .777-.084 1.368-.084.595 0 .715.083 1.372.083.12 0 .34-.017.34-.153 0-.17-.203-.236-.39-.302-.338-.104-.727-.186-.727-.645V2.418c0-1.52.12-2.1.12-2.303 0-.05-.037-.115-.087-.115-.033 0-.066.016-.103.033-.542.202-1.046.455-1.91.657-.07.02-.12.103-.12.207 0 .1.05.202.137.22.558.12.777.574.777 1.235v8.533c0 .46-.39.54-.728.645-.187.066-.39.132-.39.302 0 .136.22.153.34.153m7.007.202c.897 0 1.76-.388 2.27-1.046.202-.255.306-.49.306-.714 0-.1-.05-.165-.137-.165-.066 0-.1.017-.186.133-.422.492-.98.765-1.658.765-1.438 0-2.608-1.323-2.608-2.948 0-.492.103-.628.42-.628h3.577c.357 0 .506-.17.506-.525 0-1.253-.964-2.134-2.32-2.134-1.777 0-3.266 1.63-3.266 3.576 0 2.215 1.237 3.687 3.097 3.687m-1.555-5.13c-.136 0-.206-.05-.206-.17 0-.674.9-1.472 1.678-1.472.794 0 1.456.542 1.456 1.187 0 .236-.034.355-.137.372-.372.066-.71.083-1.252.083h-1.537m8.867 4.96s1.44-.082 2.286-.082c1.696 0 3.54.083 5.81.083.168 0 .218-.133.234-.286.07-.71.224-1.27.46-2.15 0-.016.016-.053.016-.086 0-.137-.066-.306-.203-.306-.153 0-.322.376-.372.508-.288.612-.44.815-.88 1.203-.218.204-.71.444-1.322.444h-2.1c-1.116 0-1.302-.34-1.302-1.034V2.335c0-.66.66-.78 1.508-.934.39-.065.558-.185.558-.334 0-.136-.202-.186-.49-.186-.915 0-1.304.05-2.135.05-.744 0-.983-.05-1.897-.05-.286 0-.492.05-.492.186 0 .15.17.27.562.335.844.154 1.03.24 1.03 1.05v7.86c0 .744-.488 1.05-1.37 1.22-.07.016-.37.083-.37.285 0 .12.168.203.47.203m12.563.17c.898 0 1.76-.39 2.27-1.047.203-.255.306-.49.306-.714 0-.1-.05-.165-.137-.165-.067 0-.1.017-.186.133-.422.492-.98.765-1.658.765-1.44 0-2.61-1.323-2.61-2.948 0-.492.103-.628.422-.628h3.576c.355 0 .504-.17.504-.525 0-1.253-.963-2.134-2.32-2.134-1.777 0-3.265 1.63-3.265 3.577 0 2.215 1.236 3.687 3.096 3.687m-1.554-5.13c-.137 0-.208-.05-.208-.17 0-.674.9-1.47 1.68-1.47.793 0 1.454.54 1.454 1.185 0 .236-.033.356-.137.372-.373.066-.71.083-1.253.083H60.82m11.798-1.69c-.17 0-.66.048-.93.048-.34 0-.596-.016-1.137-.17-.47-.136-.913-.355-1.574-.355-1.538 0-2.944 1.1-2.944 2.675 0 .897.575 1.728 1.352 2.187-.132.203-.285.318-.946.81-.274.22-.39.41-.39.63 0 .64.406 1.016 1.49 1.218-.542.438-1.1.864-1.423 1.133-.39.306-.558.678-.558 1.27 0 1.252 1.186 2.033 3.117 2.033 1.827 0 3.774-1.864 3.774-3.61 0-1.028-1-1.59-3.08-1.706-1.442-.087-2.203-.372-2.203-.848 0-.202.306-.508.71-.71.29.12.596.17.898.17 1.456 0 2.692-1.473 2.692-3.2 0-.307.053-.63.103-.783.033-.083.202-.133.508-.133h.455c.038 0 .088-.037.137-.087.104-.1.17-.235.17-.322 0-.153-.1-.252-.22-.252m-3.74 4.184c-.88 0-1.625-1-1.625-2.187 0-1.034.71-1.964 1.505-1.964.83 0 1.608.896 1.608 1.88 0 1.286-.64 2.27-1.49 2.27m2.54 4.23c0 .78-.34 1.508-.897 1.93-.405.305-.93.458-1.608.458-1.17 0-2.084-.71-2.084-1.608 0-.864.34-1.405 1.323-2.067.218.033.454.05.726.07 1.795.116 2.54.472 2.54 1.216m3.298-1.61c.728 0 1.372-.268 2.117-.88h.05c.306.596.71.88 1.236.88.356 0 .815-.235 1.17-.59.104-.104.186-.273.186-.373 0-.103-.082-.186-.186-.186-.033 0-.066.018-.136.084-.153.136-.34.186-.624.186-.372 0-.63-.318-.612-.794L78 6.432c.017-.863-.574-1.508-1.39-1.508-.677 0-1.76.508-2.52 1.203-.426.372-.678.814-.678 1.17 0 .082.066.153.186.153.34 0 1.116-.426 1.116-.596l-.017-.3c0-.208.033-.394.17-.493.22-.185.59-.305.93-.305.645 0 1.017.492 1 1.083l-.033 1.083c-.016.46-.033.493-.475.68l-1.73.71c-.826.34-1.198.694-1.198 1.406 0 .628.744 1.455 1.352 1.455m.798-.81c-.41 0-.83-.306-.83-.897 0-.393.388-.864 1.59-1.306.187-.066.29-.083.34-.083.136 0 .17.1.152.356l-.033.83c-.02.422-.102.575-.222.69-.252.257-.558.41-.996.41m7.176.81c1.034 0 1.98-.843 1.98-1.03 0-.12-.032-.238-.115-.238-.016 0-.054.016-.07.033-.285.206-.59.305-1.253.305-.728 0-1.116-.54-1.116-1.455V6.45c0-.46.1-.476.678-.476h1.674c.087 0 .17-.236.17-.438 0-.203-.083-.372-.17-.372h-1.93c-.286 0-.44-.07-.406-.323l.083-.76c.02-.153-.116-.186-.22-.186-.12 0-.185.083-.284.203-.307.372-.85.897-1.51 1.352-.033.015-.12.135-.12.185 0 .17.087.34.203.34h.103c.442 0 .54.07.54.255v3.928c0 1.34.663 2.013 1.763 2.013m6.076 0c2.542 0 3.828-1.86 3.828-3.84 0-1.83-1.526-3.406-3.49-3.406-2.08 0-3.707 1.963-3.707 3.844 0 1.98 1.475 3.403 3.37 3.403m.354-.508c-1.35 0-2.334-1.608-2.334-3.282 0-.815.086-1.68.54-2.253.41-.525.882-.678 1.494-.678 1.438 0 2.385 1.677 2.385 3.286 0 .66-.066 1.47-.34 1.996-.338.66-.98.93-1.744.93"/></svg>