<?xml version="1.0" encoding="UTF-8" standalone="no"?>
<!-- Created with Inkscape (http://www.inkscape.org/) -->

<svg
   width="16.933332mm"
   height="4.2333331mm"
   viewBox="0 0 16.933332 4.2333331"
   version="1.1"
   id="svg5"
   xml:space="preserve"
   xmlns="http://www.w3.org/2000/svg"
   xmlns:svg="http://www.w3.org/2000/svg"><defs
     id="defs2" /><g
     id="layer1"
     transform="translate(-0.89876964,-0.95316491)"><rect
       style="fill:#d40000;fill-opacity:0.737985;stroke:none;stroke-width:3.55014;stroke-linecap:round;stroke-linejoin:bevel;stroke-dasharray:none;stop-color:#000000"
       id="rect528"
       width="16.933332"
       height="4.2333331"
       x="0.89876962"
       y="0.95316494"
       rx="0.64956474"
       ry="0.65245068" /><g
       style="fill:none;stroke:currentColor;stroke-width:2;stroke-linecap:round;stroke-linejoin:round"
       id="g144"
       transform="matrix(0.13078602,0,0,0.13078602,2.0731531,1.4843977)"><path
         stroke="none"
         d="M 0,0 H 24 V 24 H 0 Z"
         fill="none"
         id="path132" /><path
         d="M 17,20 H 6 a 3,3 0 0 1 0,-6 h 11 a 3,3 0 0 0 0,6 h 1 a 3,3 0 0 0 3,-3 V 6 A 2,2 0 0 0 19,4 H 9 A 2,2 0 0 0 7,6 v 8"
         id="path134"
         style="stroke:#ffffff;stroke-width:1.99937;stroke-dasharray:none;stroke-opacity:1" /></g><text
       xml:space="preserve"
       style="font-size:3.20739px;line-height:1.25;font-family:'Droid Serif';-inkscape-font-specification:'Droid Serif';word-spacing:0px;stroke-width:0.0801849"
       x="5.1028619"
       y="4.4561982"
       id="text358"
       transform="scale(1.0785963,0.92713093)"><tspan
         id="tspan356"
         style="font-style:normal;font-variant:normal;font-weight:normal;font-stretch:normal;font-family:'IBM Plex Sans';-inkscape-font-specification:'IBM Plex Sans';fill:#ffffff;stroke-width:0.0801849"
         x="5.1028619"
         y="4.4561982">DRAFT</tspan></text></g></svg>
