<?xml version="1.0" encoding="UTF-8" standalone="no"?>
<!-- Created with Inkscape (http://www.inkscape.org/) -->

<svg
   width="512"
   height="96"
   viewBox="0 0 135.46666 25.4"
   version="1.1"
   id="svg1"
   inkscape:version="1.3.2 (091e20ef0f, 2023-11-25)"
   sodipodi:docname="halloween.svg"
   xmlns:inkscape="http://www.inkscape.org/namespaces/inkscape"
   xmlns:sodipodi="http://sodipodi.sourceforge.net/DTD/sodipodi-0.dtd"
   xmlns="http://www.w3.org/2000/svg"
   xmlns:svg="http://www.w3.org/2000/svg">
  <sodipodi:namedview
     id="namedview1"
     pagecolor="#ffffff"
     bordercolor="#666666"
     borderopacity="1.0"
     inkscape:showpageshadow="2"
     inkscape:pageopacity="0.0"
     inkscape:pagecheckerboard="0"
     inkscape:deskcolor="#d1d1d1"
     inkscape:document-units="mm"
     inkscape:zoom="1.0544998"
     inkscape:cx="193.45666"
     inkscape:cy="73.494563"
     inkscape:window-width="1920"
     inkscape:window-height="1080"
     inkscape:window-x="0"
     inkscape:window-y="0"
     inkscape:window-maximized="1"
     inkscape:current-layer="layer1" />
  <defs
     id="defs1" />
  <g
     inkscape:label="Layer 1"
     inkscape:groupmode="layer"
     id="layer1">
    <rect
       style="fill:#f57029;stroke-width:0.195295;stroke-linecap:round;stroke-linejoin:bevel"
       id="rect1"
       width="135.46666"
       height="25.4"
       x="0"
       y="0" />
    <rect
       style="fill:#000000;fill-opacity:1;stroke:#000000;stroke-width:0.264583;stroke-linecap:round;stroke-linejoin:bevel;stroke-dasharray:none;stroke-opacity:1"
       id="rect3"
       width="0.64314586"
       height="5.122983"
       x="15.568549"
       y="18.207663" />
    <rect
       style="fill:#000000;fill-opacity:1;stroke:#000000;stroke-width:0.264583;stroke-linecap:round;stroke-linejoin:bevel;stroke-dasharray:none;stroke-opacity:1"
       id="rect3-6"
       width="0.64314586"
       height="5.122983"
       x="18.729465"
       y="18.160585" />
    <path
       style="fill:#feede5;fill-opacity:1;stroke:#000000;stroke-width:0.264583px;stroke-linecap:butt;stroke-linejoin:miter;stroke-opacity:1"
       d="m 2.3889362,21.494833 c 0,0 2.4398803,-0.863581 3.5252534,-3.341991 1.5360795,-3.50758 1.0200755,-2.181385 1.9020355,-6.101607 1.164883,-5.1777828 1.945509,-6.6612176 3.9030009,-8.5657993 1.50517,-1.4644854 3.054233,-2.3927074 6.973483,-1.9172553 3.075862,0.373139 4.07727,3.5127234 4.453632,5.2690864 0.376365,1.756361 2.069997,8.6563552 1.505455,12.6708972 -0.390643,2.777913 -0.50182,1.944543 -0.50182,1.944543 0,0 -0.125453,-2.948178 -1.881815,-2.948178 -1.756362,0 -3.673942,1.688482 -4.26545,2.759996 0,0 -0.709571,-1.817382 -1.838768,-2.695423 -1.125055,-0.874819 -2.392471,-0.400451 -3.377701,0.421753 -0.693519,0.578762 -2.342161,2.305035 -2.342161,2.305035 0,0 -0.7290529,-1.519924 -1.1918169,-1.944545 -0.751944,-0.689966 -1.560894,-0.957054 -2.438751,-0.0681 -0.4060148,0.411147 -0.9641603,0.816434 -1.4430805,1.089841 -1.4889673,0.850025 -1.5056015,0.824549 -2.9814964,1.121747 z"
       id="path1"
       sodipodi:nodetypes="csssssscsssscsssc" />
    <ellipse
       style="fill:#0a0300;fill-opacity:1;stroke-width:0.194998;stroke-linecap:round;stroke-linejoin:bevel"
       id="path2"
       cx="14.584077"
       cy="7.3390841"
       rx="0.90954465"
       ry="1.5681803" />
    <ellipse
       style="fill:#0a0300;fill-opacity:1;stroke-width:0.194998;stroke-linecap:round;stroke-linejoin:bevel"
       id="path2-5"
       cx="20.180721"
       cy="7.2257962"
       rx="0.90954465"
       ry="1.5681803" />
    <ellipse
       style="fill:none;fill-opacity:1;stroke:#000000;stroke-width:0.26458333;stroke-linecap:round;stroke-linejoin:bevel;stroke-opacity:1;stroke-dasharray:none"
       id="path3"
       cx="17.563622"
       cy="13.549078"
       rx="0.75272661"
       ry="2.4463613" />
    <text
       xml:space="preserve"
       style="font-size:12.1617px;line-height:1.25;font-family:'Droid Serif';-inkscape-font-specification:'Droid Serif';word-spacing:0px;stroke-width:0.304043"
       x="38.30751"
       y="15.403127"
       id="text3"
       transform="scale(0.80963865,1.2351189)"><tspan
         sodipodi:role="line"
         id="tspan3"
         style="font-style:normal;font-variant:normal;font-weight:normal;font-stretch:normal;font-family:'DejaVu Sans';-inkscape-font-specification:'DejaVu Sans';stroke-width:0.304043"
         x="38.30751"
         y="15.403127">HAPPY HALLOWEEN</tspan></text>
    <path
       style="fill:#000000;fill-opacity:1;stroke:#000000;stroke-width:0.200044px;stroke-linecap:butt;stroke-linejoin:miter;stroke-opacity:1"
       d="m 18.416368,23.064196 -0.338623,0.939476 0.404162,0.115826 -0.02184,0.84939 h 0.895713 l 0.0064,-0.261807 0.258145,0.01077 c 0.174328,0.112207 0.211236,0.148589 0.378701,0.211781 0.09921,0.03743 0.456021,0.03992 0.656631,0.03926 l 1.703327,-0.0057 c 0,0 -0.157646,-0.183804 -0.358426,-0.248741 -0.293068,-0.09479 -0.607693,-0.140749 -0.83251,-0.249457 -0.264481,-0.127888 -0.556085,-0.577189 -0.654395,-0.628667 -0.09831,-0.05148 0.05462,-0.193043 0.05462,-0.193043 l -0.808337,-0.527645 z"
       id="path4-9"
       sodipodi:nodetypes="cccccccsscsssccc" />
    <path
       style="fill:#000000;fill-opacity:1;stroke:#000000;stroke-width:0.200044px;stroke-linecap:butt;stroke-linejoin:miter;stroke-opacity:1"
       d="m 15.17429,23.147304 -0.338623,0.939476 0.404162,0.115826 -0.02184,0.84939 h 0.895713 l 0.0064,-0.261807 0.258145,0.01077 c 0.174328,0.112207 0.211236,0.148589 0.378701,0.211781 0.09921,0.03743 0.456021,0.03992 0.656631,0.03926 l 1.703327,-0.0057 c 0,0 -0.157646,-0.183804 -0.358426,-0.248741 -0.293068,-0.09479 -0.607693,-0.140749 -0.83251,-0.249457 -0.264481,-0.127888 -0.556085,-0.577189 -0.654395,-0.628667 -0.09831,-0.05148 0.05462,-0.193043 0.05462,-0.193043 l -0.808337,-0.527645 z"
       id="path4-9-8"
       sodipodi:nodetypes="cccccccsscsssccc" />
    <path
       style="fill:none;stroke:#000000;stroke-width:0.264583px;stroke-linecap:butt;stroke-linejoin:miter;stroke-opacity:1"
       d="M 29.983871,6.6532256 128.62903,3.1048385"
       id="path4" />
    <path
       style="fill:none;stroke:#000000;stroke-width:0.264583px;stroke-linecap:butt;stroke-linejoin:miter;stroke-opacity:1"
       d="M 29.263157,20.672663 127.90831,24.22105"
       id="path4-0" />
  </g>
</svg>
