<?xml version="1.0" encoding="UTF-8" standalone="no"?>
<!-- Created with Inkscape (http://www.inkscape.org/) -->

<svg
   xmlns:dc="http://purl.org/dc/elements/1.1/"
   xmlns:cc="http://creativecommons.org/ns#"
   xmlns:rdf="http://www.w3.org/1999/02/22-rdf-syntax-ns#"
   xmlns:svg="http://www.w3.org/2000/svg"
   xmlns="http://www.w3.org/2000/svg"
   xmlns:sodipodi="http://sodipodi.sourceforge.net/DTD/sodipodi-0.dtd"
   xmlns:inkscape="http://www.inkscape.org/namespaces/inkscape"
   width="128"
   height="128"
   viewBox="0 0 33.866666 33.866668"
   version="1.1"
   id="svg8"
   inkscape:version="0.92.3 (2405546, 2018-03-11)"
   sodipodi:docname="snail.svg">
  <defs
     id="defs2" />
  <sodipodi:namedview
     id="base"
     pagecolor="#ffffff"
     bordercolor="#666666"
     borderopacity="1.0"
     inkscape:pageopacity="0.0"
     inkscape:pageshadow="2"
     inkscape:zoom="5.6"
     inkscape:cx="178.41907"
     inkscape:cy="29.354698"
     inkscape:document-units="px"
     inkscape:current-layer="layer1"
     showgrid="false"
     units="px"
     inkscape:window-width="3840"
     inkscape:window-height="2035"
     inkscape:window-x="-13"
     inkscape:window-y="-13"
     inkscape:window-maximized="1" />
  <metadata
     id="metadata5">
    <rdf:RDF>
      <cc:Work
         rdf:about="">
        <dc:format>image/svg+xml</dc:format>
        <dc:type
           rdf:resource="http://purl.org/dc/dcmitype/StillImage" />
        <dc:title></dc:title>
      </cc:Work>
    </rdf:RDF>
  </metadata>
  <g
     inkscape:label="Layer 1"
     inkscape:groupmode="layer"
     id="layer1"
     transform="translate(0,-263.13332)">
    <path
       style="fill:none;stroke:#000000;stroke-width:0.5291667;stroke-linecap:butt;stroke-linejoin:miter;stroke-miterlimit:4;stroke-dasharray:none;stroke-opacity:1"
       d="m 19.777946,280.39587 c 7.951268,0 6.280833,-9.2208 -0.367496,-9.35443 -3.841999,0.10022 -5.823811,3.00771 -5.913339,6.71514 -0.09602,3.9762 2.004522,7.18288 5.813113,7.14946 5.178347,0.13364 6.915599,-1.53679 8.586033,-2.73951 -0.701582,3.17383 -2.138156,5.31199 -4.744034,6.24743 -1.731996,0.62174 -8.853303,1.10248 -12.027129,0.0334 -3.1738254,-1.06908 -3.8221473,-3.23043 -4.1426775,-5.04472 -0.3478165,-1.96874 -0.3419664,-5.34319 -0.033409,-7.21628 0.2832086,-1.71921 0.8352173,-5.07811 0.8352173,-5.07811 l 1.7372519,3.842 2.9399653,-4.04245 -0.06682,4.27631"
       id="path22"
       inkscape:connector-curvature="0"
       sodipodi:nodetypes="ccsccsssscccc" />
    <path
       style="fill:none;stroke:#000000;stroke-width:0.5291667;stroke-linecap:butt;stroke-linejoin:round;stroke-miterlimit:4;stroke-dasharray:none;stroke-opacity:1"
       d="m 19.777946,280.39587 c -3.608139,0 -2.238383,-4.44336 0.601356,-3.94222"
       id="path829"
       inkscape:connector-curvature="0"
       sodipodi:nodetypes="cc" />
  </g>
</svg>
