<?xml version="1.0" standalone="no"?>
<!DOCTYPE svg PUBLIC "-//W3C//DTD SVG 20010904//EN"
 "http://www.w3.org/TR/2001/REC-SVG-20010904/DTD/svg10.dtd">
<svg version="1.0" xmlns="http://www.w3.org/2000/svg"
 width="700.000000pt" height="700.000000pt" viewBox="0 0 700.000000 700.000000"
 preserveAspectRatio="xMidYMid meet">
<metadata>
Created by potrace 1.14, written by Peter Selinger 2001-2017
</metadata>
<g transform="translate(0.000000,700.000000) scale(0.100000,-0.100000)"
fill="#000000" stroke="none">
<path d="M210 3500 l0 -3290 3290 0 3290 0 0 3290 0 3290 -3290 0 -3290 0 0
-3290z m2160 1979 c21 -12 47 -38 59 -59 20 -36 21 -51 20 -271 -1 -129 -4
-376 -8 -549 -6 -308 -7 -316 -30 -353 -62 -100 -202 -102 -275 -3 -20 26 -21
40 -21 306 0 207 -3 276 -11 267 -6 -7 -99 -129 -206 -272 -108 -143 -206
-270 -219 -282 -35 -31 -100 -46 -147 -34 -63 17 -94 62 -200 289 -55 117
-102 215 -104 217 -6 6 -138 -803 -149 -915 -5 -58 -13 -247 -16 -420 -11
-637 44 -1080 172 -1380 178 -416 589 -664 1235 -744 277 -35 400 -41 835 -41
755 0 1316 58 1590 166 305 119 539 320 714 613 55 94 134 256 127 263 -1 2
-38 -17 -82 -42 -427 -245 -921 -355 -1592 -355 -297 0 -442 20 -642 86 -563
187 -952 726 -1029 1426 -16 143 -14 447 4 585 61 459 228 813 512 1083 385
366 968 498 1527 346 115 -32 193 -64 327 -133 387 -200 673 -581 745 -993 24
-137 15 -352 -20 -477 -126 -455 -515 -755 -1086 -837 -391 -56 -654 -15 -834
131 -175 141 -235 386 -152 624 37 105 81 174 176 270 71 72 101 93 180 132
125 62 200 80 330 81 136 1 173 -7 221 -51 87 -79 69 -212 -36 -263 -38 -19
-54 -20 -127 -14 -191 15 -342 -69 -421 -235 -35 -75 -42 -175 -15 -226 58
-109 198 -154 442 -141 479 25 806 189 951 478 62 124 79 210 72 367 -6 148
-28 234 -92 368 -224 463 -785 728 -1339 633 -572 -98 -933 -502 -1032 -1155
-22 -147 -22 -442 1 -590 53 -355 180 -632 384 -836 161 -160 341 -257 571
-305 103 -21 501 -30 712 -15 512 36 880 151 1235 384 54 36 156 106 227 156
120 85 132 91 178 91 98 0 158 -53 166 -144 5 -62 -19 -160 -94 -386 -209
-628 -581 -1038 -1124 -1240 -194 -72 -533 -124 -1055 -162 -265 -19 -1026
-16 -1255 5 -476 45 -751 110 -1025 242 -156 75 -281 162 -400 276 -292 281
-428 628 -492 1249 -25 245 -25 930 0 1170 22 210 232 1452 254 1503 44 100
180 123 258 44 20 -21 83 -145 184 -362 85 -181 155 -331 156 -333 2 -2 132
167 289 376 206 273 295 384 319 396 45 22 112 20 157 -5z"/>
</g>
</svg>
